M48
; DRILL file {KiCad 8.0.6} date 2025-01-21T23:53:39+0100
; FORMAT={-:-/ absolute / inch / decimal}
; #@! TF.CreationDate,2025-01-21T23:53:39+01:00
; #@! TF.GenerationSoftware,Kicad,Pcbnew,8.0.6
; #@! TF.FileFunction,Plated,1,4,PTH
FMAT,2
INCH
; #@! TA.AperFunction,Plated,PTH,ViaDrill
T1C0.0118
; #@! TA.AperFunction,Plated,PTH,ComponentDrill
T2C0.0240
%
G90
G05
T1
X4.7323Y-4.5787
X4.7372Y-4.7972
X4.7402Y-4.7402
X4.7402Y-4.8386
X4.7421Y-4.6476
X4.7441Y-4.6929
X4.7913Y-4.5787
X4.8031Y-4.4567
X4.8268Y-4.4803
X4.8268Y-4.5079
X4.8307Y-4.5866
X4.8691Y-4.8376
X4.8927Y-4.5541
X4.8976Y-4.4567
X4.9075Y-4.7982
X4.9646Y-4.7402
X4.9724Y-4.6535
X4.9764Y-4.624
X4.9843Y-4.7638
X5.0187Y-4.4449
X5.0669Y-4.4852
X5.0719Y-4.4587
X5.0787Y-4.5945
X5.1043Y-4.4665
X5.1073Y-4.5955
X5.1122Y-4.5108
X5.1457Y-4.6929
X5.1476Y-4.7618
X5.1732Y-4.686
X5.2028Y-4.685
X5.2165Y-4.5118
X5.2323Y-4.685
X5.25Y-4.5148
X5.2618Y-4.685
X5.2913Y-4.685
X5.3209Y-4.685
X5.3258Y-4.4961
X5.3504Y-4.685
X5.3583Y-4.6535
X5.3799Y-4.685
X5.4213Y-4.5157
X5.435Y-4.4508
X5.4414Y-4.5398
X5.4724Y-4.4419
X5.4823Y-4.5807
X5.4941Y-4.6043
X5.5236Y-4.5492
X5.5256Y-4.5768
X5.5266Y-4.6152
X5.5276Y-4.685
X5.5413Y-4.5256
X5.5561Y-4.685
X5.5581Y-4.5866
X5.561Y-4.5059
X5.5866Y-4.7648
X5.5866Y-4.7874
X5.5886Y-4.5118
X5.6467Y-4.4419
X5.6614Y-4.6122
X5.6624Y-4.5807
X5.6772Y-4.4409
X5.6772Y-4.7933
X5.687Y-4.7461
X5.6988Y-4.5797
X5.6998Y-4.6132
X5.7047Y-4.4419
X5.7333Y-4.4419
X5.748Y-4.7795
X5.7648Y-4.4902
X5.7785Y-4.4675
X5.7785Y-4.5118
X5.7795Y-4.6969
X5.815Y-4.5817
X5.815Y-4.6211
X5.8189Y-4.5512
X5.8189Y-4.7126
X5.8543Y-4.748
X5.8612Y-4.4587
X5.8661Y-4.8346
X5.8809Y-4.5128
X5.8976Y-4.4833
X5.8976Y-4.6516
X5.8976Y-4.7657
X5.8986Y-4.5689
X5.9409Y-4.7736
X5.9429Y-4.6575
X5.9457Y-4.5146
X5.9469Y-4.5571
X5.9577Y-4.8386
X5.9882Y-4.44
X6.0404Y-4.8366
X6.0492Y-4.5087
X6.064Y-4.6319
T2
X5.1469Y-4.5827
X5.1969Y-4.5827
X5.2469Y-4.5827
X5.2969Y-4.5827
X5.3469Y-4.5827
X5.3969Y-4.5827
M30
