M48
; DRILL file {KiCad 8.0.7} date 2025-03-09T23:38:27+0100
; FORMAT={-:-/ absolute / metric / decimal}
; #@! TF.CreationDate,2025-03-09T23:38:27+01:00
; #@! TF.GenerationSoftware,Kicad,Pcbnew,8.0.7
; #@! TF.FileFunction,Plated,1,4,PTH
FMAT,2
METRIC
; #@! TA.AperFunction,Plated,PTH,ViaDrill
T1C0.300
; #@! TA.AperFunction,Plated,PTH,ComponentDrill
T2C0.610
%
G90
G05
T1
X120.2Y-116.3
X120.325Y-121.85
X120.4Y-120.4
X120.4Y-122.9
X120.45Y-118.05
X120.5Y-119.2
X121.7Y-116.3
X122.0Y-113.2
X122.6Y-113.8
X122.6Y-114.5
X122.7Y-116.5
X123.675Y-122.875
X124.275Y-115.675
X124.4Y-113.2
X124.65Y-121.875
X126.3Y-118.2
X126.4Y-117.45
X126.6Y-121.0
X127.475Y-112.9
X128.7Y-113.925
X128.825Y-113.25
X129.0Y-116.7
X129.65Y-113.45
X129.725Y-116.725
X129.85Y-114.575
X130.7Y-119.2
X130.75Y-120.95
X131.4Y-119.025
X132.15Y-119.0
X132.5Y-114.6
X132.9Y-119.0
X133.35Y-114.675
X133.65Y-119.0
X134.4Y-119.0
X135.15Y-119.0
X135.275Y-114.2
X135.55Y-118.35
X135.9Y-119.0
X136.65Y-119.0
X137.65Y-114.65
X138.05Y-113.05
X138.211Y-115.311
X138.573Y-116.473
X139.0Y-112.825
X139.15Y-116.8
X139.775Y-116.475
X140.3Y-115.55
X140.4Y-119.0
X140.75Y-114.95
X140.8Y-116.025
X140.95Y-117.275
X141.125Y-119.0
X141.25Y-114.45
X141.9Y-121.025
X141.9Y-121.6
X141.95Y-114.6
X143.3Y-115.9
X143.3Y-116.8
X143.425Y-112.825
X143.425Y-121.75
X143.8Y-115.4
X143.8Y-117.15
X143.825Y-116.35
X144.2Y-112.8
X144.2Y-121.75
X144.3Y-116.7
X144.45Y-120.55
X144.75Y-116.325
X144.775Y-117.175
X144.8Y-117.9
X144.9Y-112.825
X145.6Y-116.4
X145.6Y-117.2
X145.6Y-117.9
X145.625Y-112.825
X145.9Y-115.6
X146.1Y-121.1
X146.1Y-121.7
X146.425Y-114.05
X146.5Y-119.15
X146.775Y-113.475
X146.775Y-114.6
X147.1Y-119.4
X147.7Y-116.375
X147.7Y-117.375
X147.7Y-123.2
X147.8Y-115.6
X147.85Y-120.15
X148.45Y-120.2
X148.875Y-113.25
X148.887Y-120.55
X149.0Y-122.5
X149.0Y-123.1
X149.35Y-120.95
X149.375Y-114.625
X149.4Y-117.95
X149.8Y-113.875
X149.825Y-116.05
X149.9Y-118.3
X149.9Y-121.0
X150.45Y-118.5
X150.5Y-121.0
X150.65Y-117.85
X151.02Y-114.67
X151.05Y-115.75
X151.1Y-118.6
X151.1Y-121.275
X151.325Y-122.9
X152.1Y-112.775
X152.4Y-121.25
X152.45Y-118.3
X153.425Y-122.85
X153.65Y-114.52
X153.95Y-121.3
X154.0Y-119.75
X154.025Y-117.65
X154.1Y-116.125
T2
X130.73Y-116.4
X132.0Y-116.4
X133.27Y-116.4
X134.54Y-116.4
X135.81Y-116.4
X137.08Y-116.4
M30
