%TF.GenerationSoftware,KiCad,Pcbnew,8.0.7*%
%TF.CreationDate,2025-03-09T23:38:14+01:00*%
%TF.ProjectId,HSSM-LVPCB,4853534d-2d4c-4565-9043-422e6b696361,rev?*%
%TF.SameCoordinates,Original*%
%TF.FileFunction,Paste,Top*%
%TF.FilePolarity,Positive*%
%FSLAX46Y46*%
G04 Gerber Fmt 4.6, Leading zero omitted, Abs format (unit mm)*
G04 Created by KiCad (PCBNEW 8.0.7) date 2025-03-09 23:38:14*
%MOMM*%
%LPD*%
G01*
G04 APERTURE LIST*
G04 Aperture macros list*
%AMRoundRect*
0 Rectangle with rounded corners*
0 $1 Rounding radius*
0 $2 $3 $4 $5 $6 $7 $8 $9 X,Y pos of 4 corners*
0 Add a 4 corners polygon primitive as box body*
4,1,4,$2,$3,$4,$5,$6,$7,$8,$9,$2,$3,0*
0 Add four circle primitives for the rounded corners*
1,1,$1+$1,$2,$3*
1,1,$1+$1,$4,$5*
1,1,$1+$1,$6,$7*
1,1,$1+$1,$8,$9*
0 Add four rect primitives between the rounded corners*
20,1,$1+$1,$2,$3,$4,$5,0*
20,1,$1+$1,$4,$5,$6,$7,0*
20,1,$1+$1,$6,$7,$8,$9,0*
20,1,$1+$1,$8,$9,$2,$3,0*%
G04 Aperture macros list end*
%ADD10RoundRect,0.200000X-0.275000X0.200000X-0.275000X-0.200000X0.275000X-0.200000X0.275000X0.200000X0*%
%ADD11RoundRect,0.135000X-0.185000X0.135000X-0.185000X-0.135000X0.185000X-0.135000X0.185000X0.135000X0*%
%ADD12RoundRect,0.135000X-0.135000X-0.185000X0.135000X-0.185000X0.135000X0.185000X-0.135000X0.185000X0*%
%ADD13R,1.050000X1.000000*%
%ADD14R,2.200000X1.050000*%
%ADD15RoundRect,0.140000X0.170000X-0.140000X0.170000X0.140000X-0.170000X0.140000X-0.170000X-0.140000X0*%
%ADD16RoundRect,0.140000X-0.170000X0.140000X-0.170000X-0.140000X0.170000X-0.140000X0.170000X0.140000X0*%
%ADD17RoundRect,0.147500X-0.147500X-0.172500X0.147500X-0.172500X0.147500X0.172500X-0.147500X0.172500X0*%
%ADD18RoundRect,0.079500X0.100500X-0.079500X0.100500X0.079500X-0.100500X0.079500X-0.100500X-0.079500X0*%
%ADD19RoundRect,0.200000X-0.200000X-0.275000X0.200000X-0.275000X0.200000X0.275000X-0.200000X0.275000X0*%
%ADD20RoundRect,0.079500X0.127279X0.014849X0.014849X0.127279X-0.127279X-0.014849X-0.014849X-0.127279X0*%
%ADD21R,0.600000X0.600000*%
%ADD22R,0.400000X0.500000*%
%ADD23RoundRect,0.135000X0.226274X0.035355X0.035355X0.226274X-0.226274X-0.035355X-0.035355X-0.226274X0*%
%ADD24RoundRect,0.079500X-0.100500X0.079500X-0.100500X-0.079500X0.100500X-0.079500X0.100500X0.079500X0*%
%ADD25RoundRect,0.135000X0.135000X0.185000X-0.135000X0.185000X-0.135000X-0.185000X0.135000X-0.185000X0*%
%ADD26RoundRect,0.135000X0.185000X-0.135000X0.185000X0.135000X-0.185000X0.135000X-0.185000X-0.135000X0*%
%ADD27RoundRect,0.140000X-0.140000X-0.170000X0.140000X-0.170000X0.140000X0.170000X-0.140000X0.170000X0*%
%ADD28RoundRect,0.242500X0.242500X0.242500X-0.242500X0.242500X-0.242500X-0.242500X0.242500X-0.242500X0*%
%ADD29RoundRect,0.062500X0.350000X0.062500X-0.350000X0.062500X-0.350000X-0.062500X0.350000X-0.062500X0*%
%ADD30RoundRect,0.062500X0.062500X0.350000X-0.062500X0.350000X-0.062500X-0.350000X0.062500X-0.350000X0*%
%ADD31RoundRect,0.150000X0.825000X0.150000X-0.825000X0.150000X-0.825000X-0.150000X0.825000X-0.150000X0*%
%ADD32RoundRect,0.135000X-0.035355X0.226274X-0.226274X0.035355X0.035355X-0.226274X0.226274X-0.035355X0*%
%ADD33RoundRect,0.200000X0.200000X0.275000X-0.200000X0.275000X-0.200000X-0.275000X0.200000X-0.275000X0*%
%ADD34R,1.200000X1.000000*%
%ADD35R,0.900000X0.800000*%
%ADD36RoundRect,0.140000X0.219203X0.021213X0.021213X0.219203X-0.219203X-0.021213X-0.021213X-0.219203X0*%
%ADD37RoundRect,0.140000X0.140000X0.170000X-0.140000X0.170000X-0.140000X-0.170000X0.140000X-0.170000X0*%
%ADD38RoundRect,0.140000X-0.219203X-0.021213X-0.021213X-0.219203X0.219203X0.021213X0.021213X0.219203X0*%
%ADD39R,0.600000X0.900000*%
%ADD40R,0.600000X0.550000*%
G04 APERTURE END LIST*
D10*
%TO.C,C5*%
X151025000Y-115175000D03*
X151025000Y-116825000D03*
%TD*%
D11*
%TO.C,R16*%
X153225000Y-114490001D03*
X153225000Y-115509999D03*
%TD*%
D12*
%TO.C,R4*%
X120390001Y-118800000D03*
X121409999Y-118800000D03*
%TD*%
D13*
%TO.C,J1*%
X150925000Y-119800000D03*
D14*
X152450000Y-121275000D03*
D13*
X153975000Y-119800000D03*
D14*
X152450000Y-118325000D03*
%TD*%
D15*
%TO.C,C21*%
X151075000Y-114005000D03*
X151075000Y-113045000D03*
%TD*%
D11*
%TO.C,R2*%
X129825000Y-117440001D03*
X129825000Y-118459999D03*
%TD*%
D16*
%TO.C,C4*%
X149800000Y-114670000D03*
X149800000Y-115630000D03*
%TD*%
D15*
%TO.C,C11*%
X144900000Y-121280000D03*
X144900000Y-120320000D03*
%TD*%
D17*
%TO.C,L2*%
X148820000Y-116550000D03*
X149780000Y-116550000D03*
%TD*%
D18*
%TO.C,C1*%
X147800000Y-119145000D03*
X147800000Y-118455000D03*
%TD*%
D19*
%TO.C,C9*%
X121375000Y-122899999D03*
X123025000Y-122899999D03*
%TD*%
D20*
%TO.C,L1*%
X149093952Y-119293952D03*
X148606048Y-118806048D03*
%TD*%
D11*
%TO.C,R15*%
X121900000Y-114490001D03*
X121900000Y-115509999D03*
%TD*%
D21*
%TO.C,D2*%
X152800000Y-113225000D03*
X154200000Y-113225000D03*
D22*
X153500000Y-113525000D03*
%TD*%
D16*
%TO.C,C7*%
X148875000Y-114670000D03*
X148875000Y-115630000D03*
%TD*%
D23*
%TO.C,R6*%
X138210624Y-118260624D03*
X137489376Y-117539376D03*
%TD*%
D24*
%TO.C,C2*%
X149900000Y-119105000D03*
X149900000Y-119795000D03*
%TD*%
D15*
%TO.C,C13*%
X149600000Y-122880000D03*
X149600000Y-121920000D03*
%TD*%
D25*
%TO.C,R8*%
X125234999Y-122900000D03*
X124215001Y-122900000D03*
%TD*%
D15*
%TO.C,C15*%
X132900000Y-118280000D03*
X132900000Y-117320000D03*
%TD*%
D25*
%TO.C,R5*%
X121409999Y-117400000D03*
X120390001Y-117400000D03*
%TD*%
%TO.C,R7*%
X147059999Y-120300000D03*
X146040001Y-120300000D03*
%TD*%
D12*
%TO.C,R3*%
X120390001Y-120000000D03*
X121409999Y-120000000D03*
%TD*%
D26*
%TO.C,R23*%
X130900000Y-118409999D03*
X130900000Y-117390001D03*
%TD*%
D21*
%TO.C,D7*%
X119800000Y-113225000D03*
X121200000Y-113225000D03*
D22*
X120500000Y-113525000D03*
%TD*%
D27*
%TO.C,C8*%
X120420000Y-121200000D03*
X121380000Y-121200000D03*
%TD*%
D26*
%TO.C,R18*%
X119900000Y-115509999D03*
X119900000Y-114490001D03*
%TD*%
D28*
%TO.C,U1*%
X145500000Y-117900000D03*
X145500000Y-116700000D03*
X145500000Y-115500000D03*
X144300000Y-117900000D03*
X144300000Y-116700000D03*
X144300000Y-115500000D03*
X143100000Y-117900000D03*
X143100000Y-116700000D03*
X143100000Y-115500000D03*
D29*
X146737500Y-118500000D03*
X146737500Y-118100000D03*
X146737500Y-117700000D03*
X146737500Y-117300000D03*
X146737500Y-116900000D03*
X146737500Y-116500000D03*
X146737500Y-116100000D03*
X146737500Y-115700000D03*
X146737500Y-115300000D03*
X146737500Y-114900000D03*
D30*
X146100000Y-114262500D03*
X145700000Y-114262500D03*
X145300000Y-114262500D03*
X144900000Y-114262500D03*
X144500000Y-114262500D03*
X144100000Y-114262500D03*
X143700000Y-114262500D03*
X143300000Y-114262500D03*
X142900000Y-114262500D03*
X142500000Y-114262500D03*
D29*
X141862500Y-114900000D03*
X141862500Y-115300000D03*
X141862500Y-115700000D03*
X141862500Y-116100000D03*
X141862500Y-116500000D03*
X141862500Y-116900000D03*
X141862500Y-117300000D03*
X141862500Y-117700000D03*
X141862500Y-118100000D03*
X141862500Y-118500000D03*
D30*
X142500000Y-119137500D03*
X142900000Y-119137500D03*
X143300000Y-119137500D03*
X143700000Y-119137500D03*
X144100000Y-119137500D03*
X144500000Y-119137500D03*
X144900000Y-119137500D03*
X145300000Y-119137500D03*
X145700000Y-119137500D03*
X146100000Y-119137500D03*
%TD*%
D26*
%TO.C,R13*%
X127200000Y-116009999D03*
X127200000Y-114990001D03*
%TD*%
D31*
%TO.C,U2*%
X128075000Y-121105000D03*
X128075000Y-119835000D03*
X128075000Y-118565000D03*
X128075000Y-117295000D03*
X123125000Y-117295000D03*
X123125000Y-118565000D03*
X123125000Y-119835000D03*
X123125000Y-121105000D03*
%TD*%
D15*
%TO.C,C18*%
X154175000Y-115480000D03*
X154175000Y-114520000D03*
%TD*%
D26*
%TO.C,R14*%
X128200000Y-116009999D03*
X128200000Y-114990001D03*
%TD*%
D32*
%TO.C,R24*%
X134760624Y-117564376D03*
X134039376Y-118285624D03*
%TD*%
D26*
%TO.C,R19*%
X152225000Y-115484999D03*
X152225000Y-114465001D03*
%TD*%
D33*
%TO.C,C12*%
X143425000Y-121750000D03*
X141775000Y-121750000D03*
%TD*%
D26*
%TO.C,R12*%
X125200000Y-116009999D03*
X125200000Y-114990001D03*
%TD*%
%TO.C,R1*%
X129850000Y-121059999D03*
X129850000Y-120040001D03*
%TD*%
D34*
%TO.C,SW_USER1*%
X131000000Y-114850000D03*
X131000000Y-113150000D03*
X136600000Y-114850000D03*
X136600000Y-113150000D03*
%TD*%
D16*
%TO.C,C16*%
X129200000Y-115020000D03*
X129200000Y-115980000D03*
%TD*%
D15*
%TO.C,C17*%
X120900000Y-115480000D03*
X120900000Y-114520000D03*
%TD*%
D35*
%TO.C,Y1*%
X148200000Y-121600000D03*
X146800000Y-121600000D03*
X146800000Y-122700000D03*
X148200000Y-122700000D03*
%TD*%
D23*
%TO.C,R17*%
X139410624Y-115110624D03*
X138689376Y-114389376D03*
%TD*%
D15*
%TO.C,C20*%
X131900000Y-118280000D03*
X131900000Y-117320000D03*
%TD*%
D36*
%TO.C,C19*%
X138739411Y-115939411D03*
X138060589Y-115260589D03*
%TD*%
D26*
%TO.C,R11*%
X126200000Y-116009999D03*
X126200000Y-114990001D03*
%TD*%
%TO.C,R22*%
X147900000Y-114909999D03*
X147900000Y-113890001D03*
%TD*%
D33*
%TO.C,C6*%
X154100000Y-116750000D03*
X152450000Y-116750000D03*
%TD*%
D37*
%TO.C,C3*%
X149680000Y-117550000D03*
X148720000Y-117550000D03*
%TD*%
D38*
%TO.C,C10*%
X138210589Y-116835589D03*
X138889411Y-117514411D03*
%TD*%
D27*
%TO.C,C14*%
X144520000Y-122200000D03*
X145480000Y-122200000D03*
%TD*%
D39*
%TO.C,D6*%
X128099999Y-113675000D03*
D40*
X127150000Y-114000000D03*
X126250000Y-114000000D03*
D39*
X125300001Y-113675000D03*
%TD*%
M02*
