%TF.GenerationSoftware,KiCad,Pcbnew,8.0.6*%
%TF.CreationDate,2025-01-21T23:53:35+01:00*%
%TF.ProjectId,HSSM-LVPCB,4853534d-2d4c-4565-9043-422e6b696361,rev?*%
%TF.SameCoordinates,Original*%
%TF.FileFunction,Copper,L3,Inr*%
%TF.FilePolarity,Positive*%
%FSLAX46Y46*%
G04 Gerber Fmt 4.6, Leading zero omitted, Abs format (unit mm)*
G04 Created by KiCad (PCBNEW 8.0.6) date 2025-01-21 23:53:35*
%MOMM*%
%LPD*%
G01*
G04 APERTURE LIST*
%TA.AperFunction,ComponentPad*%
%ADD10C,1.117600*%
%TD*%
%TA.AperFunction,ViaPad*%
%ADD11C,0.500000*%
%TD*%
%TA.AperFunction,Conductor*%
%ADD12C,0.150000*%
%TD*%
%TA.AperFunction,Conductor*%
%ADD13C,0.300000*%
%TD*%
G04 APERTURE END LIST*
D10*
%TO.N,GND*%
%TO.C,J2*%
X130729999Y-116400000D03*
%TO.N,/BOOT*%
X132000000Y-116400000D03*
%TO.N,/Enable*%
X133269999Y-116400000D03*
%TO.N,/U0RXD*%
X134539999Y-116400000D03*
%TO.N,/U0TXD*%
X135809998Y-116400000D03*
%TO.N,+3V3*%
X137079999Y-116400000D03*
%TD*%
D11*
%TO.N,GND*%
X124400000Y-113200000D03*
X129000000Y-116700000D03*
X143825000Y-116350000D03*
X131400000Y-119025000D03*
X147800000Y-119700000D03*
X144775000Y-117175000D03*
X124275000Y-115675000D03*
X151325000Y-122900000D03*
X150900000Y-121250000D03*
X151020000Y-114670000D03*
X151050000Y-115750000D03*
X122000000Y-113200000D03*
X144750000Y-116325000D03*
X148700000Y-120600000D03*
X154025000Y-117650000D03*
X143800000Y-117150000D03*
X136650000Y-119000000D03*
X126400000Y-117450000D03*
X149000000Y-122800000D03*
X146000000Y-121400000D03*
X150950000Y-118300000D03*
X129850000Y-114575000D03*
X120200000Y-116300000D03*
X153425000Y-122850000D03*
X120325000Y-121850000D03*
X135275000Y-114200000D03*
X120400000Y-122900000D03*
X149800000Y-121050000D03*
X139250000Y-116350000D03*
X144200000Y-121750000D03*
X149800000Y-118150000D03*
X149375000Y-114625000D03*
%TO.N,+3V3*%
X144450000Y-120550000D03*
X149825000Y-116050000D03*
X146800000Y-119300000D03*
X121700000Y-116300000D03*
X126300000Y-118200000D03*
X137700000Y-114700000D03*
X136100000Y-118200000D03*
X128700000Y-113925000D03*
X141900000Y-121600000D03*
X141900000Y-121025000D03*
%TO.N,/BOOT*%
X132500000Y-114600000D03*
X144200000Y-112800000D03*
%TO.N,/GPIO_Q1*%
X130700000Y-119200000D03*
X122700000Y-116500000D03*
X141125000Y-119000000D03*
X122600000Y-113800000D03*
%TO.N,/GPIO_Q2*%
X132900000Y-119000000D03*
X143425000Y-112825000D03*
X127475000Y-112900000D03*
X152100000Y-112775000D03*
%TO.N,/Enable*%
X133350000Y-114675000D03*
X147700000Y-117375000D03*
%TO.N,Net-(U1-SPIQ)*%
X141950000Y-114600000D03*
X130750000Y-120950000D03*
%TO.N,Net-(U1-SPIWP)*%
X141250000Y-114450000D03*
X129725000Y-116725000D03*
%TO.N,Net-(U1-SPIHD)*%
X140350000Y-116250000D03*
X120400000Y-120400000D03*
%TO.N,Net-(U1-SPICLK)*%
X120500000Y-119200000D03*
X141175000Y-116500000D03*
%TO.N,Net-(U1-SPID)*%
X120450000Y-118050000D03*
X139550000Y-116950000D03*
%TO.N,/SPICS0*%
X124650000Y-121875000D03*
X140300000Y-115550000D03*
X126600000Y-121000000D03*
X126100000Y-120400000D03*
%TO.N,/GPIO8*%
X144900000Y-112825000D03*
X148875000Y-113250000D03*
%TO.N,VDD_SPI*%
X140750000Y-114950000D03*
X123675000Y-122875000D03*
%TO.N,/S2_sym*%
X147800000Y-115600000D03*
X153650000Y-114520000D03*
%TO.N,/DO1*%
X135150000Y-119000000D03*
X145625000Y-112825000D03*
%TO.N,/DO3*%
X149800000Y-113875000D03*
%TO.N,/P_MEAS_RST*%
X140375000Y-117225000D03*
X135900000Y-119000000D03*
%TO.N,/GPIO_S2*%
X138050000Y-113050000D03*
X128825000Y-113250000D03*
X133650000Y-119000000D03*
%TO.N,/DO2*%
X147700000Y-116375000D03*
%TO.N,/GPIO_S1*%
X140400000Y-119000000D03*
%TO.N,+12V*%
X132150000Y-119000000D03*
%TO.N,/GPIO_S3*%
X134400000Y-119000000D03*
X139000000Y-112825000D03*
X129650000Y-113450000D03*
%TO.N,/LP_UART_RXD*%
X146775000Y-114600000D03*
%TO.N,/LP_UART_TXD*%
X146425000Y-114050000D03*
%TO.N,/S1_sym*%
X122600000Y-114500000D03*
%TO.N,/S3_sym*%
X138210589Y-115310589D03*
X146775000Y-113475000D03*
%TD*%
D12*
%TO.N,/BOOT*%
X144200000Y-112800000D02*
X144200000Y-113350000D01*
X138875000Y-113900000D02*
X136675000Y-113900000D01*
X133425000Y-113400000D02*
X132500000Y-114325000D01*
X144200000Y-113350000D02*
X144000000Y-113550000D01*
X144000000Y-113550000D02*
X143325000Y-113550000D01*
X132500000Y-114325000D02*
X132500000Y-114600000D01*
X143325000Y-113550000D02*
X142750000Y-112975000D01*
X136675000Y-113900000D02*
X136175000Y-113400000D01*
X139800000Y-112975000D02*
X138875000Y-113900000D01*
X136175000Y-113400000D02*
X133425000Y-113400000D01*
X142750000Y-112975000D02*
X139800000Y-112975000D01*
%TO.N,/GPIO_Q1*%
X123250000Y-114200000D02*
X122850000Y-113800000D01*
X122850000Y-113800000D02*
X122600000Y-113800000D01*
X130700000Y-119200000D02*
X131000000Y-119500000D01*
X123250000Y-115950000D02*
X123250000Y-114200000D01*
X122700000Y-116500000D02*
X123250000Y-115950000D01*
X140700000Y-119500000D02*
X141125000Y-119075000D01*
X131000000Y-119500000D02*
X140700000Y-119500000D01*
X141125000Y-119075000D02*
X141125000Y-119000000D01*
%TO.N,/Enable*%
X142450000Y-113225000D02*
X139925000Y-113225000D01*
X143525000Y-114125000D02*
X143350000Y-114125000D01*
X138975000Y-114175000D02*
X136200000Y-114175000D01*
X135675000Y-113650000D02*
X133900000Y-113650000D01*
X139925000Y-113225000D02*
X138975000Y-114175000D01*
X147700000Y-117375000D02*
X146775000Y-117375000D01*
X133350000Y-114200000D02*
X133350000Y-114675000D01*
X146775000Y-117375000D02*
X143525000Y-114125000D01*
X133900000Y-113650000D02*
X133350000Y-114200000D01*
X143350000Y-114125000D02*
X142450000Y-113225000D01*
X136200000Y-114175000D02*
X135675000Y-113650000D01*
%TO.N,Net-(U1-SPIQ)*%
X143275000Y-118925000D02*
X141125000Y-121075000D01*
X143275000Y-115925000D02*
X143275000Y-118925000D01*
X141950000Y-114600000D02*
X143275000Y-115925000D01*
X130875000Y-121075000D02*
X130750000Y-120950000D01*
X141125000Y-121075000D02*
X130875000Y-121075000D01*
%TO.N,Net-(U1-SPIWP)*%
X140407537Y-114450000D02*
X141250000Y-114450000D01*
X130150000Y-117150000D02*
X137707537Y-117150000D01*
X137707537Y-117150000D02*
X140407537Y-114450000D01*
X129725000Y-116725000D02*
X130150000Y-117150000D01*
%TO.N,Net-(U1-SPIHD)*%
X140350000Y-116250000D02*
X140700000Y-115900000D01*
X142150000Y-118675000D02*
X141075000Y-119750000D01*
X124175000Y-120400000D02*
X120400000Y-120400000D01*
X140700000Y-115900000D02*
X141375000Y-115900000D01*
X141375000Y-115900000D02*
X142150000Y-116675000D01*
X141075000Y-119750000D02*
X124825000Y-119750000D01*
X142150000Y-116675000D02*
X142150000Y-118675000D01*
X124825000Y-119750000D02*
X124175000Y-120400000D01*
%TO.N,Net-(U1-SPICLK)*%
X141175000Y-116500000D02*
X141450000Y-116500000D01*
X141825000Y-117300000D02*
X140700000Y-118425000D01*
X127000000Y-118975000D02*
X120725000Y-118975000D01*
X141825000Y-116875000D02*
X141825000Y-117300000D01*
X137600000Y-117700000D02*
X128275000Y-117700000D01*
X140700000Y-118425000D02*
X138325000Y-118425000D01*
X138325000Y-118425000D02*
X137600000Y-117700000D01*
X128275000Y-117700000D02*
X127000000Y-118975000D01*
X120725000Y-118975000D02*
X120500000Y-119200000D01*
X141450000Y-116500000D02*
X141825000Y-116875000D01*
%TO.N,Net-(U1-SPID)*%
X139175000Y-118000000D02*
X138400000Y-118000000D01*
X126775000Y-118675000D02*
X121075000Y-118675000D01*
X139550000Y-117625000D02*
X139175000Y-118000000D01*
X139550000Y-116950000D02*
X139550000Y-117625000D01*
X121075000Y-118675000D02*
X120450000Y-118050000D01*
X128050000Y-117400000D02*
X126775000Y-118675000D01*
X138400000Y-118000000D02*
X137800000Y-117400000D01*
X137800000Y-117400000D02*
X128050000Y-117400000D01*
%TO.N,/SPICS0*%
X127250000Y-120400000D02*
X126100000Y-120400000D01*
X141600000Y-115600000D02*
X142525000Y-116525000D01*
X142525000Y-118675000D02*
X141150000Y-120050000D01*
X127600000Y-120050000D02*
X127250000Y-120400000D01*
X124650000Y-121875000D02*
X125725000Y-121875000D01*
X140300000Y-115550000D02*
X140350000Y-115600000D01*
X142525000Y-116525000D02*
X142525000Y-118675000D01*
X125725000Y-121875000D02*
X126600000Y-121000000D01*
X140350000Y-115600000D02*
X141600000Y-115600000D01*
X141150000Y-120050000D02*
X127600000Y-120050000D01*
%TO.N,/GPIO8*%
X145450000Y-113375000D02*
X144900000Y-112825000D01*
X148875000Y-113250000D02*
X148600000Y-112975000D01*
X148600000Y-112975000D02*
X146150000Y-112975000D01*
X145750000Y-113375000D02*
X145450000Y-113375000D01*
X146150000Y-112975000D02*
X145750000Y-113375000D01*
D13*
%TO.N,VDD_SPI*%
X141700000Y-115100000D02*
X140900000Y-115100000D01*
X123675000Y-122875000D02*
X124050000Y-122875000D01*
X124050000Y-122875000D02*
X124375000Y-122550000D01*
X141275000Y-120400000D02*
X142875000Y-118800000D01*
X142875000Y-116275000D02*
X141700000Y-115100000D01*
X125975000Y-122550000D02*
X128125000Y-120400000D01*
X124375000Y-122550000D02*
X125975000Y-122550000D01*
X142875000Y-118800000D02*
X142875000Y-116275000D01*
X140900000Y-115100000D02*
X140750000Y-114950000D01*
X128125000Y-120400000D02*
X141275000Y-120400000D01*
D12*
%TO.N,/GPIO_S2*%
X138050000Y-113050000D02*
X137800000Y-113300000D01*
X136750000Y-112850000D02*
X129225000Y-112850000D01*
X129225000Y-112850000D02*
X128825000Y-113250000D01*
X137800000Y-113300000D02*
X137200000Y-113300000D01*
X137200000Y-113300000D02*
X136750000Y-112850000D01*
%TO.N,/GPIO_S3*%
X139000000Y-112825000D02*
X138250000Y-113575000D01*
X136500000Y-113125000D02*
X129975000Y-113125000D01*
X129975000Y-113125000D02*
X129650000Y-113450000D01*
X136950000Y-113575000D02*
X136500000Y-113125000D01*
X138250000Y-113575000D02*
X136950000Y-113575000D01*
%TD*%
%TA.AperFunction,Conductor*%
%TO.N,+3V3*%
G36*
X127181782Y-112522174D02*
G01*
X127203456Y-112574500D01*
X127181782Y-112626826D01*
X127146951Y-112661656D01*
X127146950Y-112661658D01*
X127103232Y-112747460D01*
X127089353Y-112774698D01*
X127069508Y-112900000D01*
X127089353Y-113025301D01*
X127089353Y-113025302D01*
X127089354Y-113025304D01*
X127146950Y-113138342D01*
X127236658Y-113228050D01*
X127349696Y-113285646D01*
X127475000Y-113305492D01*
X127600304Y-113285646D01*
X127713342Y-113228050D01*
X127803050Y-113138342D01*
X127860646Y-113025304D01*
X127880492Y-112900000D01*
X127860646Y-112774696D01*
X127803050Y-112661658D01*
X127768218Y-112626826D01*
X127746544Y-112574500D01*
X127768218Y-112522174D01*
X127820544Y-112500500D01*
X129107484Y-112500500D01*
X129159810Y-112522174D01*
X129181484Y-112574500D01*
X129159810Y-112626826D01*
X129135802Y-112642867D01*
X129097266Y-112658828D01*
X129097262Y-112658831D01*
X128926408Y-112829685D01*
X128874082Y-112851359D01*
X128862507Y-112850448D01*
X128825000Y-112844508D01*
X128699698Y-112864353D01*
X128586656Y-112921951D01*
X128496951Y-113011656D01*
X128439353Y-113124698D01*
X128419508Y-113250000D01*
X128439353Y-113375301D01*
X128439353Y-113375302D01*
X128439354Y-113375304D01*
X128496950Y-113488342D01*
X128586658Y-113578050D01*
X128699696Y-113635646D01*
X128825000Y-113655492D01*
X128950304Y-113635646D01*
X129063342Y-113578050D01*
X129134550Y-113506841D01*
X129186875Y-113485168D01*
X129239201Y-113506842D01*
X129259964Y-113547590D01*
X129264353Y-113575301D01*
X129264353Y-113575302D01*
X129264354Y-113575304D01*
X129321950Y-113688342D01*
X129411658Y-113778050D01*
X129524696Y-113835646D01*
X129650000Y-113855492D01*
X129775304Y-113835646D01*
X129888342Y-113778050D01*
X129978050Y-113688342D01*
X130035646Y-113575304D01*
X130055492Y-113450000D01*
X130053646Y-113438342D01*
X130053287Y-113436075D01*
X130066510Y-113381003D01*
X130114801Y-113351411D01*
X130126376Y-113350500D01*
X132976943Y-113350500D01*
X133029269Y-113372174D01*
X133050943Y-113424500D01*
X133029269Y-113476825D01*
X132694438Y-113811656D01*
X132372265Y-114133829D01*
X132308830Y-114197263D01*
X132308830Y-114197264D01*
X132305420Y-114205496D01*
X132305419Y-114205495D01*
X132292682Y-114236244D01*
X132264821Y-114266403D01*
X132266366Y-114268530D01*
X132261656Y-114271951D01*
X132171951Y-114361656D01*
X132114353Y-114474698D01*
X132094508Y-114600000D01*
X132114353Y-114725301D01*
X132114353Y-114725302D01*
X132114354Y-114725304D01*
X132171950Y-114838342D01*
X132261658Y-114928050D01*
X132374696Y-114985646D01*
X132500000Y-115005492D01*
X132625304Y-114985646D01*
X132738342Y-114928050D01*
X132828050Y-114838342D01*
X132839958Y-114814970D01*
X132883023Y-114778187D01*
X132939485Y-114782630D01*
X132971826Y-114814969D01*
X132996474Y-114863343D01*
X133021950Y-114913342D01*
X133111658Y-115003050D01*
X133224696Y-115060646D01*
X133350000Y-115080492D01*
X133475304Y-115060646D01*
X133588342Y-115003050D01*
X133678050Y-114913342D01*
X133735646Y-114800304D01*
X133755492Y-114675000D01*
X133735646Y-114549696D01*
X133678050Y-114436658D01*
X133607474Y-114366082D01*
X133585800Y-114313756D01*
X133607473Y-114261431D01*
X133971732Y-113897174D01*
X134024058Y-113875500D01*
X134870093Y-113875500D01*
X134922419Y-113897174D01*
X134944093Y-113949500D01*
X134936027Y-113983095D01*
X134889354Y-114074695D01*
X134889353Y-114074695D01*
X134869508Y-114200000D01*
X134889353Y-114325301D01*
X134889353Y-114325302D01*
X134889354Y-114325304D01*
X134946950Y-114438342D01*
X135036658Y-114528050D01*
X135149696Y-114585646D01*
X135275000Y-114605492D01*
X135400304Y-114585646D01*
X135513342Y-114528050D01*
X135603050Y-114438342D01*
X135660646Y-114325304D01*
X135680492Y-114200000D01*
X135673663Y-114156884D01*
X135686885Y-114101813D01*
X135735176Y-114072220D01*
X135790248Y-114085442D01*
X135799078Y-114092983D01*
X136004609Y-114298514D01*
X136004612Y-114298518D01*
X136008830Y-114302736D01*
X136072264Y-114366170D01*
X136092372Y-114374499D01*
X136155145Y-114400501D01*
X136155146Y-114400501D01*
X136253467Y-114400501D01*
X136253475Y-114400500D01*
X138921525Y-114400500D01*
X138921533Y-114400501D01*
X138930145Y-114400501D01*
X139019854Y-114400501D01*
X139019855Y-114400501D01*
X139082628Y-114374499D01*
X139102736Y-114366170D01*
X139166170Y-114302736D01*
X139166170Y-114302735D01*
X139176575Y-114292330D01*
X139176576Y-114292327D01*
X139996731Y-113472174D01*
X140049057Y-113450500D01*
X142325943Y-113450500D01*
X142378269Y-113472174D01*
X143154609Y-114248514D01*
X143154612Y-114248518D01*
X143158830Y-114252736D01*
X143222264Y-114316170D01*
X143305145Y-114350500D01*
X143394854Y-114350500D01*
X143400943Y-114350500D01*
X143453269Y-114372174D01*
X144886721Y-115805626D01*
X144908395Y-115857952D01*
X144886721Y-115910278D01*
X144834395Y-115931952D01*
X144822819Y-115931041D01*
X144750000Y-115919508D01*
X144624698Y-115939353D01*
X144511656Y-115996951D01*
X144421951Y-116086656D01*
X144364353Y-116199698D01*
X144358609Y-116235968D01*
X144329016Y-116284258D01*
X144273943Y-116297480D01*
X144225653Y-116267887D01*
X144212431Y-116235966D01*
X144212297Y-116235120D01*
X144210646Y-116224696D01*
X144153050Y-116111658D01*
X144063342Y-116021950D01*
X143950304Y-115964354D01*
X143950302Y-115964353D01*
X143950301Y-115964353D01*
X143825000Y-115944508D01*
X143699698Y-115964353D01*
X143699696Y-115964353D01*
X143699696Y-115964354D01*
X143608095Y-116011027D01*
X143551633Y-116015470D01*
X143508566Y-115978687D01*
X143500501Y-115945092D01*
X143500501Y-115880144D01*
X143466170Y-115797265D01*
X143466169Y-115797263D01*
X143398521Y-115729615D01*
X143398514Y-115729609D01*
X142370314Y-114701409D01*
X142348640Y-114649083D01*
X142349550Y-114637513D01*
X142355492Y-114600000D01*
X142335646Y-114474696D01*
X142278050Y-114361658D01*
X142188342Y-114271950D01*
X142075304Y-114214354D01*
X142075302Y-114214353D01*
X142075301Y-114214353D01*
X141950000Y-114194508D01*
X141824695Y-114214353D01*
X141824695Y-114214354D01*
X141711660Y-114271948D01*
X141706946Y-114275374D01*
X141704880Y-114272530D01*
X141663049Y-114289763D01*
X141610766Y-114267987D01*
X141597262Y-114249363D01*
X141578050Y-114211658D01*
X141488342Y-114121950D01*
X141375304Y-114064354D01*
X141375302Y-114064353D01*
X141375301Y-114064353D01*
X141250000Y-114044508D01*
X141124698Y-114064353D01*
X141011656Y-114121951D01*
X140987877Y-114145731D01*
X140930781Y-114202826D01*
X140878457Y-114224500D01*
X140461012Y-114224500D01*
X140461004Y-114224499D01*
X140452392Y-114224499D01*
X140362683Y-114224499D01*
X140314131Y-114244608D01*
X140314132Y-114244609D01*
X140279804Y-114258828D01*
X140279802Y-114258829D01*
X140216366Y-114322265D01*
X137635806Y-116902826D01*
X137583480Y-116924500D01*
X136450821Y-116924500D01*
X136398495Y-116902826D01*
X136376821Y-116850500D01*
X136389920Y-116808463D01*
X136392208Y-116805148D01*
X136442665Y-116732049D01*
X136503746Y-116570993D01*
X136504553Y-116564354D01*
X136524508Y-116400003D01*
X136524508Y-116399996D01*
X136503747Y-116229011D01*
X136503746Y-116229009D01*
X136503746Y-116229007D01*
X136442665Y-116067951D01*
X136380111Y-115977326D01*
X136344814Y-115926189D01*
X136215885Y-115811969D01*
X136135421Y-115769738D01*
X136063367Y-115731922D01*
X135896123Y-115690700D01*
X135723873Y-115690700D01*
X135556629Y-115731922D01*
X135556625Y-115731923D01*
X135556625Y-115731924D01*
X135404110Y-115811969D01*
X135275181Y-115926189D01*
X135235899Y-115983100D01*
X135188337Y-116013851D01*
X135132961Y-116001964D01*
X135114097Y-115983099D01*
X135074817Y-115926191D01*
X134945886Y-115811969D01*
X134865422Y-115769738D01*
X134793368Y-115731922D01*
X134626124Y-115690700D01*
X134453874Y-115690700D01*
X134286630Y-115731922D01*
X134286626Y-115731923D01*
X134286626Y-115731924D01*
X134134111Y-115811969D01*
X134005182Y-115926189D01*
X133981667Y-115960258D01*
X133965901Y-115983100D01*
X133965900Y-115983101D01*
X133918338Y-116013852D01*
X133862962Y-116001965D01*
X133844098Y-115983101D01*
X133844097Y-115983100D01*
X133806100Y-115928051D01*
X133804815Y-115926189D01*
X133675886Y-115811969D01*
X133595422Y-115769738D01*
X133523368Y-115731922D01*
X133356124Y-115690700D01*
X133183874Y-115690700D01*
X133016630Y-115731922D01*
X133016626Y-115731923D01*
X133016626Y-115731924D01*
X132864111Y-115811969D01*
X132735182Y-115926189D01*
X132695900Y-115983100D01*
X132648338Y-116013851D01*
X132592962Y-116001964D01*
X132574098Y-115983099D01*
X132534818Y-115926191D01*
X132405887Y-115811969D01*
X132325423Y-115769738D01*
X132253369Y-115731922D01*
X132086125Y-115690700D01*
X131913875Y-115690700D01*
X131746631Y-115731922D01*
X131746627Y-115731923D01*
X131746627Y-115731924D01*
X131594112Y-115811969D01*
X131465180Y-115926192D01*
X131425899Y-115983101D01*
X131378337Y-116013852D01*
X131322962Y-116001964D01*
X131304098Y-115983101D01*
X131304097Y-115983100D01*
X131266100Y-115928051D01*
X131264815Y-115926189D01*
X131135886Y-115811969D01*
X131055422Y-115769738D01*
X130983368Y-115731922D01*
X130816124Y-115690700D01*
X130643874Y-115690700D01*
X130476630Y-115731922D01*
X130476626Y-115731923D01*
X130476626Y-115731924D01*
X130324111Y-115811969D01*
X130195182Y-115926189D01*
X130097331Y-116067951D01*
X130036251Y-116229007D01*
X130036249Y-116229012D01*
X130025555Y-116317087D01*
X129997732Y-116366419D01*
X129943175Y-116381627D01*
X129918500Y-116374102D01*
X129850304Y-116339354D01*
X129850302Y-116339353D01*
X129850301Y-116339353D01*
X129725000Y-116319508D01*
X129599698Y-116339353D01*
X129486656Y-116396951D01*
X129427326Y-116456282D01*
X129375000Y-116477956D01*
X129322674Y-116456282D01*
X129238343Y-116371951D01*
X129238342Y-116371950D01*
X129125304Y-116314354D01*
X129125302Y-116314353D01*
X129125301Y-116314353D01*
X129000000Y-116294508D01*
X128874698Y-116314353D01*
X128761656Y-116371951D01*
X128671951Y-116461656D01*
X128614353Y-116574698D01*
X128594508Y-116700000D01*
X128614353Y-116825301D01*
X128614353Y-116825302D01*
X128614354Y-116825304D01*
X128671950Y-116938342D01*
X128761658Y-117028050D01*
X128774447Y-117034566D01*
X128811229Y-117077632D01*
X128806786Y-117134095D01*
X128763719Y-117170878D01*
X128740851Y-117174500D01*
X128005145Y-117174500D01*
X127922266Y-117208828D01*
X127922263Y-117208830D01*
X126703269Y-118427826D01*
X126650943Y-118449500D01*
X121199058Y-118449500D01*
X121146732Y-118427826D01*
X120870314Y-118151408D01*
X120848640Y-118099082D01*
X120849550Y-118087513D01*
X120855492Y-118050000D01*
X120835646Y-117924696D01*
X120778050Y-117811658D01*
X120688342Y-117721950D01*
X120575304Y-117664354D01*
X120575302Y-117664353D01*
X120575301Y-117664353D01*
X120450000Y-117644508D01*
X120324698Y-117664353D01*
X120211656Y-117721951D01*
X120121951Y-117811656D01*
X120064353Y-117924698D01*
X120044508Y-118050000D01*
X120064353Y-118175301D01*
X120064353Y-118175302D01*
X120064354Y-118175304D01*
X120121950Y-118288342D01*
X120211658Y-118378050D01*
X120324696Y-118435646D01*
X120450000Y-118455492D01*
X120487506Y-118449551D01*
X120542577Y-118462772D01*
X120551408Y-118470314D01*
X120708216Y-118627122D01*
X120729890Y-118679448D01*
X120708216Y-118731774D01*
X120684208Y-118747815D01*
X120621537Y-118773774D01*
X120621536Y-118773773D01*
X120597265Y-118783828D01*
X120591202Y-118787880D01*
X120589129Y-118784778D01*
X120549045Y-118801359D01*
X120537507Y-118800448D01*
X120500000Y-118794508D01*
X120374698Y-118814353D01*
X120261656Y-118871951D01*
X120171951Y-118961656D01*
X120114353Y-119074698D01*
X120094508Y-119200000D01*
X120114353Y-119325301D01*
X120114353Y-119325302D01*
X120114354Y-119325304D01*
X120171950Y-119438342D01*
X120261658Y-119528050D01*
X120374696Y-119585646D01*
X120500000Y-119605492D01*
X120625304Y-119585646D01*
X120738342Y-119528050D01*
X120828050Y-119438342D01*
X120885646Y-119325304D01*
X120895526Y-119262923D01*
X120925119Y-119214633D01*
X120968615Y-119200500D01*
X126946525Y-119200500D01*
X126946533Y-119200501D01*
X126955145Y-119200501D01*
X127044854Y-119200501D01*
X127044855Y-119200501D01*
X127103460Y-119176225D01*
X127127736Y-119166170D01*
X127191170Y-119102736D01*
X127191170Y-119102735D01*
X127201575Y-119092330D01*
X127201576Y-119092327D01*
X128346732Y-117947174D01*
X128399058Y-117925500D01*
X137475943Y-117925500D01*
X137528269Y-117947174D01*
X138129609Y-118548514D01*
X138129612Y-118548518D01*
X138133830Y-118552736D01*
X138197264Y-118616170D01*
X138225945Y-118628050D01*
X138280146Y-118650501D01*
X138280147Y-118650501D01*
X138378467Y-118650501D01*
X138378475Y-118650500D01*
X140007831Y-118650500D01*
X140060157Y-118672174D01*
X140081831Y-118724500D01*
X140073766Y-118758095D01*
X140071951Y-118761656D01*
X140071950Y-118761658D01*
X140018631Y-118866302D01*
X140014353Y-118874698D01*
X139994508Y-119000000D01*
X140014353Y-119125302D01*
X140014353Y-119125303D01*
X140014354Y-119125304D01*
X140035551Y-119166905D01*
X140039995Y-119223367D01*
X140003213Y-119266434D01*
X139969617Y-119274500D01*
X137080383Y-119274500D01*
X137028057Y-119252826D01*
X137006383Y-119200500D01*
X137014448Y-119166906D01*
X137035646Y-119125304D01*
X137055492Y-119000000D01*
X137035646Y-118874696D01*
X136978050Y-118761658D01*
X136888342Y-118671950D01*
X136775304Y-118614354D01*
X136775302Y-118614353D01*
X136775301Y-118614353D01*
X136650000Y-118594508D01*
X136524698Y-118614353D01*
X136411656Y-118671951D01*
X136327326Y-118756282D01*
X136275000Y-118777956D01*
X136222674Y-118756282D01*
X136138343Y-118671951D01*
X136138342Y-118671950D01*
X136025304Y-118614354D01*
X136025302Y-118614353D01*
X136025301Y-118614353D01*
X135900000Y-118594508D01*
X135774698Y-118614353D01*
X135661656Y-118671951D01*
X135577326Y-118756282D01*
X135525000Y-118777956D01*
X135472674Y-118756282D01*
X135388343Y-118671951D01*
X135388342Y-118671950D01*
X135275304Y-118614354D01*
X135275302Y-118614353D01*
X135275301Y-118614353D01*
X135150000Y-118594508D01*
X135024698Y-118614353D01*
X134911656Y-118671951D01*
X134827326Y-118756282D01*
X134775000Y-118777956D01*
X134722674Y-118756282D01*
X134638343Y-118671951D01*
X134638342Y-118671950D01*
X134525304Y-118614354D01*
X134525302Y-118614353D01*
X134525301Y-118614353D01*
X134400000Y-118594508D01*
X134274698Y-118614353D01*
X134161656Y-118671951D01*
X134077326Y-118756282D01*
X134025000Y-118777956D01*
X133972674Y-118756282D01*
X133888343Y-118671951D01*
X133888342Y-118671950D01*
X133775304Y-118614354D01*
X133775302Y-118614353D01*
X133775301Y-118614353D01*
X133650000Y-118594508D01*
X133524698Y-118614353D01*
X133411656Y-118671951D01*
X133327326Y-118756282D01*
X133275000Y-118777956D01*
X133222674Y-118756282D01*
X133138343Y-118671951D01*
X133138342Y-118671950D01*
X133025304Y-118614354D01*
X133025302Y-118614353D01*
X133025301Y-118614353D01*
X132900000Y-118594508D01*
X132774698Y-118614353D01*
X132661656Y-118671951D01*
X132577326Y-118756282D01*
X132525000Y-118777956D01*
X132472674Y-118756282D01*
X132388343Y-118671951D01*
X132388342Y-118671950D01*
X132275304Y-118614354D01*
X132275302Y-118614353D01*
X132275301Y-118614353D01*
X132150000Y-118594508D01*
X132024698Y-118614353D01*
X131911656Y-118671951D01*
X131817832Y-118765776D01*
X131816420Y-118764364D01*
X131774550Y-118790021D01*
X131719478Y-118776798D01*
X131710650Y-118769258D01*
X131638343Y-118696951D01*
X131638342Y-118696950D01*
X131525304Y-118639354D01*
X131525302Y-118639353D01*
X131525301Y-118639353D01*
X131400000Y-118619508D01*
X131274698Y-118639353D01*
X131161656Y-118696951D01*
X131071949Y-118786658D01*
X131043469Y-118842553D01*
X131000401Y-118879336D01*
X130943939Y-118874891D01*
X130943086Y-118874367D01*
X130854576Y-118829269D01*
X130825304Y-118814354D01*
X130825302Y-118814353D01*
X130825301Y-118814353D01*
X130700000Y-118794508D01*
X130574698Y-118814353D01*
X130461656Y-118871951D01*
X130371951Y-118961656D01*
X130314353Y-119074698D01*
X130294508Y-119200000D01*
X130314354Y-119325304D01*
X130361027Y-119416905D01*
X130365471Y-119473367D01*
X130328688Y-119516434D01*
X130295093Y-119524500D01*
X124878475Y-119524500D01*
X124878467Y-119524499D01*
X124869855Y-119524499D01*
X124780146Y-119524499D01*
X124731594Y-119544608D01*
X124731595Y-119544609D01*
X124697267Y-119558828D01*
X124697265Y-119558829D01*
X124633829Y-119622265D01*
X124103269Y-120152826D01*
X124050943Y-120174500D01*
X120771543Y-120174500D01*
X120719218Y-120152826D01*
X120638342Y-120071950D01*
X120525304Y-120014354D01*
X120525302Y-120014353D01*
X120525301Y-120014353D01*
X120400000Y-119994508D01*
X120274698Y-120014353D01*
X120161656Y-120071951D01*
X120071951Y-120161656D01*
X120014353Y-120274698D01*
X119994508Y-120400000D01*
X120014353Y-120525301D01*
X120014353Y-120525302D01*
X120014354Y-120525304D01*
X120071950Y-120638342D01*
X120161658Y-120728050D01*
X120274696Y-120785646D01*
X120400000Y-120805492D01*
X120525304Y-120785646D01*
X120638342Y-120728050D01*
X120719218Y-120647173D01*
X120771543Y-120625500D01*
X124121525Y-120625500D01*
X124121533Y-120625501D01*
X124130145Y-120625501D01*
X124219853Y-120625501D01*
X124219855Y-120625501D01*
X124294677Y-120594508D01*
X124294678Y-120594508D01*
X124296503Y-120593751D01*
X124302736Y-120591170D01*
X124366170Y-120527736D01*
X124366170Y-120527735D01*
X124376575Y-120517330D01*
X124376576Y-120517327D01*
X124896731Y-119997174D01*
X124949057Y-119975500D01*
X125779456Y-119975500D01*
X125831782Y-119997174D01*
X125853456Y-120049500D01*
X125831782Y-120101826D01*
X125771951Y-120161656D01*
X125714353Y-120274698D01*
X125694508Y-120400000D01*
X125714353Y-120525301D01*
X125714353Y-120525302D01*
X125714354Y-120525304D01*
X125771950Y-120638342D01*
X125861658Y-120728050D01*
X125974696Y-120785646D01*
X126100000Y-120805492D01*
X126127941Y-120801066D01*
X126183012Y-120814287D01*
X126212606Y-120862578D01*
X126212606Y-120885731D01*
X126194508Y-121000000D01*
X126200448Y-121037507D01*
X126187226Y-121092579D01*
X126179685Y-121101408D01*
X125653269Y-121627826D01*
X125600943Y-121649500D01*
X125021543Y-121649500D01*
X124969218Y-121627826D01*
X124888342Y-121546950D01*
X124775304Y-121489354D01*
X124775302Y-121489353D01*
X124775301Y-121489353D01*
X124650000Y-121469508D01*
X124524698Y-121489353D01*
X124411656Y-121546951D01*
X124321951Y-121636656D01*
X124264353Y-121749698D01*
X124244508Y-121875000D01*
X124264353Y-122000301D01*
X124264353Y-122000302D01*
X124264354Y-122000304D01*
X124321950Y-122113342D01*
X124321951Y-122113343D01*
X124341553Y-122132945D01*
X124363227Y-122185271D01*
X124341553Y-122237597D01*
X124308381Y-122256749D01*
X124259013Y-122269978D01*
X124259009Y-122269979D01*
X124190488Y-122309540D01*
X123977682Y-122522345D01*
X123925356Y-122544019D01*
X123891761Y-122535954D01*
X123865052Y-122522345D01*
X123800304Y-122489354D01*
X123800302Y-122489353D01*
X123800301Y-122489353D01*
X123675000Y-122469508D01*
X123549698Y-122489353D01*
X123436656Y-122546951D01*
X123346951Y-122636656D01*
X123289353Y-122749698D01*
X123269508Y-122875000D01*
X123289353Y-123000301D01*
X123289353Y-123000302D01*
X123289354Y-123000304D01*
X123346950Y-123113342D01*
X123436658Y-123203050D01*
X123549696Y-123260646D01*
X123675000Y-123280492D01*
X123800304Y-123260646D01*
X123913342Y-123203050D01*
X123919218Y-123197174D01*
X123971544Y-123175500D01*
X124089564Y-123175500D01*
X124089564Y-123175499D01*
X124165989Y-123155021D01*
X124234511Y-123115460D01*
X124290460Y-123059511D01*
X124477797Y-122872174D01*
X124530123Y-122850500D01*
X126014564Y-122850500D01*
X126014564Y-122850499D01*
X126090989Y-122830021D01*
X126159511Y-122790460D01*
X126215460Y-122734511D01*
X127199971Y-121750000D01*
X143794508Y-121750000D01*
X143814353Y-121875301D01*
X143814353Y-121875302D01*
X143814354Y-121875304D01*
X143871950Y-121988342D01*
X143961658Y-122078050D01*
X144074696Y-122135646D01*
X144200000Y-122155492D01*
X144325304Y-122135646D01*
X144438342Y-122078050D01*
X144528050Y-121988342D01*
X144585646Y-121875304D01*
X144605492Y-121750000D01*
X144585646Y-121624696D01*
X144528050Y-121511658D01*
X144438342Y-121421950D01*
X144395263Y-121400000D01*
X145594508Y-121400000D01*
X145614353Y-121525301D01*
X145614353Y-121525302D01*
X145614354Y-121525304D01*
X145671950Y-121638342D01*
X145761658Y-121728050D01*
X145874696Y-121785646D01*
X146000000Y-121805492D01*
X146125304Y-121785646D01*
X146238342Y-121728050D01*
X146328050Y-121638342D01*
X146385646Y-121525304D01*
X146405492Y-121400000D01*
X146385646Y-121274696D01*
X146328050Y-121161658D01*
X146238342Y-121071950D01*
X146195263Y-121050000D01*
X149394508Y-121050000D01*
X149414353Y-121175301D01*
X149414353Y-121175302D01*
X149414354Y-121175304D01*
X149471950Y-121288342D01*
X149561658Y-121378050D01*
X149674696Y-121435646D01*
X149800000Y-121455492D01*
X149925304Y-121435646D01*
X150038342Y-121378050D01*
X150128050Y-121288342D01*
X150147586Y-121250000D01*
X150494508Y-121250000D01*
X150514353Y-121375301D01*
X150514353Y-121375302D01*
X150514354Y-121375304D01*
X150571950Y-121488342D01*
X150661658Y-121578050D01*
X150774696Y-121635646D01*
X150900000Y-121655492D01*
X151025304Y-121635646D01*
X151138342Y-121578050D01*
X151228050Y-121488342D01*
X151285646Y-121375304D01*
X151305492Y-121250000D01*
X151285646Y-121124696D01*
X151228050Y-121011658D01*
X151138342Y-120921950D01*
X151025304Y-120864354D01*
X151025302Y-120864353D01*
X151025301Y-120864353D01*
X150900000Y-120844508D01*
X150774698Y-120864353D01*
X150661656Y-120921951D01*
X150571951Y-121011656D01*
X150514353Y-121124698D01*
X150494508Y-121250000D01*
X150147586Y-121250000D01*
X150185646Y-121175304D01*
X150205492Y-121050000D01*
X150185646Y-120924696D01*
X150128050Y-120811658D01*
X150038342Y-120721950D01*
X149925304Y-120664354D01*
X149925302Y-120664353D01*
X149925301Y-120664353D01*
X149800000Y-120644508D01*
X149674698Y-120664353D01*
X149561656Y-120721951D01*
X149471951Y-120811656D01*
X149414353Y-120924698D01*
X149394508Y-121050000D01*
X146195263Y-121050000D01*
X146125304Y-121014354D01*
X146125302Y-121014353D01*
X146125301Y-121014353D01*
X146000000Y-120994508D01*
X145874698Y-121014353D01*
X145761656Y-121071951D01*
X145671951Y-121161656D01*
X145614353Y-121274698D01*
X145594508Y-121400000D01*
X144395263Y-121400000D01*
X144325304Y-121364354D01*
X144325302Y-121364353D01*
X144325301Y-121364353D01*
X144200000Y-121344508D01*
X144074698Y-121364353D01*
X143961656Y-121421951D01*
X143871951Y-121511656D01*
X143814353Y-121624698D01*
X143794508Y-121750000D01*
X127199971Y-121750000D01*
X128227797Y-120722174D01*
X128280123Y-120700500D01*
X130306879Y-120700500D01*
X130359205Y-120722174D01*
X130380879Y-120774500D01*
X130372813Y-120808092D01*
X130369658Y-120814287D01*
X130364353Y-120824697D01*
X130344508Y-120950000D01*
X130364353Y-121075301D01*
X130364353Y-121075302D01*
X130364354Y-121075304D01*
X130421950Y-121188342D01*
X130511658Y-121278050D01*
X130624696Y-121335646D01*
X130750000Y-121355492D01*
X130875304Y-121335646D01*
X130928454Y-121308565D01*
X130962049Y-121300500D01*
X141071525Y-121300500D01*
X141071533Y-121300501D01*
X141080145Y-121300501D01*
X141169854Y-121300501D01*
X141169855Y-121300501D01*
X141232152Y-121274696D01*
X141252736Y-121266170D01*
X141316170Y-121202736D01*
X141316170Y-121202735D01*
X141326575Y-121192330D01*
X141326577Y-121192327D01*
X141918904Y-120600000D01*
X148294508Y-120600000D01*
X148314353Y-120725301D01*
X148314353Y-120725302D01*
X148314354Y-120725304D01*
X148371950Y-120838342D01*
X148461658Y-120928050D01*
X148574696Y-120985646D01*
X148700000Y-121005492D01*
X148825304Y-120985646D01*
X148938342Y-120928050D01*
X149028050Y-120838342D01*
X149085646Y-120725304D01*
X149105492Y-120600000D01*
X149085646Y-120474696D01*
X149028050Y-120361658D01*
X148938342Y-120271950D01*
X148825304Y-120214354D01*
X148825302Y-120214353D01*
X148825301Y-120214353D01*
X148700000Y-120194508D01*
X148574698Y-120214353D01*
X148461656Y-120271951D01*
X148371951Y-120361656D01*
X148314353Y-120474698D01*
X148294508Y-120600000D01*
X141918904Y-120600000D01*
X142818904Y-119700000D01*
X147394508Y-119700000D01*
X147414353Y-119825301D01*
X147414353Y-119825302D01*
X147414354Y-119825304D01*
X147471950Y-119938342D01*
X147561658Y-120028050D01*
X147674696Y-120085646D01*
X147800000Y-120105492D01*
X147925304Y-120085646D01*
X148038342Y-120028050D01*
X148128050Y-119938342D01*
X148185646Y-119825304D01*
X148205492Y-119700000D01*
X148185646Y-119574696D01*
X148128050Y-119461658D01*
X148038342Y-119371950D01*
X147925304Y-119314354D01*
X147925302Y-119314353D01*
X147925301Y-119314353D01*
X147800000Y-119294508D01*
X147674698Y-119314353D01*
X147561656Y-119371951D01*
X147471951Y-119461656D01*
X147414353Y-119574698D01*
X147394508Y-119700000D01*
X142818904Y-119700000D01*
X143392327Y-119126577D01*
X143392330Y-119126575D01*
X143402735Y-119116170D01*
X143402736Y-119116170D01*
X143466170Y-119052736D01*
X143500500Y-118969855D01*
X143500500Y-118150000D01*
X149394508Y-118150000D01*
X149414353Y-118275301D01*
X149414353Y-118275302D01*
X149414354Y-118275304D01*
X149471950Y-118388342D01*
X149561658Y-118478050D01*
X149674696Y-118535646D01*
X149800000Y-118555492D01*
X149925304Y-118535646D01*
X150038342Y-118478050D01*
X150128050Y-118388342D01*
X150173063Y-118300000D01*
X150544508Y-118300000D01*
X150564353Y-118425301D01*
X150564353Y-118425302D01*
X150564354Y-118425304D01*
X150621950Y-118538342D01*
X150711658Y-118628050D01*
X150824696Y-118685646D01*
X150950000Y-118705492D01*
X151075304Y-118685646D01*
X151188342Y-118628050D01*
X151278050Y-118538342D01*
X151335646Y-118425304D01*
X151355492Y-118300000D01*
X151335646Y-118174696D01*
X151278050Y-118061658D01*
X151188342Y-117971950D01*
X151075304Y-117914354D01*
X151075302Y-117914353D01*
X151075301Y-117914353D01*
X150950000Y-117894508D01*
X150824698Y-117914353D01*
X150711656Y-117971951D01*
X150621951Y-118061656D01*
X150564353Y-118174698D01*
X150544508Y-118300000D01*
X150173063Y-118300000D01*
X150185646Y-118275304D01*
X150205492Y-118150000D01*
X150185646Y-118024696D01*
X150128050Y-117911658D01*
X150038342Y-117821950D01*
X149925304Y-117764354D01*
X149925302Y-117764353D01*
X149925301Y-117764353D01*
X149800000Y-117744508D01*
X149674698Y-117764353D01*
X149674696Y-117764353D01*
X149674696Y-117764354D01*
X149643024Y-117780492D01*
X149561656Y-117821951D01*
X149471951Y-117911656D01*
X149414353Y-118024698D01*
X149394508Y-118150000D01*
X143500500Y-118150000D01*
X143500500Y-117567645D01*
X143522174Y-117515319D01*
X143574500Y-117493645D01*
X143608095Y-117501711D01*
X143674695Y-117535645D01*
X143674695Y-117535646D01*
X143691827Y-117538359D01*
X143800000Y-117555492D01*
X143925304Y-117535646D01*
X144038342Y-117478050D01*
X144128050Y-117388342D01*
X144185646Y-117275304D01*
X144205492Y-117150000D01*
X144185646Y-117024696D01*
X144128050Y-116911658D01*
X144038342Y-116821950D01*
X144038341Y-116821949D01*
X144033632Y-116818528D01*
X144034634Y-116817148D01*
X144002253Y-116779240D01*
X144006694Y-116722778D01*
X144039034Y-116690435D01*
X144063342Y-116678050D01*
X144153050Y-116588342D01*
X144210646Y-116475304D01*
X144216390Y-116439031D01*
X144245982Y-116390742D01*
X144301054Y-116377519D01*
X144349345Y-116407111D01*
X144362567Y-116439029D01*
X144364352Y-116450299D01*
X144364353Y-116450302D01*
X144364354Y-116450304D01*
X144421807Y-116563061D01*
X144421951Y-116563343D01*
X144511659Y-116653051D01*
X144585029Y-116690435D01*
X144621812Y-116733502D01*
X144617368Y-116789964D01*
X144585030Y-116822303D01*
X144536657Y-116846950D01*
X144446951Y-116936656D01*
X144389353Y-117049698D01*
X144369508Y-117175000D01*
X144389353Y-117300301D01*
X144389353Y-117300302D01*
X144389354Y-117300304D01*
X144446950Y-117413342D01*
X144536658Y-117503050D01*
X144649696Y-117560646D01*
X144775000Y-117580492D01*
X144900304Y-117560646D01*
X145013342Y-117503050D01*
X145103050Y-117413342D01*
X145160646Y-117300304D01*
X145180492Y-117175000D01*
X145160646Y-117049696D01*
X145103050Y-116936658D01*
X145013342Y-116846950D01*
X144993810Y-116836998D01*
X144939969Y-116809564D01*
X144903187Y-116766497D01*
X144907631Y-116710034D01*
X144939968Y-116677697D01*
X144988342Y-116653050D01*
X145078050Y-116563342D01*
X145135646Y-116450304D01*
X145155492Y-116325000D01*
X145143958Y-116252179D01*
X145157180Y-116197108D01*
X145205470Y-116167515D01*
X145260543Y-116180737D01*
X145269373Y-116188278D01*
X146579609Y-117498514D01*
X146579612Y-117498518D01*
X146583830Y-117502736D01*
X146647264Y-117566170D01*
X146661977Y-117572264D01*
X146661978Y-117572265D01*
X146661979Y-117572265D01*
X146730145Y-117600501D01*
X146730146Y-117600501D01*
X146828467Y-117600501D01*
X146828475Y-117600500D01*
X147328457Y-117600500D01*
X147380781Y-117622173D01*
X147461658Y-117703050D01*
X147574696Y-117760646D01*
X147700000Y-117780492D01*
X147825304Y-117760646D01*
X147938342Y-117703050D01*
X148028050Y-117613342D01*
X148085646Y-117500304D01*
X148105492Y-117375000D01*
X148085646Y-117249696D01*
X148028050Y-117136658D01*
X147938342Y-117046950D01*
X147825304Y-116989354D01*
X147825302Y-116989353D01*
X147825301Y-116989353D01*
X147700000Y-116969508D01*
X147574698Y-116989353D01*
X147461656Y-117046951D01*
X147433307Y-117075301D01*
X147380781Y-117127826D01*
X147328457Y-117149500D01*
X146899057Y-117149500D01*
X146846731Y-117127826D01*
X146093905Y-116375000D01*
X147294508Y-116375000D01*
X147314353Y-116500301D01*
X147314353Y-116500302D01*
X147314354Y-116500304D01*
X147371950Y-116613342D01*
X147461658Y-116703050D01*
X147574696Y-116760646D01*
X147700000Y-116780492D01*
X147825304Y-116760646D01*
X147938342Y-116703050D01*
X148028050Y-116613342D01*
X148085646Y-116500304D01*
X148105492Y-116375000D01*
X148085646Y-116249696D01*
X148028050Y-116136658D01*
X147965350Y-116073958D01*
X147943676Y-116021632D01*
X147965350Y-115969306D01*
X147984081Y-115955698D01*
X148038340Y-115928051D01*
X148038339Y-115928051D01*
X148038342Y-115928050D01*
X148128050Y-115838342D01*
X148173063Y-115750000D01*
X150644508Y-115750000D01*
X150664353Y-115875301D01*
X150664353Y-115875302D01*
X150664354Y-115875304D01*
X150721950Y-115988342D01*
X150811658Y-116078050D01*
X150924696Y-116135646D01*
X151050000Y-116155492D01*
X151175304Y-116135646D01*
X151288342Y-116078050D01*
X151378050Y-115988342D01*
X151435646Y-115875304D01*
X151455492Y-115750000D01*
X151435646Y-115624696D01*
X151378050Y-115511658D01*
X151288342Y-115421950D01*
X151175304Y-115364354D01*
X151175302Y-115364353D01*
X151175301Y-115364353D01*
X151050000Y-115344508D01*
X150924698Y-115364353D01*
X150811656Y-115421951D01*
X150721951Y-115511656D01*
X150664353Y-115624698D01*
X150644508Y-115750000D01*
X148173063Y-115750000D01*
X148185646Y-115725304D01*
X148205492Y-115600000D01*
X148185646Y-115474696D01*
X148128050Y-115361658D01*
X148038342Y-115271950D01*
X147925304Y-115214354D01*
X147925302Y-115214353D01*
X147925301Y-115214353D01*
X147800000Y-115194508D01*
X147674698Y-115214353D01*
X147561656Y-115271951D01*
X147471951Y-115361656D01*
X147414353Y-115474698D01*
X147394508Y-115600000D01*
X147414353Y-115725301D01*
X147414353Y-115725302D01*
X147414354Y-115725304D01*
X147471950Y-115838342D01*
X147471951Y-115838343D01*
X147534650Y-115901042D01*
X147556324Y-115953368D01*
X147534650Y-116005694D01*
X147515919Y-116019302D01*
X147461659Y-116046948D01*
X147371951Y-116136656D01*
X147314353Y-116249698D01*
X147294508Y-116375000D01*
X146093905Y-116375000D01*
X143726578Y-114007673D01*
X143726578Y-114007672D01*
X143652738Y-113933832D01*
X143652736Y-113933830D01*
X143632147Y-113925301D01*
X143628458Y-113923773D01*
X143628458Y-113923772D01*
X143614200Y-113917867D01*
X143574151Y-113877819D01*
X143574151Y-113821182D01*
X143614199Y-113781133D01*
X143642518Y-113775500D01*
X143946525Y-113775500D01*
X143946533Y-113775501D01*
X143955145Y-113775501D01*
X144044854Y-113775501D01*
X144044855Y-113775501D01*
X144107152Y-113749696D01*
X144127736Y-113741170D01*
X144191170Y-113677736D01*
X144191170Y-113677735D01*
X144201575Y-113667330D01*
X144201577Y-113667327D01*
X144317327Y-113551577D01*
X144317330Y-113551575D01*
X144327735Y-113541170D01*
X144327736Y-113541170D01*
X144391170Y-113477736D01*
X144397610Y-113462187D01*
X144408604Y-113435647D01*
X144408604Y-113435646D01*
X144413221Y-113424500D01*
X144425501Y-113394854D01*
X144425501Y-113305145D01*
X144425501Y-113299187D01*
X144425500Y-113299173D01*
X144425500Y-113171543D01*
X144447172Y-113119219D01*
X144485175Y-113081216D01*
X144537498Y-113059543D01*
X144589824Y-113081216D01*
X144661658Y-113153050D01*
X144774696Y-113210646D01*
X144900000Y-113230492D01*
X144937506Y-113224551D01*
X144992577Y-113237772D01*
X145001408Y-113245314D01*
X145258829Y-113502735D01*
X145258830Y-113502736D01*
X145322264Y-113566170D01*
X145405145Y-113600500D01*
X145696525Y-113600500D01*
X145696533Y-113600501D01*
X145705145Y-113600501D01*
X145794854Y-113600501D01*
X145794855Y-113600501D01*
X145857628Y-113574499D01*
X145877736Y-113566170D01*
X145941170Y-113502736D01*
X145941170Y-113502735D01*
X145951575Y-113492330D01*
X145951576Y-113492327D01*
X146221732Y-113222174D01*
X146274058Y-113200500D01*
X146344617Y-113200500D01*
X146396943Y-113222174D01*
X146418617Y-113274500D01*
X146410551Y-113308093D01*
X146399128Y-113330514D01*
X146389353Y-113349697D01*
X146369508Y-113474999D01*
X146369508Y-113475000D01*
X146372252Y-113492324D01*
X146385480Y-113575844D01*
X146372258Y-113630916D01*
X146323969Y-113660509D01*
X146299698Y-113664353D01*
X146186656Y-113721951D01*
X146096951Y-113811656D01*
X146096950Y-113811658D01*
X146062858Y-113878568D01*
X146039353Y-113924698D01*
X146019508Y-114050000D01*
X146039353Y-114175301D01*
X146039353Y-114175302D01*
X146039354Y-114175304D01*
X146096950Y-114288342D01*
X146186658Y-114378050D01*
X146241061Y-114405770D01*
X146299693Y-114435645D01*
X146299695Y-114435646D01*
X146320103Y-114438878D01*
X146368395Y-114468470D01*
X146381617Y-114523542D01*
X146381617Y-114523543D01*
X146369508Y-114599999D01*
X146389353Y-114725301D01*
X146389353Y-114725302D01*
X146389354Y-114725304D01*
X146446950Y-114838342D01*
X146536658Y-114928050D01*
X146649696Y-114985646D01*
X146775000Y-115005492D01*
X146900304Y-114985646D01*
X147013342Y-114928050D01*
X147103050Y-114838342D01*
X147160646Y-114725304D01*
X147176532Y-114625000D01*
X148969508Y-114625000D01*
X148989353Y-114750301D01*
X148989353Y-114750302D01*
X148989354Y-114750304D01*
X149046950Y-114863342D01*
X149136658Y-114953050D01*
X149249696Y-115010646D01*
X149375000Y-115030492D01*
X149500304Y-115010646D01*
X149613342Y-114953050D01*
X149703050Y-114863342D01*
X149760646Y-114750304D01*
X149773365Y-114670000D01*
X150614508Y-114670000D01*
X150634353Y-114795301D01*
X150634353Y-114795302D01*
X150634354Y-114795304D01*
X150691950Y-114908342D01*
X150781658Y-114998050D01*
X150894696Y-115055646D01*
X151020000Y-115075492D01*
X151145304Y-115055646D01*
X151258342Y-114998050D01*
X151348050Y-114908342D01*
X151405646Y-114795304D01*
X151425492Y-114670000D01*
X151405646Y-114544696D01*
X151393063Y-114520000D01*
X153244508Y-114520000D01*
X153264353Y-114645301D01*
X153264353Y-114645302D01*
X153264354Y-114645304D01*
X153321950Y-114758342D01*
X153411658Y-114848050D01*
X153524696Y-114905646D01*
X153650000Y-114925492D01*
X153775304Y-114905646D01*
X153888342Y-114848050D01*
X153978050Y-114758342D01*
X154035646Y-114645304D01*
X154055492Y-114520000D01*
X154035646Y-114394696D01*
X153978050Y-114281658D01*
X153888342Y-114191950D01*
X153775304Y-114134354D01*
X153775302Y-114134353D01*
X153775301Y-114134353D01*
X153650000Y-114114508D01*
X153524698Y-114134353D01*
X153524696Y-114134353D01*
X153524696Y-114134354D01*
X153493989Y-114150000D01*
X153411656Y-114191951D01*
X153321951Y-114281656D01*
X153264353Y-114394698D01*
X153244508Y-114520000D01*
X151393063Y-114520000D01*
X151348050Y-114431658D01*
X151258342Y-114341950D01*
X151145304Y-114284354D01*
X151145302Y-114284353D01*
X151145301Y-114284353D01*
X151020000Y-114264508D01*
X150894698Y-114284353D01*
X150894696Y-114284353D01*
X150894696Y-114284354D01*
X150869975Y-114296950D01*
X150781656Y-114341951D01*
X150691951Y-114431656D01*
X150634353Y-114544698D01*
X150614508Y-114670000D01*
X149773365Y-114670000D01*
X149780492Y-114625000D01*
X149760646Y-114499696D01*
X149703050Y-114386658D01*
X149703049Y-114386657D01*
X149701630Y-114383872D01*
X149697187Y-114327410D01*
X149733970Y-114284342D01*
X149779140Y-114277188D01*
X149800000Y-114280492D01*
X149925304Y-114260646D01*
X150038342Y-114203050D01*
X150128050Y-114113342D01*
X150185646Y-114000304D01*
X150205492Y-113875000D01*
X150185646Y-113749696D01*
X150128050Y-113636658D01*
X150038342Y-113546950D01*
X149925304Y-113489354D01*
X149925302Y-113489353D01*
X149925301Y-113489353D01*
X149800000Y-113469508D01*
X149674698Y-113489353D01*
X149561656Y-113546951D01*
X149471951Y-113636656D01*
X149414353Y-113749698D01*
X149394508Y-113875000D01*
X149414353Y-114000301D01*
X149414353Y-114000302D01*
X149414354Y-114000304D01*
X149446989Y-114064353D01*
X149473369Y-114116127D01*
X149477812Y-114172590D01*
X149441029Y-114215657D01*
X149395859Y-114222811D01*
X149375002Y-114219508D01*
X149375000Y-114219508D01*
X149249698Y-114239353D01*
X149249696Y-114239353D01*
X149249696Y-114239354D01*
X149239383Y-114244609D01*
X149136656Y-114296951D01*
X149046951Y-114386656D01*
X148989353Y-114499698D01*
X148969508Y-114625000D01*
X147176532Y-114625000D01*
X147180492Y-114600000D01*
X147160646Y-114474696D01*
X147103050Y-114361658D01*
X147013342Y-114271950D01*
X146900304Y-114214354D01*
X146900302Y-114214353D01*
X146900301Y-114214353D01*
X146879893Y-114211121D01*
X146831603Y-114181527D01*
X146818382Y-114126457D01*
X146830492Y-114050000D01*
X146814519Y-113949152D01*
X146827741Y-113894082D01*
X146876028Y-113864490D01*
X146900304Y-113860646D01*
X147013342Y-113803050D01*
X147103050Y-113713342D01*
X147160646Y-113600304D01*
X147180492Y-113475000D01*
X147160646Y-113349696D01*
X147139448Y-113308094D01*
X147135005Y-113251633D01*
X147171787Y-113208566D01*
X147205383Y-113200500D01*
X148398466Y-113200500D01*
X148450792Y-113222174D01*
X148471555Y-113262924D01*
X148489353Y-113375301D01*
X148489353Y-113375302D01*
X148489354Y-113375304D01*
X148546950Y-113488342D01*
X148636658Y-113578050D01*
X148749696Y-113635646D01*
X148875000Y-113655492D01*
X149000304Y-113635646D01*
X149113342Y-113578050D01*
X149203050Y-113488342D01*
X149260646Y-113375304D01*
X149280492Y-113250000D01*
X149260646Y-113124696D01*
X149203050Y-113011658D01*
X149113342Y-112921950D01*
X149000304Y-112864354D01*
X149000302Y-112864353D01*
X149000301Y-112864353D01*
X148875000Y-112844508D01*
X148837492Y-112850448D01*
X148782420Y-112837226D01*
X148773591Y-112829685D01*
X148727738Y-112783832D01*
X148727736Y-112783830D01*
X148727732Y-112783828D01*
X148703458Y-112773773D01*
X148703458Y-112773772D01*
X148644855Y-112749499D01*
X148555145Y-112749499D01*
X148546533Y-112749499D01*
X148546525Y-112749500D01*
X146105145Y-112749500D01*
X146097997Y-112750922D01*
X146097308Y-112747460D01*
X146053426Y-112747452D01*
X146013385Y-112707395D01*
X146011379Y-112701954D01*
X146010646Y-112699700D01*
X146010646Y-112699696D01*
X145968631Y-112617237D01*
X145963973Y-112608095D01*
X145959529Y-112551633D01*
X145996312Y-112508566D01*
X146029907Y-112500500D01*
X151669617Y-112500500D01*
X151721943Y-112522174D01*
X151743617Y-112574500D01*
X151735551Y-112608093D01*
X151730893Y-112617237D01*
X151714353Y-112649697D01*
X151694508Y-112775000D01*
X151714353Y-112900301D01*
X151714353Y-112900302D01*
X151714354Y-112900304D01*
X151771950Y-113013342D01*
X151861658Y-113103050D01*
X151974696Y-113160646D01*
X152100000Y-113180492D01*
X152225304Y-113160646D01*
X152338342Y-113103050D01*
X152428050Y-113013342D01*
X152485646Y-112900304D01*
X152505492Y-112775000D01*
X152485646Y-112649696D01*
X152464448Y-112608094D01*
X152460005Y-112551633D01*
X152496787Y-112508566D01*
X152530383Y-112500500D01*
X154425500Y-112500500D01*
X154477826Y-112522174D01*
X154499500Y-112574500D01*
X154499500Y-117390850D01*
X154477826Y-117443176D01*
X154425500Y-117464850D01*
X154373174Y-117443176D01*
X154359566Y-117424446D01*
X154353050Y-117411658D01*
X154263343Y-117321951D01*
X154263342Y-117321950D01*
X154150304Y-117264354D01*
X154150302Y-117264353D01*
X154150301Y-117264353D01*
X154025000Y-117244508D01*
X153899698Y-117264353D01*
X153786656Y-117321951D01*
X153696951Y-117411656D01*
X153696950Y-117411658D01*
X153651066Y-117501711D01*
X153639353Y-117524698D01*
X153619508Y-117650000D01*
X153639353Y-117775301D01*
X153639353Y-117775302D01*
X153639354Y-117775304D01*
X153696950Y-117888342D01*
X153786658Y-117978050D01*
X153899696Y-118035646D01*
X154025000Y-118055492D01*
X154150304Y-118035646D01*
X154263342Y-117978050D01*
X154353050Y-117888342D01*
X154359566Y-117875552D01*
X154402632Y-117838771D01*
X154459095Y-117843214D01*
X154495878Y-117886281D01*
X154499500Y-117909149D01*
X154499500Y-123425500D01*
X154477826Y-123477826D01*
X154425500Y-123499500D01*
X145468554Y-123499500D01*
X145416228Y-123477826D01*
X145401241Y-123456241D01*
X145387202Y-123425500D01*
X145320321Y-123279050D01*
X145305181Y-123255492D01*
X145204285Y-123098493D01*
X145204284Y-123098492D01*
X145204281Y-123098487D01*
X145063724Y-122936276D01*
X144906454Y-122800000D01*
X148594508Y-122800000D01*
X148614353Y-122925301D01*
X148614353Y-122925302D01*
X148614354Y-122925304D01*
X148671950Y-123038342D01*
X148761658Y-123128050D01*
X148874696Y-123185646D01*
X149000000Y-123205492D01*
X149125304Y-123185646D01*
X149238342Y-123128050D01*
X149328050Y-123038342D01*
X149385646Y-122925304D01*
X149389654Y-122900000D01*
X150919508Y-122900000D01*
X150939353Y-123025301D01*
X150939353Y-123025302D01*
X150939354Y-123025304D01*
X150996950Y-123138342D01*
X151086658Y-123228050D01*
X151199696Y-123285646D01*
X151325000Y-123305492D01*
X151450304Y-123285646D01*
X151563342Y-123228050D01*
X151653050Y-123138342D01*
X151710646Y-123025304D01*
X151730492Y-122900000D01*
X151722573Y-122850000D01*
X153019508Y-122850000D01*
X153039353Y-122975301D01*
X153039353Y-122975302D01*
X153039354Y-122975304D01*
X153096950Y-123088342D01*
X153186658Y-123178050D01*
X153299696Y-123235646D01*
X153425000Y-123255492D01*
X153550304Y-123235646D01*
X153663342Y-123178050D01*
X153753050Y-123088342D01*
X153810646Y-122975304D01*
X153830492Y-122850000D01*
X153810646Y-122724696D01*
X153753050Y-122611658D01*
X153663342Y-122521950D01*
X153550304Y-122464354D01*
X153550302Y-122464353D01*
X153550301Y-122464353D01*
X153425000Y-122444508D01*
X153299698Y-122464353D01*
X153186656Y-122521951D01*
X153096951Y-122611656D01*
X153039353Y-122724698D01*
X153019508Y-122850000D01*
X151722573Y-122850000D01*
X151710646Y-122774696D01*
X151653050Y-122661658D01*
X151563342Y-122571950D01*
X151450304Y-122514354D01*
X151450302Y-122514353D01*
X151450301Y-122514353D01*
X151325000Y-122494508D01*
X151199698Y-122514353D01*
X151086656Y-122571951D01*
X150996951Y-122661656D01*
X150939353Y-122774698D01*
X150919508Y-122900000D01*
X149389654Y-122900000D01*
X149405492Y-122800000D01*
X149385646Y-122674696D01*
X149328050Y-122561658D01*
X149238342Y-122471950D01*
X149125304Y-122414354D01*
X149125302Y-122414353D01*
X149125301Y-122414353D01*
X149000000Y-122394508D01*
X148874698Y-122414353D01*
X148761656Y-122471951D01*
X148671951Y-122561656D01*
X148614353Y-122674698D01*
X148594508Y-122800000D01*
X144906454Y-122800000D01*
X144901513Y-122795719D01*
X144901508Y-122795715D01*
X144901506Y-122795714D01*
X144720956Y-122679682D01*
X144720948Y-122679678D01*
X144525709Y-122590515D01*
X144525704Y-122590513D01*
X144319776Y-122530047D01*
X144319764Y-122530045D01*
X144107322Y-122499500D01*
X144107318Y-122499500D01*
X144065892Y-122499500D01*
X130065892Y-122499500D01*
X130000000Y-122499500D01*
X129892682Y-122499500D01*
X129892677Y-122499500D01*
X129680235Y-122530045D01*
X129680223Y-122530047D01*
X129474295Y-122590513D01*
X129474290Y-122590515D01*
X129279051Y-122679678D01*
X129279043Y-122679682D01*
X129098493Y-122795714D01*
X129098487Y-122795718D01*
X129098487Y-122795719D01*
X129006992Y-122875000D01*
X128936276Y-122936276D01*
X128795714Y-123098493D01*
X128679682Y-123279043D01*
X128679678Y-123279051D01*
X128598759Y-123456241D01*
X128557306Y-123494834D01*
X128531446Y-123499500D01*
X119574500Y-123499500D01*
X119522174Y-123477826D01*
X119500500Y-123425500D01*
X119500500Y-122900000D01*
X119994508Y-122900000D01*
X120014353Y-123025301D01*
X120014353Y-123025302D01*
X120014354Y-123025304D01*
X120071950Y-123138342D01*
X120161658Y-123228050D01*
X120274696Y-123285646D01*
X120400000Y-123305492D01*
X120525304Y-123285646D01*
X120638342Y-123228050D01*
X120728050Y-123138342D01*
X120785646Y-123025304D01*
X120805492Y-122900000D01*
X120785646Y-122774696D01*
X120728050Y-122661658D01*
X120638342Y-122571950D01*
X120525304Y-122514354D01*
X120525302Y-122514353D01*
X120525301Y-122514353D01*
X120400000Y-122494508D01*
X120274698Y-122514353D01*
X120161656Y-122571951D01*
X120071951Y-122661656D01*
X120014353Y-122774698D01*
X119994508Y-122900000D01*
X119500500Y-122900000D01*
X119500500Y-121850000D01*
X119919508Y-121850000D01*
X119939353Y-121975301D01*
X119939353Y-121975302D01*
X119939354Y-121975304D01*
X119996950Y-122088342D01*
X120086658Y-122178050D01*
X120199696Y-122235646D01*
X120325000Y-122255492D01*
X120450304Y-122235646D01*
X120563342Y-122178050D01*
X120653050Y-122088342D01*
X120710646Y-121975304D01*
X120730492Y-121850000D01*
X120710646Y-121724696D01*
X120653050Y-121611658D01*
X120563342Y-121521950D01*
X120450304Y-121464354D01*
X120450302Y-121464353D01*
X120450301Y-121464353D01*
X120325000Y-121444508D01*
X120199698Y-121464353D01*
X120086656Y-121521951D01*
X119996951Y-121611656D01*
X119939353Y-121724698D01*
X119919508Y-121850000D01*
X119500500Y-121850000D01*
X119500500Y-117450000D01*
X125994508Y-117450000D01*
X126014353Y-117575301D01*
X126014353Y-117575302D01*
X126014354Y-117575304D01*
X126071950Y-117688342D01*
X126161658Y-117778050D01*
X126274696Y-117835646D01*
X126400000Y-117855492D01*
X126525304Y-117835646D01*
X126638342Y-117778050D01*
X126728050Y-117688342D01*
X126785646Y-117575304D01*
X126805492Y-117450000D01*
X126785646Y-117324696D01*
X126728050Y-117211658D01*
X126638342Y-117121950D01*
X126525304Y-117064354D01*
X126525302Y-117064353D01*
X126525301Y-117064353D01*
X126400000Y-117044508D01*
X126274698Y-117064353D01*
X126161656Y-117121951D01*
X126071951Y-117211656D01*
X126014353Y-117324698D01*
X125994508Y-117450000D01*
X119500500Y-117450000D01*
X119500500Y-116300000D01*
X119794508Y-116300000D01*
X119814353Y-116425301D01*
X119814353Y-116425302D01*
X119814354Y-116425304D01*
X119871950Y-116538342D01*
X119961658Y-116628050D01*
X120074696Y-116685646D01*
X120200000Y-116705492D01*
X120325304Y-116685646D01*
X120438342Y-116628050D01*
X120528050Y-116538342D01*
X120585646Y-116425304D01*
X120605492Y-116300000D01*
X120585646Y-116174696D01*
X120528050Y-116061658D01*
X120438342Y-115971950D01*
X120325304Y-115914354D01*
X120325302Y-115914353D01*
X120325301Y-115914353D01*
X120200000Y-115894508D01*
X120074698Y-115914353D01*
X119961656Y-115971951D01*
X119871951Y-116061656D01*
X119814353Y-116174698D01*
X119794508Y-116300000D01*
X119500500Y-116300000D01*
X119500500Y-113200000D01*
X121594508Y-113200000D01*
X121614353Y-113325301D01*
X121614353Y-113325302D01*
X121614354Y-113325304D01*
X121671950Y-113438342D01*
X121761658Y-113528050D01*
X121874696Y-113585646D01*
X122000000Y-113605492D01*
X122125304Y-113585646D01*
X122125306Y-113585644D01*
X122130514Y-113584820D01*
X122185586Y-113598042D01*
X122215179Y-113646333D01*
X122215179Y-113669485D01*
X122197496Y-113781133D01*
X122194508Y-113800000D01*
X122197863Y-113821182D01*
X122214353Y-113925301D01*
X122214353Y-113925302D01*
X122214354Y-113925304D01*
X122256913Y-114008830D01*
X122271951Y-114038343D01*
X122331282Y-114097674D01*
X122352956Y-114150000D01*
X122331282Y-114202326D01*
X122271951Y-114261656D01*
X122214353Y-114374698D01*
X122194508Y-114500000D01*
X122214353Y-114625301D01*
X122214353Y-114625302D01*
X122214354Y-114625304D01*
X122271950Y-114738342D01*
X122361658Y-114828050D01*
X122474696Y-114885646D01*
X122600000Y-114905492D01*
X122725304Y-114885646D01*
X122838342Y-114828050D01*
X122898174Y-114768218D01*
X122950500Y-114746544D01*
X123002826Y-114768218D01*
X123024500Y-114820544D01*
X123024500Y-115825941D01*
X123002826Y-115878267D01*
X122801407Y-116079685D01*
X122749081Y-116101359D01*
X122737507Y-116100448D01*
X122700000Y-116094508D01*
X122699999Y-116094508D01*
X122574698Y-116114353D01*
X122461656Y-116171951D01*
X122371951Y-116261656D01*
X122314353Y-116374698D01*
X122294508Y-116500000D01*
X122314353Y-116625301D01*
X122314353Y-116625302D01*
X122314354Y-116625304D01*
X122371950Y-116738342D01*
X122461658Y-116828050D01*
X122574696Y-116885646D01*
X122700000Y-116905492D01*
X122825304Y-116885646D01*
X122938342Y-116828050D01*
X123028050Y-116738342D01*
X123085646Y-116625304D01*
X123105492Y-116500000D01*
X123099551Y-116462491D01*
X123112772Y-116407420D01*
X123120307Y-116398597D01*
X123441170Y-116077736D01*
X123475500Y-115994855D01*
X123475500Y-115905146D01*
X123475500Y-115675000D01*
X123869508Y-115675000D01*
X123889353Y-115800301D01*
X123889353Y-115800302D01*
X123889354Y-115800304D01*
X123946950Y-115913342D01*
X124036658Y-116003050D01*
X124149696Y-116060646D01*
X124275000Y-116080492D01*
X124400304Y-116060646D01*
X124513342Y-116003050D01*
X124603050Y-115913342D01*
X124660646Y-115800304D01*
X124680492Y-115675000D01*
X124660646Y-115549696D01*
X124603050Y-115436658D01*
X124513342Y-115346950D01*
X124441980Y-115310589D01*
X137805097Y-115310589D01*
X137824942Y-115435890D01*
X137824942Y-115435891D01*
X137824943Y-115435893D01*
X137882539Y-115548931D01*
X137972247Y-115638639D01*
X138085285Y-115696235D01*
X138210589Y-115716081D01*
X138335893Y-115696235D01*
X138448931Y-115638639D01*
X138538639Y-115548931D01*
X138596235Y-115435893D01*
X138616081Y-115310589D01*
X138596235Y-115185285D01*
X138538639Y-115072247D01*
X138448931Y-114982539D01*
X138335893Y-114924943D01*
X138335891Y-114924942D01*
X138335890Y-114924942D01*
X138210589Y-114905097D01*
X138085287Y-114924942D01*
X138085285Y-114924942D01*
X138085285Y-114924943D01*
X138084208Y-114925492D01*
X137972245Y-114982540D01*
X137882540Y-115072245D01*
X137882539Y-115072247D01*
X137836976Y-115161670D01*
X137824942Y-115185287D01*
X137805097Y-115310589D01*
X124441980Y-115310589D01*
X124400304Y-115289354D01*
X124400302Y-115289353D01*
X124400301Y-115289353D01*
X124275000Y-115269508D01*
X124149698Y-115289353D01*
X124036656Y-115346951D01*
X123946951Y-115436656D01*
X123889353Y-115549698D01*
X123869508Y-115675000D01*
X123475500Y-115675000D01*
X123475500Y-114575000D01*
X129444508Y-114575000D01*
X129464353Y-114700301D01*
X129464353Y-114700302D01*
X129464354Y-114700304D01*
X129521950Y-114813342D01*
X129611658Y-114903050D01*
X129724696Y-114960646D01*
X129850000Y-114980492D01*
X129975304Y-114960646D01*
X130088342Y-114903050D01*
X130178050Y-114813342D01*
X130235646Y-114700304D01*
X130255492Y-114575000D01*
X130235646Y-114449696D01*
X130178050Y-114336658D01*
X130088342Y-114246950D01*
X129975304Y-114189354D01*
X129975302Y-114189353D01*
X129975301Y-114189353D01*
X129850000Y-114169508D01*
X129724698Y-114189353D01*
X129724696Y-114189353D01*
X129724696Y-114189354D01*
X129703802Y-114200000D01*
X129611656Y-114246951D01*
X129521951Y-114336656D01*
X129464353Y-114449698D01*
X129444508Y-114575000D01*
X123475500Y-114575000D01*
X123475500Y-114155145D01*
X123449752Y-114092983D01*
X123441171Y-114072266D01*
X123441169Y-114072263D01*
X123377735Y-114008829D01*
X123051578Y-113682673D01*
X123051578Y-113682672D01*
X122977737Y-113608831D01*
X122977736Y-113608830D01*
X122970445Y-113605810D01*
X122932829Y-113571037D01*
X122928050Y-113561658D01*
X122838343Y-113471951D01*
X122838342Y-113471950D01*
X122725304Y-113414354D01*
X122725302Y-113414353D01*
X122725301Y-113414353D01*
X122600000Y-113394508D01*
X122469485Y-113415179D01*
X122414413Y-113401957D01*
X122384820Y-113353666D01*
X122384820Y-113330514D01*
X122385644Y-113325306D01*
X122385646Y-113325304D01*
X122405492Y-113200000D01*
X123994508Y-113200000D01*
X124014353Y-113325301D01*
X124014353Y-113325302D01*
X124014354Y-113325304D01*
X124071950Y-113438342D01*
X124161658Y-113528050D01*
X124274696Y-113585646D01*
X124400000Y-113605492D01*
X124525304Y-113585646D01*
X124638342Y-113528050D01*
X124728050Y-113438342D01*
X124785646Y-113325304D01*
X124805492Y-113200000D01*
X124785646Y-113074696D01*
X124728050Y-112961658D01*
X124638342Y-112871950D01*
X124525304Y-112814354D01*
X124525302Y-112814353D01*
X124525301Y-112814353D01*
X124400000Y-112794508D01*
X124274698Y-112814353D01*
X124161656Y-112871951D01*
X124071951Y-112961656D01*
X124014353Y-113074698D01*
X123994508Y-113200000D01*
X122405492Y-113200000D01*
X122385646Y-113074696D01*
X122328050Y-112961658D01*
X122238342Y-112871950D01*
X122125304Y-112814354D01*
X122125302Y-112814353D01*
X122125301Y-112814353D01*
X122000000Y-112794508D01*
X121874698Y-112814353D01*
X121761656Y-112871951D01*
X121671951Y-112961656D01*
X121614353Y-113074698D01*
X121594508Y-113200000D01*
X119500500Y-113200000D01*
X119500500Y-112574500D01*
X119522174Y-112522174D01*
X119574500Y-112500500D01*
X127129456Y-112500500D01*
X127181782Y-112522174D01*
G37*
%TD.AperFunction*%
%TD*%
M02*
