%TF.GenerationSoftware,KiCad,Pcbnew,8.0.7*%
%TF.CreationDate,2025-03-09T23:38:14+01:00*%
%TF.ProjectId,HSSM-LVPCB,4853534d-2d4c-4565-9043-422e6b696361,rev?*%
%TF.SameCoordinates,Original*%
%TF.FileFunction,Copper,L3,Inr*%
%TF.FilePolarity,Positive*%
%FSLAX46Y46*%
G04 Gerber Fmt 4.6, Leading zero omitted, Abs format (unit mm)*
G04 Created by KiCad (PCBNEW 8.0.7) date 2025-03-09 23:38:14*
%MOMM*%
%LPD*%
G01*
G04 APERTURE LIST*
%TA.AperFunction,ComponentPad*%
%ADD10C,1.117600*%
%TD*%
%TA.AperFunction,ViaPad*%
%ADD11C,0.500000*%
%TD*%
%TA.AperFunction,Conductor*%
%ADD12C,0.150000*%
%TD*%
%TA.AperFunction,Conductor*%
%ADD13C,0.300000*%
%TD*%
G04 APERTURE END LIST*
D10*
%TO.N,GND*%
%TO.C,J2*%
X130729999Y-116400000D03*
%TO.N,/BOOT*%
X132000000Y-116400000D03*
%TO.N,/Enable*%
X133269999Y-116400000D03*
%TO.N,/U0RXD*%
X134539999Y-116400000D03*
%TO.N,/U0TXD*%
X135809998Y-116400000D03*
%TO.N,+3V3*%
X137079999Y-116400000D03*
%TD*%
D11*
%TO.N,GND*%
X124400000Y-113200000D03*
X147100000Y-119400000D03*
X129000000Y-116700000D03*
X143825000Y-116350000D03*
X131400000Y-119025000D03*
X147850000Y-120150000D03*
X143425000Y-121750000D03*
X144775000Y-117175000D03*
X124275000Y-115675000D03*
X152400000Y-121250000D03*
X151325000Y-122900000D03*
X154000000Y-119750000D03*
X143300000Y-116800000D03*
X151100000Y-121275001D03*
X145600000Y-117200000D03*
X151020000Y-114670000D03*
X149400000Y-117950000D03*
X151050000Y-115750000D03*
X122000000Y-113200000D03*
X144750000Y-116325000D03*
X150500000Y-121000000D03*
X148887500Y-120550000D03*
X154025000Y-117650000D03*
X143800000Y-117150000D03*
X136650000Y-119000000D03*
X143300000Y-115900000D03*
X148450000Y-120200000D03*
X150450000Y-118500000D03*
X126400000Y-117450000D03*
X149000000Y-123100000D03*
X146100000Y-121100000D03*
X151100000Y-118600000D03*
X154100000Y-116125000D03*
X129850000Y-114575000D03*
X120200000Y-116300000D03*
X152450000Y-118300000D03*
X144300000Y-116700000D03*
X145900000Y-115600000D03*
X146100000Y-121700000D03*
X149350000Y-120950000D03*
X153425000Y-122850000D03*
X143800000Y-115400000D03*
X120325000Y-121850000D03*
X135275000Y-114200000D03*
X153950000Y-121300000D03*
X120400000Y-122900000D03*
X149000000Y-122500000D03*
X145600000Y-116400000D03*
X144800000Y-117900000D03*
X149900000Y-121000000D03*
X138573089Y-116473089D03*
X144200000Y-121750000D03*
X145600000Y-117900000D03*
X150650000Y-117850000D03*
X149900000Y-118300000D03*
X149375000Y-114625000D03*
X147700000Y-123200000D03*
%TO.N,+3V3*%
X144450000Y-120550000D03*
X149825000Y-116050000D03*
X146500000Y-119150000D03*
X121700000Y-116300000D03*
X126300000Y-118200000D03*
X137650000Y-114650000D03*
X135550000Y-118350000D03*
X128700000Y-113925000D03*
X141900000Y-121600000D03*
X141900000Y-121025000D03*
%TO.N,/BOOT*%
X132500000Y-114600000D03*
X144200000Y-112800000D03*
%TO.N,/GPIO_Q1*%
X130700000Y-119200000D03*
X122700000Y-116500000D03*
X141125000Y-119000000D03*
X122600000Y-113800000D03*
%TO.N,/GPIO_Q2*%
X132900000Y-119000000D03*
X143425000Y-112825000D03*
X127475000Y-112900000D03*
X152100000Y-112775000D03*
%TO.N,/Enable*%
X133350000Y-114675000D03*
X147700000Y-117375000D03*
%TO.N,Net-(U1-SPIQ)*%
X141950000Y-114600000D03*
X130750000Y-120950000D03*
%TO.N,Net-(U1-SPIWP)*%
X141250000Y-114450000D03*
X129725000Y-116725000D03*
%TO.N,Net-(U1-SPIHD)*%
X140800000Y-116025000D03*
X120400000Y-120400000D03*
%TO.N,Net-(U1-SPICLK)*%
X120500000Y-119200000D03*
X139775000Y-116475000D03*
%TO.N,Net-(U1-SPID)*%
X120450000Y-118050000D03*
X139150000Y-116800000D03*
%TO.N,/SPICS0*%
X124650000Y-121875000D03*
X140300000Y-115550000D03*
X126600000Y-121000000D03*
%TO.N,/GPIO8*%
X144900000Y-112825000D03*
X148875000Y-113250000D03*
%TO.N,VDD_SPI*%
X140750000Y-114950000D03*
X123675000Y-122875000D03*
%TO.N,/S2_sym*%
X147800000Y-115600000D03*
X153650000Y-114520000D03*
%TO.N,/DO1*%
X135150000Y-119000000D03*
X145625000Y-112825000D03*
%TO.N,/DO3*%
X149800000Y-113875000D03*
%TO.N,/P_MEAS_RST*%
X140950000Y-117275000D03*
X135900000Y-119000000D03*
%TO.N,/GPIO_S2*%
X138050000Y-113050000D03*
X128825000Y-113250000D03*
X133650000Y-119000000D03*
%TO.N,/DO2*%
X147700000Y-116375000D03*
%TO.N,/GPIO_S1*%
X140400000Y-119000000D03*
%TO.N,+12V*%
X132150000Y-119000000D03*
%TO.N,/GPIO_S3*%
X134400000Y-119000000D03*
X139000000Y-112825000D03*
X129650000Y-113450000D03*
%TO.N,/LP_UART_RXD*%
X146775000Y-114600000D03*
%TO.N,/LP_UART_TXD*%
X146425000Y-114050000D03*
%TO.N,/S1_sym*%
X122600000Y-114500000D03*
%TO.N,/S3_sym*%
X138210589Y-115310589D03*
X146775000Y-113475000D03*
%TD*%
D12*
%TO.N,/BOOT*%
X144200000Y-112800000D02*
X144200000Y-113350000D01*
X138875000Y-113900000D02*
X136675000Y-113900000D01*
X133425000Y-113400000D02*
X132500000Y-114325000D01*
X144200000Y-113350000D02*
X144000000Y-113550000D01*
X144000000Y-113550000D02*
X143325000Y-113550000D01*
X132500000Y-114325000D02*
X132500000Y-114600000D01*
X143325000Y-113550000D02*
X142750000Y-112975000D01*
X136675000Y-113900000D02*
X136175000Y-113400000D01*
X139800000Y-112975000D02*
X138875000Y-113900000D01*
X136175000Y-113400000D02*
X133425000Y-113400000D01*
X142750000Y-112975000D02*
X139800000Y-112975000D01*
%TO.N,/GPIO_Q1*%
X123250000Y-114200000D02*
X122850000Y-113800000D01*
X122850000Y-113800000D02*
X122600000Y-113800000D01*
X130700000Y-119200000D02*
X131000000Y-119500000D01*
X123250000Y-115950000D02*
X123250000Y-114200000D01*
X122700000Y-116500000D02*
X123250000Y-115950000D01*
X140700000Y-119500000D02*
X141125000Y-119075000D01*
X131000000Y-119500000D02*
X140700000Y-119500000D01*
X141125000Y-119075000D02*
X141125000Y-119000000D01*
%TO.N,/Enable*%
X135675000Y-113650000D02*
X133900000Y-113650000D01*
X145550000Y-114250000D02*
X143650000Y-114250000D01*
X143350000Y-114125000D02*
X142450000Y-113225000D01*
X143650000Y-114250000D02*
X143525000Y-114125000D01*
X136200000Y-114175000D02*
X135675000Y-113650000D01*
X138975000Y-114175000D02*
X136200000Y-114175000D01*
X147175000Y-117375000D02*
X146700000Y-116900000D01*
X133350000Y-114200000D02*
X133350000Y-114675000D01*
X142450000Y-113225000D02*
X139925000Y-113225000D01*
X146700000Y-116900000D02*
X146700000Y-115400000D01*
X139925000Y-113225000D02*
X138975000Y-114175000D01*
X133900000Y-113650000D02*
X133350000Y-114200000D01*
X147700000Y-117375000D02*
X147175000Y-117375000D01*
X146700000Y-115400000D02*
X145550000Y-114250000D01*
X143525000Y-114125000D02*
X143350000Y-114125000D01*
%TO.N,Net-(U1-SPIQ)*%
X132600000Y-121250000D02*
X132600000Y-121131836D01*
X136018163Y-121013673D02*
X136331837Y-121013673D01*
X135900000Y-121250000D02*
X135900000Y-121131836D01*
X130750000Y-120950000D02*
X131050000Y-121250000D01*
X138650000Y-121250000D02*
X138650000Y-121367077D01*
X137550000Y-121250000D02*
X137550000Y-121368157D01*
X132050000Y-121250000D02*
X132050000Y-121368164D01*
X136568163Y-121486327D02*
X136881837Y-121486327D01*
X133150000Y-121250000D02*
X133150000Y-121368164D01*
X134800000Y-121250000D02*
X134800000Y-121131836D01*
X131050000Y-121250000D02*
X131375000Y-121250000D01*
X139625000Y-121250000D02*
X139877100Y-121250000D01*
X132168163Y-121486327D02*
X132481837Y-121486327D01*
X136450000Y-121250000D02*
X136450000Y-121368164D01*
X132718163Y-121013673D02*
X133031837Y-121013673D01*
X137000000Y-121250000D02*
X137000000Y-121131843D01*
X134800000Y-121368164D02*
X134800000Y-121250000D01*
X135468163Y-121486327D02*
X135781837Y-121486327D01*
X133268163Y-121486327D02*
X133581837Y-121486327D01*
X138218157Y-121013686D02*
X138531843Y-121013686D01*
X138100000Y-121368157D02*
X138100000Y-121250000D01*
X135900000Y-121368164D02*
X135900000Y-121250000D01*
X134368163Y-121486327D02*
X134681837Y-121486327D01*
X139317077Y-121250000D02*
X139625000Y-121250000D01*
X142800000Y-115450000D02*
X141950000Y-114600000D01*
X138100000Y-121250000D02*
X138100000Y-121131843D01*
X133818163Y-121013673D02*
X134131837Y-121013673D01*
X138650000Y-121131843D02*
X138650000Y-121250000D01*
X133150000Y-121131836D02*
X133150000Y-121250000D01*
X134250000Y-121131836D02*
X134250000Y-121250000D01*
X132600000Y-121368164D02*
X132600000Y-121250000D01*
X134918163Y-121013673D02*
X135231837Y-121013673D01*
X135350000Y-121250000D02*
X135350000Y-121368164D01*
X132050000Y-121132923D02*
X132050000Y-121250000D01*
X134250000Y-121250000D02*
X134250000Y-121368164D01*
X139877100Y-121250000D02*
X140950000Y-121250000D01*
X136450000Y-121131836D02*
X136450000Y-121250000D01*
X131609154Y-121015846D02*
X131932923Y-121015846D01*
X137668157Y-121486314D02*
X137981843Y-121486314D01*
X137118157Y-121013686D02*
X137431843Y-121013686D01*
X137000000Y-121368164D02*
X137000000Y-121250000D01*
X135350000Y-121131836D02*
X135350000Y-121250000D01*
X133700000Y-121250000D02*
X133700000Y-121131836D01*
X137550000Y-121131843D02*
X137550000Y-121250000D01*
X140950000Y-121250000D02*
X142800000Y-119400000D01*
X138767077Y-121484154D02*
X139082923Y-121484154D01*
X133700000Y-121368164D02*
X133700000Y-121250000D01*
X142800000Y-119400000D02*
X142800000Y-115450000D01*
X132050000Y-121368164D02*
G75*
G03*
X132168163Y-121486400I118200J-36D01*
G01*
X134131837Y-121013673D02*
G75*
G02*
X134249927Y-121131836I-37J-118127D01*
G01*
X138650000Y-121367077D02*
G75*
G03*
X138767077Y-121484200I117100J-23D01*
G01*
X139082923Y-121484154D02*
G75*
G03*
X139199954Y-121367077I-23J117054D01*
G01*
X134800000Y-121131836D02*
G75*
G02*
X134918163Y-121013600I118200J36D01*
G01*
X137000000Y-121131843D02*
G75*
G02*
X137118157Y-121013600I118200J43D01*
G01*
X133150000Y-121368164D02*
G75*
G03*
X133268163Y-121486400I118200J-36D01*
G01*
X135781837Y-121486327D02*
G75*
G03*
X135899927Y-121368164I-37J118127D01*
G01*
X136331837Y-121013673D02*
G75*
G02*
X136449927Y-121131836I-37J-118127D01*
G01*
X137550000Y-121368157D02*
G75*
G03*
X137668157Y-121486400I118200J-43D01*
G01*
X133700000Y-121131836D02*
G75*
G02*
X133818163Y-121013600I118200J36D01*
G01*
X138100000Y-121131843D02*
G75*
G02*
X138218157Y-121013600I118200J43D01*
G01*
X137981843Y-121486314D02*
G75*
G03*
X138099914Y-121368157I-43J118114D01*
G01*
X135900000Y-121131836D02*
G75*
G02*
X136018163Y-121013600I118200J36D01*
G01*
X131932923Y-121015846D02*
G75*
G02*
X132049954Y-121132923I-23J-117054D01*
G01*
X132600000Y-121131836D02*
G75*
G02*
X132718163Y-121013600I118200J36D01*
G01*
X138531843Y-121013686D02*
G75*
G02*
X138649914Y-121131843I-43J-118114D01*
G01*
X136450000Y-121368164D02*
G75*
G03*
X136568163Y-121486400I118200J-36D01*
G01*
X134681837Y-121486327D02*
G75*
G03*
X134799927Y-121368164I-37J118127D01*
G01*
X131375000Y-121250000D02*
G75*
G03*
X131492100Y-121132923I0J117100D01*
G01*
X136881837Y-121486327D02*
G75*
G03*
X136999927Y-121368164I-37J118127D01*
G01*
X131492077Y-121132923D02*
G75*
G02*
X131609154Y-121015777I117123J23D01*
G01*
X132481837Y-121486327D02*
G75*
G03*
X132599927Y-121368164I-37J118127D01*
G01*
X139200000Y-121367077D02*
G75*
G02*
X139317077Y-121250000I117100J-23D01*
G01*
X135350000Y-121368164D02*
G75*
G03*
X135468163Y-121486400I118200J-36D01*
G01*
X135231837Y-121013673D02*
G75*
G02*
X135349927Y-121131836I-37J-118127D01*
G01*
X134250000Y-121368164D02*
G75*
G03*
X134368163Y-121486400I118200J-36D01*
G01*
X133581837Y-121486327D02*
G75*
G03*
X133699927Y-121368164I-37J118127D01*
G01*
X137431843Y-121013686D02*
G75*
G02*
X137549914Y-121131843I-43J-118114D01*
G01*
X133031837Y-121013673D02*
G75*
G02*
X133149927Y-121131836I-37J-118127D01*
G01*
%TO.N,Net-(U1-SPIWP)*%
X130853725Y-114854742D02*
X130853725Y-115072000D01*
X137487500Y-115537500D02*
X137875000Y-115925000D01*
X137875000Y-115925000D02*
X138425000Y-115925000D01*
X138425000Y-115925000D02*
X139900000Y-114450000D01*
X135071725Y-114726747D02*
X135185725Y-114726747D01*
X135983725Y-115457949D02*
X135983725Y-115300000D01*
X130853725Y-115072000D02*
X130853725Y-115300000D01*
X133703725Y-115457950D02*
X133703725Y-115300000D01*
X136211725Y-114476741D02*
X136325725Y-114476741D01*
X132563725Y-115300000D02*
X132563725Y-115192049D01*
X129725000Y-115475000D02*
X129900000Y-115300000D01*
X133911674Y-114884101D02*
X134065776Y-114884101D01*
X133133725Y-115300000D02*
X133133725Y-115457950D01*
X134273725Y-115300000D02*
X134273725Y-115457950D01*
X133291674Y-115615899D02*
X133545776Y-115615899D01*
X131423725Y-115300000D02*
X131423725Y-114554747D01*
X139900000Y-114450000D02*
X141250000Y-114450000D01*
X137250000Y-115300000D02*
X137487500Y-115537500D01*
X135413725Y-115300000D02*
X135413725Y-115457949D01*
X131993725Y-115300000D02*
X131993725Y-115457950D01*
X132151674Y-115615899D02*
X132405776Y-115615899D01*
X135571674Y-115615898D02*
X135825776Y-115615898D01*
X133133725Y-115192049D02*
X133133725Y-115300000D01*
X135983725Y-115300000D02*
X135983725Y-115072000D01*
X136781725Y-115300000D02*
X136895725Y-115300000D01*
X130283725Y-115072000D02*
X130283725Y-114854742D01*
X134431674Y-115615899D02*
X134685776Y-115615899D01*
X129725000Y-116725000D02*
X129725000Y-115475000D01*
X132563725Y-115457950D02*
X132563725Y-115300000D01*
X132671675Y-115084099D02*
X133025775Y-115084099D01*
X134843725Y-115457950D02*
X134843725Y-115300000D01*
X131993725Y-114554747D02*
X131993725Y-115300000D01*
X135983725Y-115072000D02*
X135983725Y-114704741D01*
X131036677Y-115665904D02*
X131240773Y-115665904D01*
X136553725Y-114704741D02*
X136553725Y-115072000D01*
X130853725Y-115300000D02*
X130853725Y-115482952D01*
X129900000Y-115300000D02*
X130055725Y-115300000D01*
X130511725Y-114626742D02*
X130625725Y-114626742D01*
X133703725Y-115300000D02*
X133703725Y-115092050D01*
X131423725Y-115482952D02*
X131423725Y-115300000D01*
X134273725Y-115092050D02*
X134273725Y-115300000D01*
X135413725Y-114954747D02*
X135413725Y-115300000D01*
X134843725Y-115300000D02*
X134843725Y-114954747D01*
X136895725Y-115300000D02*
X137250000Y-115300000D01*
X131651725Y-114326747D02*
X131765725Y-114326747D01*
X130625725Y-114626742D02*
G75*
G02*
X130853658Y-114854742I-25J-227958D01*
G01*
X136553725Y-115072000D02*
G75*
G03*
X136781725Y-115299975I227975J0D01*
G01*
X132563725Y-115192049D02*
G75*
G02*
X132671675Y-115084025I107975J49D01*
G01*
X130283725Y-114854742D02*
G75*
G02*
X130511725Y-114626725I227975J42D01*
G01*
X131765725Y-114326747D02*
G75*
G02*
X131993653Y-114554747I-25J-227953D01*
G01*
X135983725Y-114704741D02*
G75*
G02*
X136211725Y-114476725I227975J41D01*
G01*
X136325725Y-114476741D02*
G75*
G02*
X136553659Y-114704741I-25J-227959D01*
G01*
X131993725Y-115457950D02*
G75*
G03*
X132151674Y-115615975I157975J-50D01*
G01*
X132405776Y-115615899D02*
G75*
G03*
X132563699Y-115457950I24J157899D01*
G01*
X133025775Y-115084099D02*
G75*
G02*
X133133701Y-115192049I25J-107901D01*
G01*
X134685776Y-115615899D02*
G75*
G03*
X134843699Y-115457950I24J157899D01*
G01*
X131240773Y-115665904D02*
G75*
G03*
X131423704Y-115482952I27J182904D01*
G01*
X135185725Y-114726747D02*
G75*
G02*
X135413653Y-114954747I-25J-227953D01*
G01*
X134065776Y-114884101D02*
G75*
G02*
X134273799Y-115092050I24J-207999D01*
G01*
X133545776Y-115615899D02*
G75*
G03*
X133703699Y-115457950I24J157899D01*
G01*
X134273725Y-115457950D02*
G75*
G03*
X134431674Y-115615975I157975J-50D01*
G01*
X130055725Y-115300000D02*
G75*
G03*
X130283700Y-115072000I-25J228000D01*
G01*
X135825776Y-115615898D02*
G75*
G03*
X135983798Y-115457949I24J157998D01*
G01*
X133703725Y-115092050D02*
G75*
G02*
X133911674Y-114884125I207975J-50D01*
G01*
X131423725Y-114554747D02*
G75*
G02*
X131651725Y-114326725I227975J47D01*
G01*
X130853725Y-115482952D02*
G75*
G03*
X131036677Y-115665975I182975J-48D01*
G01*
X134843725Y-114954747D02*
G75*
G02*
X135071725Y-114726725I227975J47D01*
G01*
X135413725Y-115457949D02*
G75*
G03*
X135571674Y-115615875I157975J49D01*
G01*
X133133725Y-115457950D02*
G75*
G03*
X133291674Y-115615975I157975J-50D01*
G01*
%TO.N,Net-(U1-SPIHD)*%
X120400000Y-120400000D02*
X120400000Y-120350000D01*
X125150000Y-119850000D02*
X125225000Y-119850000D01*
X125775000Y-119300000D02*
X127350000Y-119300000D01*
X127350000Y-119300000D02*
X128800000Y-117850000D01*
X122746609Y-119850000D02*
X125150000Y-119850000D01*
X128800000Y-117850000D02*
X139625000Y-117850000D01*
X120400000Y-120350000D02*
X121250000Y-119500000D01*
X122050000Y-119500000D02*
X122400000Y-119850000D01*
X140375000Y-117100000D02*
X140375000Y-116450000D01*
X125225000Y-119850000D02*
X125775000Y-119300000D01*
X121250000Y-119500000D02*
X122050000Y-119500000D01*
X139625000Y-117850000D02*
X140375000Y-117100000D01*
X140375000Y-116450000D02*
X140800000Y-116025000D01*
X122400000Y-119850000D02*
X122746609Y-119850000D01*
%TO.N,Net-(U1-SPICLK)*%
X128475000Y-117500000D02*
X139275000Y-117500000D01*
X124950314Y-118975000D02*
X127000000Y-118975000D01*
X122928742Y-118519586D02*
X123205621Y-118519586D01*
X120500000Y-119200000D02*
X120725000Y-118975000D01*
X123661040Y-119430424D02*
X123925616Y-119430424D01*
X139750000Y-116500000D02*
X139775000Y-116475000D01*
X124381040Y-118975000D02*
X124633328Y-118975000D01*
X139750000Y-117025000D02*
X139750000Y-116500000D01*
X123433328Y-118747293D02*
X123433328Y-118975000D01*
X124633328Y-118975000D02*
X124950314Y-118975000D01*
X127000000Y-118975000D02*
X128475000Y-117500000D01*
X123433328Y-118975000D02*
X123433328Y-119202712D01*
X139275000Y-117500000D02*
X139750000Y-117025000D01*
X120725000Y-118975000D02*
X122473328Y-118975000D01*
X123205621Y-118519586D02*
G75*
G02*
X123433314Y-118747293I-21J-227714D01*
G01*
X122701035Y-118747293D02*
G75*
G02*
X122928742Y-118519635I227665J-7D01*
G01*
X123925616Y-119430424D02*
G75*
G03*
X124153324Y-119202712I-16J227724D01*
G01*
X122473328Y-118975000D02*
G75*
G03*
X122701000Y-118747293I-28J227700D01*
G01*
X124153328Y-119202712D02*
G75*
G02*
X124381040Y-118975028I227672J12D01*
G01*
X123433328Y-119202712D02*
G75*
G03*
X123661040Y-119430372I227672J12D01*
G01*
%TO.N,Net-(U1-SPID)*%
X138750000Y-117200000D02*
X128250000Y-117200000D01*
X139150000Y-116800000D02*
X138750000Y-117200000D01*
X121075000Y-118675000D02*
X120450000Y-118050000D01*
X128250000Y-117200000D02*
X126775000Y-118675000D01*
X126775000Y-118675000D02*
X125650000Y-118675000D01*
X122875000Y-117700000D02*
X121900000Y-118675000D01*
X124675000Y-117700000D02*
X122875000Y-117700000D01*
X121900000Y-118675000D02*
X121075000Y-118675000D01*
X125650000Y-118675000D02*
X124675000Y-117700000D01*
%TO.N,/SPICS0*%
X126650000Y-121000000D02*
X126600000Y-121000000D01*
X142000000Y-119200000D02*
X141150000Y-120050000D01*
X140350000Y-115500000D02*
X141500000Y-115500000D01*
X140300000Y-115550000D02*
X140350000Y-115500000D01*
X127600000Y-120050000D02*
X126650000Y-121000000D01*
X124650000Y-121875000D02*
X125725000Y-121875000D01*
X142000000Y-116000000D02*
X142000000Y-119200000D01*
X141500000Y-115500000D02*
X142000000Y-116000000D01*
X125725000Y-121875000D02*
X126600000Y-121000000D01*
X141150000Y-120050000D02*
X127600000Y-120050000D01*
%TO.N,/GPIO8*%
X145450000Y-113375000D02*
X144900000Y-112825000D01*
X148875000Y-113250000D02*
X148600000Y-112975000D01*
X148600000Y-112975000D02*
X146150000Y-112975000D01*
X145750000Y-113375000D02*
X145450000Y-113375000D01*
X146150000Y-112975000D02*
X145750000Y-113375000D01*
D13*
%TO.N,VDD_SPI*%
X125975000Y-122550000D02*
X128125000Y-120400000D01*
X141700000Y-115100000D02*
X140900000Y-115100000D01*
X142400000Y-119275000D02*
X142400000Y-115800000D01*
X142400000Y-115800000D02*
X141700000Y-115100000D01*
X141275000Y-120400000D02*
X142400000Y-119275000D01*
X128125000Y-120400000D02*
X141275000Y-120400000D01*
X124375000Y-122550000D02*
X125975000Y-122550000D01*
X124050000Y-122875000D02*
X124375000Y-122550000D01*
X140900000Y-115100000D02*
X140750000Y-114950000D01*
X123675000Y-122875000D02*
X124050000Y-122875000D01*
D12*
%TO.N,/GPIO_S2*%
X138050000Y-113050000D02*
X137800000Y-113300000D01*
X136750000Y-112850000D02*
X129225000Y-112850000D01*
X129225000Y-112850000D02*
X128825000Y-113250000D01*
X137800000Y-113300000D02*
X137200000Y-113300000D01*
X137200000Y-113300000D02*
X136750000Y-112850000D01*
%TO.N,/GPIO_S3*%
X139000000Y-112825000D02*
X138250000Y-113575000D01*
X136500000Y-113125000D02*
X129975000Y-113125000D01*
X129975000Y-113125000D02*
X129650000Y-113450000D01*
X136950000Y-113575000D02*
X136500000Y-113125000D01*
X138250000Y-113575000D02*
X136950000Y-113575000D01*
%TD*%
%TA.AperFunction,Conductor*%
%TO.N,GND*%
G36*
X154344324Y-117319685D02*
G01*
X154390079Y-117372489D01*
X154401278Y-117422708D01*
X154448603Y-121965952D01*
X154429618Y-122033193D01*
X154377294Y-122079496D01*
X154316251Y-122090962D01*
X150768953Y-121851280D01*
X150732296Y-121843102D01*
X146978984Y-120380772D01*
X146923664Y-120338093D01*
X146900201Y-120272281D01*
X146900000Y-120265232D01*
X146900000Y-119194432D01*
X146901527Y-119175033D01*
X146905492Y-119150000D01*
X146905492Y-119149998D01*
X146901527Y-119124965D01*
X146900000Y-119105567D01*
X146900000Y-117690750D01*
X146919685Y-117623711D01*
X146972489Y-117577956D01*
X147041647Y-117568012D01*
X147071450Y-117576188D01*
X147130145Y-117600500D01*
X147307746Y-117600500D01*
X147374785Y-117620185D01*
X147395422Y-117636814D01*
X147461658Y-117703050D01*
X147574696Y-117760646D01*
X147574697Y-117760646D01*
X147574699Y-117760647D01*
X147699997Y-117780492D01*
X147700000Y-117780492D01*
X147700003Y-117780492D01*
X147825300Y-117760647D01*
X147825301Y-117760647D01*
X147825302Y-117760646D01*
X147825304Y-117760646D01*
X147938342Y-117703050D01*
X148028050Y-117613342D01*
X148085646Y-117500304D01*
X148085646Y-117500302D01*
X148085647Y-117500301D01*
X148085647Y-117500300D01*
X148100804Y-117404603D01*
X148130733Y-117341468D01*
X148190044Y-117304536D01*
X148223277Y-117300000D01*
X154277285Y-117300000D01*
X154344324Y-117319685D01*
G37*
%TD.AperFunction*%
%TD*%
%TA.AperFunction,Conductor*%
%TO.N,+3V3*%
G36*
X127181782Y-112522174D02*
G01*
X127203456Y-112574500D01*
X127181782Y-112626826D01*
X127146951Y-112661656D01*
X127146950Y-112661658D01*
X127103232Y-112747460D01*
X127089353Y-112774698D01*
X127069508Y-112900000D01*
X127089353Y-113025301D01*
X127089353Y-113025302D01*
X127089354Y-113025304D01*
X127146950Y-113138342D01*
X127236658Y-113228050D01*
X127349696Y-113285646D01*
X127475000Y-113305492D01*
X127600304Y-113285646D01*
X127713342Y-113228050D01*
X127803050Y-113138342D01*
X127860646Y-113025304D01*
X127880492Y-112900000D01*
X127860646Y-112774696D01*
X127803050Y-112661658D01*
X127768218Y-112626826D01*
X127746544Y-112574500D01*
X127768218Y-112522174D01*
X127820544Y-112500500D01*
X129107484Y-112500500D01*
X129159810Y-112522174D01*
X129181484Y-112574500D01*
X129159810Y-112626826D01*
X129135802Y-112642867D01*
X129097266Y-112658828D01*
X129097262Y-112658831D01*
X128926408Y-112829685D01*
X128874082Y-112851359D01*
X128862507Y-112850448D01*
X128825000Y-112844508D01*
X128699698Y-112864353D01*
X128586656Y-112921951D01*
X128496951Y-113011656D01*
X128439353Y-113124698D01*
X128419508Y-113250000D01*
X128439353Y-113375301D01*
X128439353Y-113375302D01*
X128439354Y-113375304D01*
X128496950Y-113488342D01*
X128586658Y-113578050D01*
X128699696Y-113635646D01*
X128825000Y-113655492D01*
X128950304Y-113635646D01*
X129063342Y-113578050D01*
X129134550Y-113506841D01*
X129186875Y-113485168D01*
X129239201Y-113506842D01*
X129259964Y-113547590D01*
X129264353Y-113575301D01*
X129264353Y-113575302D01*
X129264354Y-113575304D01*
X129321950Y-113688342D01*
X129411658Y-113778050D01*
X129524696Y-113835646D01*
X129650000Y-113855492D01*
X129775304Y-113835646D01*
X129888342Y-113778050D01*
X129978050Y-113688342D01*
X130035646Y-113575304D01*
X130055492Y-113450000D01*
X130053646Y-113438342D01*
X130053287Y-113436075D01*
X130066510Y-113381003D01*
X130114801Y-113351411D01*
X130126376Y-113350500D01*
X132976943Y-113350500D01*
X133029269Y-113372174D01*
X133050943Y-113424500D01*
X133029269Y-113476825D01*
X132694438Y-113811656D01*
X132372265Y-114133829D01*
X132308829Y-114197264D01*
X132305568Y-114205140D01*
X132305566Y-114205145D01*
X132299671Y-114219373D01*
X132292682Y-114236246D01*
X132264821Y-114266403D01*
X132266366Y-114268530D01*
X132261656Y-114271951D01*
X132243889Y-114289718D01*
X132191562Y-114311391D01*
X132139237Y-114289716D01*
X132131789Y-114280006D01*
X132131555Y-114280186D01*
X132128602Y-114276337D01*
X132128600Y-114276335D01*
X132128599Y-114276333D01*
X132044181Y-114191889D01*
X132044180Y-114191888D01*
X132005429Y-114169508D01*
X131940783Y-114132172D01*
X131940780Y-114132171D01*
X131825453Y-114101254D01*
X131825376Y-114101253D01*
X131817924Y-114101252D01*
X131817864Y-114101247D01*
X131810580Y-114101247D01*
X131765750Y-114101247D01*
X131765717Y-114101246D01*
X131713604Y-114101241D01*
X131713544Y-114101247D01*
X131682425Y-114101247D01*
X131682379Y-114101227D01*
X131592049Y-114101220D01*
X131592037Y-114101220D01*
X131592036Y-114101220D01*
X131558750Y-114110136D01*
X131476678Y-114132123D01*
X131476675Y-114132124D01*
X131476673Y-114132125D01*
X131373253Y-114191835D01*
X131373249Y-114191838D01*
X131288809Y-114276286D01*
X131229106Y-114379716D01*
X131229106Y-114379718D01*
X131198213Y-114495082D01*
X131198225Y-114552225D01*
X131198225Y-114677252D01*
X131176551Y-114729578D01*
X131124225Y-114751252D01*
X131071899Y-114729578D01*
X131052743Y-114696392D01*
X131048285Y-114679743D01*
X131048285Y-114679742D01*
X130988599Y-114576326D01*
X130904181Y-114491882D01*
X130800783Y-114432167D01*
X130800781Y-114432166D01*
X130685452Y-114401249D01*
X130685374Y-114401248D01*
X130677924Y-114401247D01*
X130677864Y-114401242D01*
X130670580Y-114401242D01*
X130625750Y-114401242D01*
X130625717Y-114401241D01*
X130573604Y-114401236D01*
X130573544Y-114401242D01*
X130542420Y-114401242D01*
X130542386Y-114401227D01*
X130452062Y-114401220D01*
X130452038Y-114401220D01*
X130452037Y-114401220D01*
X130452036Y-114401220D01*
X130390232Y-114417776D01*
X130336680Y-114432122D01*
X130336678Y-114432122D01*
X130336678Y-114432123D01*
X130319224Y-114442200D01*
X130263071Y-114449591D01*
X130218138Y-114415112D01*
X130216291Y-114411709D01*
X130193042Y-114366082D01*
X130178050Y-114336658D01*
X130088342Y-114246950D01*
X129975304Y-114189354D01*
X129975302Y-114189353D01*
X129975301Y-114189353D01*
X129850000Y-114169508D01*
X129724698Y-114189353D01*
X129724696Y-114189353D01*
X129724696Y-114189354D01*
X129703802Y-114200000D01*
X129611656Y-114246951D01*
X129521951Y-114336656D01*
X129464353Y-114449698D01*
X129444508Y-114575000D01*
X129464353Y-114700301D01*
X129464353Y-114700302D01*
X129464354Y-114700304D01*
X129521950Y-114813342D01*
X129611658Y-114903050D01*
X129724696Y-114960646D01*
X129758744Y-114966038D01*
X129807035Y-114995630D01*
X129820257Y-115050702D01*
X129790665Y-115098994D01*
X129775493Y-115107491D01*
X129772269Y-115108826D01*
X129772263Y-115108831D01*
X129533830Y-115347263D01*
X129530567Y-115355143D01*
X129530566Y-115355145D01*
X129499499Y-115430144D01*
X129499499Y-115528466D01*
X129499500Y-115528475D01*
X129499500Y-116353456D01*
X129477826Y-116405782D01*
X129427326Y-116456282D01*
X129375000Y-116477956D01*
X129322674Y-116456282D01*
X129238343Y-116371951D01*
X129238342Y-116371950D01*
X129125304Y-116314354D01*
X129125302Y-116314353D01*
X129125301Y-116314353D01*
X129000000Y-116294508D01*
X128874698Y-116314353D01*
X128761656Y-116371951D01*
X128671951Y-116461656D01*
X128614353Y-116574698D01*
X128594508Y-116700000D01*
X128614353Y-116825302D01*
X128614353Y-116825303D01*
X128614354Y-116825304D01*
X128635551Y-116866905D01*
X128639995Y-116923367D01*
X128603213Y-116966434D01*
X128569617Y-116974500D01*
X128303475Y-116974500D01*
X128303467Y-116974499D01*
X128294855Y-116974499D01*
X128205145Y-116974499D01*
X128146539Y-116998774D01*
X128146537Y-116998775D01*
X128146536Y-116998774D01*
X128122263Y-117008830D01*
X128058829Y-117072265D01*
X126703269Y-118427826D01*
X126650943Y-118449500D01*
X125774057Y-118449500D01*
X125721731Y-118427826D01*
X124876578Y-117582673D01*
X124876578Y-117582672D01*
X124802738Y-117508832D01*
X124802736Y-117508830D01*
X124802732Y-117508828D01*
X124778458Y-117498773D01*
X124778458Y-117498772D01*
X124719855Y-117474499D01*
X124630145Y-117474499D01*
X124621533Y-117474499D01*
X124621525Y-117474500D01*
X122830145Y-117474500D01*
X122747266Y-117508828D01*
X122683829Y-117572265D01*
X121828269Y-118427826D01*
X121775943Y-118449500D01*
X121199058Y-118449500D01*
X121146732Y-118427826D01*
X120870314Y-118151408D01*
X120848640Y-118099082D01*
X120849550Y-118087513D01*
X120855492Y-118050000D01*
X120854093Y-118041170D01*
X120842398Y-117967330D01*
X120835646Y-117924696D01*
X120778050Y-117811658D01*
X120688342Y-117721950D01*
X120575304Y-117664354D01*
X120575302Y-117664353D01*
X120575301Y-117664353D01*
X120450000Y-117644508D01*
X120324698Y-117664353D01*
X120324696Y-117664353D01*
X120324696Y-117664354D01*
X120293024Y-117680492D01*
X120211656Y-117721951D01*
X120121951Y-117811656D01*
X120064353Y-117924698D01*
X120044508Y-118049998D01*
X120064353Y-118175301D01*
X120064353Y-118175302D01*
X120064354Y-118175304D01*
X120121950Y-118288342D01*
X120211658Y-118378050D01*
X120324696Y-118435646D01*
X120450000Y-118455492D01*
X120487506Y-118449551D01*
X120542577Y-118462772D01*
X120551408Y-118470314D01*
X120708216Y-118627122D01*
X120729890Y-118679448D01*
X120708216Y-118731774D01*
X120684208Y-118747815D01*
X120621537Y-118773774D01*
X120621536Y-118773773D01*
X120597265Y-118783828D01*
X120591202Y-118787880D01*
X120589129Y-118784778D01*
X120549045Y-118801359D01*
X120537507Y-118800448D01*
X120500000Y-118794508D01*
X120374698Y-118814353D01*
X120261656Y-118871951D01*
X120171951Y-118961656D01*
X120114353Y-119074698D01*
X120094508Y-119200000D01*
X120114353Y-119325301D01*
X120114353Y-119325302D01*
X120114354Y-119325304D01*
X120171950Y-119438342D01*
X120261658Y-119528050D01*
X120374696Y-119585646D01*
X120500000Y-119605492D01*
X120625304Y-119585646D01*
X120657850Y-119569062D01*
X120714310Y-119564619D01*
X120757378Y-119601401D01*
X120761822Y-119657863D01*
X120743770Y-119687323D01*
X120458244Y-119972849D01*
X120405918Y-119994523D01*
X120405727Y-119994508D01*
X120400000Y-119994508D01*
X120274698Y-120014353D01*
X120161656Y-120071951D01*
X120071951Y-120161656D01*
X120071950Y-120161658D01*
X120019194Y-120265198D01*
X120014353Y-120274698D01*
X119994508Y-120400000D01*
X120014353Y-120525301D01*
X120014353Y-120525302D01*
X120014354Y-120525304D01*
X120071950Y-120638342D01*
X120161658Y-120728050D01*
X120274696Y-120785646D01*
X120400000Y-120805492D01*
X120525304Y-120785646D01*
X120638342Y-120728050D01*
X120728050Y-120638342D01*
X120785646Y-120525304D01*
X120805492Y-120400000D01*
X120792714Y-120319327D01*
X120805935Y-120264256D01*
X120813470Y-120255433D01*
X121321731Y-119747174D01*
X121374057Y-119725500D01*
X121925943Y-119725500D01*
X121978269Y-119747174D01*
X122204609Y-119973514D01*
X122204612Y-119973518D01*
X122208830Y-119977736D01*
X122272264Y-120041170D01*
X122306595Y-120055390D01*
X122355146Y-120075501D01*
X122355147Y-120075501D01*
X122453467Y-120075501D01*
X122453475Y-120075500D01*
X122701754Y-120075500D01*
X125105145Y-120075500D01*
X125171525Y-120075500D01*
X125171533Y-120075501D01*
X125180145Y-120075501D01*
X125269854Y-120075501D01*
X125269855Y-120075501D01*
X125328460Y-120051225D01*
X125352736Y-120041170D01*
X125416170Y-119977736D01*
X125416170Y-119977735D01*
X125426575Y-119967330D01*
X125426576Y-119967327D01*
X125846732Y-119547174D01*
X125899058Y-119525500D01*
X127296525Y-119525500D01*
X127296533Y-119525501D01*
X127305145Y-119525501D01*
X127394854Y-119525501D01*
X127394855Y-119525501D01*
X127453460Y-119501225D01*
X127477736Y-119491170D01*
X127541170Y-119427736D01*
X127541170Y-119427735D01*
X127551575Y-119417330D01*
X127551576Y-119417327D01*
X128871731Y-118097174D01*
X128924057Y-118075500D01*
X139571525Y-118075500D01*
X139571533Y-118075501D01*
X139580145Y-118075501D01*
X139669854Y-118075501D01*
X139669855Y-118075501D01*
X139731418Y-118050000D01*
X139752736Y-118041170D01*
X139816170Y-117977736D01*
X139816170Y-117977735D01*
X139826575Y-117967330D01*
X139826577Y-117967327D01*
X140438312Y-117355591D01*
X140490637Y-117333918D01*
X140542963Y-117355592D01*
X140563725Y-117396339D01*
X140564352Y-117400299D01*
X140564353Y-117400302D01*
X140564354Y-117400304D01*
X140621950Y-117513342D01*
X140711658Y-117603050D01*
X140824696Y-117660646D01*
X140950000Y-117680492D01*
X141075304Y-117660646D01*
X141188342Y-117603050D01*
X141278050Y-117513342D01*
X141335646Y-117400304D01*
X141355492Y-117275000D01*
X141335646Y-117149696D01*
X141278050Y-117036658D01*
X141188342Y-116946950D01*
X141075304Y-116889354D01*
X141075302Y-116889353D01*
X141075301Y-116889353D01*
X140950000Y-116869508D01*
X140824698Y-116889353D01*
X140824696Y-116889353D01*
X140824696Y-116889354D01*
X140711658Y-116946950D01*
X140711656Y-116946951D01*
X140708095Y-116948766D01*
X140651633Y-116953209D01*
X140608565Y-116916426D01*
X140600500Y-116882831D01*
X140600500Y-116574056D01*
X140622173Y-116521731D01*
X140698591Y-116445313D01*
X140750915Y-116423640D01*
X140762488Y-116424550D01*
X140800000Y-116430492D01*
X140925304Y-116410646D01*
X141038342Y-116353050D01*
X141128050Y-116263342D01*
X141185646Y-116150304D01*
X141205492Y-116025000D01*
X141185646Y-115899696D01*
X141151711Y-115833095D01*
X141147267Y-115776633D01*
X141184050Y-115733566D01*
X141217645Y-115725500D01*
X141375943Y-115725500D01*
X141428269Y-115747174D01*
X141752826Y-116071731D01*
X141774500Y-116124057D01*
X141774500Y-119075943D01*
X141752826Y-119128269D01*
X141586351Y-119294743D01*
X141534025Y-119316417D01*
X141481699Y-119294743D01*
X141460025Y-119242417D01*
X141468090Y-119208823D01*
X141510646Y-119125304D01*
X141530492Y-119000000D01*
X141510646Y-118874696D01*
X141453050Y-118761658D01*
X141363342Y-118671950D01*
X141250304Y-118614354D01*
X141250302Y-118614353D01*
X141250301Y-118614353D01*
X141125000Y-118594508D01*
X140999698Y-118614353D01*
X140886656Y-118671951D01*
X140814826Y-118743782D01*
X140762500Y-118765456D01*
X140710174Y-118743782D01*
X140638343Y-118671951D01*
X140638342Y-118671950D01*
X140525304Y-118614354D01*
X140525302Y-118614353D01*
X140525301Y-118614353D01*
X140400000Y-118594508D01*
X140274698Y-118614353D01*
X140161656Y-118671951D01*
X140071951Y-118761656D01*
X140014353Y-118874698D01*
X139994508Y-119000000D01*
X140014353Y-119125302D01*
X140014353Y-119125303D01*
X140014354Y-119125304D01*
X140035551Y-119166905D01*
X140039995Y-119223367D01*
X140003213Y-119266434D01*
X139969617Y-119274500D01*
X137080383Y-119274500D01*
X137028057Y-119252826D01*
X137006383Y-119200500D01*
X137014448Y-119166906D01*
X137035646Y-119125304D01*
X137055492Y-119000000D01*
X137035646Y-118874696D01*
X136978050Y-118761658D01*
X136888342Y-118671950D01*
X136775304Y-118614354D01*
X136775302Y-118614353D01*
X136775301Y-118614353D01*
X136650000Y-118594508D01*
X136524698Y-118614353D01*
X136411656Y-118671951D01*
X136327326Y-118756282D01*
X136275000Y-118777956D01*
X136222674Y-118756282D01*
X136138343Y-118671951D01*
X136138342Y-118671950D01*
X136025304Y-118614354D01*
X136025302Y-118614353D01*
X136025301Y-118614353D01*
X135900000Y-118594508D01*
X135774698Y-118614353D01*
X135661656Y-118671951D01*
X135577326Y-118756282D01*
X135525000Y-118777956D01*
X135472674Y-118756282D01*
X135388343Y-118671951D01*
X135388342Y-118671950D01*
X135275304Y-118614354D01*
X135275302Y-118614353D01*
X135275301Y-118614353D01*
X135150000Y-118594508D01*
X135024698Y-118614353D01*
X134911656Y-118671951D01*
X134827326Y-118756282D01*
X134775000Y-118777956D01*
X134722674Y-118756282D01*
X134638343Y-118671951D01*
X134638342Y-118671950D01*
X134525304Y-118614354D01*
X134525302Y-118614353D01*
X134525301Y-118614353D01*
X134400000Y-118594508D01*
X134274698Y-118614353D01*
X134161656Y-118671951D01*
X134077326Y-118756282D01*
X134025000Y-118777956D01*
X133972674Y-118756282D01*
X133888343Y-118671951D01*
X133888342Y-118671950D01*
X133775304Y-118614354D01*
X133775302Y-118614353D01*
X133775301Y-118614353D01*
X133650000Y-118594508D01*
X133524698Y-118614353D01*
X133411656Y-118671951D01*
X133327326Y-118756282D01*
X133275000Y-118777956D01*
X133222674Y-118756282D01*
X133138343Y-118671951D01*
X133138342Y-118671950D01*
X133025304Y-118614354D01*
X133025302Y-118614353D01*
X133025301Y-118614353D01*
X132900000Y-118594508D01*
X132774698Y-118614353D01*
X132661656Y-118671951D01*
X132577326Y-118756282D01*
X132525000Y-118777956D01*
X132472674Y-118756282D01*
X132388343Y-118671951D01*
X132388342Y-118671950D01*
X132275304Y-118614354D01*
X132275302Y-118614353D01*
X132275301Y-118614353D01*
X132150000Y-118594508D01*
X132024698Y-118614353D01*
X131911656Y-118671951D01*
X131817832Y-118765776D01*
X131816420Y-118764364D01*
X131774550Y-118790021D01*
X131719478Y-118776798D01*
X131710650Y-118769258D01*
X131638343Y-118696951D01*
X131638342Y-118696950D01*
X131525304Y-118639354D01*
X131525302Y-118639353D01*
X131525301Y-118639353D01*
X131400000Y-118619508D01*
X131274698Y-118639353D01*
X131161656Y-118696951D01*
X131071949Y-118786658D01*
X131043469Y-118842553D01*
X131000401Y-118879336D01*
X130943939Y-118874891D01*
X130943086Y-118874367D01*
X130854576Y-118829269D01*
X130825304Y-118814354D01*
X130825302Y-118814353D01*
X130825301Y-118814353D01*
X130700000Y-118794508D01*
X130574698Y-118814353D01*
X130461656Y-118871951D01*
X130371951Y-118961656D01*
X130314353Y-119074698D01*
X130294508Y-119200000D01*
X130314353Y-119325301D01*
X130314353Y-119325302D01*
X130314354Y-119325304D01*
X130371950Y-119438342D01*
X130461658Y-119528050D01*
X130574696Y-119585646D01*
X130700000Y-119605492D01*
X130737507Y-119599551D01*
X130792579Y-119612772D01*
X130801409Y-119620314D01*
X130804609Y-119623514D01*
X130804612Y-119623518D01*
X130877418Y-119696324D01*
X130875300Y-119698441D01*
X130900438Y-119736060D01*
X130889392Y-119791609D01*
X130842301Y-119823077D01*
X130827861Y-119824500D01*
X127653475Y-119824500D01*
X127653467Y-119824499D01*
X127644855Y-119824499D01*
X127555145Y-119824499D01*
X127496539Y-119848774D01*
X127496537Y-119848775D01*
X127496536Y-119848774D01*
X127472263Y-119858830D01*
X127408829Y-119922265D01*
X126744572Y-120586521D01*
X126692246Y-120608195D01*
X126680671Y-120607284D01*
X126600001Y-120594508D01*
X126600000Y-120594508D01*
X126474698Y-120614353D01*
X126361656Y-120671951D01*
X126271951Y-120761656D01*
X126214353Y-120874698D01*
X126194508Y-121000000D01*
X126200448Y-121037507D01*
X126187226Y-121092579D01*
X126179685Y-121101408D01*
X125653269Y-121627826D01*
X125600943Y-121649500D01*
X125021543Y-121649500D01*
X124969218Y-121627826D01*
X124888342Y-121546950D01*
X124775304Y-121489354D01*
X124775302Y-121489353D01*
X124775301Y-121489353D01*
X124650000Y-121469508D01*
X124524698Y-121489353D01*
X124524696Y-121489353D01*
X124524696Y-121489354D01*
X124512840Y-121495395D01*
X124411656Y-121546951D01*
X124321951Y-121636656D01*
X124264353Y-121749698D01*
X124244508Y-121875000D01*
X124264353Y-122000301D01*
X124264353Y-122000302D01*
X124264354Y-122000304D01*
X124321950Y-122113342D01*
X124321951Y-122113343D01*
X124341553Y-122132945D01*
X124363227Y-122185271D01*
X124341553Y-122237597D01*
X124308381Y-122256749D01*
X124259013Y-122269978D01*
X124259009Y-122269979D01*
X124190488Y-122309540D01*
X123977682Y-122522345D01*
X123925356Y-122544019D01*
X123891761Y-122535954D01*
X123865052Y-122522345D01*
X123800304Y-122489354D01*
X123800302Y-122489353D01*
X123800301Y-122489353D01*
X123675000Y-122469508D01*
X123549698Y-122489353D01*
X123436656Y-122546951D01*
X123346951Y-122636656D01*
X123289353Y-122749698D01*
X123269508Y-122875000D01*
X123289353Y-123000301D01*
X123289353Y-123000302D01*
X123289354Y-123000304D01*
X123346950Y-123113342D01*
X123436658Y-123203050D01*
X123549696Y-123260646D01*
X123675000Y-123280492D01*
X123800304Y-123260646D01*
X123913342Y-123203050D01*
X123919218Y-123197174D01*
X123971544Y-123175500D01*
X124089564Y-123175500D01*
X124089564Y-123175499D01*
X124165989Y-123155021D01*
X124234511Y-123115460D01*
X124290460Y-123059511D01*
X124477797Y-122872174D01*
X124530123Y-122850500D01*
X126014564Y-122850500D01*
X126014564Y-122850499D01*
X126090989Y-122830021D01*
X126159511Y-122790460D01*
X126215460Y-122734511D01*
X127199971Y-121750000D01*
X143019508Y-121750000D01*
X143039353Y-121875301D01*
X143039353Y-121875302D01*
X143039354Y-121875304D01*
X143096950Y-121988342D01*
X143186658Y-122078050D01*
X143299696Y-122135646D01*
X143425000Y-122155492D01*
X143550304Y-122135646D01*
X143663342Y-122078050D01*
X143753050Y-121988342D01*
X143753050Y-121988341D01*
X143757168Y-121984224D01*
X143758355Y-121985411D01*
X143800919Y-121959324D01*
X143855992Y-121972542D01*
X143867753Y-121984303D01*
X143867832Y-121984224D01*
X143871950Y-121988342D01*
X143961658Y-122078050D01*
X144074696Y-122135646D01*
X144200000Y-122155492D01*
X144325304Y-122135646D01*
X144438342Y-122078050D01*
X144528050Y-121988342D01*
X144585646Y-121875304D01*
X144605492Y-121750000D01*
X144585646Y-121624696D01*
X144528050Y-121511658D01*
X144438342Y-121421950D01*
X144325304Y-121364354D01*
X144325302Y-121364353D01*
X144325301Y-121364353D01*
X144200000Y-121344508D01*
X144074698Y-121364353D01*
X143961656Y-121421951D01*
X143867832Y-121515776D01*
X143866646Y-121514590D01*
X143824073Y-121540676D01*
X143769001Y-121527452D01*
X143757246Y-121515697D01*
X143757168Y-121515776D01*
X143663343Y-121421951D01*
X143663342Y-121421950D01*
X143550304Y-121364354D01*
X143550302Y-121364353D01*
X143550301Y-121364353D01*
X143425000Y-121344508D01*
X143299698Y-121364353D01*
X143186656Y-121421951D01*
X143096951Y-121511656D01*
X143039353Y-121624698D01*
X143019508Y-121750000D01*
X127199971Y-121750000D01*
X128227797Y-120722174D01*
X128280123Y-120700500D01*
X130306879Y-120700500D01*
X130359205Y-120722174D01*
X130380879Y-120774500D01*
X130372813Y-120808092D01*
X130371001Y-120811651D01*
X130364353Y-120824697D01*
X130344508Y-120950000D01*
X130364353Y-121075301D01*
X130364353Y-121075302D01*
X130364354Y-121075304D01*
X130421950Y-121188342D01*
X130511658Y-121278050D01*
X130624696Y-121335646D01*
X130750000Y-121355492D01*
X130787507Y-121349551D01*
X130842579Y-121362772D01*
X130851409Y-121370314D01*
X130854609Y-121373514D01*
X130854612Y-121373518D01*
X130858830Y-121377736D01*
X130922264Y-121441170D01*
X130923165Y-121441543D01*
X130923170Y-121441545D01*
X130923179Y-121441549D01*
X130930323Y-121444508D01*
X131005145Y-121475501D01*
X131005146Y-121475501D01*
X131103467Y-121475501D01*
X131103475Y-121475500D01*
X131420201Y-121475500D01*
X131422643Y-121474920D01*
X131423041Y-121474837D01*
X131424876Y-121474196D01*
X131507214Y-121452137D01*
X131507216Y-121452135D01*
X131507220Y-121452134D01*
X131585319Y-121407051D01*
X131585323Y-121407048D01*
X131585322Y-121407048D01*
X131585325Y-121407047D01*
X131649106Y-121343279D01*
X131686419Y-121278669D01*
X131731356Y-121244196D01*
X131787507Y-121251595D01*
X131821981Y-121296533D01*
X131824500Y-121315677D01*
X131824500Y-121413414D01*
X131824984Y-121415488D01*
X131825694Y-121417578D01*
X131838213Y-121464353D01*
X131847950Y-121500737D01*
X131893165Y-121579107D01*
X131957123Y-121643105D01*
X131968192Y-121649500D01*
X132035428Y-121688347D01*
X132035465Y-121688368D01*
X132119475Y-121710906D01*
X132121044Y-121711438D01*
X132122714Y-121711827D01*
X132168092Y-121711827D01*
X132212947Y-121711841D01*
X132212949Y-121711839D01*
X132220096Y-121711842D01*
X132220260Y-121711827D01*
X132429740Y-121711827D01*
X132429903Y-121711842D01*
X132437050Y-121711839D01*
X132437053Y-121711841D01*
X132451176Y-121711836D01*
X132451351Y-121711908D01*
X132481908Y-121711898D01*
X132481908Y-121711900D01*
X132527156Y-121711886D01*
X132614563Y-121688436D01*
X132692922Y-121643163D01*
X132756894Y-121579152D01*
X132802118Y-121500765D01*
X132803553Y-121495402D01*
X132838012Y-121450458D01*
X132894162Y-121443044D01*
X132939109Y-121477505D01*
X132946520Y-121495395D01*
X132947950Y-121500737D01*
X132993165Y-121579107D01*
X133057123Y-121643105D01*
X133068192Y-121649500D01*
X133135428Y-121688347D01*
X133135465Y-121688368D01*
X133219475Y-121710906D01*
X133221044Y-121711438D01*
X133222714Y-121711827D01*
X133268092Y-121711827D01*
X133312947Y-121711841D01*
X133312949Y-121711839D01*
X133320096Y-121711842D01*
X133320260Y-121711827D01*
X133529740Y-121711827D01*
X133529903Y-121711842D01*
X133537050Y-121711839D01*
X133537053Y-121711841D01*
X133551176Y-121711836D01*
X133551351Y-121711908D01*
X133581908Y-121711898D01*
X133581908Y-121711900D01*
X133627156Y-121711886D01*
X133714563Y-121688436D01*
X133792922Y-121643163D01*
X133856894Y-121579152D01*
X133902118Y-121500765D01*
X133903553Y-121495402D01*
X133938012Y-121450458D01*
X133994162Y-121443044D01*
X134039109Y-121477505D01*
X134046520Y-121495395D01*
X134047950Y-121500737D01*
X134093165Y-121579107D01*
X134157123Y-121643105D01*
X134168192Y-121649500D01*
X134235428Y-121688347D01*
X134235465Y-121688368D01*
X134319475Y-121710906D01*
X134321044Y-121711438D01*
X134322714Y-121711827D01*
X134368092Y-121711827D01*
X134412947Y-121711841D01*
X134412949Y-121711839D01*
X134420096Y-121711842D01*
X134420260Y-121711827D01*
X134629740Y-121711827D01*
X134629903Y-121711842D01*
X134637050Y-121711839D01*
X134637053Y-121711841D01*
X134651176Y-121711836D01*
X134651351Y-121711908D01*
X134681908Y-121711898D01*
X134681908Y-121711900D01*
X134727156Y-121711886D01*
X134814563Y-121688436D01*
X134892922Y-121643163D01*
X134956894Y-121579152D01*
X135002118Y-121500765D01*
X135003553Y-121495402D01*
X135038012Y-121450458D01*
X135094162Y-121443044D01*
X135139109Y-121477505D01*
X135146520Y-121495395D01*
X135147950Y-121500737D01*
X135193165Y-121579107D01*
X135257123Y-121643105D01*
X135268192Y-121649500D01*
X135335428Y-121688347D01*
X135335465Y-121688368D01*
X135419475Y-121710906D01*
X135421044Y-121711438D01*
X135422714Y-121711827D01*
X135468092Y-121711827D01*
X135512947Y-121711841D01*
X135512949Y-121711839D01*
X135520096Y-121711842D01*
X135520260Y-121711827D01*
X135729740Y-121711827D01*
X135729903Y-121711842D01*
X135737050Y-121711839D01*
X135737053Y-121711841D01*
X135751176Y-121711836D01*
X135751351Y-121711908D01*
X135781908Y-121711898D01*
X135781908Y-121711900D01*
X135827156Y-121711886D01*
X135914563Y-121688436D01*
X135992922Y-121643163D01*
X136056894Y-121579152D01*
X136102118Y-121500765D01*
X136103553Y-121495402D01*
X136138012Y-121450458D01*
X136194162Y-121443044D01*
X136239109Y-121477505D01*
X136246520Y-121495395D01*
X136247950Y-121500737D01*
X136293165Y-121579107D01*
X136357123Y-121643105D01*
X136368192Y-121649500D01*
X136435428Y-121688347D01*
X136435465Y-121688368D01*
X136519475Y-121710906D01*
X136521044Y-121711438D01*
X136522714Y-121711827D01*
X136568092Y-121711827D01*
X136612947Y-121711841D01*
X136612949Y-121711839D01*
X136620096Y-121711842D01*
X136620260Y-121711827D01*
X136829740Y-121711827D01*
X136829903Y-121711842D01*
X136837050Y-121711839D01*
X136837053Y-121711841D01*
X136851176Y-121711836D01*
X136851351Y-121711908D01*
X136881908Y-121711898D01*
X136881908Y-121711900D01*
X136927156Y-121711886D01*
X137014563Y-121688436D01*
X137092922Y-121643163D01*
X137156894Y-121579152D01*
X137202118Y-121500765D01*
X137203559Y-121495379D01*
X137238022Y-121450436D01*
X137294172Y-121443025D01*
X137339117Y-121477489D01*
X137346528Y-121495383D01*
X137347953Y-121500709D01*
X137347956Y-121500718D01*
X137393160Y-121579079D01*
X137393165Y-121579085D01*
X137457112Y-121643080D01*
X137457117Y-121643085D01*
X137535448Y-121688347D01*
X137535455Y-121688350D01*
X137572302Y-121698237D01*
X137619359Y-121710863D01*
X137620906Y-121711389D01*
X137622723Y-121711814D01*
X137668075Y-121711814D01*
X137712930Y-121711831D01*
X137712931Y-121711830D01*
X137720101Y-121711833D01*
X137720305Y-121711814D01*
X137929695Y-121711814D01*
X137929898Y-121711833D01*
X137937068Y-121711830D01*
X137937070Y-121711831D01*
X137951176Y-121711825D01*
X137951382Y-121711910D01*
X137981925Y-121711899D01*
X137981925Y-121711900D01*
X138027174Y-121711884D01*
X138114580Y-121688429D01*
X138192937Y-121643152D01*
X138256905Y-121579137D01*
X138302126Y-121500747D01*
X138303707Y-121494837D01*
X138338165Y-121449890D01*
X138394314Y-121442473D01*
X138439263Y-121476932D01*
X138446674Y-121494816D01*
X138447863Y-121499257D01*
X138491400Y-121574698D01*
X138492947Y-121577379D01*
X138556713Y-121641170D01*
X138634816Y-121686284D01*
X138718186Y-121708639D01*
X138720075Y-121709276D01*
X138721700Y-121709654D01*
X138722222Y-121709654D01*
X138767032Y-121709654D01*
X138767039Y-121709654D01*
X138811887Y-121709663D01*
X138811890Y-121709661D01*
X138819030Y-121709663D01*
X138819133Y-121709654D01*
X139030867Y-121709654D01*
X139030969Y-121709663D01*
X139038109Y-121709661D01*
X139038113Y-121709663D01*
X139052264Y-121709660D01*
X139052375Y-121709705D01*
X139082967Y-121709698D01*
X139082967Y-121709700D01*
X139128071Y-121709691D01*
X139215201Y-121686326D01*
X139293315Y-121641207D01*
X139357089Y-121577407D01*
X139394539Y-121512513D01*
X139439465Y-121478025D01*
X139458632Y-121475500D01*
X139580145Y-121475500D01*
X139832245Y-121475500D01*
X140896525Y-121475500D01*
X140896533Y-121475501D01*
X140905145Y-121475501D01*
X140994854Y-121475501D01*
X140994855Y-121475501D01*
X141069677Y-121444508D01*
X141076821Y-121441549D01*
X141076830Y-121441545D01*
X141076835Y-121441543D01*
X141077736Y-121441170D01*
X141141170Y-121377736D01*
X141141170Y-121377735D01*
X141151575Y-121367330D01*
X141151577Y-121367327D01*
X141418904Y-121100000D01*
X145694508Y-121100000D01*
X145714353Y-121225301D01*
X145714353Y-121225302D01*
X145714354Y-121225304D01*
X145771950Y-121338342D01*
X145771951Y-121338343D01*
X145781282Y-121347674D01*
X145802956Y-121400000D01*
X145781282Y-121452326D01*
X145771951Y-121461656D01*
X145714353Y-121574698D01*
X145694508Y-121700000D01*
X145714353Y-121825301D01*
X145714353Y-121825302D01*
X145714354Y-121825304D01*
X145771950Y-121938342D01*
X145861658Y-122028050D01*
X145974696Y-122085646D01*
X146100000Y-122105492D01*
X146225304Y-122085646D01*
X146338342Y-122028050D01*
X146428050Y-121938342D01*
X146485646Y-121825304D01*
X146505492Y-121700000D01*
X146485646Y-121574696D01*
X146428050Y-121461658D01*
X146418718Y-121452326D01*
X146397044Y-121400000D01*
X146418718Y-121347674D01*
X146423115Y-121343277D01*
X146428050Y-121338342D01*
X146485646Y-121225304D01*
X146505492Y-121100000D01*
X146485646Y-120974696D01*
X146428050Y-120861658D01*
X146338342Y-120771950D01*
X146225304Y-120714354D01*
X146225302Y-120714353D01*
X146225301Y-120714353D01*
X146100000Y-120694508D01*
X145974698Y-120714353D01*
X145861656Y-120771951D01*
X145771951Y-120861656D01*
X145771950Y-120861658D01*
X145724007Y-120955752D01*
X145714353Y-120974698D01*
X145694508Y-121100000D01*
X141418904Y-121100000D01*
X142917327Y-119601577D01*
X142917330Y-119601575D01*
X142927735Y-119591170D01*
X142927736Y-119591170D01*
X142991170Y-119527736D01*
X143006316Y-119491170D01*
X143025501Y-119444855D01*
X143025501Y-119355145D01*
X143025501Y-119349187D01*
X143025500Y-119349173D01*
X143025500Y-117230383D01*
X143047174Y-117178057D01*
X143099500Y-117156383D01*
X143133093Y-117164448D01*
X143174696Y-117185646D01*
X143174695Y-117185646D01*
X143198275Y-117189380D01*
X143300000Y-117205492D01*
X143327680Y-117201107D01*
X143382751Y-117214328D01*
X143412345Y-117262618D01*
X143412345Y-117262620D01*
X143414353Y-117275301D01*
X143414353Y-117275302D01*
X143414354Y-117275304D01*
X143471950Y-117388342D01*
X143561658Y-117478050D01*
X143674696Y-117535646D01*
X143800000Y-117555492D01*
X143925304Y-117535646D01*
X144038342Y-117478050D01*
X144128050Y-117388342D01*
X144185646Y-117275304D01*
X144203105Y-117165066D01*
X144232698Y-117116777D01*
X144287770Y-117103555D01*
X144305752Y-117106403D01*
X144305256Y-117109530D01*
X144347834Y-117127166D01*
X144365469Y-117169743D01*
X144368597Y-117169248D01*
X144389353Y-117300301D01*
X144389353Y-117300302D01*
X144389354Y-117300304D01*
X144446950Y-117413342D01*
X144446951Y-117413343D01*
X144531282Y-117497674D01*
X144552956Y-117550000D01*
X144531282Y-117602326D01*
X144471951Y-117661656D01*
X144414353Y-117774698D01*
X144394508Y-117900000D01*
X144414353Y-118025301D01*
X144414353Y-118025302D01*
X144414354Y-118025304D01*
X144471950Y-118138342D01*
X144561658Y-118228050D01*
X144674696Y-118285646D01*
X144800000Y-118305492D01*
X144925304Y-118285646D01*
X145038342Y-118228050D01*
X145128050Y-118138342D01*
X145134065Y-118126535D01*
X145177131Y-118089752D01*
X145233594Y-118094195D01*
X145265934Y-118126535D01*
X145271950Y-118138342D01*
X145361658Y-118228050D01*
X145474696Y-118285646D01*
X145600000Y-118305492D01*
X145725304Y-118285646D01*
X145838342Y-118228050D01*
X145928050Y-118138342D01*
X145985646Y-118025304D01*
X146005492Y-117900000D01*
X145985646Y-117774696D01*
X145928050Y-117661658D01*
X145868718Y-117602326D01*
X145847044Y-117550000D01*
X145868718Y-117497674D01*
X145893718Y-117472674D01*
X145928050Y-117438342D01*
X145985646Y-117325304D01*
X146005492Y-117200000D01*
X145985646Y-117074696D01*
X145928050Y-116961658D01*
X145838342Y-116871950D01*
X145826535Y-116865934D01*
X145789752Y-116822869D01*
X145794195Y-116766406D01*
X145826535Y-116734065D01*
X145838342Y-116728050D01*
X145928050Y-116638342D01*
X145985646Y-116525304D01*
X146005492Y-116400000D01*
X145985646Y-116274696D01*
X145928050Y-116161658D01*
X145892096Y-116125704D01*
X145870422Y-116073378D01*
X145892096Y-116021052D01*
X145932845Y-116000289D01*
X146025304Y-115985646D01*
X146138342Y-115928050D01*
X146228050Y-115838342D01*
X146285646Y-115725304D01*
X146305492Y-115600000D01*
X146289253Y-115497473D01*
X146302475Y-115442403D01*
X146350765Y-115412810D01*
X146405838Y-115426032D01*
X146414668Y-115433573D01*
X146452826Y-115471731D01*
X146474500Y-115524057D01*
X146474500Y-116849173D01*
X146474499Y-116849187D01*
X146474499Y-116855145D01*
X146474499Y-116944855D01*
X146484711Y-116969508D01*
X146492383Y-116988030D01*
X146506569Y-117022279D01*
X146508830Y-117027736D01*
X146572264Y-117091170D01*
X146582671Y-117101577D01*
X146582673Y-117101578D01*
X146852427Y-117371332D01*
X146874101Y-117423658D01*
X146852427Y-117475984D01*
X146848561Y-117479583D01*
X146817861Y-117506184D01*
X146812380Y-117511168D01*
X146812379Y-117511170D01*
X146773288Y-117575301D01*
X146770482Y-117579904D01*
X146750799Y-117646937D01*
X146744500Y-117690745D01*
X146744500Y-119105564D01*
X146744979Y-119117766D01*
X146746507Y-119137168D01*
X146746996Y-119141298D01*
X146746996Y-119158693D01*
X146746508Y-119162815D01*
X146744979Y-119182231D01*
X146744500Y-119194434D01*
X146744500Y-119197764D01*
X146736435Y-119231359D01*
X146714354Y-119274695D01*
X146694508Y-119400000D01*
X146714353Y-119525302D01*
X146714353Y-119525303D01*
X146714354Y-119525304D01*
X146734786Y-119565404D01*
X146736434Y-119568637D01*
X146744500Y-119602233D01*
X146744500Y-120265198D01*
X146744563Y-120269691D01*
X146744764Y-120276713D01*
X146744764Y-120276715D01*
X146753730Y-120324496D01*
X146753731Y-120324500D01*
X146777194Y-120390312D01*
X146777196Y-120390316D01*
X146779845Y-120397224D01*
X146779847Y-120397227D01*
X146781963Y-120400000D01*
X146828679Y-120461211D01*
X146883999Y-120503890D01*
X146884003Y-120503892D01*
X146921897Y-120525304D01*
X146922533Y-120525663D01*
X150675845Y-121987993D01*
X150675857Y-121987996D01*
X150675858Y-121987997D01*
X150698425Y-121994868D01*
X150698436Y-121994871D01*
X150717425Y-121999107D01*
X150735094Y-122003049D01*
X150758470Y-122006426D01*
X154305768Y-122246108D01*
X154344957Y-122243789D01*
X154406000Y-122232323D01*
X154408313Y-122231871D01*
X154408314Y-122231870D01*
X154411308Y-122231286D01*
X154466820Y-122242522D01*
X154498126Y-122289720D01*
X154499500Y-122303912D01*
X154499500Y-123425500D01*
X154477826Y-123477826D01*
X154425500Y-123499500D01*
X149345544Y-123499500D01*
X149293218Y-123477826D01*
X149271544Y-123425500D01*
X149293218Y-123373174D01*
X149328050Y-123338342D01*
X149385646Y-123225304D01*
X149405492Y-123100000D01*
X149385646Y-122974696D01*
X149347586Y-122900000D01*
X150919508Y-122900000D01*
X150939353Y-123025301D01*
X150939353Y-123025302D01*
X150939354Y-123025304D01*
X150996950Y-123138342D01*
X151086658Y-123228050D01*
X151199696Y-123285646D01*
X151325000Y-123305492D01*
X151450304Y-123285646D01*
X151563342Y-123228050D01*
X151653050Y-123138342D01*
X151710646Y-123025304D01*
X151730492Y-122900000D01*
X151722573Y-122850000D01*
X153019508Y-122850000D01*
X153039353Y-122975301D01*
X153039353Y-122975302D01*
X153039354Y-122975304D01*
X153096950Y-123088342D01*
X153186658Y-123178050D01*
X153299696Y-123235646D01*
X153425000Y-123255492D01*
X153550304Y-123235646D01*
X153663342Y-123178050D01*
X153753050Y-123088342D01*
X153810646Y-122975304D01*
X153830492Y-122850000D01*
X153810646Y-122724696D01*
X153753050Y-122611658D01*
X153663342Y-122521950D01*
X153550304Y-122464354D01*
X153550302Y-122464353D01*
X153550301Y-122464353D01*
X153425000Y-122444508D01*
X153299698Y-122464353D01*
X153186656Y-122521951D01*
X153096951Y-122611656D01*
X153039353Y-122724698D01*
X153019508Y-122850000D01*
X151722573Y-122850000D01*
X151710646Y-122774696D01*
X151653050Y-122661658D01*
X151563342Y-122571950D01*
X151450304Y-122514354D01*
X151450302Y-122514353D01*
X151450301Y-122514353D01*
X151325000Y-122494508D01*
X151199698Y-122514353D01*
X151086656Y-122571951D01*
X150996951Y-122661656D01*
X150939353Y-122774698D01*
X150919508Y-122900000D01*
X149347586Y-122900000D01*
X149328050Y-122861658D01*
X149318718Y-122852326D01*
X149297044Y-122800000D01*
X149318718Y-122747674D01*
X149328050Y-122738342D01*
X149385646Y-122625304D01*
X149405492Y-122500000D01*
X149385646Y-122374696D01*
X149328050Y-122261658D01*
X149238342Y-122171950D01*
X149125304Y-122114354D01*
X149125302Y-122114353D01*
X149125301Y-122114353D01*
X149000000Y-122094508D01*
X148874698Y-122114353D01*
X148761656Y-122171951D01*
X148671951Y-122261656D01*
X148614353Y-122374698D01*
X148594508Y-122500000D01*
X148614353Y-122625301D01*
X148614353Y-122625302D01*
X148614354Y-122625304D01*
X148664997Y-122724696D01*
X148671951Y-122738343D01*
X148681282Y-122747674D01*
X148702956Y-122800000D01*
X148681282Y-122852326D01*
X148671951Y-122861656D01*
X148614353Y-122974698D01*
X148594508Y-123100000D01*
X148614353Y-123225301D01*
X148614353Y-123225302D01*
X148614354Y-123225304D01*
X148665307Y-123325304D01*
X148671951Y-123338343D01*
X148706782Y-123373174D01*
X148728456Y-123425500D01*
X148706782Y-123477826D01*
X148654456Y-123499500D01*
X148117645Y-123499500D01*
X148065319Y-123477826D01*
X148043645Y-123425500D01*
X148051711Y-123391905D01*
X148061255Y-123373174D01*
X148085646Y-123325304D01*
X148105492Y-123200000D01*
X148085646Y-123074696D01*
X148028050Y-122961658D01*
X147938342Y-122871950D01*
X147825304Y-122814354D01*
X147825302Y-122814353D01*
X147825301Y-122814353D01*
X147700000Y-122794508D01*
X147574698Y-122814353D01*
X147461656Y-122871951D01*
X147371951Y-122961656D01*
X147314353Y-123074698D01*
X147294508Y-123200000D01*
X147314354Y-123325304D01*
X147348289Y-123391905D01*
X147352733Y-123448367D01*
X147315950Y-123491434D01*
X147282355Y-123499500D01*
X145468554Y-123499500D01*
X145416228Y-123477826D01*
X145401241Y-123456241D01*
X145347399Y-123338343D01*
X145320321Y-123279050D01*
X145305181Y-123255492D01*
X145204285Y-123098493D01*
X145204284Y-123098492D01*
X145204281Y-123098487D01*
X145063724Y-122936276D01*
X144901513Y-122795719D01*
X144901508Y-122795715D01*
X144901506Y-122795714D01*
X144720956Y-122679682D01*
X144720948Y-122679678D01*
X144525709Y-122590515D01*
X144525704Y-122590513D01*
X144319776Y-122530047D01*
X144319764Y-122530045D01*
X144107322Y-122499500D01*
X144107318Y-122499500D01*
X144065892Y-122499500D01*
X130065892Y-122499500D01*
X130000000Y-122499500D01*
X129892682Y-122499500D01*
X129892677Y-122499500D01*
X129680235Y-122530045D01*
X129680223Y-122530047D01*
X129474295Y-122590513D01*
X129474290Y-122590515D01*
X129279051Y-122679678D01*
X129279043Y-122679682D01*
X129098493Y-122795714D01*
X129098487Y-122795718D01*
X129098487Y-122795719D01*
X128936276Y-122936276D01*
X128816333Y-123074698D01*
X128795714Y-123098493D01*
X128679682Y-123279043D01*
X128679678Y-123279051D01*
X128598759Y-123456241D01*
X128557306Y-123494834D01*
X128531446Y-123499500D01*
X119574500Y-123499500D01*
X119522174Y-123477826D01*
X119500500Y-123425500D01*
X119500500Y-122900000D01*
X119994508Y-122900000D01*
X120014353Y-123025301D01*
X120014353Y-123025302D01*
X120014354Y-123025304D01*
X120071950Y-123138342D01*
X120161658Y-123228050D01*
X120274696Y-123285646D01*
X120400000Y-123305492D01*
X120525304Y-123285646D01*
X120638342Y-123228050D01*
X120728050Y-123138342D01*
X120785646Y-123025304D01*
X120805492Y-122900000D01*
X120785646Y-122774696D01*
X120728050Y-122661658D01*
X120638342Y-122571950D01*
X120525304Y-122514354D01*
X120525302Y-122514353D01*
X120525301Y-122514353D01*
X120400000Y-122494508D01*
X120274698Y-122514353D01*
X120161656Y-122571951D01*
X120071951Y-122661656D01*
X120014353Y-122774698D01*
X119994508Y-122900000D01*
X119500500Y-122900000D01*
X119500500Y-121850000D01*
X119919508Y-121850000D01*
X119939353Y-121975301D01*
X119939353Y-121975302D01*
X119939354Y-121975304D01*
X119996950Y-122088342D01*
X120086658Y-122178050D01*
X120199696Y-122235646D01*
X120325000Y-122255492D01*
X120450304Y-122235646D01*
X120563342Y-122178050D01*
X120653050Y-122088342D01*
X120710646Y-121975304D01*
X120730492Y-121850000D01*
X120710646Y-121724696D01*
X120653050Y-121611658D01*
X120563342Y-121521950D01*
X120450304Y-121464354D01*
X120450302Y-121464353D01*
X120450301Y-121464353D01*
X120325000Y-121444508D01*
X120199698Y-121464353D01*
X120086656Y-121521951D01*
X119996951Y-121611656D01*
X119996950Y-121611658D01*
X119947536Y-121708639D01*
X119939353Y-121724698D01*
X119919508Y-121850000D01*
X119500500Y-121850000D01*
X119500500Y-117450000D01*
X125994508Y-117450000D01*
X126014353Y-117575301D01*
X126014353Y-117575302D01*
X126014354Y-117575304D01*
X126071950Y-117688342D01*
X126161658Y-117778050D01*
X126274696Y-117835646D01*
X126400000Y-117855492D01*
X126525304Y-117835646D01*
X126638342Y-117778050D01*
X126728050Y-117688342D01*
X126785646Y-117575304D01*
X126805492Y-117450000D01*
X126785646Y-117324696D01*
X126728050Y-117211658D01*
X126638342Y-117121950D01*
X126525304Y-117064354D01*
X126525302Y-117064353D01*
X126525301Y-117064353D01*
X126400000Y-117044508D01*
X126274698Y-117064353D01*
X126161656Y-117121951D01*
X126071951Y-117211656D01*
X126014353Y-117324698D01*
X125994508Y-117450000D01*
X119500500Y-117450000D01*
X119500500Y-116300000D01*
X119794508Y-116300000D01*
X119814353Y-116425301D01*
X119814353Y-116425302D01*
X119814354Y-116425304D01*
X119871950Y-116538342D01*
X119961658Y-116628050D01*
X120074696Y-116685646D01*
X120200000Y-116705492D01*
X120325304Y-116685646D01*
X120438342Y-116628050D01*
X120528050Y-116538342D01*
X120585646Y-116425304D01*
X120605492Y-116300000D01*
X120585646Y-116174696D01*
X120528050Y-116061658D01*
X120438342Y-115971950D01*
X120325304Y-115914354D01*
X120325302Y-115914353D01*
X120325301Y-115914353D01*
X120200000Y-115894508D01*
X120074698Y-115914353D01*
X119961656Y-115971951D01*
X119871951Y-116061656D01*
X119814353Y-116174698D01*
X119794508Y-116300000D01*
X119500500Y-116300000D01*
X119500500Y-113200000D01*
X121594508Y-113200000D01*
X121614353Y-113325301D01*
X121614353Y-113325302D01*
X121614354Y-113325304D01*
X121671950Y-113438342D01*
X121761658Y-113528050D01*
X121874696Y-113585646D01*
X122000000Y-113605492D01*
X122125304Y-113585646D01*
X122125306Y-113585644D01*
X122130514Y-113584820D01*
X122185586Y-113598042D01*
X122215179Y-113646333D01*
X122215179Y-113669485D01*
X122197496Y-113781133D01*
X122194508Y-113800000D01*
X122197863Y-113821182D01*
X122214353Y-113925301D01*
X122214353Y-113925302D01*
X122214354Y-113925304D01*
X122271950Y-114038342D01*
X122271951Y-114038343D01*
X122331282Y-114097674D01*
X122352956Y-114150000D01*
X122331282Y-114202326D01*
X122271951Y-114261656D01*
X122214353Y-114374698D01*
X122194508Y-114500000D01*
X122214353Y-114625301D01*
X122214353Y-114625302D01*
X122214354Y-114625304D01*
X122271950Y-114738342D01*
X122361658Y-114828050D01*
X122474696Y-114885646D01*
X122600000Y-114905492D01*
X122725304Y-114885646D01*
X122838342Y-114828050D01*
X122898174Y-114768218D01*
X122950500Y-114746544D01*
X123002826Y-114768218D01*
X123024500Y-114820544D01*
X123024500Y-115825941D01*
X123002826Y-115878267D01*
X122801407Y-116079685D01*
X122749081Y-116101359D01*
X122737507Y-116100448D01*
X122700000Y-116094508D01*
X122699999Y-116094508D01*
X122574698Y-116114353D01*
X122461656Y-116171951D01*
X122371951Y-116261656D01*
X122314353Y-116374698D01*
X122294508Y-116500000D01*
X122314353Y-116625301D01*
X122314353Y-116625302D01*
X122314354Y-116625304D01*
X122371950Y-116738342D01*
X122461658Y-116828050D01*
X122574696Y-116885646D01*
X122700000Y-116905492D01*
X122825304Y-116885646D01*
X122938342Y-116828050D01*
X123028050Y-116738342D01*
X123085646Y-116625304D01*
X123105492Y-116500000D01*
X123099551Y-116462491D01*
X123112772Y-116407420D01*
X123120307Y-116398597D01*
X123441170Y-116077736D01*
X123475500Y-115994855D01*
X123475500Y-115905146D01*
X123475500Y-115675000D01*
X123869508Y-115675000D01*
X123889353Y-115800301D01*
X123889353Y-115800302D01*
X123889354Y-115800304D01*
X123946950Y-115913342D01*
X124036658Y-116003050D01*
X124149696Y-116060646D01*
X124275000Y-116080492D01*
X124400304Y-116060646D01*
X124513342Y-116003050D01*
X124603050Y-115913342D01*
X124660646Y-115800304D01*
X124680492Y-115675000D01*
X124660646Y-115549696D01*
X124603050Y-115436658D01*
X124513342Y-115346950D01*
X124400304Y-115289354D01*
X124400302Y-115289353D01*
X124400301Y-115289353D01*
X124275000Y-115269508D01*
X124149698Y-115289353D01*
X124036656Y-115346951D01*
X123946951Y-115436656D01*
X123889353Y-115549698D01*
X123869508Y-115675000D01*
X123475500Y-115675000D01*
X123475500Y-114155145D01*
X123453178Y-114101254D01*
X123441171Y-114072266D01*
X123441169Y-114072263D01*
X123377735Y-114008829D01*
X123051578Y-113682673D01*
X123051578Y-113682672D01*
X122977737Y-113608831D01*
X122977736Y-113608830D01*
X122970445Y-113605810D01*
X122932829Y-113571037D01*
X122928050Y-113561658D01*
X122838343Y-113471951D01*
X122838342Y-113471950D01*
X122725304Y-113414354D01*
X122725302Y-113414353D01*
X122725301Y-113414353D01*
X122600000Y-113394508D01*
X122469485Y-113415179D01*
X122414413Y-113401957D01*
X122384820Y-113353666D01*
X122384820Y-113330514D01*
X122385644Y-113325306D01*
X122385646Y-113325304D01*
X122405492Y-113200000D01*
X123994508Y-113200000D01*
X124014353Y-113325301D01*
X124014353Y-113325302D01*
X124014354Y-113325304D01*
X124071950Y-113438342D01*
X124161658Y-113528050D01*
X124274696Y-113585646D01*
X124400000Y-113605492D01*
X124525304Y-113585646D01*
X124638342Y-113528050D01*
X124728050Y-113438342D01*
X124785646Y-113325304D01*
X124805492Y-113200000D01*
X124785646Y-113074696D01*
X124728050Y-112961658D01*
X124638342Y-112871950D01*
X124525304Y-112814354D01*
X124525302Y-112814353D01*
X124525301Y-112814353D01*
X124400000Y-112794508D01*
X124274698Y-112814353D01*
X124161656Y-112871951D01*
X124071951Y-112961656D01*
X124014353Y-113074698D01*
X123994508Y-113200000D01*
X122405492Y-113200000D01*
X122385646Y-113074696D01*
X122328050Y-112961658D01*
X122238342Y-112871950D01*
X122125304Y-112814354D01*
X122125302Y-112814353D01*
X122125301Y-112814353D01*
X122000000Y-112794508D01*
X121874698Y-112814353D01*
X121761656Y-112871951D01*
X121671951Y-112961656D01*
X121614353Y-113074698D01*
X121594508Y-113200000D01*
X119500500Y-113200000D01*
X119500500Y-112574500D01*
X119522174Y-112522174D01*
X119574500Y-112500500D01*
X127129456Y-112500500D01*
X127181782Y-112522174D01*
G37*
%TD.AperFunction*%
%TA.AperFunction,Conductor*%
G36*
X151721943Y-112522174D02*
G01*
X151743617Y-112574500D01*
X151735551Y-112608093D01*
X151730893Y-112617237D01*
X151714353Y-112649697D01*
X151694508Y-112775000D01*
X151714353Y-112900301D01*
X151714353Y-112900302D01*
X151714354Y-112900304D01*
X151771950Y-113013342D01*
X151861658Y-113103050D01*
X151974696Y-113160646D01*
X152100000Y-113180492D01*
X152225304Y-113160646D01*
X152338342Y-113103050D01*
X152428050Y-113013342D01*
X152485646Y-112900304D01*
X152505492Y-112775000D01*
X152485646Y-112649696D01*
X152464448Y-112608094D01*
X152460005Y-112551633D01*
X152496787Y-112508566D01*
X152530383Y-112500500D01*
X154425500Y-112500500D01*
X154477826Y-112522174D01*
X154499500Y-112574500D01*
X154499500Y-115779456D01*
X154477826Y-115831782D01*
X154425500Y-115853456D01*
X154373174Y-115831782D01*
X154338343Y-115796951D01*
X154338342Y-115796950D01*
X154225304Y-115739354D01*
X154225302Y-115739353D01*
X154225301Y-115739353D01*
X154100000Y-115719508D01*
X153974698Y-115739353D01*
X153861656Y-115796951D01*
X153771951Y-115886656D01*
X153714353Y-115999698D01*
X153694657Y-116124057D01*
X153694508Y-116125000D01*
X153700314Y-116161656D01*
X153714353Y-116250301D01*
X153714353Y-116250302D01*
X153714354Y-116250304D01*
X153771950Y-116363342D01*
X153861658Y-116453050D01*
X153974696Y-116510646D01*
X154100000Y-116530492D01*
X154225304Y-116510646D01*
X154338342Y-116453050D01*
X154373174Y-116418218D01*
X154425500Y-116396544D01*
X154477826Y-116418218D01*
X154499500Y-116470544D01*
X154499500Y-117106596D01*
X154477826Y-117158922D01*
X154425500Y-117180596D01*
X154392997Y-117171471D01*
X154392567Y-117172445D01*
X154388130Y-117170482D01*
X154321097Y-117150799D01*
X154277289Y-117144500D01*
X154277285Y-117144500D01*
X148223277Y-117144500D01*
X148223269Y-117144500D01*
X148202247Y-117145928D01*
X148202236Y-117145930D01*
X148169020Y-117150463D01*
X148169014Y-117150465D01*
X148117293Y-117169126D01*
X148060717Y-117166497D01*
X148033354Y-117140003D01*
X148031474Y-117141370D01*
X148028051Y-117136659D01*
X147938343Y-117046951D01*
X147938342Y-117046950D01*
X147825304Y-116989354D01*
X147825302Y-116989353D01*
X147825301Y-116989353D01*
X147700000Y-116969508D01*
X147574698Y-116989353D01*
X147461656Y-117046951D01*
X147438753Y-117069855D01*
X147380781Y-117127826D01*
X147328457Y-117149500D01*
X147299058Y-117149500D01*
X147246732Y-117127826D01*
X146947174Y-116828268D01*
X146925500Y-116775942D01*
X146925500Y-116375000D01*
X147294508Y-116375000D01*
X147314353Y-116500301D01*
X147314353Y-116500302D01*
X147314354Y-116500304D01*
X147371950Y-116613342D01*
X147461658Y-116703050D01*
X147574696Y-116760646D01*
X147700000Y-116780492D01*
X147825304Y-116760646D01*
X147938342Y-116703050D01*
X148028050Y-116613342D01*
X148085646Y-116500304D01*
X148105492Y-116375000D01*
X148085646Y-116249696D01*
X148028050Y-116136658D01*
X147965350Y-116073958D01*
X147943676Y-116021632D01*
X147965350Y-115969306D01*
X147984081Y-115955698D01*
X148038340Y-115928051D01*
X148038339Y-115928051D01*
X148038342Y-115928050D01*
X148128050Y-115838342D01*
X148173063Y-115750000D01*
X150644508Y-115750000D01*
X150664353Y-115875301D01*
X150664353Y-115875302D01*
X150664354Y-115875304D01*
X150721950Y-115988342D01*
X150811658Y-116078050D01*
X150924696Y-116135646D01*
X151050000Y-116155492D01*
X151175304Y-116135646D01*
X151288342Y-116078050D01*
X151378050Y-115988342D01*
X151435646Y-115875304D01*
X151455492Y-115750000D01*
X151435646Y-115624696D01*
X151378050Y-115511658D01*
X151288342Y-115421950D01*
X151175304Y-115364354D01*
X151175302Y-115364353D01*
X151175301Y-115364353D01*
X151050000Y-115344508D01*
X150924698Y-115364353D01*
X150811656Y-115421951D01*
X150721951Y-115511656D01*
X150664353Y-115624698D01*
X150644508Y-115750000D01*
X148173063Y-115750000D01*
X148185646Y-115725304D01*
X148205492Y-115600000D01*
X148185646Y-115474696D01*
X148128050Y-115361658D01*
X148038342Y-115271950D01*
X147925304Y-115214354D01*
X147925302Y-115214353D01*
X147925301Y-115214353D01*
X147800000Y-115194508D01*
X147674698Y-115214353D01*
X147561656Y-115271951D01*
X147471951Y-115361656D01*
X147414353Y-115474698D01*
X147394508Y-115600000D01*
X147414353Y-115725301D01*
X147414353Y-115725302D01*
X147414354Y-115725304D01*
X147471950Y-115838342D01*
X147471951Y-115838343D01*
X147534650Y-115901042D01*
X147556324Y-115953368D01*
X147534650Y-116005694D01*
X147515919Y-116019302D01*
X147461659Y-116046948D01*
X147371951Y-116136656D01*
X147314353Y-116249698D01*
X147294508Y-116375000D01*
X146925500Y-116375000D01*
X146925500Y-115453475D01*
X146925501Y-115453466D01*
X146925501Y-115355146D01*
X146901623Y-115297500D01*
X146891170Y-115272264D01*
X146823521Y-115204615D01*
X146823514Y-115204609D01*
X146747684Y-115128779D01*
X146726010Y-115076453D01*
X146747684Y-115024127D01*
X146788433Y-115003364D01*
X146900304Y-114985646D01*
X147013342Y-114928050D01*
X147103050Y-114838342D01*
X147160646Y-114725304D01*
X147176532Y-114625000D01*
X148969508Y-114625000D01*
X148989353Y-114750301D01*
X148989353Y-114750302D01*
X148989354Y-114750304D01*
X149046950Y-114863342D01*
X149136658Y-114953050D01*
X149249696Y-115010646D01*
X149375000Y-115030492D01*
X149500304Y-115010646D01*
X149613342Y-114953050D01*
X149703050Y-114863342D01*
X149760646Y-114750304D01*
X149773365Y-114670000D01*
X150614508Y-114670000D01*
X150634353Y-114795301D01*
X150634353Y-114795302D01*
X150634354Y-114795304D01*
X150691950Y-114908342D01*
X150781658Y-114998050D01*
X150894696Y-115055646D01*
X151020000Y-115075492D01*
X151145304Y-115055646D01*
X151258342Y-114998050D01*
X151348050Y-114908342D01*
X151405646Y-114795304D01*
X151425492Y-114670000D01*
X151405646Y-114544696D01*
X151393063Y-114520000D01*
X153244508Y-114520000D01*
X153264353Y-114645301D01*
X153264353Y-114645302D01*
X153264354Y-114645304D01*
X153321950Y-114758342D01*
X153411658Y-114848050D01*
X153524696Y-114905646D01*
X153650000Y-114925492D01*
X153775304Y-114905646D01*
X153888342Y-114848050D01*
X153978050Y-114758342D01*
X154035646Y-114645304D01*
X154055492Y-114520000D01*
X154035646Y-114394696D01*
X153978050Y-114281658D01*
X153888342Y-114191950D01*
X153775304Y-114134354D01*
X153775302Y-114134353D01*
X153775301Y-114134353D01*
X153650000Y-114114508D01*
X153524698Y-114134353D01*
X153524696Y-114134353D01*
X153524696Y-114134354D01*
X153493989Y-114150000D01*
X153411656Y-114191951D01*
X153321951Y-114281656D01*
X153264353Y-114394698D01*
X153244508Y-114520000D01*
X151393063Y-114520000D01*
X151348050Y-114431658D01*
X151258342Y-114341950D01*
X151145304Y-114284354D01*
X151145302Y-114284353D01*
X151145301Y-114284353D01*
X151020000Y-114264508D01*
X150894698Y-114284353D01*
X150894696Y-114284353D01*
X150894696Y-114284354D01*
X150869975Y-114296950D01*
X150781656Y-114341951D01*
X150691951Y-114431656D01*
X150691950Y-114431658D01*
X150641975Y-114529740D01*
X150634353Y-114544698D01*
X150614508Y-114670000D01*
X149773365Y-114670000D01*
X149780492Y-114625000D01*
X149760646Y-114499696D01*
X149703050Y-114386658D01*
X149703049Y-114386657D01*
X149701630Y-114383872D01*
X149697187Y-114327410D01*
X149733970Y-114284342D01*
X149779140Y-114277188D01*
X149800000Y-114280492D01*
X149925304Y-114260646D01*
X150038342Y-114203050D01*
X150128050Y-114113342D01*
X150185646Y-114000304D01*
X150205492Y-113875000D01*
X150185646Y-113749696D01*
X150128050Y-113636658D01*
X150038342Y-113546950D01*
X149925304Y-113489354D01*
X149925302Y-113489353D01*
X149925301Y-113489353D01*
X149800000Y-113469508D01*
X149674698Y-113489353D01*
X149561656Y-113546951D01*
X149471951Y-113636656D01*
X149414353Y-113749698D01*
X149394508Y-113875000D01*
X149414353Y-114000301D01*
X149414353Y-114000302D01*
X149414354Y-114000304D01*
X149444174Y-114058828D01*
X149473369Y-114116127D01*
X149477812Y-114172590D01*
X149441029Y-114215657D01*
X149395859Y-114222811D01*
X149375002Y-114219508D01*
X149375000Y-114219508D01*
X149249698Y-114239353D01*
X149136656Y-114296951D01*
X149046951Y-114386656D01*
X148989353Y-114499698D01*
X148969508Y-114625000D01*
X147176532Y-114625000D01*
X147180492Y-114600000D01*
X147160646Y-114474696D01*
X147103050Y-114361658D01*
X147013342Y-114271950D01*
X146900304Y-114214354D01*
X146900302Y-114214353D01*
X146900301Y-114214353D01*
X146879893Y-114211121D01*
X146831603Y-114181527D01*
X146818382Y-114126457D01*
X146830492Y-114050000D01*
X146814519Y-113949152D01*
X146827741Y-113894082D01*
X146876028Y-113864490D01*
X146900304Y-113860646D01*
X147013342Y-113803050D01*
X147103050Y-113713342D01*
X147160646Y-113600304D01*
X147180492Y-113475000D01*
X147160646Y-113349696D01*
X147139448Y-113308094D01*
X147135005Y-113251633D01*
X147171787Y-113208566D01*
X147205383Y-113200500D01*
X148398466Y-113200500D01*
X148450792Y-113222174D01*
X148471555Y-113262924D01*
X148489353Y-113375301D01*
X148489353Y-113375302D01*
X148489354Y-113375304D01*
X148546950Y-113488342D01*
X148636658Y-113578050D01*
X148749696Y-113635646D01*
X148875000Y-113655492D01*
X149000304Y-113635646D01*
X149113342Y-113578050D01*
X149203050Y-113488342D01*
X149260646Y-113375304D01*
X149280492Y-113250000D01*
X149260646Y-113124696D01*
X149203050Y-113011658D01*
X149113342Y-112921950D01*
X149000304Y-112864354D01*
X149000302Y-112864353D01*
X149000301Y-112864353D01*
X148875000Y-112844508D01*
X148837492Y-112850448D01*
X148782420Y-112837226D01*
X148773591Y-112829685D01*
X148727738Y-112783832D01*
X148727736Y-112783830D01*
X148727732Y-112783828D01*
X148703458Y-112773773D01*
X148703458Y-112773772D01*
X148644855Y-112749499D01*
X148555145Y-112749499D01*
X148546533Y-112749499D01*
X148546525Y-112749500D01*
X146105145Y-112749500D01*
X146097997Y-112750922D01*
X146097308Y-112747460D01*
X146053426Y-112747452D01*
X146013385Y-112707395D01*
X146011379Y-112701954D01*
X146010646Y-112699700D01*
X146010646Y-112699696D01*
X145968631Y-112617237D01*
X145963973Y-112608095D01*
X145959529Y-112551633D01*
X145996312Y-112508566D01*
X146029907Y-112500500D01*
X151669617Y-112500500D01*
X151721943Y-112522174D01*
G37*
%TD.AperFunction*%
%TA.AperFunction,Conductor*%
G36*
X136335551Y-115197439D02*
G01*
X136354703Y-115230612D01*
X136359108Y-115247053D01*
X136359109Y-115247056D01*
X136410817Y-115336606D01*
X136418823Y-115350472D01*
X136501933Y-115433573D01*
X136503267Y-115434907D01*
X136503271Y-115434910D01*
X136520503Y-115444857D01*
X136606690Y-115494609D01*
X136722041Y-115525506D01*
X136781750Y-115525500D01*
X136850870Y-115525500D01*
X137125943Y-115525500D01*
X137178269Y-115547174D01*
X137679609Y-116048514D01*
X137679612Y-116048518D01*
X137683830Y-116052736D01*
X137747264Y-116116170D01*
X137768580Y-116124999D01*
X137768581Y-116125000D01*
X137768582Y-116125000D01*
X137830146Y-116150501D01*
X137830147Y-116150501D01*
X137928467Y-116150501D01*
X137928475Y-116150500D01*
X138167208Y-116150500D01*
X138219534Y-116172174D01*
X138241208Y-116224500D01*
X138233143Y-116258093D01*
X138204478Y-116314353D01*
X138187442Y-116347787D01*
X138167597Y-116473089D01*
X138187442Y-116598390D01*
X138187442Y-116598391D01*
X138187443Y-116598393D01*
X138245039Y-116711431D01*
X138245040Y-116711432D01*
X138334748Y-116801140D01*
X138400350Y-116834566D01*
X138437133Y-116877633D01*
X138432689Y-116934095D01*
X138389622Y-116970878D01*
X138366755Y-116974500D01*
X136416309Y-116974500D01*
X136363983Y-116952826D01*
X136342309Y-116900500D01*
X136355408Y-116858463D01*
X136378297Y-116825302D01*
X136442665Y-116732049D01*
X136503746Y-116570993D01*
X136507295Y-116541769D01*
X136524508Y-116400003D01*
X136524508Y-116399996D01*
X136503747Y-116229011D01*
X136503746Y-116229009D01*
X136503746Y-116229007D01*
X136442665Y-116067951D01*
X136409085Y-116019302D01*
X136344814Y-115926189D01*
X136215890Y-115811973D01*
X136215884Y-115811969D01*
X136167619Y-115786637D01*
X136131360Y-115743128D01*
X136136487Y-115686723D01*
X136137900Y-115684157D01*
X136183056Y-115605993D01*
X136209210Y-115508493D01*
X136209210Y-115508483D01*
X136209225Y-115508373D01*
X136209225Y-115457879D01*
X136209229Y-115444855D01*
X136209239Y-115413164D01*
X136209237Y-115413161D01*
X136209240Y-115406014D01*
X136209225Y-115405851D01*
X136209225Y-115249765D01*
X136230899Y-115197439D01*
X136283225Y-115175765D01*
X136335551Y-115197439D01*
G37*
%TD.AperFunction*%
%TA.AperFunction,Conductor*%
G36*
X142378269Y-113472174D02*
G01*
X143154609Y-114248514D01*
X143154612Y-114248518D01*
X143158830Y-114252736D01*
X143222264Y-114316170D01*
X143305145Y-114350500D01*
X143400943Y-114350500D01*
X143453269Y-114372174D01*
X143454609Y-114373514D01*
X143454612Y-114373518D01*
X143458830Y-114377736D01*
X143522264Y-114441170D01*
X143542846Y-114449695D01*
X143542847Y-114449696D01*
X143542848Y-114449696D01*
X143605146Y-114475501D01*
X143605147Y-114475501D01*
X143703467Y-114475501D01*
X143703475Y-114475500D01*
X145425943Y-114475500D01*
X145478269Y-114497174D01*
X146066426Y-115085331D01*
X146088100Y-115137657D01*
X146066426Y-115189983D01*
X146014100Y-115211657D01*
X146002524Y-115210746D01*
X145900000Y-115194508D01*
X145774698Y-115214353D01*
X145661656Y-115271951D01*
X145571951Y-115361656D01*
X145514353Y-115474698D01*
X145494508Y-115600000D01*
X145514353Y-115725301D01*
X145514353Y-115725302D01*
X145514354Y-115725304D01*
X145571950Y-115838342D01*
X145571951Y-115838343D01*
X145607903Y-115874295D01*
X145629577Y-115926621D01*
X145607903Y-115978947D01*
X145567153Y-115999710D01*
X145474698Y-116014353D01*
X145474696Y-116014353D01*
X145474696Y-116014354D01*
X145460412Y-116021632D01*
X145361656Y-116071951D01*
X145271949Y-116161658D01*
X145260041Y-116185030D01*
X145216973Y-116221812D01*
X145160511Y-116217368D01*
X145128173Y-116185029D01*
X145078051Y-116086659D01*
X144988343Y-115996951D01*
X144988342Y-115996950D01*
X144875304Y-115939354D01*
X144875302Y-115939353D01*
X144875301Y-115939353D01*
X144750000Y-115919508D01*
X144624698Y-115939353D01*
X144624696Y-115939353D01*
X144624696Y-115939354D01*
X144593024Y-115955492D01*
X144511656Y-115996951D01*
X144421951Y-116086656D01*
X144364353Y-116199698D01*
X144359017Y-116233391D01*
X144329424Y-116281682D01*
X144297498Y-116294904D01*
X144296702Y-116295030D01*
X144241630Y-116281803D01*
X144212043Y-116233516D01*
X144210646Y-116224698D01*
X144210646Y-116224696D01*
X144153050Y-116111658D01*
X144063342Y-116021950D01*
X143950304Y-115964354D01*
X143950302Y-115964353D01*
X143950301Y-115964353D01*
X143835109Y-115946109D01*
X143786818Y-115916516D01*
X143773596Y-115861444D01*
X143803189Y-115813153D01*
X143835107Y-115799931D01*
X143925304Y-115785646D01*
X144038342Y-115728050D01*
X144128050Y-115638342D01*
X144185646Y-115525304D01*
X144205492Y-115400000D01*
X144185646Y-115274696D01*
X144128050Y-115161658D01*
X144038342Y-115071950D01*
X143925304Y-115014354D01*
X143925302Y-115014353D01*
X143925301Y-115014353D01*
X143800000Y-114994508D01*
X143674698Y-115014353D01*
X143674696Y-115014353D01*
X143674696Y-115014354D01*
X143643024Y-115030492D01*
X143561656Y-115071951D01*
X143471951Y-115161656D01*
X143414353Y-115274698D01*
X143394508Y-115400000D01*
X143394508Y-115400001D01*
X143396360Y-115411696D01*
X143383137Y-115466768D01*
X143334846Y-115496360D01*
X143311696Y-115496360D01*
X143300002Y-115494508D01*
X143300000Y-115494508D01*
X143174698Y-115514353D01*
X143174696Y-115514353D01*
X143174696Y-115514354D01*
X143133094Y-115535551D01*
X143076634Y-115539994D01*
X143033566Y-115503211D01*
X143025501Y-115469616D01*
X143025501Y-115405146D01*
X143002854Y-115350472D01*
X142991170Y-115322264D01*
X142923521Y-115254615D01*
X142923514Y-115254609D01*
X142370314Y-114701409D01*
X142348640Y-114649083D01*
X142349550Y-114637513D01*
X142355492Y-114600000D01*
X142335646Y-114474696D01*
X142278050Y-114361658D01*
X142188342Y-114271950D01*
X142075304Y-114214354D01*
X142075302Y-114214353D01*
X142075301Y-114214353D01*
X141950000Y-114194508D01*
X141824695Y-114214353D01*
X141824695Y-114214354D01*
X141711660Y-114271948D01*
X141706946Y-114275374D01*
X141704880Y-114272530D01*
X141663049Y-114289763D01*
X141610766Y-114267987D01*
X141597262Y-114249363D01*
X141578050Y-114211658D01*
X141488342Y-114121950D01*
X141375304Y-114064354D01*
X141375302Y-114064353D01*
X141375301Y-114064353D01*
X141250000Y-114044508D01*
X141124698Y-114064353D01*
X141011656Y-114121951D01*
X140987877Y-114145731D01*
X140930781Y-114202826D01*
X140878457Y-114224500D01*
X139953475Y-114224500D01*
X139953467Y-114224499D01*
X139944855Y-114224499D01*
X139855145Y-114224499D01*
X139806005Y-114244854D01*
X139772264Y-114258829D01*
X139772263Y-114258831D01*
X139708829Y-114322265D01*
X138733054Y-115298039D01*
X138680728Y-115319713D01*
X138628402Y-115298039D01*
X138607639Y-115257289D01*
X138596235Y-115185285D01*
X138538639Y-115072247D01*
X138448931Y-114982539D01*
X138335893Y-114924943D01*
X138335891Y-114924942D01*
X138335890Y-114924942D01*
X138210589Y-114905097D01*
X138085287Y-114924942D01*
X138085285Y-114924942D01*
X138085285Y-114924943D01*
X138084208Y-114925492D01*
X137972245Y-114982540D01*
X137882540Y-115072245D01*
X137882539Y-115072247D01*
X137836976Y-115161670D01*
X137824942Y-115185287D01*
X137805097Y-115310589D01*
X137805097Y-115310590D01*
X137811925Y-115353704D01*
X137798703Y-115408776D01*
X137750411Y-115438368D01*
X137695339Y-115425146D01*
X137686510Y-115417605D01*
X137451578Y-115182673D01*
X137451578Y-115182672D01*
X137377738Y-115108832D01*
X137377737Y-115108831D01*
X137377736Y-115108830D01*
X137377727Y-115108826D01*
X137353458Y-115098773D01*
X137353458Y-115098772D01*
X137294855Y-115074499D01*
X137205145Y-115074499D01*
X137196533Y-115074499D01*
X137196525Y-115074500D01*
X136853225Y-115074500D01*
X136800899Y-115052826D01*
X136779225Y-115000500D01*
X136779225Y-114652854D01*
X136779167Y-114652275D01*
X136779169Y-114645080D01*
X136748285Y-114529740D01*
X136748284Y-114529738D01*
X136737752Y-114511489D01*
X136730369Y-114455335D01*
X136764855Y-114410408D01*
X136801844Y-114400500D01*
X138921525Y-114400500D01*
X138921533Y-114400501D01*
X138930145Y-114400501D01*
X139019854Y-114400501D01*
X139019855Y-114400501D01*
X139089561Y-114371627D01*
X139102736Y-114366170D01*
X139166170Y-114302736D01*
X139166170Y-114302735D01*
X139176575Y-114292330D01*
X139176576Y-114292327D01*
X139996731Y-113472174D01*
X140049057Y-113450500D01*
X142325943Y-113450500D01*
X142378269Y-113472174D01*
G37*
%TD.AperFunction*%
%TD*%
M02*
