%TF.GenerationSoftware,KiCad,Pcbnew,8.0.6*%
%TF.CreationDate,2025-01-21T23:53:35+01:00*%
%TF.ProjectId,HSSM-LVPCB,4853534d-2d4c-4565-9043-422e6b696361,rev?*%
%TF.SameCoordinates,Original*%
%TF.FileFunction,Copper,L2,Inr*%
%TF.FilePolarity,Positive*%
%FSLAX46Y46*%
G04 Gerber Fmt 4.6, Leading zero omitted, Abs format (unit mm)*
G04 Created by KiCad (PCBNEW 8.0.6) date 2025-01-21 23:53:35*
%MOMM*%
%LPD*%
G01*
G04 APERTURE LIST*
%TA.AperFunction,ComponentPad*%
%ADD10C,1.117600*%
%TD*%
%TA.AperFunction,ViaPad*%
%ADD11C,0.500000*%
%TD*%
%TA.AperFunction,Conductor*%
%ADD12C,0.150000*%
%TD*%
G04 APERTURE END LIST*
D10*
%TO.N,GND*%
%TO.C,J2*%
X130729999Y-116400000D03*
%TO.N,/BOOT*%
X132000000Y-116400000D03*
%TO.N,/Enable*%
X133269999Y-116400000D03*
%TO.N,/U0RXD*%
X134539999Y-116400000D03*
%TO.N,/U0TXD*%
X135809998Y-116400000D03*
%TO.N,+3V3*%
X137079999Y-116400000D03*
%TD*%
D11*
%TO.N,GND*%
X124400000Y-113200000D03*
X129000000Y-116700000D03*
X143825000Y-116350000D03*
X131400000Y-119025000D03*
X147800000Y-119700000D03*
X144775000Y-117175000D03*
X124275000Y-115675000D03*
X151325000Y-122900000D03*
X150900000Y-121250000D03*
X151020000Y-114670000D03*
X151050000Y-115750000D03*
X122000000Y-113200000D03*
X144750000Y-116325000D03*
X148700000Y-120600000D03*
X154025000Y-117650000D03*
X143800000Y-117150000D03*
X136650000Y-119000000D03*
X126400000Y-117450000D03*
X149000000Y-122800000D03*
X146000000Y-121400000D03*
X150950000Y-118300000D03*
X129850000Y-114575000D03*
X120200000Y-116300000D03*
X153425000Y-122850000D03*
X120325000Y-121850000D03*
X135275000Y-114200000D03*
X120400000Y-122900000D03*
X149800000Y-121050000D03*
X139250000Y-116350000D03*
X144200000Y-121750000D03*
X149800000Y-118150000D03*
X149375000Y-114625000D03*
%TO.N,+3V3*%
X144450000Y-120550000D03*
X149825000Y-116050000D03*
X146800000Y-119300000D03*
X121700000Y-116300000D03*
X126300000Y-118200000D03*
X137700000Y-114700000D03*
X136100000Y-118200000D03*
X128700000Y-113925000D03*
X141900000Y-121600000D03*
X141900000Y-121025000D03*
%TO.N,/BOOT*%
X132500000Y-114600000D03*
X144200000Y-112800000D03*
%TO.N,/GPIO_Q1*%
X130700000Y-119200000D03*
X122700000Y-116500000D03*
X141125000Y-119000000D03*
X122600000Y-113800000D03*
%TO.N,/GPIO_Q2*%
X132900000Y-119000000D03*
X143425000Y-112825000D03*
X127475000Y-112900000D03*
X152100000Y-112775000D03*
%TO.N,/Enable*%
X133350000Y-114675000D03*
X147700000Y-117375000D03*
%TO.N,Net-(U1-SPIQ)*%
X141950000Y-114600000D03*
X130750000Y-120950000D03*
%TO.N,Net-(U1-SPIWP)*%
X141250000Y-114450000D03*
X129725000Y-116725000D03*
%TO.N,Net-(U1-SPIHD)*%
X140350000Y-116250000D03*
X120400000Y-120400000D03*
%TO.N,Net-(U1-SPICLK)*%
X120500000Y-119200000D03*
X141175000Y-116500000D03*
%TO.N,Net-(U1-SPID)*%
X120450000Y-118050000D03*
X139550000Y-116950000D03*
%TO.N,/SPICS0*%
X124650000Y-121875000D03*
X140300000Y-115550000D03*
X126600000Y-121000000D03*
X126100000Y-120400000D03*
%TO.N,/GPIO8*%
X144900000Y-112825000D03*
X148875000Y-113250000D03*
%TO.N,VDD_SPI*%
X140750000Y-114950000D03*
X123675000Y-122875000D03*
%TO.N,/S2_sym*%
X147800000Y-115600000D03*
X153650000Y-114520000D03*
%TO.N,/DO1*%
X135150000Y-119000000D03*
X145625000Y-112825000D03*
%TO.N,/DO3*%
X149800000Y-113875000D03*
%TO.N,/P_MEAS_RST*%
X140375000Y-117225000D03*
X135900000Y-119000000D03*
%TO.N,/GPIO_S2*%
X138050000Y-113050000D03*
X128825000Y-113250000D03*
X133650000Y-119000000D03*
%TO.N,/DO2*%
X147700000Y-116375000D03*
%TO.N,/GPIO_S1*%
X140400000Y-119000000D03*
%TO.N,+12V*%
X132150000Y-119000000D03*
%TO.N,/GPIO_S3*%
X134400000Y-119000000D03*
X139000000Y-112825000D03*
X129650000Y-113450000D03*
%TO.N,/LP_UART_RXD*%
X146775000Y-114600000D03*
%TO.N,/LP_UART_TXD*%
X146425000Y-114050000D03*
%TO.N,/S1_sym*%
X122600000Y-114500000D03*
%TO.N,/S3_sym*%
X138210589Y-115310589D03*
X146775000Y-113475000D03*
%TD*%
D12*
%TO.N,/GPIO_Q2*%
X144425000Y-113825000D02*
X143425000Y-112825000D01*
X135675000Y-113575000D02*
X134825000Y-112725000D01*
X139800000Y-112825000D02*
X139050000Y-113575000D01*
X146350000Y-112775000D02*
X145300000Y-113825000D01*
X143425000Y-112825000D02*
X139800000Y-112825000D01*
X127650000Y-112725000D02*
X127475000Y-112900000D01*
X134825000Y-112725000D02*
X127650000Y-112725000D01*
X139050000Y-113575000D02*
X135675000Y-113575000D01*
X152100000Y-112775000D02*
X146350000Y-112775000D01*
X145300000Y-113825000D02*
X144425000Y-113825000D01*
%TO.N,/S3_sym*%
X145650000Y-114100000D02*
X143850000Y-114100000D01*
X143850000Y-114100000D02*
X142900000Y-113150000D01*
X140196178Y-113150000D02*
X138060589Y-115285589D01*
X146275000Y-113475000D02*
X145650000Y-114100000D01*
X142900000Y-113150000D02*
X140196178Y-113150000D01*
X146775000Y-113475000D02*
X146275000Y-113475000D01*
%TD*%
%TA.AperFunction,Conductor*%
%TO.N,GND*%
G36*
X126981314Y-112520185D02*
G01*
X127027069Y-112572989D01*
X127037013Y-112642147D01*
X127027069Y-112676011D01*
X126989835Y-112757541D01*
X126989834Y-112757542D01*
X126969353Y-112900000D01*
X126989834Y-113042456D01*
X127049390Y-113172863D01*
X127049623Y-113173373D01*
X127143872Y-113282143D01*
X127264947Y-113359953D01*
X127264950Y-113359954D01*
X127264949Y-113359954D01*
X127403036Y-113400499D01*
X127403038Y-113400500D01*
X127403039Y-113400500D01*
X127546962Y-113400500D01*
X127546962Y-113400499D01*
X127685053Y-113359953D01*
X127806128Y-113282143D01*
X127900377Y-113173373D01*
X127900553Y-113172989D01*
X127923387Y-113122989D01*
X127969141Y-113070185D01*
X128036181Y-113050500D01*
X128204933Y-113050500D01*
X128271972Y-113070185D01*
X128317727Y-113122989D01*
X128327671Y-113192147D01*
X128319353Y-113250000D01*
X128339834Y-113392452D01*
X128339835Y-113392457D01*
X128361732Y-113440405D01*
X128371675Y-113509563D01*
X128342651Y-113573117D01*
X128274623Y-113651627D01*
X128274622Y-113651628D01*
X128214834Y-113782543D01*
X128194353Y-113925000D01*
X128214834Y-114067456D01*
X128260603Y-114167674D01*
X128274623Y-114198373D01*
X128368872Y-114307143D01*
X128489947Y-114384953D01*
X128489950Y-114384954D01*
X128489949Y-114384954D01*
X128628036Y-114425499D01*
X128628038Y-114425500D01*
X128628039Y-114425500D01*
X128771962Y-114425500D01*
X128771962Y-114425499D01*
X128910053Y-114384953D01*
X129031128Y-114307143D01*
X129125377Y-114198373D01*
X129185165Y-114067457D01*
X129199986Y-113964369D01*
X129229011Y-113900815D01*
X129287788Y-113863040D01*
X129357658Y-113863040D01*
X129389761Y-113877700D01*
X129390722Y-113878318D01*
X129439948Y-113909954D01*
X129550643Y-113942456D01*
X129574633Y-113949500D01*
X129578036Y-113950499D01*
X129578038Y-113950500D01*
X129578039Y-113950500D01*
X129721962Y-113950500D01*
X129721962Y-113950499D01*
X129860053Y-113909953D01*
X129981128Y-113832143D01*
X130075377Y-113723373D01*
X130135165Y-113592457D01*
X130155647Y-113450000D01*
X130135165Y-113307543D01*
X130131492Y-113299500D01*
X130097931Y-113226011D01*
X130087987Y-113156853D01*
X130117012Y-113093297D01*
X130175790Y-113055523D01*
X130210725Y-113050500D01*
X134638811Y-113050500D01*
X134705850Y-113070185D01*
X134726492Y-113086819D01*
X135410194Y-113770520D01*
X135410204Y-113770531D01*
X135414534Y-113774861D01*
X135414535Y-113774862D01*
X135475138Y-113835465D01*
X135475140Y-113835466D01*
X135475144Y-113835469D01*
X135512681Y-113857141D01*
X135512685Y-113857142D01*
X135512686Y-113857143D01*
X135549360Y-113878317D01*
X135549361Y-113878317D01*
X135549362Y-113878318D01*
X135632148Y-113900501D01*
X135632150Y-113900501D01*
X135725449Y-113900501D01*
X135725465Y-113900500D01*
X138685989Y-113900500D01*
X138753028Y-113920185D01*
X138798783Y-113972989D01*
X138808727Y-114042147D01*
X138779702Y-114105703D01*
X138773670Y-114112181D01*
X138356325Y-114529524D01*
X138295002Y-114563009D01*
X138225310Y-114558025D01*
X138169377Y-114516153D01*
X138155855Y-114493365D01*
X138125377Y-114426627D01*
X138031128Y-114317857D01*
X137910053Y-114240047D01*
X137910051Y-114240046D01*
X137910049Y-114240045D01*
X137910050Y-114240045D01*
X137771963Y-114199500D01*
X137771961Y-114199500D01*
X137628039Y-114199500D01*
X137628036Y-114199500D01*
X137489949Y-114240045D01*
X137368873Y-114317856D01*
X137274623Y-114426626D01*
X137274622Y-114426628D01*
X137214834Y-114557543D01*
X137194353Y-114700000D01*
X137214834Y-114842456D01*
X137268494Y-114959953D01*
X137274623Y-114973373D01*
X137368872Y-115082143D01*
X137489947Y-115159953D01*
X137489950Y-115159954D01*
X137489949Y-115159954D01*
X137615876Y-115196929D01*
X137674654Y-115234703D01*
X137703680Y-115298258D01*
X137704185Y-115305326D01*
X137725423Y-115453045D01*
X137769701Y-115549998D01*
X137785212Y-115583962D01*
X137879461Y-115692732D01*
X138000536Y-115770542D01*
X138000539Y-115770543D01*
X138000538Y-115770543D01*
X138099159Y-115799500D01*
X138110377Y-115802794D01*
X138138625Y-115811088D01*
X138138627Y-115811089D01*
X138138628Y-115811089D01*
X138282551Y-115811089D01*
X138282551Y-115811088D01*
X138420642Y-115770542D01*
X138541717Y-115692732D01*
X138635966Y-115583962D01*
X138695754Y-115453046D01*
X138716236Y-115310589D01*
X138697374Y-115179399D01*
X138707318Y-115110241D01*
X138732428Y-115074075D01*
X140294686Y-113511819D01*
X140356009Y-113478334D01*
X140382367Y-113475500D01*
X142713811Y-113475500D01*
X142780850Y-113495185D01*
X142801492Y-113511819D01*
X143650138Y-114360465D01*
X143724361Y-114403318D01*
X143807147Y-114425500D01*
X143807149Y-114425500D01*
X145692851Y-114425500D01*
X145692853Y-114425500D01*
X145775639Y-114403318D01*
X145849862Y-114360465D01*
X145853136Y-114357191D01*
X145914457Y-114323702D01*
X145984149Y-114328683D01*
X146034535Y-114363664D01*
X146093872Y-114432143D01*
X146212989Y-114508695D01*
X146258742Y-114561496D01*
X146268686Y-114595361D01*
X146289834Y-114742456D01*
X146335504Y-114842457D01*
X146349623Y-114873373D01*
X146443872Y-114982143D01*
X146564947Y-115059953D01*
X146564950Y-115059954D01*
X146564949Y-115059954D01*
X146613032Y-115074072D01*
X146699633Y-115099500D01*
X146703036Y-115100499D01*
X146703038Y-115100500D01*
X146703039Y-115100500D01*
X146846962Y-115100500D01*
X146846962Y-115100499D01*
X146985053Y-115059953D01*
X147106128Y-114982143D01*
X147200377Y-114873373D01*
X147260165Y-114742457D01*
X147280647Y-114600000D01*
X147269145Y-114520000D01*
X153144353Y-114520000D01*
X153164834Y-114662456D01*
X153201370Y-114742457D01*
X153224623Y-114793373D01*
X153318872Y-114902143D01*
X153439947Y-114979953D01*
X153439950Y-114979954D01*
X153439949Y-114979954D01*
X153509921Y-115000499D01*
X153572668Y-115018923D01*
X153578036Y-115020499D01*
X153578038Y-115020500D01*
X153578039Y-115020500D01*
X153721962Y-115020500D01*
X153721962Y-115020499D01*
X153838863Y-114986175D01*
X153860050Y-114979954D01*
X153860050Y-114979953D01*
X153860053Y-114979953D01*
X153981128Y-114902143D01*
X154075377Y-114793373D01*
X154135165Y-114662457D01*
X154155647Y-114520000D01*
X154135165Y-114377543D01*
X154075377Y-114246627D01*
X153981128Y-114137857D01*
X153860053Y-114060047D01*
X153860051Y-114060046D01*
X153860049Y-114060045D01*
X153860050Y-114060045D01*
X153721963Y-114019500D01*
X153721961Y-114019500D01*
X153578039Y-114019500D01*
X153578036Y-114019500D01*
X153439949Y-114060045D01*
X153318873Y-114137856D01*
X153224623Y-114246626D01*
X153224622Y-114246628D01*
X153164834Y-114377543D01*
X153144353Y-114520000D01*
X147269145Y-114520000D01*
X147260165Y-114457543D01*
X147200377Y-114326627D01*
X147106128Y-114217857D01*
X146987804Y-114141815D01*
X146942050Y-114089012D01*
X146932106Y-114019853D01*
X146961131Y-113956298D01*
X146987803Y-113933185D01*
X147106128Y-113857143D01*
X147200377Y-113748373D01*
X147260165Y-113617457D01*
X147280647Y-113475000D01*
X147260165Y-113332543D01*
X147237148Y-113282143D01*
X147234348Y-113276012D01*
X147224404Y-113206853D01*
X147253429Y-113143297D01*
X147312207Y-113105523D01*
X147347142Y-113100500D01*
X148247744Y-113100500D01*
X148314783Y-113120185D01*
X148360538Y-113172989D01*
X148370482Y-113242146D01*
X148369353Y-113249998D01*
X148369353Y-113249999D01*
X148389834Y-113392456D01*
X148436750Y-113495185D01*
X148449623Y-113523373D01*
X148543872Y-113632143D01*
X148664947Y-113709953D01*
X148664950Y-113709954D01*
X148664949Y-113709954D01*
X148741882Y-113732543D01*
X148795788Y-113748371D01*
X148803036Y-113750499D01*
X148803038Y-113750500D01*
X148803039Y-113750500D01*
X148946962Y-113750500D01*
X148946962Y-113750499D01*
X149085053Y-113709953D01*
X149113387Y-113691743D01*
X149180425Y-113672058D01*
X149247465Y-113691741D01*
X149293220Y-113744544D01*
X149303165Y-113813703D01*
X149294353Y-113874997D01*
X149294353Y-113875000D01*
X149294830Y-113878317D01*
X149314834Y-114017456D01*
X149371628Y-114141816D01*
X149374623Y-114148373D01*
X149468872Y-114257143D01*
X149589947Y-114334953D01*
X149589950Y-114334954D01*
X149589949Y-114334954D01*
X149728036Y-114375499D01*
X149728038Y-114375500D01*
X149728039Y-114375500D01*
X149871962Y-114375500D01*
X149871962Y-114375499D01*
X150010053Y-114334953D01*
X150131128Y-114257143D01*
X150225377Y-114148373D01*
X150285165Y-114017457D01*
X150305647Y-113875000D01*
X150285165Y-113732543D01*
X150225377Y-113601627D01*
X150131128Y-113492857D01*
X150010053Y-113415047D01*
X150010051Y-113415046D01*
X150010049Y-113415045D01*
X150010050Y-113415045D01*
X149871963Y-113374500D01*
X149871961Y-113374500D01*
X149728039Y-113374500D01*
X149728036Y-113374500D01*
X149589949Y-113415045D01*
X149589946Y-113415047D01*
X149561610Y-113433257D01*
X149494570Y-113452941D01*
X149427531Y-113433256D01*
X149381777Y-113380451D01*
X149371834Y-113311294D01*
X149372374Y-113307543D01*
X149380647Y-113250000D01*
X149379518Y-113242146D01*
X149389462Y-113172987D01*
X149435218Y-113120184D01*
X149502256Y-113100500D01*
X151663162Y-113100500D01*
X151730201Y-113120185D01*
X151756872Y-113143295D01*
X151768872Y-113157143D01*
X151889947Y-113234953D01*
X151889950Y-113234954D01*
X151889949Y-113234954D01*
X152028036Y-113275499D01*
X152028038Y-113275500D01*
X152028039Y-113275500D01*
X152171962Y-113275500D01*
X152171962Y-113275499D01*
X152310053Y-113234953D01*
X152431128Y-113157143D01*
X152525377Y-113048373D01*
X152585165Y-112917457D01*
X152605647Y-112775000D01*
X152586546Y-112642147D01*
X152596490Y-112572988D01*
X152642245Y-112520184D01*
X152709284Y-112500500D01*
X154375500Y-112500500D01*
X154442539Y-112520185D01*
X154488294Y-112572989D01*
X154499500Y-112624500D01*
X154499500Y-123375500D01*
X154479815Y-123442539D01*
X154427011Y-123488294D01*
X154375500Y-123499500D01*
X145500687Y-123499500D01*
X145433648Y-123479815D01*
X145387893Y-123427011D01*
X145387892Y-123427011D01*
X145372427Y-123393148D01*
X145320321Y-123279050D01*
X145204281Y-123098487D01*
X145134067Y-123017456D01*
X145063724Y-122936275D01*
X144901514Y-122795720D01*
X144901513Y-122795719D01*
X144803209Y-122732543D01*
X144720951Y-122679679D01*
X144720938Y-122679672D01*
X144525715Y-122590517D01*
X144319774Y-122530047D01*
X144319764Y-122530044D01*
X144128754Y-122502582D01*
X144107318Y-122499500D01*
X144065892Y-122499500D01*
X130065892Y-122499500D01*
X130000000Y-122499500D01*
X129892682Y-122499500D01*
X129680235Y-122530044D01*
X129680225Y-122530047D01*
X129474284Y-122590517D01*
X129279061Y-122679672D01*
X129279048Y-122679679D01*
X129098485Y-122795720D01*
X128936275Y-122936275D01*
X128795720Y-123098485D01*
X128679679Y-123279048D01*
X128679678Y-123279050D01*
X128612108Y-123427011D01*
X128566353Y-123479815D01*
X128499313Y-123499500D01*
X124051319Y-123499500D01*
X123984280Y-123479815D01*
X123938525Y-123427011D01*
X123928581Y-123357853D01*
X123957606Y-123294297D01*
X123984279Y-123271185D01*
X123992243Y-123266066D01*
X124006128Y-123257143D01*
X124100377Y-123148373D01*
X124160165Y-123017457D01*
X124180647Y-122875000D01*
X124160165Y-122732543D01*
X124100377Y-122601627D01*
X124006128Y-122492857D01*
X123885053Y-122415047D01*
X123885051Y-122415046D01*
X123885049Y-122415045D01*
X123885050Y-122415045D01*
X123746963Y-122374500D01*
X123746961Y-122374500D01*
X123603039Y-122374500D01*
X123603036Y-122374500D01*
X123464949Y-122415045D01*
X123343873Y-122492856D01*
X123249623Y-122601626D01*
X123249622Y-122601628D01*
X123189834Y-122732543D01*
X123169353Y-122875000D01*
X123189834Y-123017456D01*
X123249622Y-123148371D01*
X123249623Y-123148373D01*
X123343872Y-123257143D01*
X123343874Y-123257144D01*
X123365721Y-123271185D01*
X123411476Y-123323989D01*
X123421419Y-123393148D01*
X123392393Y-123456703D01*
X123333615Y-123494477D01*
X123298681Y-123499500D01*
X119624500Y-123499500D01*
X119557461Y-123479815D01*
X119511706Y-123427011D01*
X119500500Y-123375500D01*
X119500500Y-121875000D01*
X124144353Y-121875000D01*
X124164834Y-122017456D01*
X124184242Y-122059953D01*
X124224623Y-122148373D01*
X124318872Y-122257143D01*
X124439947Y-122334953D01*
X124439950Y-122334954D01*
X124439949Y-122334954D01*
X124547107Y-122366417D01*
X124574633Y-122374500D01*
X124578036Y-122375499D01*
X124578038Y-122375500D01*
X124578039Y-122375500D01*
X124721962Y-122375500D01*
X124721962Y-122375499D01*
X124860053Y-122334953D01*
X124981128Y-122257143D01*
X125075377Y-122148373D01*
X125135165Y-122017457D01*
X125155647Y-121875000D01*
X125135165Y-121732543D01*
X125075377Y-121601627D01*
X124981128Y-121492857D01*
X124860053Y-121415047D01*
X124860051Y-121415046D01*
X124860049Y-121415045D01*
X124860050Y-121415045D01*
X124721963Y-121374500D01*
X124721961Y-121374500D01*
X124578039Y-121374500D01*
X124578036Y-121374500D01*
X124439949Y-121415045D01*
X124318873Y-121492856D01*
X124224623Y-121601626D01*
X124224622Y-121601628D01*
X124164834Y-121732543D01*
X124144353Y-121875000D01*
X119500500Y-121875000D01*
X119500500Y-120400000D01*
X119894353Y-120400000D01*
X119914834Y-120542456D01*
X119974622Y-120673371D01*
X119974623Y-120673373D01*
X120068872Y-120782143D01*
X120189947Y-120859953D01*
X120189950Y-120859954D01*
X120189949Y-120859954D01*
X120328036Y-120900499D01*
X120328038Y-120900500D01*
X120328039Y-120900500D01*
X120471962Y-120900500D01*
X120471962Y-120900499D01*
X120610053Y-120859953D01*
X120731128Y-120782143D01*
X120825377Y-120673373D01*
X120885165Y-120542457D01*
X120905647Y-120400000D01*
X125594353Y-120400000D01*
X125614834Y-120542456D01*
X125674622Y-120673371D01*
X125674623Y-120673373D01*
X125768872Y-120782143D01*
X125889947Y-120859953D01*
X125889950Y-120859954D01*
X125889949Y-120859954D01*
X126005876Y-120893993D01*
X126064655Y-120931767D01*
X126093680Y-120995322D01*
X126093680Y-120995323D01*
X126114834Y-121142456D01*
X126168967Y-121260988D01*
X126174623Y-121273373D01*
X126268872Y-121382143D01*
X126389947Y-121459953D01*
X126389950Y-121459954D01*
X126389949Y-121459954D01*
X126528036Y-121500499D01*
X126528038Y-121500500D01*
X126528039Y-121500500D01*
X126671962Y-121500500D01*
X126671962Y-121500499D01*
X126810053Y-121459953D01*
X126931128Y-121382143D01*
X127025377Y-121273373D01*
X127085165Y-121142457D01*
X127105647Y-121000000D01*
X127098458Y-120950000D01*
X130244353Y-120950000D01*
X130264834Y-121092456D01*
X130299087Y-121167458D01*
X130324623Y-121223373D01*
X130418872Y-121332143D01*
X130539947Y-121409953D01*
X130539950Y-121409954D01*
X130539949Y-121409954D01*
X130678036Y-121450499D01*
X130678038Y-121450500D01*
X130678039Y-121450500D01*
X130821962Y-121450500D01*
X130821962Y-121450499D01*
X130960053Y-121409953D01*
X131081128Y-121332143D01*
X131175377Y-121223373D01*
X131235165Y-121092457D01*
X131244864Y-121025000D01*
X141394353Y-121025000D01*
X141414834Y-121167457D01*
X141414835Y-121167458D01*
X141457549Y-121260989D01*
X141467493Y-121330147D01*
X141457549Y-121364011D01*
X141414835Y-121457541D01*
X141414834Y-121457542D01*
X141394353Y-121600000D01*
X141414834Y-121742456D01*
X141474622Y-121873371D01*
X141474623Y-121873373D01*
X141568872Y-121982143D01*
X141689947Y-122059953D01*
X141689950Y-122059954D01*
X141689949Y-122059954D01*
X141828036Y-122100499D01*
X141828038Y-122100500D01*
X141828039Y-122100500D01*
X141971962Y-122100500D01*
X141971962Y-122100499D01*
X142110053Y-122059953D01*
X142231128Y-121982143D01*
X142325377Y-121873373D01*
X142385165Y-121742457D01*
X142405647Y-121600000D01*
X142385165Y-121457543D01*
X142342449Y-121364010D01*
X142332506Y-121294854D01*
X142342450Y-121260988D01*
X142385165Y-121167457D01*
X142405647Y-121025000D01*
X142385165Y-120882543D01*
X142325377Y-120751627D01*
X142231128Y-120642857D01*
X142110053Y-120565047D01*
X142110051Y-120565046D01*
X142110049Y-120565045D01*
X142110050Y-120565045D01*
X142058810Y-120550000D01*
X143944353Y-120550000D01*
X143964834Y-120692456D01*
X144024622Y-120823371D01*
X144024623Y-120823373D01*
X144118872Y-120932143D01*
X144239947Y-121009953D01*
X144239950Y-121009954D01*
X144239949Y-121009954D01*
X144378036Y-121050499D01*
X144378038Y-121050500D01*
X144378039Y-121050500D01*
X144521962Y-121050500D01*
X144521962Y-121050499D01*
X144660053Y-121009953D01*
X144781128Y-120932143D01*
X144875377Y-120823373D01*
X144935165Y-120692457D01*
X144955647Y-120550000D01*
X144935165Y-120407543D01*
X144875377Y-120276627D01*
X144781128Y-120167857D01*
X144660053Y-120090047D01*
X144660051Y-120090046D01*
X144660049Y-120090045D01*
X144660050Y-120090045D01*
X144521963Y-120049500D01*
X144521961Y-120049500D01*
X144378039Y-120049500D01*
X144378036Y-120049500D01*
X144239949Y-120090045D01*
X144118873Y-120167856D01*
X144024623Y-120276626D01*
X144024622Y-120276628D01*
X143964834Y-120407543D01*
X143944353Y-120550000D01*
X142058810Y-120550000D01*
X141971963Y-120524500D01*
X141971961Y-120524500D01*
X141828039Y-120524500D01*
X141828036Y-120524500D01*
X141689949Y-120565045D01*
X141568873Y-120642856D01*
X141474623Y-120751626D01*
X141474622Y-120751628D01*
X141414834Y-120882543D01*
X141394353Y-121025000D01*
X131244864Y-121025000D01*
X131255647Y-120950000D01*
X131235165Y-120807543D01*
X131175377Y-120676627D01*
X131081128Y-120567857D01*
X130960053Y-120490047D01*
X130960051Y-120490046D01*
X130960049Y-120490045D01*
X130960050Y-120490045D01*
X130821963Y-120449500D01*
X130821961Y-120449500D01*
X130678039Y-120449500D01*
X130678036Y-120449500D01*
X130539949Y-120490045D01*
X130418873Y-120567856D01*
X130324623Y-120676626D01*
X130324622Y-120676628D01*
X130264834Y-120807543D01*
X130244353Y-120950000D01*
X127098458Y-120950000D01*
X127085165Y-120857543D01*
X127025377Y-120726627D01*
X126931128Y-120617857D01*
X126813803Y-120542457D01*
X126810050Y-120540045D01*
X126694122Y-120506006D01*
X126635344Y-120468232D01*
X126606319Y-120404676D01*
X126585165Y-120257543D01*
X126525377Y-120126628D01*
X126525376Y-120126626D01*
X126493680Y-120090047D01*
X126431128Y-120017857D01*
X126310053Y-119940047D01*
X126310051Y-119940046D01*
X126310049Y-119940045D01*
X126310050Y-119940045D01*
X126171963Y-119899500D01*
X126171961Y-119899500D01*
X126028039Y-119899500D01*
X126028036Y-119899500D01*
X125889949Y-119940045D01*
X125768873Y-120017856D01*
X125674623Y-120126626D01*
X125674622Y-120126628D01*
X125614834Y-120257543D01*
X125594353Y-120400000D01*
X120905647Y-120400000D01*
X120885165Y-120257543D01*
X120825377Y-120126627D01*
X120731128Y-120017857D01*
X120610053Y-119940047D01*
X120610051Y-119940046D01*
X120610049Y-119940045D01*
X120610050Y-119940045D01*
X120588296Y-119933658D01*
X120529518Y-119895884D01*
X120500492Y-119832329D01*
X120510435Y-119763170D01*
X120556190Y-119710366D01*
X120588296Y-119695704D01*
X120710050Y-119659954D01*
X120710050Y-119659953D01*
X120710053Y-119659953D01*
X120831128Y-119582143D01*
X120925377Y-119473373D01*
X120985165Y-119342457D01*
X121005647Y-119200000D01*
X130194353Y-119200000D01*
X130214834Y-119342456D01*
X130260504Y-119442457D01*
X130274623Y-119473373D01*
X130368872Y-119582143D01*
X130489947Y-119659953D01*
X130489950Y-119659954D01*
X130489949Y-119659954D01*
X130628036Y-119700499D01*
X130628038Y-119700500D01*
X130628039Y-119700500D01*
X130771962Y-119700500D01*
X130771962Y-119700499D01*
X130910053Y-119659953D01*
X131031128Y-119582143D01*
X131125377Y-119473373D01*
X131185165Y-119342457D01*
X131205647Y-119200000D01*
X131185165Y-119057543D01*
X131158886Y-119000000D01*
X131644353Y-119000000D01*
X131664834Y-119142456D01*
X131691114Y-119200000D01*
X131724623Y-119273373D01*
X131818872Y-119382143D01*
X131939947Y-119459953D01*
X131939950Y-119459954D01*
X131939949Y-119459954D01*
X132078036Y-119500499D01*
X132078038Y-119500500D01*
X132078039Y-119500500D01*
X132221962Y-119500500D01*
X132221962Y-119500499D01*
X132360053Y-119459953D01*
X132457960Y-119397031D01*
X132525000Y-119377347D01*
X132592039Y-119397032D01*
X132592040Y-119397032D01*
X132689947Y-119459953D01*
X132689948Y-119459953D01*
X132689949Y-119459954D01*
X132828036Y-119500499D01*
X132828038Y-119500500D01*
X132828039Y-119500500D01*
X132971962Y-119500500D01*
X132971962Y-119500499D01*
X133110053Y-119459953D01*
X133207960Y-119397031D01*
X133275000Y-119377347D01*
X133342039Y-119397032D01*
X133342040Y-119397032D01*
X133439947Y-119459953D01*
X133439948Y-119459953D01*
X133439949Y-119459954D01*
X133578036Y-119500499D01*
X133578038Y-119500500D01*
X133578039Y-119500500D01*
X133721962Y-119500500D01*
X133721962Y-119500499D01*
X133860053Y-119459953D01*
X133957960Y-119397031D01*
X134025000Y-119377347D01*
X134092039Y-119397032D01*
X134092040Y-119397032D01*
X134189947Y-119459953D01*
X134189948Y-119459953D01*
X134189949Y-119459954D01*
X134328036Y-119500499D01*
X134328038Y-119500500D01*
X134328039Y-119500500D01*
X134471962Y-119500500D01*
X134471962Y-119500499D01*
X134610053Y-119459953D01*
X134707960Y-119397031D01*
X134775000Y-119377347D01*
X134842039Y-119397032D01*
X134842040Y-119397032D01*
X134939947Y-119459953D01*
X134939948Y-119459953D01*
X134939949Y-119459954D01*
X135078036Y-119500499D01*
X135078038Y-119500500D01*
X135078039Y-119500500D01*
X135221962Y-119500500D01*
X135221962Y-119500499D01*
X135360053Y-119459953D01*
X135457960Y-119397031D01*
X135525000Y-119377347D01*
X135592039Y-119397032D01*
X135592040Y-119397032D01*
X135689947Y-119459953D01*
X135689948Y-119459953D01*
X135689949Y-119459954D01*
X135828036Y-119500499D01*
X135828038Y-119500500D01*
X135828039Y-119500500D01*
X135971962Y-119500500D01*
X135971962Y-119500499D01*
X136110053Y-119459953D01*
X136231128Y-119382143D01*
X136325377Y-119273373D01*
X136385165Y-119142457D01*
X136405647Y-119000000D01*
X139894353Y-119000000D01*
X139914834Y-119142456D01*
X139941114Y-119200000D01*
X139974623Y-119273373D01*
X140068872Y-119382143D01*
X140189947Y-119459953D01*
X140189950Y-119459954D01*
X140189949Y-119459954D01*
X140328036Y-119500499D01*
X140328038Y-119500500D01*
X140328039Y-119500500D01*
X140471962Y-119500500D01*
X140471962Y-119500499D01*
X140610050Y-119459954D01*
X140610051Y-119459954D01*
X140637277Y-119442457D01*
X140695461Y-119405064D01*
X140762500Y-119385380D01*
X140829536Y-119405063D01*
X140873519Y-119433329D01*
X140914948Y-119459954D01*
X141053036Y-119500499D01*
X141053038Y-119500500D01*
X141053039Y-119500500D01*
X141196962Y-119500500D01*
X141196962Y-119500499D01*
X141335053Y-119459953D01*
X141456128Y-119382143D01*
X141527305Y-119300000D01*
X146294353Y-119300000D01*
X146314834Y-119442456D01*
X146374622Y-119573371D01*
X146374623Y-119573373D01*
X146468872Y-119682143D01*
X146589947Y-119759953D01*
X146589950Y-119759954D01*
X146589949Y-119759954D01*
X146728036Y-119800499D01*
X146728038Y-119800500D01*
X146728039Y-119800500D01*
X146871962Y-119800500D01*
X146871962Y-119800499D01*
X147010053Y-119759953D01*
X147131128Y-119682143D01*
X147225377Y-119573373D01*
X147285165Y-119442457D01*
X147305647Y-119300000D01*
X147285165Y-119157543D01*
X147225377Y-119026627D01*
X147131128Y-118917857D01*
X147010053Y-118840047D01*
X147010051Y-118840046D01*
X147010049Y-118840045D01*
X147010050Y-118840045D01*
X146871963Y-118799500D01*
X146871961Y-118799500D01*
X146728039Y-118799500D01*
X146728036Y-118799500D01*
X146589949Y-118840045D01*
X146468873Y-118917856D01*
X146374623Y-119026626D01*
X146374622Y-119026628D01*
X146314834Y-119157543D01*
X146294353Y-119300000D01*
X141527305Y-119300000D01*
X141550377Y-119273373D01*
X141610165Y-119142457D01*
X141630647Y-119000000D01*
X141610165Y-118857543D01*
X141550377Y-118726627D01*
X141456128Y-118617857D01*
X141335053Y-118540047D01*
X141335051Y-118540046D01*
X141335049Y-118540045D01*
X141335050Y-118540045D01*
X141196963Y-118499500D01*
X141196961Y-118499500D01*
X141053039Y-118499500D01*
X141053036Y-118499500D01*
X140914949Y-118540045D01*
X140829539Y-118594935D01*
X140762499Y-118614619D01*
X140695461Y-118594935D01*
X140610050Y-118540045D01*
X140471963Y-118499500D01*
X140471961Y-118499500D01*
X140328039Y-118499500D01*
X140328036Y-118499500D01*
X140189949Y-118540045D01*
X140068873Y-118617856D01*
X139974623Y-118726626D01*
X139974622Y-118726628D01*
X139914834Y-118857543D01*
X139894353Y-119000000D01*
X136405647Y-119000000D01*
X136385165Y-118857543D01*
X136342994Y-118765204D01*
X136333051Y-118696047D01*
X136362076Y-118632491D01*
X136388747Y-118609379D01*
X136431128Y-118582143D01*
X136525377Y-118473373D01*
X136585165Y-118342457D01*
X136605647Y-118200000D01*
X136585165Y-118057543D01*
X136525377Y-117926627D01*
X136431128Y-117817857D01*
X136310053Y-117740047D01*
X136310051Y-117740046D01*
X136310049Y-117740045D01*
X136310050Y-117740045D01*
X136171963Y-117699500D01*
X136171961Y-117699500D01*
X136028039Y-117699500D01*
X136028036Y-117699500D01*
X135889949Y-117740045D01*
X135768873Y-117817856D01*
X135674623Y-117926626D01*
X135674622Y-117926628D01*
X135614834Y-118057543D01*
X135594353Y-118200000D01*
X135614834Y-118342457D01*
X135614835Y-118342458D01*
X135657004Y-118434795D01*
X135666948Y-118503953D01*
X135637923Y-118567509D01*
X135611251Y-118590620D01*
X135592041Y-118602966D01*
X135525002Y-118622652D01*
X135457962Y-118602969D01*
X135457961Y-118602968D01*
X135360050Y-118540045D01*
X135221963Y-118499500D01*
X135221961Y-118499500D01*
X135078039Y-118499500D01*
X135078036Y-118499500D01*
X134939949Y-118540045D01*
X134842039Y-118602968D01*
X134774999Y-118622652D01*
X134707961Y-118602968D01*
X134610050Y-118540045D01*
X134471963Y-118499500D01*
X134471961Y-118499500D01*
X134328039Y-118499500D01*
X134328036Y-118499500D01*
X134189949Y-118540045D01*
X134092039Y-118602968D01*
X134024999Y-118622652D01*
X133957961Y-118602968D01*
X133860050Y-118540045D01*
X133721963Y-118499500D01*
X133721961Y-118499500D01*
X133578039Y-118499500D01*
X133578036Y-118499500D01*
X133439949Y-118540045D01*
X133342039Y-118602968D01*
X133274999Y-118622652D01*
X133207961Y-118602968D01*
X133110050Y-118540045D01*
X132971963Y-118499500D01*
X132971961Y-118499500D01*
X132828039Y-118499500D01*
X132828036Y-118499500D01*
X132689949Y-118540045D01*
X132592039Y-118602968D01*
X132524999Y-118622652D01*
X132457961Y-118602968D01*
X132360050Y-118540045D01*
X132221963Y-118499500D01*
X132221961Y-118499500D01*
X132078039Y-118499500D01*
X132078036Y-118499500D01*
X131939949Y-118540045D01*
X131818873Y-118617856D01*
X131724623Y-118726626D01*
X131724622Y-118726628D01*
X131664834Y-118857543D01*
X131644353Y-119000000D01*
X131158886Y-119000000D01*
X131125377Y-118926627D01*
X131031128Y-118817857D01*
X130910053Y-118740047D01*
X130910051Y-118740046D01*
X130910049Y-118740045D01*
X130910050Y-118740045D01*
X130771963Y-118699500D01*
X130771961Y-118699500D01*
X130628039Y-118699500D01*
X130628036Y-118699500D01*
X130489949Y-118740045D01*
X130368873Y-118817856D01*
X130274623Y-118926626D01*
X130274622Y-118926628D01*
X130214834Y-119057543D01*
X130194353Y-119200000D01*
X121005647Y-119200000D01*
X120985165Y-119057543D01*
X120925377Y-118926627D01*
X120831128Y-118817857D01*
X120710053Y-118740047D01*
X120710051Y-118740046D01*
X120710049Y-118740045D01*
X120710051Y-118740045D01*
X120690506Y-118734307D01*
X120631728Y-118696534D01*
X120602702Y-118632978D01*
X120612645Y-118563820D01*
X120658400Y-118511015D01*
X120658401Y-118511014D01*
X120660051Y-118509953D01*
X120660053Y-118509953D01*
X120781128Y-118432143D01*
X120875377Y-118323373D01*
X120931720Y-118200000D01*
X125794353Y-118200000D01*
X125814834Y-118342456D01*
X125857005Y-118434795D01*
X125874623Y-118473373D01*
X125968872Y-118582143D01*
X126089947Y-118659953D01*
X126089950Y-118659954D01*
X126089949Y-118659954D01*
X126179259Y-118686177D01*
X126224633Y-118699500D01*
X126228036Y-118700499D01*
X126228038Y-118700500D01*
X126228039Y-118700500D01*
X126371962Y-118700500D01*
X126371962Y-118700499D01*
X126510053Y-118659953D01*
X126631128Y-118582143D01*
X126725377Y-118473373D01*
X126785165Y-118342457D01*
X126805647Y-118200000D01*
X126785165Y-118057543D01*
X126725377Y-117926627D01*
X126631128Y-117817857D01*
X126510053Y-117740047D01*
X126510051Y-117740046D01*
X126510049Y-117740045D01*
X126510050Y-117740045D01*
X126371963Y-117699500D01*
X126371961Y-117699500D01*
X126228039Y-117699500D01*
X126228036Y-117699500D01*
X126089949Y-117740045D01*
X125968873Y-117817856D01*
X125874623Y-117926626D01*
X125874622Y-117926628D01*
X125814834Y-118057543D01*
X125794353Y-118200000D01*
X120931720Y-118200000D01*
X120935165Y-118192457D01*
X120955647Y-118050000D01*
X120935165Y-117907543D01*
X120875377Y-117776627D01*
X120781128Y-117667857D01*
X120660053Y-117590047D01*
X120660051Y-117590046D01*
X120660049Y-117590045D01*
X120660050Y-117590045D01*
X120521963Y-117549500D01*
X120521961Y-117549500D01*
X120378039Y-117549500D01*
X120378036Y-117549500D01*
X120239949Y-117590045D01*
X120118873Y-117667856D01*
X120024623Y-117776626D01*
X120024622Y-117776628D01*
X119964834Y-117907543D01*
X119944353Y-118050000D01*
X119964834Y-118192456D01*
X120024622Y-118323371D01*
X120024623Y-118323373D01*
X120118872Y-118432143D01*
X120239947Y-118509953D01*
X120259490Y-118515691D01*
X120318269Y-118553463D01*
X120347296Y-118617018D01*
X120337355Y-118686177D01*
X120291602Y-118738982D01*
X120291599Y-118738984D01*
X120168874Y-118817855D01*
X120074623Y-118926626D01*
X120074622Y-118926628D01*
X120014834Y-119057543D01*
X119994353Y-119200000D01*
X120014834Y-119342456D01*
X120060504Y-119442457D01*
X120074623Y-119473373D01*
X120168872Y-119582143D01*
X120289947Y-119659953D01*
X120311702Y-119666340D01*
X120370480Y-119704113D01*
X120399506Y-119767668D01*
X120389565Y-119836826D01*
X120343811Y-119889632D01*
X120311704Y-119904295D01*
X120189949Y-119940045D01*
X120068873Y-120017856D01*
X119974623Y-120126626D01*
X119974622Y-120126628D01*
X119914834Y-120257543D01*
X119894353Y-120400000D01*
X119500500Y-120400000D01*
X119500500Y-116300000D01*
X121194353Y-116300000D01*
X121214834Y-116442456D01*
X121264177Y-116550499D01*
X121274623Y-116573373D01*
X121368872Y-116682143D01*
X121489947Y-116759953D01*
X121489950Y-116759954D01*
X121489949Y-116759954D01*
X121628036Y-116800499D01*
X121628038Y-116800500D01*
X121628039Y-116800500D01*
X121771962Y-116800500D01*
X121771962Y-116800499D01*
X121910053Y-116759953D01*
X122031128Y-116682143D01*
X122036944Y-116675430D01*
X122095719Y-116637655D01*
X122165588Y-116637653D01*
X122224368Y-116675425D01*
X122243452Y-116705119D01*
X122256564Y-116733829D01*
X122274623Y-116773373D01*
X122368872Y-116882143D01*
X122489947Y-116959953D01*
X122489950Y-116959954D01*
X122489949Y-116959954D01*
X122555892Y-116979316D01*
X122620788Y-116998371D01*
X122628036Y-117000499D01*
X122628038Y-117000500D01*
X122628039Y-117000500D01*
X122771962Y-117000500D01*
X122771962Y-117000499D01*
X122897227Y-116963719D01*
X122910050Y-116959954D01*
X122910050Y-116959953D01*
X122910053Y-116959953D01*
X123031128Y-116882143D01*
X123125377Y-116773373D01*
X123147468Y-116725000D01*
X129219353Y-116725000D01*
X129239834Y-116867456D01*
X129299622Y-116998371D01*
X129299623Y-116998373D01*
X129393872Y-117107143D01*
X129514947Y-117184953D01*
X129514950Y-117184954D01*
X129514949Y-117184954D01*
X129615307Y-117214421D01*
X129651336Y-117225000D01*
X129653036Y-117225499D01*
X129653038Y-117225500D01*
X129653039Y-117225500D01*
X129796962Y-117225500D01*
X129796962Y-117225499D01*
X129935053Y-117184953D01*
X130056128Y-117107143D01*
X130150377Y-116998373D01*
X130210165Y-116867457D01*
X130230647Y-116725000D01*
X130210165Y-116582543D01*
X130150377Y-116451627D01*
X130105639Y-116399996D01*
X131185579Y-116399996D01*
X131185579Y-116400003D01*
X131205996Y-116581217D01*
X131205997Y-116581223D01*
X131266231Y-116753363D01*
X131317498Y-116834953D01*
X131363260Y-116907783D01*
X131492217Y-117036740D01*
X131646636Y-117133768D01*
X131818774Y-117194002D01*
X131818780Y-117194002D01*
X131818782Y-117194003D01*
X131999996Y-117214421D01*
X132000000Y-117214421D01*
X132000004Y-117214421D01*
X132181217Y-117194003D01*
X132181216Y-117194003D01*
X132181226Y-117194002D01*
X132353364Y-117133768D01*
X132507783Y-117036740D01*
X132547318Y-116997204D01*
X132608640Y-116963719D01*
X132678331Y-116968703D01*
X132722680Y-116997204D01*
X132762216Y-117036740D01*
X132916635Y-117133768D01*
X133088773Y-117194002D01*
X133088779Y-117194002D01*
X133088781Y-117194003D01*
X133269995Y-117214421D01*
X133269999Y-117214421D01*
X133270003Y-117214421D01*
X133451216Y-117194003D01*
X133451215Y-117194003D01*
X133451225Y-117194002D01*
X133623363Y-117133768D01*
X133777782Y-117036740D01*
X133817318Y-116997204D01*
X133878641Y-116963719D01*
X133948333Y-116968703D01*
X133992680Y-116997204D01*
X134032216Y-117036740D01*
X134186635Y-117133768D01*
X134358773Y-117194002D01*
X134358779Y-117194002D01*
X134358781Y-117194003D01*
X134539995Y-117214421D01*
X134539999Y-117214421D01*
X134540003Y-117214421D01*
X134721216Y-117194003D01*
X134721215Y-117194003D01*
X134721225Y-117194002D01*
X134893363Y-117133768D01*
X135047782Y-117036740D01*
X135087317Y-116997204D01*
X135148639Y-116963719D01*
X135218330Y-116968703D01*
X135262679Y-116997204D01*
X135302215Y-117036740D01*
X135456634Y-117133768D01*
X135628772Y-117194002D01*
X135628778Y-117194002D01*
X135628780Y-117194003D01*
X135809994Y-117214421D01*
X135809998Y-117214421D01*
X135810002Y-117214421D01*
X135991215Y-117194003D01*
X135991214Y-117194003D01*
X135991224Y-117194002D01*
X136163362Y-117133768D01*
X136317781Y-117036740D01*
X136357317Y-116997203D01*
X136418639Y-116963718D01*
X136488330Y-116968702D01*
X136532679Y-116997203D01*
X136572216Y-117036740D01*
X136726635Y-117133768D01*
X136898773Y-117194002D01*
X136898779Y-117194002D01*
X136898781Y-117194003D01*
X137079995Y-117214421D01*
X137079999Y-117214421D01*
X137080003Y-117214421D01*
X137261216Y-117194003D01*
X137261215Y-117194003D01*
X137261225Y-117194002D01*
X137433363Y-117133768D01*
X137587782Y-117036740D01*
X137674522Y-116950000D01*
X139044353Y-116950000D01*
X139064834Y-117092456D01*
X139111210Y-117194003D01*
X139124623Y-117223373D01*
X139218872Y-117332143D01*
X139339947Y-117409953D01*
X139339950Y-117409954D01*
X139339949Y-117409954D01*
X139478036Y-117450499D01*
X139478038Y-117450500D01*
X139478039Y-117450500D01*
X139621962Y-117450500D01*
X139621962Y-117450499D01*
X139760053Y-117409953D01*
X139760054Y-117409951D01*
X139768118Y-117406270D01*
X139769358Y-117408987D01*
X139822011Y-117393512D01*
X139889056Y-117413179D01*
X139934825Y-117465971D01*
X139949623Y-117498373D01*
X140043872Y-117607143D01*
X140164947Y-117684953D01*
X140164950Y-117684954D01*
X140164949Y-117684954D01*
X140303036Y-117725499D01*
X140303038Y-117725500D01*
X140303039Y-117725500D01*
X140446962Y-117725500D01*
X140446962Y-117725499D01*
X140585053Y-117684953D01*
X140706128Y-117607143D01*
X140800377Y-117498373D01*
X140860165Y-117367457D01*
X140880647Y-117225000D01*
X140864603Y-117113410D01*
X140874547Y-117044251D01*
X140920302Y-116991447D01*
X140987341Y-116971763D01*
X141022276Y-116976786D01*
X141103038Y-117000500D01*
X141103039Y-117000500D01*
X141246962Y-117000500D01*
X141246962Y-117000499D01*
X141372227Y-116963719D01*
X141385050Y-116959954D01*
X141385050Y-116959953D01*
X141385053Y-116959953D01*
X141506128Y-116882143D01*
X141600377Y-116773373D01*
X141660165Y-116642457D01*
X141680647Y-116500000D01*
X141662675Y-116375000D01*
X147194353Y-116375000D01*
X147214834Y-116517456D01*
X147244559Y-116582543D01*
X147274623Y-116648373D01*
X147368872Y-116757143D01*
X147373246Y-116759954D01*
X147389943Y-116770685D01*
X147435698Y-116823489D01*
X147445641Y-116892648D01*
X147416615Y-116956203D01*
X147389943Y-116979315D01*
X147368874Y-116992855D01*
X147368872Y-116992856D01*
X147368872Y-116992857D01*
X147346672Y-117018476D01*
X147274623Y-117101626D01*
X147274622Y-117101628D01*
X147214834Y-117232543D01*
X147194353Y-117375000D01*
X147214834Y-117517456D01*
X147274622Y-117648371D01*
X147274623Y-117648373D01*
X147368872Y-117757143D01*
X147489947Y-117834953D01*
X147489950Y-117834954D01*
X147489949Y-117834954D01*
X147628036Y-117875499D01*
X147628038Y-117875500D01*
X147628039Y-117875500D01*
X147771962Y-117875500D01*
X147771962Y-117875499D01*
X147910053Y-117834953D01*
X148031128Y-117757143D01*
X148125377Y-117648373D01*
X148185165Y-117517457D01*
X148205647Y-117375000D01*
X148185165Y-117232543D01*
X148125377Y-117101627D01*
X148031128Y-116992857D01*
X148031125Y-116992855D01*
X148031125Y-116992854D01*
X148010058Y-116979316D01*
X147964302Y-116926513D01*
X147954358Y-116857354D01*
X147983382Y-116793798D01*
X148010058Y-116770684D01*
X148031125Y-116757145D01*
X148031125Y-116757144D01*
X148031128Y-116757143D01*
X148125377Y-116648373D01*
X148185165Y-116517457D01*
X148205647Y-116375000D01*
X148185165Y-116232543D01*
X148181492Y-116224500D01*
X148124733Y-116100216D01*
X148117513Y-116050000D01*
X149319353Y-116050000D01*
X149339834Y-116192456D01*
X149366114Y-116250000D01*
X149399623Y-116323373D01*
X149493872Y-116432143D01*
X149614947Y-116509953D01*
X149614950Y-116509954D01*
X149614949Y-116509954D01*
X149753036Y-116550499D01*
X149753038Y-116550500D01*
X149753039Y-116550500D01*
X149896962Y-116550500D01*
X149896962Y-116550499D01*
X150035053Y-116509953D01*
X150156128Y-116432143D01*
X150250377Y-116323373D01*
X150310165Y-116192457D01*
X150330647Y-116050000D01*
X150310165Y-115907543D01*
X150250377Y-115776627D01*
X150156128Y-115667857D01*
X150035053Y-115590047D01*
X150035051Y-115590046D01*
X150035049Y-115590045D01*
X150035050Y-115590045D01*
X149896963Y-115549500D01*
X149896961Y-115549500D01*
X149753039Y-115549500D01*
X149753036Y-115549500D01*
X149614949Y-115590045D01*
X149493873Y-115667856D01*
X149399623Y-115776626D01*
X149399622Y-115776628D01*
X149339834Y-115907543D01*
X149319353Y-116050000D01*
X148117513Y-116050000D01*
X148114789Y-116031057D01*
X148143812Y-115967504D01*
X148225377Y-115873373D01*
X148285165Y-115742457D01*
X148305647Y-115600000D01*
X148285165Y-115457543D01*
X148225377Y-115326627D01*
X148131128Y-115217857D01*
X148010053Y-115140047D01*
X148010051Y-115140046D01*
X148010049Y-115140045D01*
X148010050Y-115140045D01*
X147871963Y-115099500D01*
X147871961Y-115099500D01*
X147728039Y-115099500D01*
X147728036Y-115099500D01*
X147589949Y-115140045D01*
X147468873Y-115217856D01*
X147374623Y-115326626D01*
X147374622Y-115326628D01*
X147314834Y-115457543D01*
X147294353Y-115600000D01*
X147314834Y-115742456D01*
X147375266Y-115874782D01*
X147385210Y-115943941D01*
X147356186Y-116007496D01*
X147274623Y-116101626D01*
X147274622Y-116101628D01*
X147214834Y-116232543D01*
X147194353Y-116375000D01*
X141662675Y-116375000D01*
X141660165Y-116357543D01*
X141600377Y-116226627D01*
X141506128Y-116117857D01*
X141385053Y-116040047D01*
X141385051Y-116040046D01*
X141385049Y-116040045D01*
X141385050Y-116040045D01*
X141246963Y-115999500D01*
X141246961Y-115999500D01*
X141103039Y-115999500D01*
X141103036Y-115999500D01*
X140964949Y-116040045D01*
X140964948Y-116040045D01*
X140961164Y-116042478D01*
X140894124Y-116062160D01*
X140827085Y-116042473D01*
X140781333Y-115989669D01*
X140779905Y-115986543D01*
X140775377Y-115976627D01*
X140748986Y-115946170D01*
X140719961Y-115882616D01*
X140729903Y-115813461D01*
X140785165Y-115692457D01*
X140805647Y-115550000D01*
X140805647Y-115549998D01*
X140805647Y-115548115D01*
X140806177Y-115546307D01*
X140806909Y-115541221D01*
X140807640Y-115541326D01*
X140825332Y-115481076D01*
X140878136Y-115435321D01*
X140894700Y-115429141D01*
X140960053Y-115409953D01*
X141081128Y-115332143D01*
X141175377Y-115223373D01*
X141235165Y-115092457D01*
X141241308Y-115049731D01*
X141270333Y-114986175D01*
X141329107Y-114948401D01*
X141405765Y-114925893D01*
X141460333Y-114909871D01*
X141530203Y-114909871D01*
X141588978Y-114947644D01*
X141618872Y-114982143D01*
X141739947Y-115059953D01*
X141739950Y-115059954D01*
X141739949Y-115059954D01*
X141788032Y-115074072D01*
X141874633Y-115099500D01*
X141878036Y-115100499D01*
X141878038Y-115100500D01*
X141878039Y-115100500D01*
X142021962Y-115100500D01*
X142021962Y-115100499D01*
X142160053Y-115059953D01*
X142281128Y-114982143D01*
X142375377Y-114873373D01*
X142435165Y-114742457D01*
X142455647Y-114600000D01*
X142435165Y-114457543D01*
X142375377Y-114326627D01*
X142281128Y-114217857D01*
X142160053Y-114140047D01*
X142160051Y-114140046D01*
X142160049Y-114140045D01*
X142160050Y-114140045D01*
X142021963Y-114099500D01*
X142021961Y-114099500D01*
X141878039Y-114099500D01*
X141878035Y-114099500D01*
X141739666Y-114140128D01*
X141669796Y-114140128D01*
X141611020Y-114102354D01*
X141581128Y-114067857D01*
X141460053Y-113990047D01*
X141460051Y-113990046D01*
X141460049Y-113990045D01*
X141460050Y-113990045D01*
X141321963Y-113949500D01*
X141321961Y-113949500D01*
X141178039Y-113949500D01*
X141178036Y-113949500D01*
X141039949Y-113990045D01*
X140918873Y-114067856D01*
X140824623Y-114176626D01*
X140824622Y-114176628D01*
X140764835Y-114307543D01*
X140758691Y-114350271D01*
X140729665Y-114413826D01*
X140670888Y-114451599D01*
X140539948Y-114490045D01*
X140418873Y-114567856D01*
X140324623Y-114676626D01*
X140324622Y-114676628D01*
X140264834Y-114807543D01*
X140244353Y-114950000D01*
X140244353Y-114951884D01*
X140243822Y-114953691D01*
X140243091Y-114958778D01*
X140242359Y-114958672D01*
X140224668Y-115018923D01*
X140171864Y-115064678D01*
X140155287Y-115070861D01*
X140089949Y-115090045D01*
X139968873Y-115167856D01*
X139874623Y-115276626D01*
X139874622Y-115276628D01*
X139814834Y-115407543D01*
X139794353Y-115550000D01*
X139814834Y-115692456D01*
X139874622Y-115823371D01*
X139874625Y-115823377D01*
X139901012Y-115853828D01*
X139930038Y-115917383D01*
X139920095Y-115986542D01*
X139920094Y-115986543D01*
X139864834Y-116107543D01*
X139844353Y-116250000D01*
X139856644Y-116335487D01*
X139846700Y-116404646D01*
X139800945Y-116457450D01*
X139733906Y-116477134D01*
X139698972Y-116472111D01*
X139621964Y-116449500D01*
X139621961Y-116449500D01*
X139478039Y-116449500D01*
X139478036Y-116449500D01*
X139339949Y-116490045D01*
X139218873Y-116567856D01*
X139124623Y-116676626D01*
X139124622Y-116676628D01*
X139064834Y-116807543D01*
X139044353Y-116950000D01*
X137674522Y-116950000D01*
X137716739Y-116907783D01*
X137813767Y-116753364D01*
X137874001Y-116581226D01*
X137882031Y-116509954D01*
X137894420Y-116400003D01*
X137894420Y-116399996D01*
X137874002Y-116218782D01*
X137874001Y-116218776D01*
X137874001Y-116218774D01*
X137813767Y-116046636D01*
X137716739Y-115892217D01*
X137587782Y-115763260D01*
X137554673Y-115742456D01*
X137433362Y-115666231D01*
X137261222Y-115605997D01*
X137261216Y-115605996D01*
X137080003Y-115585579D01*
X137079995Y-115585579D01*
X136898781Y-115605996D01*
X136898775Y-115605997D01*
X136726635Y-115666231D01*
X136572212Y-115763262D01*
X136572211Y-115763263D01*
X136532676Y-115802797D01*
X136471352Y-115836281D01*
X136401661Y-115831295D01*
X136357316Y-115802795D01*
X136317781Y-115763260D01*
X136163361Y-115666231D01*
X135991221Y-115605997D01*
X135991215Y-115605996D01*
X135810002Y-115585579D01*
X135809994Y-115585579D01*
X135628780Y-115605996D01*
X135628774Y-115605997D01*
X135456634Y-115666231D01*
X135302211Y-115763262D01*
X135302210Y-115763263D01*
X135262676Y-115802796D01*
X135201352Y-115836280D01*
X135131661Y-115831294D01*
X135087316Y-115802794D01*
X135047782Y-115763260D01*
X134893362Y-115666231D01*
X134721222Y-115605997D01*
X134721216Y-115605996D01*
X134540003Y-115585579D01*
X134539995Y-115585579D01*
X134358781Y-115605996D01*
X134358775Y-115605997D01*
X134186635Y-115666231D01*
X134032215Y-115763260D01*
X133992680Y-115802796D01*
X133931357Y-115836281D01*
X133861665Y-115831297D01*
X133817318Y-115802796D01*
X133777782Y-115763260D01*
X133623362Y-115666231D01*
X133451222Y-115605997D01*
X133451216Y-115605996D01*
X133270003Y-115585579D01*
X133269995Y-115585579D01*
X133088781Y-115605996D01*
X133088775Y-115605997D01*
X132916635Y-115666231D01*
X132762212Y-115763262D01*
X132762211Y-115763263D01*
X132722677Y-115802796D01*
X132661353Y-115836280D01*
X132591662Y-115831294D01*
X132547317Y-115802794D01*
X132507783Y-115763260D01*
X132353363Y-115666231D01*
X132181223Y-115605997D01*
X132181217Y-115605996D01*
X132000004Y-115585579D01*
X131999996Y-115585579D01*
X131818782Y-115605996D01*
X131818776Y-115605997D01*
X131646636Y-115666231D01*
X131492216Y-115763260D01*
X131363260Y-115892216D01*
X131266231Y-116046636D01*
X131205997Y-116218776D01*
X131205996Y-116218782D01*
X131185579Y-116399996D01*
X130105639Y-116399996D01*
X130056128Y-116342857D01*
X129935053Y-116265047D01*
X129935051Y-116265046D01*
X129935049Y-116265045D01*
X129935050Y-116265045D01*
X129796963Y-116224500D01*
X129796961Y-116224500D01*
X129653039Y-116224500D01*
X129653036Y-116224500D01*
X129514949Y-116265045D01*
X129393873Y-116342856D01*
X129299623Y-116451626D01*
X129299622Y-116451628D01*
X129239834Y-116582543D01*
X129219353Y-116725000D01*
X123147468Y-116725000D01*
X123185165Y-116642457D01*
X123205647Y-116500000D01*
X123185165Y-116357543D01*
X123125377Y-116226627D01*
X123031128Y-116117857D01*
X122910053Y-116040047D01*
X122910051Y-116040046D01*
X122910049Y-116040045D01*
X122910050Y-116040045D01*
X122771963Y-115999500D01*
X122771961Y-115999500D01*
X122628039Y-115999500D01*
X122628036Y-115999500D01*
X122489949Y-116040045D01*
X122368873Y-116117856D01*
X122363051Y-116124575D01*
X122304271Y-116162347D01*
X122234401Y-116162344D01*
X122175625Y-116124567D01*
X122156547Y-116094879D01*
X122125379Y-116026630D01*
X122125376Y-116026626D01*
X122108800Y-116007496D01*
X122031128Y-115917857D01*
X121910053Y-115840047D01*
X121910051Y-115840046D01*
X121910049Y-115840045D01*
X121910050Y-115840045D01*
X121771963Y-115799500D01*
X121771961Y-115799500D01*
X121628039Y-115799500D01*
X121628036Y-115799500D01*
X121489949Y-115840045D01*
X121368873Y-115917856D01*
X121274623Y-116026626D01*
X121274622Y-116026628D01*
X121214834Y-116157543D01*
X121194353Y-116300000D01*
X119500500Y-116300000D01*
X119500500Y-113800000D01*
X122094353Y-113800000D01*
X122114834Y-113942456D01*
X122174622Y-114073371D01*
X122179418Y-114080834D01*
X122176895Y-114082455D01*
X122199683Y-114132355D01*
X122189739Y-114201513D01*
X122178693Y-114218700D01*
X122179418Y-114219166D01*
X122174622Y-114226628D01*
X122114834Y-114357543D01*
X122094353Y-114500000D01*
X122114834Y-114642456D01*
X122160504Y-114742457D01*
X122174623Y-114773373D01*
X122268872Y-114882143D01*
X122389947Y-114959953D01*
X122389950Y-114959954D01*
X122389949Y-114959954D01*
X122528036Y-115000499D01*
X122528038Y-115000500D01*
X122528039Y-115000500D01*
X122671962Y-115000500D01*
X122671962Y-115000499D01*
X122810053Y-114959953D01*
X122931128Y-114882143D01*
X123025377Y-114773373D01*
X123085165Y-114642457D01*
X123091269Y-114600000D01*
X131994353Y-114600000D01*
X132014834Y-114742456D01*
X132060504Y-114842457D01*
X132074623Y-114873373D01*
X132168872Y-114982143D01*
X132289947Y-115059953D01*
X132289950Y-115059954D01*
X132289949Y-115059954D01*
X132338032Y-115074072D01*
X132424633Y-115099500D01*
X132428036Y-115100499D01*
X132428038Y-115100500D01*
X132428039Y-115100500D01*
X132571962Y-115100500D01*
X132571962Y-115100499D01*
X132710050Y-115059954D01*
X132710051Y-115059954D01*
X132710053Y-115059953D01*
X132819587Y-114989559D01*
X132886626Y-114969875D01*
X132953665Y-114989559D01*
X132980335Y-115012668D01*
X133012450Y-115049731D01*
X133018873Y-115057144D01*
X133045214Y-115074072D01*
X133139947Y-115134953D01*
X133139950Y-115134954D01*
X133139949Y-115134954D01*
X133278036Y-115175499D01*
X133278038Y-115175500D01*
X133278039Y-115175500D01*
X133421962Y-115175500D01*
X133421962Y-115175499D01*
X133560053Y-115134953D01*
X133681128Y-115057143D01*
X133775377Y-114948373D01*
X133835165Y-114817457D01*
X133855647Y-114675000D01*
X133835165Y-114532543D01*
X133775377Y-114401627D01*
X133681128Y-114292857D01*
X133560053Y-114215047D01*
X133560051Y-114215046D01*
X133560049Y-114215045D01*
X133560050Y-114215045D01*
X133421963Y-114174500D01*
X133421961Y-114174500D01*
X133278039Y-114174500D01*
X133278036Y-114174500D01*
X133139949Y-114215045D01*
X133030412Y-114285440D01*
X132963372Y-114305124D01*
X132896333Y-114285439D01*
X132869664Y-114262330D01*
X132831128Y-114217857D01*
X132831127Y-114217856D01*
X132831126Y-114217855D01*
X132763663Y-114174500D01*
X132710053Y-114140047D01*
X132710051Y-114140046D01*
X132710049Y-114140045D01*
X132710050Y-114140045D01*
X132571963Y-114099500D01*
X132571961Y-114099500D01*
X132428039Y-114099500D01*
X132428036Y-114099500D01*
X132289949Y-114140045D01*
X132168873Y-114217856D01*
X132074623Y-114326626D01*
X132074622Y-114326628D01*
X132014834Y-114457543D01*
X131994353Y-114600000D01*
X123091269Y-114600000D01*
X123105647Y-114500000D01*
X123085165Y-114357543D01*
X123025377Y-114226627D01*
X123025370Y-114226619D01*
X123020582Y-114219167D01*
X123023108Y-114217543D01*
X123000320Y-114167674D01*
X123010248Y-114098513D01*
X123021310Y-114081300D01*
X123020582Y-114080833D01*
X123025368Y-114073382D01*
X123025377Y-114073373D01*
X123085165Y-113942457D01*
X123105647Y-113800000D01*
X123085165Y-113657543D01*
X123025377Y-113526627D01*
X122931128Y-113417857D01*
X122810053Y-113340047D01*
X122810051Y-113340046D01*
X122810049Y-113340045D01*
X122810050Y-113340045D01*
X122671963Y-113299500D01*
X122671961Y-113299500D01*
X122528039Y-113299500D01*
X122528036Y-113299500D01*
X122389949Y-113340045D01*
X122268873Y-113417856D01*
X122174623Y-113526626D01*
X122174622Y-113526628D01*
X122114834Y-113657543D01*
X122094353Y-113800000D01*
X119500500Y-113800000D01*
X119500500Y-112624500D01*
X119520185Y-112557461D01*
X119572989Y-112511706D01*
X119624500Y-112500500D01*
X126914275Y-112500500D01*
X126981314Y-112520185D01*
G37*
%TD.AperFunction*%
%TD*%
M02*
