%TF.GenerationSoftware,KiCad,Pcbnew,8.0.7*%
%TF.CreationDate,2025-03-09T23:38:14+01:00*%
%TF.ProjectId,HSSM-LVPCB,4853534d-2d4c-4565-9043-422e6b696361,rev?*%
%TF.SameCoordinates,Original*%
%TF.FileFunction,Copper,L1,Top*%
%TF.FilePolarity,Positive*%
%FSLAX46Y46*%
G04 Gerber Fmt 4.6, Leading zero omitted, Abs format (unit mm)*
G04 Created by KiCad (PCBNEW 8.0.7) date 2025-03-09 23:38:14*
%MOMM*%
%LPD*%
G01*
G04 APERTURE LIST*
G04 Aperture macros list*
%AMRoundRect*
0 Rectangle with rounded corners*
0 $1 Rounding radius*
0 $2 $3 $4 $5 $6 $7 $8 $9 X,Y pos of 4 corners*
0 Add a 4 corners polygon primitive as box body*
4,1,4,$2,$3,$4,$5,$6,$7,$8,$9,$2,$3,0*
0 Add four circle primitives for the rounded corners*
1,1,$1+$1,$2,$3*
1,1,$1+$1,$4,$5*
1,1,$1+$1,$6,$7*
1,1,$1+$1,$8,$9*
0 Add four rect primitives between the rounded corners*
20,1,$1+$1,$2,$3,$4,$5,0*
20,1,$1+$1,$4,$5,$6,$7,0*
20,1,$1+$1,$6,$7,$8,$9,0*
20,1,$1+$1,$8,$9,$2,$3,0*%
G04 Aperture macros list end*
%TA.AperFunction,SMDPad,CuDef*%
%ADD10RoundRect,0.200000X-0.275000X0.200000X-0.275000X-0.200000X0.275000X-0.200000X0.275000X0.200000X0*%
%TD*%
%TA.AperFunction,SMDPad,CuDef*%
%ADD11RoundRect,0.135000X-0.185000X0.135000X-0.185000X-0.135000X0.185000X-0.135000X0.185000X0.135000X0*%
%TD*%
%TA.AperFunction,SMDPad,CuDef*%
%ADD12RoundRect,0.135000X-0.135000X-0.185000X0.135000X-0.185000X0.135000X0.185000X-0.135000X0.185000X0*%
%TD*%
%TA.AperFunction,SMDPad,CuDef*%
%ADD13R,1.050000X1.000000*%
%TD*%
%TA.AperFunction,SMDPad,CuDef*%
%ADD14R,2.200000X1.050000*%
%TD*%
%TA.AperFunction,SMDPad,CuDef*%
%ADD15RoundRect,0.140000X0.170000X-0.140000X0.170000X0.140000X-0.170000X0.140000X-0.170000X-0.140000X0*%
%TD*%
%TA.AperFunction,SMDPad,CuDef*%
%ADD16RoundRect,0.140000X-0.170000X0.140000X-0.170000X-0.140000X0.170000X-0.140000X0.170000X0.140000X0*%
%TD*%
%TA.AperFunction,SMDPad,CuDef*%
%ADD17RoundRect,0.147500X-0.147500X-0.172500X0.147500X-0.172500X0.147500X0.172500X-0.147500X0.172500X0*%
%TD*%
%TA.AperFunction,SMDPad,CuDef*%
%ADD18RoundRect,0.100000X0.100000X-0.130000X0.100000X0.130000X-0.100000X0.130000X-0.100000X-0.130000X0*%
%TD*%
%TA.AperFunction,SMDPad,CuDef*%
%ADD19RoundRect,0.200000X-0.200000X-0.275000X0.200000X-0.275000X0.200000X0.275000X-0.200000X0.275000X0*%
%TD*%
%TA.AperFunction,SMDPad,CuDef*%
%ADD20RoundRect,0.100000X0.162635X-0.021213X-0.021213X0.162635X-0.162635X0.021213X0.021213X-0.162635X0*%
%TD*%
%TA.AperFunction,SMDPad,CuDef*%
%ADD21R,0.600000X0.600000*%
%TD*%
%TA.AperFunction,SMDPad,CuDef*%
%ADD22R,0.400000X0.500000*%
%TD*%
%TA.AperFunction,SMDPad,CuDef*%
%ADD23RoundRect,0.135000X0.226274X0.035355X0.035355X0.226274X-0.226274X-0.035355X-0.035355X-0.226274X0*%
%TD*%
%TA.AperFunction,SMDPad,CuDef*%
%ADD24RoundRect,0.100000X-0.100000X0.130000X-0.100000X-0.130000X0.100000X-0.130000X0.100000X0.130000X0*%
%TD*%
%TA.AperFunction,SMDPad,CuDef*%
%ADD25RoundRect,0.135000X0.135000X0.185000X-0.135000X0.185000X-0.135000X-0.185000X0.135000X-0.185000X0*%
%TD*%
%TA.AperFunction,SMDPad,CuDef*%
%ADD26RoundRect,0.135000X0.185000X-0.135000X0.185000X0.135000X-0.185000X0.135000X-0.185000X-0.135000X0*%
%TD*%
%TA.AperFunction,SMDPad,CuDef*%
%ADD27RoundRect,0.140000X-0.140000X-0.170000X0.140000X-0.170000X0.140000X0.170000X-0.140000X0.170000X0*%
%TD*%
%TA.AperFunction,SMDPad,CuDef*%
%ADD28RoundRect,0.062500X0.350000X0.062500X-0.350000X0.062500X-0.350000X-0.062500X0.350000X-0.062500X0*%
%TD*%
%TA.AperFunction,SMDPad,CuDef*%
%ADD29RoundRect,0.062500X0.062500X0.350000X-0.062500X0.350000X-0.062500X-0.350000X0.062500X-0.350000X0*%
%TD*%
%TA.AperFunction,HeatsinkPad*%
%ADD30R,3.600000X3.600000*%
%TD*%
%TA.AperFunction,SMDPad,CuDef*%
%ADD31RoundRect,0.150000X0.825000X0.150000X-0.825000X0.150000X-0.825000X-0.150000X0.825000X-0.150000X0*%
%TD*%
%TA.AperFunction,SMDPad,CuDef*%
%ADD32RoundRect,0.135000X-0.035355X0.226274X-0.226274X0.035355X0.035355X-0.226274X0.226274X-0.035355X0*%
%TD*%
%TA.AperFunction,SMDPad,CuDef*%
%ADD33RoundRect,0.200000X0.200000X0.275000X-0.200000X0.275000X-0.200000X-0.275000X0.200000X-0.275000X0*%
%TD*%
%TA.AperFunction,SMDPad,CuDef*%
%ADD34R,1.200000X1.000000*%
%TD*%
%TA.AperFunction,SMDPad,CuDef*%
%ADD35R,0.900000X0.800000*%
%TD*%
%TA.AperFunction,SMDPad,CuDef*%
%ADD36RoundRect,0.140000X0.219203X0.021213X0.021213X0.219203X-0.219203X-0.021213X-0.021213X-0.219203X0*%
%TD*%
%TA.AperFunction,SMDPad,CuDef*%
%ADD37RoundRect,0.140000X0.140000X0.170000X-0.140000X0.170000X-0.140000X-0.170000X0.140000X-0.170000X0*%
%TD*%
%TA.AperFunction,SMDPad,CuDef*%
%ADD38RoundRect,0.140000X-0.219203X-0.021213X-0.021213X-0.219203X0.219203X0.021213X0.021213X0.219203X0*%
%TD*%
%TA.AperFunction,SMDPad,CuDef*%
%ADD39R,0.600000X0.900000*%
%TD*%
%TA.AperFunction,SMDPad,CuDef*%
%ADD40R,0.600000X0.550000*%
%TD*%
%TA.AperFunction,ComponentPad*%
%ADD41C,1.117600*%
%TD*%
%TA.AperFunction,ViaPad*%
%ADD42C,0.500000*%
%TD*%
%TA.AperFunction,Conductor*%
%ADD43C,0.150000*%
%TD*%
%TA.AperFunction,Conductor*%
%ADD44C,0.400000*%
%TD*%
%TA.AperFunction,Conductor*%
%ADD45C,0.100000*%
%TD*%
%TA.AperFunction,Conductor*%
%ADD46C,0.370000*%
%TD*%
%TA.AperFunction,Conductor*%
%ADD47C,0.200000*%
%TD*%
%TA.AperFunction,Conductor*%
%ADD48C,0.600000*%
%TD*%
%TA.AperFunction,Conductor*%
%ADD49C,0.350000*%
%TD*%
%TA.AperFunction,Conductor*%
%ADD50C,0.250000*%
%TD*%
%TA.AperFunction,Conductor*%
%ADD51C,0.300000*%
%TD*%
G04 APERTURE END LIST*
D10*
%TO.P,C5,1*%
%TO.N,GND*%
X151025000Y-115175000D03*
%TO.P,C5,2*%
%TO.N,+3V3*%
X151025000Y-116825000D03*
%TD*%
D11*
%TO.P,R16,1*%
%TO.N,/S2_sym*%
X153225000Y-114490001D03*
%TO.P,R16,2*%
%TO.N,+3V3*%
X153225000Y-115509999D03*
%TD*%
D12*
%TO.P,R4,1*%
%TO.N,Net-(U1-SPICLK)*%
X120390001Y-118800000D03*
%TO.P,R4,2*%
%TO.N,/SPICLK*%
X121409999Y-118800000D03*
%TD*%
D13*
%TO.P,J1,1*%
%TO.N,Net-(C2-Pad2)*%
X150925000Y-119800000D03*
D14*
%TO.P,J1,S1*%
%TO.N,GND*%
X152450000Y-121275000D03*
D13*
%TO.P,J1,S2*%
X153975000Y-119800000D03*
D14*
%TO.P,J1,S3*%
X152450000Y-118325000D03*
%TD*%
D15*
%TO.P,C21,1*%
%TO.N,GND*%
X151075000Y-114005000D03*
%TO.P,C21,2*%
%TO.N,/GPIO8*%
X151075000Y-113045000D03*
%TD*%
D11*
%TO.P,R2,1*%
%TO.N,Net-(U1-SPIWP)*%
X129825000Y-117440001D03*
%TO.P,R2,2*%
%TO.N,/SPIWP*%
X129825000Y-118459999D03*
%TD*%
D16*
%TO.P,C4,1*%
%TO.N,GND*%
X149800000Y-114670000D03*
%TO.P,C4,2*%
%TO.N,+3V3*%
X149800000Y-115630000D03*
%TD*%
D15*
%TO.P,C11,1*%
%TO.N,GND*%
X144900000Y-121280000D03*
%TO.P,C11,2*%
%TO.N,+3V3*%
X144900000Y-120320000D03*
%TD*%
D17*
%TO.P,L2,1*%
%TO.N,Net-(C3-Pad2)*%
X148820000Y-116550000D03*
%TO.P,L2,2*%
%TO.N,+3V3*%
X149780000Y-116550000D03*
%TD*%
D18*
%TO.P,C1,1*%
%TO.N,GND*%
X147800000Y-119120000D03*
%TO.P,C1,2*%
%TO.N,Net-(U1-ANT)*%
X147800000Y-118480000D03*
%TD*%
D19*
%TO.P,C9,1*%
%TO.N,GND*%
X121375000Y-122899999D03*
%TO.P,C9,2*%
%TO.N,VDD_SPI*%
X123025000Y-122899999D03*
%TD*%
D20*
%TO.P,L1,1*%
%TO.N,Net-(C2-Pad2)*%
X149076274Y-119276274D03*
%TO.P,L1,2*%
%TO.N,Net-(U1-ANT)*%
X148623726Y-118823726D03*
%TD*%
D11*
%TO.P,R15,1*%
%TO.N,/S1_sym*%
X121900000Y-114490001D03*
%TO.P,R15,2*%
%TO.N,+3V3*%
X121900000Y-115509999D03*
%TD*%
D21*
%TO.P,D2,1*%
%TO.N,Net-(D2-Pad1)*%
X152800000Y-113225000D03*
%TO.P,D2,2*%
%TO.N,/GPIO_Q2*%
X154200000Y-113225000D03*
D22*
%TO.P,D2,3*%
%TO.N,N/C*%
X153500000Y-113525000D03*
%TD*%
D16*
%TO.P,C7,1*%
%TO.N,GND*%
X148875000Y-114670000D03*
%TO.P,C7,2*%
%TO.N,Net-(U1-VDDPST1)*%
X148875000Y-115630000D03*
%TD*%
D23*
%TO.P,R6,1*%
%TO.N,Net-(U1-U0TXD)*%
X138210624Y-118260624D03*
%TO.P,R6,2*%
%TO.N,/U0TXD*%
X137489376Y-117539376D03*
%TD*%
D24*
%TO.P,C2,1*%
%TO.N,GND*%
X149900000Y-119130000D03*
%TO.P,C2,2*%
%TO.N,Net-(C2-Pad2)*%
X149900000Y-119770000D03*
%TD*%
D15*
%TO.P,C13,1*%
%TO.N,GND*%
X149600000Y-122880000D03*
%TO.P,C13,2*%
%TO.N,Net-(C13-Pad2)*%
X149600000Y-121920000D03*
%TD*%
D25*
%TO.P,R8,1*%
%TO.N,/SPICS0*%
X125234999Y-122900000D03*
%TO.P,R8,2*%
%TO.N,VDD_SPI*%
X124215001Y-122900000D03*
%TD*%
D15*
%TO.P,C15,1*%
%TO.N,GND*%
X132900000Y-118280000D03*
%TO.P,C15,2*%
%TO.N,/Enable*%
X132900000Y-117320000D03*
%TD*%
D25*
%TO.P,R5,1*%
%TO.N,/SPID*%
X121409999Y-117400000D03*
%TO.P,R5,2*%
%TO.N,Net-(U1-SPID)*%
X120390001Y-117400000D03*
%TD*%
%TO.P,R7,1*%
%TO.N,Net-(C13-Pad2)*%
X147059999Y-120300000D03*
%TO.P,R7,2*%
%TO.N,Net-(U1-XTAL_P)*%
X146040001Y-120300000D03*
%TD*%
D12*
%TO.P,R3,1*%
%TO.N,Net-(U1-SPIHD)*%
X120390001Y-120000000D03*
%TO.P,R3,2*%
%TO.N,/SPIHD*%
X121409999Y-120000000D03*
%TD*%
D26*
%TO.P,R23,1*%
%TO.N,+3V3*%
X130900000Y-118409999D03*
%TO.P,R23,2*%
%TO.N,/BOOT*%
X130900000Y-117390001D03*
%TD*%
D21*
%TO.P,D7,1*%
%TO.N,Net-(D7-Pad1)*%
X119800000Y-113225000D03*
%TO.P,D7,2*%
%TO.N,/GPIO_Q1*%
X121200000Y-113225000D03*
D22*
%TO.P,D7,3*%
%TO.N,N/C*%
X120500000Y-113525000D03*
%TD*%
D27*
%TO.P,C8,1*%
%TO.N,GND*%
X120420000Y-121200000D03*
%TO.P,C8,2*%
%TO.N,VDD_SPI*%
X121380000Y-121200000D03*
%TD*%
D26*
%TO.P,R18,1*%
%TO.N,GND*%
X119900000Y-115509999D03*
%TO.P,R18,2*%
%TO.N,Net-(D7-Pad1)*%
X119900000Y-114490001D03*
%TD*%
D28*
%TO.P,U1,1,ANT*%
%TO.N,Net-(U1-ANT)*%
X146737500Y-118500000D03*
%TO.P,U1,2,VDDA3P3*%
%TO.N,Net-(C3-Pad2)*%
X146737500Y-118100000D03*
%TO.P,U1,3,VDDA3P3*%
X146737500Y-117700000D03*
%TO.P,U1,4,CHIP_EN*%
%TO.N,/Enable*%
X146737500Y-117300000D03*
%TO.P,U1,5,VDDPST1*%
%TO.N,Net-(U1-VDDPST1)*%
X146737500Y-116900000D03*
%TO.P,U1,6,XTAL_32K_P*%
%TO.N,/DO2*%
X146737500Y-116500000D03*
%TO.P,U1,7,XTAL_32K_N*%
%TO.N,/S2_sym*%
X146737500Y-116100000D03*
%TO.P,U1,8,GPIO2*%
%TO.N,unconnected-(U1-GPIO2-Pad8)*%
X146737500Y-115700000D03*
%TO.P,U1,9,GPIO3*%
%TO.N,/DO3*%
X146737500Y-115300000D03*
%TO.P,U1,10,MTMS*%
%TO.N,/LP_UART_RXD*%
X146737500Y-114900000D03*
D29*
%TO.P,U1,11,MTDI*%
%TO.N,/LP_UART_TXD*%
X146100000Y-114262500D03*
%TO.P,U1,12,MTCK*%
%TO.N,/S3_sym*%
X145700000Y-114262500D03*
%TO.P,U1,13,MTDO*%
%TO.N,/DO1*%
X145300000Y-114262500D03*
%TO.P,U1,14,GPIO8*%
%TO.N,/GPIO8*%
X144900000Y-114262500D03*
%TO.P,U1,15,GPIO9*%
%TO.N,/BOOT*%
X144500000Y-114262500D03*
%TO.P,U1,16,GPIO10*%
%TO.N,/GPIO_Q2*%
X144100000Y-114262500D03*
%TO.P,U1,17,GPIO11*%
%TO.N,/GPIO_S3*%
X143700000Y-114262500D03*
%TO.P,U1,18,GPIO12*%
%TO.N,/GPIO_S2*%
X143300000Y-114262500D03*
%TO.P,U1,19,GPIO13*%
%TO.N,/S_set*%
X142900000Y-114262500D03*
%TO.P,U1,20,SPICS0*%
%TO.N,/SPICS0*%
X142500000Y-114262500D03*
D28*
%TO.P,U1,21,SPIQ*%
%TO.N,Net-(U1-SPIQ)*%
X141862500Y-114900000D03*
%TO.P,U1,22,SPIWP*%
%TO.N,Net-(U1-SPIWP)*%
X141862500Y-115300000D03*
%TO.P,U1,23,VDD_SPI*%
%TO.N,VDD_SPI*%
X141862500Y-115700000D03*
%TO.P,U1,24,SPIHD*%
%TO.N,Net-(U1-SPIHD)*%
X141862500Y-116100000D03*
%TO.P,U1,25,SPICLK*%
%TO.N,Net-(U1-SPICLK)*%
X141862500Y-116500000D03*
%TO.P,U1,26,SPID*%
%TO.N,Net-(U1-SPID)*%
X141862500Y-116900000D03*
%TO.P,U1,27,GPIO15*%
%TO.N,/P_MEAS_RST*%
X141862500Y-117300000D03*
%TO.P,U1,28,VDDPST2*%
%TO.N,Net-(U1-VDDPST2)*%
X141862500Y-117700000D03*
%TO.P,U1,29,U0TXD*%
%TO.N,Net-(U1-U0TXD)*%
X141862500Y-118100000D03*
%TO.P,U1,30,U0RXD*%
%TO.N,/U0RXD*%
X141862500Y-118500000D03*
D29*
%TO.P,U1,31,SDIO_CMD*%
%TO.N,/GPIO_Q1*%
X142500000Y-119137500D03*
%TO.P,U1,32,SDIO_CLK*%
%TO.N,/GPIO_S1*%
X142900000Y-119137500D03*
%TO.P,U1,33,SDIO_DATA0*%
%TO.N,/RGB_B*%
X143300000Y-119137500D03*
%TO.P,U1,34,SDIO_DATA1*%
%TO.N,/RGB_G*%
X143700000Y-119137500D03*
%TO.P,U1,35,SDIO_DATA2*%
%TO.N,/RGB_R*%
X144100000Y-119137500D03*
%TO.P,U1,36,SDIO_DATA3*%
%TO.N,/S1_sym*%
X144500000Y-119137500D03*
%TO.P,U1,37,VDDA1*%
%TO.N,+3V3*%
X144900000Y-119137500D03*
%TO.P,U1,38,XTAL_N*%
%TO.N,Net-(U1-XTAL_N)*%
X145300000Y-119137500D03*
%TO.P,U1,39,XTAL_P*%
%TO.N,Net-(U1-XTAL_P)*%
X145700000Y-119137500D03*
%TO.P,U1,40,VDDA2*%
%TO.N,+3V3*%
X146100000Y-119137500D03*
D30*
%TO.P,U1,41,GND*%
%TO.N,GND*%
X144300000Y-116700000D03*
%TD*%
D26*
%TO.P,R13,1*%
%TO.N,/RGB_B*%
X127200000Y-116009999D03*
%TO.P,R13,2*%
%TO.N,Net-(D6-Pad2)*%
X127200000Y-114990001D03*
%TD*%
D31*
%TO.P,U2,1,~{CS}*%
%TO.N,/SPICS0*%
X128075000Y-121105000D03*
%TO.P,U2,2,D0*%
%TO.N,/SPIQ*%
X128075000Y-119835000D03*
%TO.P,U2,3,~{WP}*%
%TO.N,/SPIWP*%
X128075000Y-118565000D03*
%TO.P,U2,4,GND*%
%TO.N,GND*%
X128075000Y-117295000D03*
%TO.P,U2,5,DI*%
%TO.N,/SPID*%
X123125000Y-117295000D03*
%TO.P,U2,6,CLK*%
%TO.N,/SPICLK*%
X123125000Y-118565000D03*
%TO.P,U2,7,~{HOLD}*%
%TO.N,/SPIHD*%
X123125000Y-119835000D03*
%TO.P,U2,8,VCC*%
%TO.N,VDD_SPI*%
X123125000Y-121105000D03*
%TD*%
D15*
%TO.P,C18,1*%
%TO.N,GND*%
X154175000Y-115480000D03*
%TO.P,C18,2*%
%TO.N,/S2_sym*%
X154175000Y-114520000D03*
%TD*%
D26*
%TO.P,R14,1*%
%TO.N,/S_set*%
X128200000Y-116009999D03*
%TO.P,R14,2*%
%TO.N,+3V3*%
X128200000Y-114990001D03*
%TD*%
D32*
%TO.P,R24,1*%
%TO.N,+3V3*%
X134760624Y-117564376D03*
%TO.P,R24,2*%
%TO.N,/Enable*%
X134039376Y-118285624D03*
%TD*%
D26*
%TO.P,R19,1*%
%TO.N,GND*%
X152225000Y-115484999D03*
%TO.P,R19,2*%
%TO.N,Net-(D2-Pad1)*%
X152225000Y-114465001D03*
%TD*%
D33*
%TO.P,C12,1*%
%TO.N,GND*%
X143425000Y-121750000D03*
%TO.P,C12,2*%
%TO.N,+3V3*%
X141775000Y-121750000D03*
%TD*%
D26*
%TO.P,R12,1*%
%TO.N,/RGB_R*%
X125200000Y-116009999D03*
%TO.P,R12,2*%
%TO.N,Net-(D6-Pad4)*%
X125200000Y-114990001D03*
%TD*%
%TO.P,R1,1*%
%TO.N,Net-(U1-SPIQ)*%
X129850000Y-121059999D03*
%TO.P,R1,2*%
%TO.N,/SPIQ*%
X129850000Y-120040001D03*
%TD*%
D34*
%TO.P,SW_USER1,1*%
%TO.N,/S_set*%
X131000000Y-114850000D03*
%TO.P,SW_USER1,2*%
%TO.N,GND*%
X131000000Y-113150000D03*
%TO.P,SW_USER1,3*%
%TO.N,/S_set*%
X136600000Y-114850000D03*
%TO.P,SW_USER1,4*%
%TO.N,GND*%
X136600000Y-113150000D03*
%TD*%
D16*
%TO.P,C16,1*%
%TO.N,GND*%
X129200000Y-115020000D03*
%TO.P,C16,2*%
%TO.N,/S_set*%
X129200000Y-115980000D03*
%TD*%
D15*
%TO.P,C17,1*%
%TO.N,GND*%
X120900000Y-115480000D03*
%TO.P,C17,2*%
%TO.N,/S1_sym*%
X120900000Y-114520000D03*
%TD*%
D35*
%TO.P,Y1,1,1*%
%TO.N,Net-(C13-Pad2)*%
X148200000Y-121600000D03*
%TO.P,Y1,2,2*%
%TO.N,GND*%
X146800000Y-121600000D03*
%TO.P,Y1,3,3*%
%TO.N,Net-(U1-XTAL_N)*%
X146800000Y-122700000D03*
%TO.P,Y1,4,4*%
%TO.N,GND*%
X148200000Y-122700000D03*
%TD*%
D23*
%TO.P,R17,1*%
%TO.N,/S3_sym*%
X139410624Y-115110624D03*
%TO.P,R17,2*%
%TO.N,+3V3*%
X138689376Y-114389376D03*
%TD*%
D15*
%TO.P,C20,1*%
%TO.N,GND*%
X131900000Y-118280000D03*
%TO.P,C20,2*%
%TO.N,/BOOT*%
X131900000Y-117320000D03*
%TD*%
D36*
%TO.P,C19,1*%
%TO.N,GND*%
X138739411Y-115939411D03*
%TO.P,C19,2*%
%TO.N,/S3_sym*%
X138060589Y-115260589D03*
%TD*%
D26*
%TO.P,R11,1*%
%TO.N,/RGB_G*%
X126200000Y-116009999D03*
%TO.P,R11,2*%
%TO.N,Net-(D6-Pad3)*%
X126200000Y-114990001D03*
%TD*%
%TO.P,R22,1*%
%TO.N,+3V3*%
X147900000Y-114909999D03*
%TO.P,R22,2*%
%TO.N,/GPIO8*%
X147900000Y-113890001D03*
%TD*%
D33*
%TO.P,C6,1*%
%TO.N,GND*%
X154100000Y-116750000D03*
%TO.P,C6,2*%
%TO.N,+3V3*%
X152450000Y-116750000D03*
%TD*%
D37*
%TO.P,C3,1*%
%TO.N,GND*%
X149680000Y-117550000D03*
%TO.P,C3,2*%
%TO.N,Net-(C3-Pad2)*%
X148720000Y-117550000D03*
%TD*%
D38*
%TO.P,C10,1*%
%TO.N,GND*%
X138210589Y-116835589D03*
%TO.P,C10,2*%
%TO.N,Net-(U1-VDDPST2)*%
X138889411Y-117514411D03*
%TD*%
D27*
%TO.P,C14,1*%
%TO.N,GND*%
X144520000Y-122200000D03*
%TO.P,C14,2*%
%TO.N,Net-(U1-XTAL_N)*%
X145480000Y-122200000D03*
%TD*%
D39*
%TO.P,D6,1*%
%TO.N,+3V3*%
X128099999Y-113675000D03*
D40*
%TO.P,D6,2*%
%TO.N,Net-(D6-Pad2)*%
X127150000Y-114000000D03*
%TO.P,D6,3*%
%TO.N,Net-(D6-Pad3)*%
X126250000Y-114000000D03*
D39*
%TO.P,D6,4*%
%TO.N,Net-(D6-Pad4)*%
X125300001Y-113675000D03*
%TD*%
D41*
%TO.P,J2,1,1*%
%TO.N,GND*%
X130729999Y-116400000D03*
%TO.P,J2,2,2*%
%TO.N,/BOOT*%
X132000000Y-116400000D03*
%TO.P,J2,3,3*%
%TO.N,/Enable*%
X133269999Y-116400000D03*
%TO.P,J2,4,4*%
%TO.N,/U0RXD*%
X134539999Y-116400000D03*
%TO.P,J2,5,5*%
%TO.N,/U0TXD*%
X135809998Y-116400000D03*
%TO.P,J2,6,6*%
%TO.N,+3V3*%
X137079999Y-116400000D03*
%TD*%
D42*
%TO.N,GND*%
X124400000Y-113200000D03*
X147100000Y-119400000D03*
X129000000Y-116700000D03*
X143825000Y-116350000D03*
X131400000Y-119025000D03*
X147850000Y-120150000D03*
X143425000Y-121750000D03*
X144775000Y-117175000D03*
X124275000Y-115675000D03*
X152400000Y-121250000D03*
X151325000Y-122900000D03*
X154000000Y-119750000D03*
X143300000Y-116800000D03*
X151100000Y-121275001D03*
X145600000Y-117200000D03*
X151020000Y-114670000D03*
X149400000Y-117950000D03*
X151050000Y-115750000D03*
X122000000Y-113200000D03*
X144750000Y-116325000D03*
X150500000Y-121000000D03*
X148887500Y-120550000D03*
X154025000Y-117650000D03*
X143800000Y-117150000D03*
X136650000Y-119000000D03*
X143300000Y-115900000D03*
X148450000Y-120200000D03*
X150450000Y-118500000D03*
X126400000Y-117450000D03*
X149000000Y-123100000D03*
X146100000Y-121100000D03*
X151100000Y-118600000D03*
X154100000Y-116125000D03*
X129850000Y-114575000D03*
X120200000Y-116300000D03*
X152450000Y-118300000D03*
X144300000Y-116700000D03*
X145900000Y-115600000D03*
X146100000Y-121700000D03*
X149350000Y-120950000D03*
X153425000Y-122850000D03*
X143800000Y-115400000D03*
X120325000Y-121850000D03*
X135275000Y-114200000D03*
X153950000Y-121300000D03*
X120400000Y-122900000D03*
X149000000Y-122500000D03*
X145600000Y-116400000D03*
X144800000Y-117900000D03*
X149900000Y-121000000D03*
X138573089Y-116473089D03*
X144200000Y-121750000D03*
X145600000Y-117900000D03*
X150650000Y-117850000D03*
X149900000Y-118300000D03*
X149375000Y-114625000D03*
X147700000Y-123200000D03*
%TO.N,+3V3*%
X144450000Y-120550000D03*
X149825000Y-116050000D03*
X146500000Y-119150000D03*
X121700000Y-116300000D03*
X126300000Y-118200000D03*
X137650000Y-114650000D03*
X135550000Y-118350000D03*
X128700000Y-113925000D03*
X141900000Y-121600000D03*
X141900000Y-121025000D03*
%TO.N,/BOOT*%
X132500000Y-114600000D03*
X144200000Y-112800000D03*
%TO.N,/GPIO_Q1*%
X130700000Y-119200000D03*
X122700000Y-116500000D03*
X141125000Y-119000000D03*
X122600000Y-113800000D03*
%TO.N,/GPIO_Q2*%
X132900000Y-119000000D03*
X143425000Y-112825000D03*
X127475000Y-112900000D03*
X152100000Y-112775000D03*
%TO.N,/Enable*%
X133350000Y-114675000D03*
X147700000Y-117375000D03*
%TO.N,Net-(U1-SPIQ)*%
X141950000Y-114600000D03*
X130750000Y-120950000D03*
%TO.N,Net-(U1-SPIWP)*%
X141250000Y-114450000D03*
X129725000Y-116725000D03*
%TO.N,Net-(U1-SPIHD)*%
X140800000Y-116025000D03*
X120400000Y-120400000D03*
%TO.N,Net-(U1-SPICLK)*%
X120500000Y-119200000D03*
X139775000Y-116475000D03*
%TO.N,Net-(U1-SPID)*%
X120450000Y-118050000D03*
X139150000Y-116800000D03*
%TO.N,/SPICS0*%
X124650000Y-121875000D03*
X140300000Y-115550000D03*
X126600000Y-121000000D03*
%TO.N,/GPIO8*%
X144900000Y-112825000D03*
X148875000Y-113250000D03*
%TO.N,VDD_SPI*%
X140750000Y-114950000D03*
X123675000Y-122875000D03*
%TO.N,/S2_sym*%
X147800000Y-115600000D03*
X153650000Y-114520000D03*
%TO.N,/DO1*%
X135150000Y-119000000D03*
X145625000Y-112825000D03*
%TO.N,/DO3*%
X149800000Y-113875000D03*
%TO.N,/P_MEAS_RST*%
X140950000Y-117275000D03*
X135900000Y-119000000D03*
%TO.N,/GPIO_S2*%
X138050000Y-113050000D03*
X128825000Y-113250000D03*
X133650000Y-119000000D03*
%TO.N,/DO2*%
X147700000Y-116375000D03*
%TO.N,/GPIO_S1*%
X140400000Y-119000000D03*
%TO.N,+12V*%
X132150000Y-119000000D03*
%TO.N,/GPIO_S3*%
X134400000Y-119000000D03*
X139000000Y-112825000D03*
X129650000Y-113450000D03*
%TO.N,/LP_UART_RXD*%
X146775000Y-114600000D03*
%TO.N,/LP_UART_TXD*%
X146425000Y-114050000D03*
%TO.N,/S1_sym*%
X122600000Y-114500000D03*
%TO.N,/S3_sym*%
X138210589Y-115310589D03*
X146775000Y-113475000D03*
%TD*%
D43*
%TO.N,GND*%
X129850000Y-114125000D02*
X130825000Y-113150000D01*
D44*
X149000000Y-123100000D02*
X148825000Y-122925000D01*
X153975000Y-119800000D02*
X153975000Y-120575000D01*
D43*
X126400000Y-117450000D02*
X126555000Y-117295000D01*
D44*
X148825000Y-122925000D02*
X148725000Y-122925000D01*
X154100000Y-116750000D02*
X154100000Y-117400000D01*
D45*
X147850000Y-120150000D02*
X147800000Y-120100000D01*
D44*
X153274999Y-121275001D02*
X152450000Y-121275001D01*
D43*
X144200000Y-121750000D02*
X144200000Y-121880000D01*
D44*
X152450000Y-118324999D02*
X153274999Y-118324999D01*
D43*
X138573089Y-116473089D02*
X138210589Y-116835589D01*
D44*
X146575000Y-121375000D02*
X146100000Y-121375000D01*
D46*
X149900000Y-119130000D02*
X149900000Y-118300000D01*
D43*
X151020000Y-114285000D02*
X151250000Y-114055000D01*
D47*
X121375000Y-122899999D02*
X120400001Y-122899999D01*
D44*
X146100000Y-121375000D02*
X146100000Y-121100000D01*
D43*
X128175000Y-117395000D02*
X128075000Y-117295000D01*
D44*
X151020000Y-114670000D02*
X151025000Y-114675000D01*
D43*
X120200000Y-115809999D02*
X120200000Y-116300000D01*
D44*
X151100000Y-121275001D02*
X152450000Y-121275001D01*
X148400000Y-122500000D02*
X148200000Y-122700000D01*
X146800000Y-121600000D02*
X146200000Y-121600000D01*
D43*
X149375000Y-114625000D02*
X149755000Y-114625000D01*
D44*
X146300000Y-121100000D02*
X146800000Y-121600000D01*
D43*
X119900000Y-115509999D02*
X120200000Y-115809999D01*
D48*
X144520000Y-122200000D02*
X144520000Y-121660000D01*
D43*
X149375000Y-114625000D02*
X148920000Y-114625000D01*
D44*
X138573089Y-116105733D02*
X138739411Y-115939411D01*
D43*
X136750000Y-113000000D02*
X136600000Y-113150000D01*
X149755000Y-114625000D02*
X149800000Y-114670000D01*
X144200000Y-121880000D02*
X144520000Y-122200000D01*
D44*
X151025000Y-114675000D02*
X151025000Y-115175000D01*
X138573089Y-116473089D02*
X138573089Y-116105733D01*
D43*
X151020000Y-114670000D02*
X151020000Y-114285000D01*
D44*
X154175000Y-115480000D02*
X154100000Y-115555000D01*
X149600000Y-122880000D02*
X149105000Y-122880000D01*
D43*
X149680000Y-118080000D02*
X149680000Y-117550000D01*
D44*
X146100000Y-121700000D02*
X146100000Y-121375000D01*
X149000000Y-122775000D02*
X149000000Y-122500000D01*
X149000000Y-122500000D02*
X149000000Y-123100000D01*
D43*
X148920000Y-114625000D02*
X148875000Y-114670000D01*
D44*
X153175001Y-118324999D02*
X152450000Y-118324999D01*
D43*
X129850000Y-114575000D02*
X129645000Y-114575000D01*
X136600000Y-113150000D02*
X131000000Y-113150000D01*
D44*
X153975000Y-120575000D02*
X153274999Y-121275001D01*
D48*
X144520000Y-121660000D02*
X144900000Y-121280000D01*
D43*
X131900000Y-118525000D02*
X131400000Y-119025000D01*
D45*
X147800000Y-120100000D02*
X147800000Y-119120000D01*
D43*
X120200000Y-116180000D02*
X120200000Y-116300000D01*
D44*
X148550000Y-122750000D02*
X148250000Y-122750000D01*
X154100000Y-115555000D02*
X154100000Y-116125000D01*
D43*
X130825000Y-113150000D02*
X131000000Y-113150000D01*
D44*
X154100000Y-117400000D02*
X153175001Y-118324999D01*
D43*
X149900000Y-118300000D02*
X149680000Y-118080000D01*
D44*
X146200000Y-121600000D02*
X146100000Y-121700000D01*
X149105000Y-122880000D02*
X149000000Y-122775000D01*
X153975000Y-119025000D02*
X153975000Y-119800000D01*
X154100000Y-116125000D02*
X154100000Y-116750000D01*
X149000000Y-122500000D02*
X148400000Y-122500000D01*
D43*
X120900000Y-115480000D02*
X120200000Y-116180000D01*
D44*
X153274999Y-118324999D02*
X153975000Y-119025000D01*
X146100000Y-121100000D02*
X146300000Y-121100000D01*
X151375001Y-118324999D02*
X152450000Y-118324999D01*
X151020000Y-114670000D02*
X149800000Y-114670000D01*
X148725000Y-122925000D02*
X148550000Y-122750000D01*
X148250000Y-122750000D02*
X148200000Y-122700000D01*
X151100000Y-118600000D02*
X151375001Y-118324999D01*
D47*
X120400001Y-122899999D02*
X120400000Y-122900000D01*
D44*
X146800000Y-121600000D02*
X146575000Y-121375000D01*
D43*
X131900000Y-118280000D02*
X131900000Y-118525000D01*
X129645000Y-114575000D02*
X129200000Y-115020000D01*
X129850000Y-114575000D02*
X129850000Y-114125000D01*
X128805000Y-117395000D02*
X128175000Y-117395000D01*
X126555000Y-117295000D02*
X128075000Y-117295000D01*
D46*
%TO.N,Net-(U1-ANT)*%
X148280000Y-118480000D02*
X147800000Y-118480000D01*
D49*
X146737500Y-118500000D02*
X147780000Y-118500000D01*
D46*
X148623726Y-118823726D02*
X148280000Y-118480000D01*
X147780000Y-118500000D02*
X147800000Y-118480000D01*
%TO.N,Net-(C2-Pad2)*%
X149570000Y-119770000D02*
X149900000Y-119770000D01*
X150895000Y-119770000D02*
X150925000Y-119800000D01*
X149900000Y-119770000D02*
X150895000Y-119770000D01*
X149076274Y-119276274D02*
X149570000Y-119770000D01*
D50*
%TO.N,Net-(C3-Pad2)*%
X146737500Y-118100000D02*
X147200000Y-118100000D01*
X146737500Y-117700000D02*
X147200000Y-117700000D01*
X147200000Y-117700000D02*
X147400000Y-117900000D01*
X147400000Y-117900000D02*
X147925000Y-117900000D01*
X148670000Y-117600000D02*
X148720000Y-117550000D01*
X147200000Y-118100000D02*
X147400000Y-117900000D01*
X148720000Y-117550000D02*
X148825000Y-117445000D01*
X147925000Y-117900000D02*
X148225000Y-117600000D01*
X148825000Y-116555000D02*
X148820000Y-116550000D01*
X148225000Y-117600000D02*
X148670000Y-117600000D01*
X148825000Y-117445000D02*
X148825000Y-116555000D01*
D43*
%TO.N,+3V3*%
X121800000Y-115609999D02*
X121800000Y-116200000D01*
X144900000Y-120320000D02*
X144900000Y-119137500D01*
X128324999Y-113900000D02*
X128099999Y-113675000D01*
X128099999Y-113675000D02*
X128099999Y-113799999D01*
D44*
X149800000Y-115630000D02*
X149800000Y-116530000D01*
D43*
X146500000Y-119150000D02*
X146487500Y-119137500D01*
X137910624Y-114389376D02*
X138689376Y-114389376D01*
D44*
X141900000Y-121000000D02*
X141900000Y-121600000D01*
D43*
X128099999Y-113799999D02*
X128200000Y-113900000D01*
D44*
X149780000Y-116550000D02*
X149825000Y-116550000D01*
D43*
X148475000Y-115125000D02*
X149295000Y-115125000D01*
X130900000Y-118409999D02*
X130809999Y-118409999D01*
D44*
X153225000Y-115509999D02*
X153225000Y-115975000D01*
D43*
X135550000Y-118350000D02*
X135546248Y-118350000D01*
X128700000Y-113925000D02*
X128675000Y-113900000D01*
D44*
X144670000Y-120550000D02*
X144900000Y-120320000D01*
D43*
X135546248Y-118350000D02*
X134760624Y-117564376D01*
X121800000Y-116200000D02*
X121700000Y-116300000D01*
D44*
X149825000Y-116550000D02*
X150100000Y-116825000D01*
D47*
X128675000Y-113900000D02*
X128324999Y-113900000D01*
D44*
X151050000Y-116800000D02*
X151025000Y-116825000D01*
D43*
X137650000Y-114650000D02*
X137910624Y-114389376D01*
D44*
X149800000Y-116530000D02*
X149780000Y-116550000D01*
X152450000Y-116750000D02*
X151850000Y-116750000D01*
X151800000Y-116800000D02*
X151050000Y-116800000D01*
D43*
X130300000Y-117900000D02*
X126600000Y-117900000D01*
D44*
X151850000Y-116750000D02*
X151800000Y-116800000D01*
X153225000Y-115975000D02*
X152450000Y-116750000D01*
D43*
X149295000Y-115125000D02*
X149800000Y-115630000D01*
X146487500Y-119137500D02*
X146100000Y-119137500D01*
X126600000Y-117900000D02*
X126300000Y-118200000D01*
X128200000Y-113900000D02*
X128200000Y-114990001D01*
X130809999Y-118409999D02*
X130300000Y-117900000D01*
X147900000Y-114909999D02*
X148259999Y-114909999D01*
X148259999Y-114909999D02*
X148475000Y-115125000D01*
D44*
X144450000Y-120550000D02*
X144670000Y-120550000D01*
X150100000Y-116825000D02*
X151025000Y-116825000D01*
D43*
X121900000Y-115509999D02*
X121800000Y-115609999D01*
%TO.N,Net-(U1-VDDPST1)*%
X146737500Y-116900000D02*
X148000000Y-116900000D01*
X148200000Y-116300000D02*
X148870000Y-115630000D01*
X148870000Y-115630000D02*
X148875000Y-115630000D01*
X148200000Y-116700000D02*
X148200000Y-116300000D01*
X148000000Y-116900000D02*
X148200000Y-116700000D01*
%TO.N,Net-(U1-VDDPST2)*%
X141862500Y-117700000D02*
X141350000Y-117700000D01*
X141350000Y-117700000D02*
X141225000Y-117825000D01*
X141225000Y-117825000D02*
X139200000Y-117825000D01*
X139200000Y-117825000D02*
X138889411Y-117514411D01*
%TO.N,Net-(C13-Pad2)*%
X147550000Y-120800000D02*
X147550000Y-121000000D01*
X147059999Y-120309999D02*
X147550000Y-120800000D01*
X148150000Y-121600000D02*
X148200000Y-121600000D01*
X147550000Y-121000000D02*
X148150000Y-121600000D01*
X149480000Y-121800000D02*
X148400000Y-121800000D01*
X149600000Y-121920000D02*
X149480000Y-121800000D01*
X147059999Y-120300000D02*
X147059999Y-120309999D01*
X148400000Y-121800000D02*
X148200000Y-121600000D01*
%TO.N,Net-(U1-XTAL_N)*%
X145300000Y-119950000D02*
X145300000Y-119137500D01*
X145480000Y-122580000D02*
X145800000Y-122900000D01*
X145480000Y-122200000D02*
X145480000Y-122580000D01*
X145480000Y-122200000D02*
X145480000Y-120130000D01*
X145480000Y-120130000D02*
X145300000Y-119950000D01*
X145800000Y-122900000D02*
X146650000Y-122900000D01*
X146650000Y-122900000D02*
X146675000Y-122925000D01*
%TO.N,/BOOT*%
X132100000Y-116300000D02*
X132000000Y-116400000D01*
X130900000Y-117390001D02*
X131829999Y-117390001D01*
X132100000Y-115400000D02*
X132100000Y-116300000D01*
X132000000Y-117220000D02*
X132000000Y-116400000D01*
X144200000Y-112800000D02*
X144200000Y-113225000D01*
X132500000Y-115000000D02*
X132100000Y-115400000D01*
X144200000Y-113225000D02*
X144500000Y-113525000D01*
X132500000Y-114600000D02*
X132500000Y-115000000D01*
X144500000Y-113525000D02*
X144500000Y-114262500D01*
X131829999Y-117390001D02*
X131900000Y-117320000D01*
X131900000Y-117320000D02*
X132000000Y-117220000D01*
%TO.N,/GPIO_Q1*%
X121200000Y-113225000D02*
X121775000Y-113800000D01*
X141262500Y-119137500D02*
X142500000Y-119137500D01*
X141125000Y-119000000D02*
X141262500Y-119137500D01*
X121775000Y-113800000D02*
X122600000Y-113800000D01*
%TO.N,/GPIO_Q2*%
X152275000Y-112600000D02*
X153575000Y-112600000D01*
X153575000Y-112600000D02*
X154200000Y-113225000D01*
X143425000Y-112825000D02*
X144000000Y-113400000D01*
X144000000Y-113400000D02*
X144000000Y-113650000D01*
X144100000Y-113750000D02*
X144100000Y-114262500D01*
X152100000Y-112775000D02*
X152275000Y-112600000D01*
X144000000Y-113650000D02*
X144100000Y-113750000D01*
%TO.N,/Enable*%
X133350000Y-116319999D02*
X133269999Y-116400000D01*
X133893128Y-118285624D02*
X134039376Y-118285624D01*
X132900000Y-117146248D02*
X132900000Y-116769999D01*
X147700000Y-117375000D02*
X147625000Y-117300000D01*
X133878752Y-118300000D02*
X133893128Y-118285624D01*
X147625000Y-117300000D02*
X146737500Y-117300000D01*
X134039376Y-118285624D02*
X132900000Y-117146248D01*
X132900000Y-116769999D02*
X133269999Y-116400000D01*
X133350000Y-114675000D02*
X133350000Y-116319999D01*
%TO.N,Net-(U1-SPIQ)*%
X130640001Y-121059999D02*
X129850000Y-121059999D01*
X141925000Y-114600000D02*
X141862500Y-114662500D01*
X130750000Y-120950000D02*
X130640001Y-121059999D01*
X141862500Y-114662500D02*
X141862500Y-114900000D01*
X141950000Y-114600000D02*
X141925000Y-114600000D01*
%TO.N,/SPIQ*%
X129644999Y-119835000D02*
X129850000Y-120040001D01*
X128075000Y-119835000D02*
X129644999Y-119835000D01*
%TO.N,/SPIWP*%
X128160000Y-118650000D02*
X129740001Y-118650000D01*
X128075000Y-118565000D02*
X128160000Y-118650000D01*
%TO.N,Net-(U1-SPIWP)*%
X129825000Y-116825000D02*
X129825000Y-117440001D01*
X141250000Y-115100000D02*
X141450000Y-115300000D01*
X141250000Y-114450000D02*
X141250000Y-115100000D01*
X141450000Y-115300000D02*
X141862500Y-115300000D01*
X129725000Y-116725000D02*
X129825000Y-116825000D01*
%TO.N,/SPIHD*%
X121574999Y-119835000D02*
X121409999Y-120000000D01*
X123125000Y-119835000D02*
X121574999Y-119835000D01*
%TO.N,Net-(U1-SPIHD)*%
X120390001Y-120000000D02*
X120390001Y-120390001D01*
X140875000Y-116100000D02*
X141862500Y-116100000D01*
X140800000Y-116025000D02*
X140875000Y-116100000D01*
X120390001Y-120390001D02*
X120400000Y-120400000D01*
%TO.N,/SPICLK*%
X121644999Y-118565000D02*
X121409999Y-118800000D01*
X123125000Y-118565000D02*
X121644999Y-118565000D01*
%TO.N,Net-(U1-SPICLK)*%
X120500000Y-119200000D02*
X120390001Y-119090001D01*
X139800000Y-116500000D02*
X141862500Y-116500000D01*
X139775000Y-116475000D02*
X139800000Y-116500000D01*
X120390001Y-119090001D02*
X120390001Y-118800000D01*
%TO.N,/SPID*%
X121409999Y-117400000D02*
X123020000Y-117400000D01*
X123020000Y-117400000D02*
X123125000Y-117295000D01*
%TO.N,Net-(U1-SPID)*%
X141300000Y-116900000D02*
X141150000Y-116750000D01*
X139450000Y-117100000D02*
X139150000Y-116800000D01*
X141862500Y-116900000D02*
X141300000Y-116900000D01*
X120390001Y-117990001D02*
X120450000Y-118050000D01*
X140075000Y-117100000D02*
X139450000Y-117100000D01*
X140425000Y-116750000D02*
X140075000Y-117100000D01*
X141150000Y-116750000D02*
X140425000Y-116750000D01*
X120390001Y-117400000D02*
X120390001Y-117990001D01*
%TO.N,Net-(U1-U0TXD)*%
X138525000Y-118575000D02*
X138210624Y-118260624D01*
X140100000Y-118100000D02*
X139625000Y-118575000D01*
X141862500Y-118100000D02*
X140100000Y-118100000D01*
X139625000Y-118575000D02*
X138525000Y-118575000D01*
%TO.N,/U0TXD*%
X136500000Y-117350000D02*
X135809998Y-116659998D01*
X135809998Y-116659998D02*
X135809998Y-116400000D01*
X137489376Y-117539376D02*
X137300000Y-117350000D01*
X137300000Y-117350000D02*
X136500000Y-117350000D01*
%TO.N,Net-(U1-XTAL_P)*%
X145700000Y-119137500D02*
X145700000Y-119825000D01*
X145700000Y-119825000D02*
X146040001Y-120165001D01*
X146040001Y-120165001D02*
X146040001Y-120300000D01*
%TO.N,/SPICS0*%
X140300000Y-115550000D02*
X140250000Y-115500000D01*
X142000000Y-113950000D02*
X142312500Y-114262500D01*
X140950000Y-113950000D02*
X142000000Y-113950000D01*
X124650000Y-121875000D02*
X124650000Y-122315001D01*
X142312500Y-114262500D02*
X142500000Y-114262500D01*
X126705000Y-121105000D02*
X128075000Y-121105000D01*
X140250000Y-114650000D02*
X140950000Y-113950000D01*
X140250000Y-115500000D02*
X140250000Y-114650000D01*
X126600000Y-121000000D02*
X126705000Y-121105000D01*
X124650000Y-122315001D02*
X125234999Y-122900000D01*
%TO.N,/GPIO8*%
X148800000Y-113350000D02*
X148440001Y-113350000D01*
X148875000Y-113250000D02*
X148875000Y-113275000D01*
X149900000Y-113350000D02*
X148800000Y-113350000D01*
X144900000Y-114262500D02*
X144900000Y-112825000D01*
X148875000Y-113275000D02*
X148800000Y-113350000D01*
X151250000Y-113095000D02*
X150155000Y-113095000D01*
X148440001Y-113350000D02*
X147900000Y-113890001D01*
X150155000Y-113095000D02*
X149900000Y-113350000D01*
%TO.N,/U0RXD*%
X139600000Y-118975000D02*
X138050000Y-118975000D01*
X141862500Y-118500000D02*
X140075000Y-118500000D01*
X140075000Y-118500000D02*
X139600000Y-118975000D01*
X136775000Y-117700000D02*
X135839999Y-117700000D01*
X138050000Y-118975000D02*
X136775000Y-117700000D01*
X135839999Y-117700000D02*
X134539999Y-116400000D01*
D44*
%TO.N,VDD_SPI*%
X123125000Y-121105000D02*
X123125000Y-122799999D01*
D51*
X141350000Y-115700000D02*
X141862500Y-115700000D01*
X140750000Y-114950000D02*
X140750000Y-115100000D01*
X123025000Y-121205000D02*
X121385000Y-121205000D01*
D47*
X121385000Y-121205000D02*
X121380000Y-121200000D01*
D51*
X140750000Y-115100000D02*
X141350000Y-115700000D01*
X123125000Y-121105000D02*
X123025000Y-121205000D01*
D44*
X123700000Y-122900000D02*
X124215001Y-122900000D01*
X123675000Y-122875000D02*
X123700000Y-122900000D01*
D51*
X123125000Y-122799999D02*
X123025000Y-122899999D01*
D44*
X123675000Y-122875000D02*
X123650001Y-122899999D01*
X123650001Y-122899999D02*
X123025000Y-122899999D01*
D43*
%TO.N,/S2_sym*%
X147800000Y-115600000D02*
X147300000Y-116100000D01*
D44*
X153650000Y-114520000D02*
X154175000Y-114520000D01*
D43*
X147300000Y-116100000D02*
X146737500Y-116100000D01*
D44*
X153650000Y-114520000D02*
X153620001Y-114490001D01*
X153620001Y-114490001D02*
X153225000Y-114490001D01*
D43*
%TO.N,/RGB_G*%
X125200000Y-120850000D02*
X125200000Y-117150000D01*
X139050000Y-121800000D02*
X129300000Y-121800000D01*
X129300000Y-121800000D02*
X129150000Y-121950000D01*
X143700000Y-119137500D02*
X143700000Y-119750000D01*
X126300000Y-121950000D02*
X125200000Y-120850000D01*
X143175000Y-120275000D02*
X140575000Y-120275000D01*
X125200000Y-117150000D02*
X126200000Y-116150000D01*
X129150000Y-121950000D02*
X126300000Y-121950000D01*
X143700000Y-119750000D02*
X143175000Y-120275000D01*
X140575000Y-120275000D02*
X139050000Y-121800000D01*
X126200000Y-116150000D02*
X126200000Y-116009999D01*
%TO.N,/RGB_R*%
X124900000Y-116800000D02*
X125200000Y-116500000D01*
X129225000Y-122250000D02*
X126200000Y-122250000D01*
X144100000Y-119800000D02*
X143350000Y-120550000D01*
X143350000Y-120550000D02*
X140800000Y-120550000D01*
X139275000Y-122075000D02*
X129400000Y-122075000D01*
X140800000Y-120550000D02*
X139275000Y-122075000D01*
X126200000Y-122250000D02*
X124900000Y-120950000D01*
X125200000Y-116500000D02*
X125200000Y-116009999D01*
X144100000Y-119137500D02*
X144100000Y-119800000D01*
X129400000Y-122075000D02*
X129225000Y-122250000D01*
X124900000Y-120950000D02*
X124900000Y-116800000D01*
%TO.N,Net-(D2-Pad1)*%
X152225000Y-113800000D02*
X152225000Y-114465001D01*
X152800000Y-113225000D02*
X152225000Y-113800000D01*
%TO.N,Net-(D7-Pad1)*%
X119800000Y-113225000D02*
X119800000Y-114390001D01*
X119800000Y-114390001D02*
X119900000Y-114490001D01*
%TO.N,Net-(D6-Pad2)*%
X127200000Y-114050000D02*
X127200000Y-114990001D01*
X127150000Y-114000000D02*
X127200000Y-114050000D01*
%TO.N,Net-(D6-Pad4)*%
X125200000Y-113775001D02*
X125200000Y-114990001D01*
X125300001Y-113675000D02*
X125200000Y-113775001D01*
%TO.N,Net-(D6-Pad3)*%
X126200000Y-114050000D02*
X126200000Y-114990001D01*
X126250000Y-114000000D02*
X126200000Y-114050000D01*
%TO.N,/DO1*%
X145625000Y-112825000D02*
X145300000Y-113150000D01*
X145300000Y-113150000D02*
X145300000Y-114262500D01*
%TO.N,/DO3*%
X147375000Y-115175000D02*
X147375000Y-114550000D01*
X148750000Y-113875000D02*
X149800000Y-113875000D01*
X146737500Y-115300000D02*
X147250000Y-115300000D01*
X147375000Y-114550000D02*
X147562500Y-114362500D01*
X148262500Y-114362500D02*
X148750000Y-113875000D01*
X147250000Y-115300000D02*
X147375000Y-115175000D01*
X147562500Y-114362500D02*
X148262500Y-114362500D01*
%TO.N,/P_MEAS_RST*%
X140975000Y-117300000D02*
X141862500Y-117300000D01*
X140950000Y-117275000D02*
X140975000Y-117300000D01*
%TO.N,/GPIO_S2*%
X143300000Y-113750000D02*
X143300000Y-114262500D01*
X142925000Y-113375000D02*
X143300000Y-113750000D01*
X138375000Y-113375000D02*
X142925000Y-113375000D01*
X138050000Y-113050000D02*
X138375000Y-113375000D01*
%TO.N,/DO2*%
X147575000Y-116500000D02*
X146737500Y-116500000D01*
X147700000Y-116375000D02*
X147575000Y-116500000D01*
%TO.N,/GPIO_S1*%
X141100000Y-119725000D02*
X142825000Y-119725000D01*
X142900000Y-119650000D02*
X142900000Y-119137500D01*
X140400000Y-119025000D02*
X141100000Y-119725000D01*
X142825000Y-119725000D02*
X142900000Y-119650000D01*
%TO.N,/GPIO_S3*%
X142750000Y-112825000D02*
X143700000Y-113775000D01*
X143700000Y-113775000D02*
X143700000Y-114262500D01*
X139000000Y-112825000D02*
X142750000Y-112825000D01*
%TO.N,/RGB_B*%
X129050000Y-121650000D02*
X126400000Y-121650000D01*
X125500000Y-117650000D02*
X127140001Y-116009999D01*
X127140001Y-116009999D02*
X127200000Y-116009999D01*
X125500000Y-120750000D02*
X125500000Y-117650000D01*
X143300000Y-119137500D02*
X143300000Y-119725000D01*
X140200000Y-120000000D02*
X138675000Y-121525000D01*
X126400000Y-121650000D02*
X125500000Y-120750000D01*
X129175000Y-121525000D02*
X129050000Y-121650000D01*
X143025000Y-120000000D02*
X140200000Y-120000000D01*
X138675000Y-121525000D02*
X129175000Y-121525000D01*
X143300000Y-119725000D02*
X143025000Y-120000000D01*
%TO.N,/LP_UART_RXD*%
X146775000Y-114600000D02*
X146737500Y-114637500D01*
D51*
X146775000Y-114600000D02*
X146775000Y-114862500D01*
D43*
%TO.N,/LP_UART_TXD*%
X146100000Y-114075000D02*
X146125000Y-114050000D01*
D51*
X146125000Y-114050000D02*
X146425000Y-114050000D01*
D43*
X146100000Y-114262500D02*
X146100000Y-114075000D01*
X146425000Y-114075000D02*
X146425000Y-114050000D01*
%TO.N,/S1_sym*%
X129450000Y-122400000D02*
X142400000Y-122400000D01*
X126100000Y-122550000D02*
X129300000Y-122550000D01*
X143050000Y-120925000D02*
X143650000Y-120925000D01*
X122600000Y-115400000D02*
X123350000Y-116150000D01*
X124600000Y-121050000D02*
X126100000Y-122550000D01*
X142600000Y-122200000D02*
X142600000Y-121375000D01*
X124600000Y-116850000D02*
X124600000Y-121050000D01*
X123900000Y-116150000D02*
X124600000Y-116850000D01*
X143950000Y-120350000D02*
X144500000Y-119800000D01*
X144500000Y-119800000D02*
X144500000Y-119137500D01*
X121909999Y-114500000D02*
X122600000Y-114500000D01*
X121870001Y-114520000D02*
X121900000Y-114490001D01*
X129300000Y-122550000D02*
X129450000Y-122400000D01*
X143950000Y-120625000D02*
X143950000Y-120350000D01*
X122600000Y-114500000D02*
X122600000Y-115400000D01*
X142600000Y-121375000D02*
X143050000Y-120925000D01*
X143650000Y-120925000D02*
X143950000Y-120625000D01*
X120900000Y-114520000D02*
X121870001Y-114520000D01*
X142400000Y-122400000D02*
X142600000Y-122200000D01*
X123350000Y-116150000D02*
X123900000Y-116150000D01*
X121900000Y-114490001D02*
X121909999Y-114500000D01*
%TO.N,/S_set*%
X142900000Y-113750000D02*
X142800000Y-113650000D01*
X133675000Y-114050000D02*
X134475000Y-114850000D01*
X142800000Y-113650000D02*
X137800000Y-113650000D01*
X129690001Y-116009999D02*
X130850000Y-114850000D01*
X137800000Y-113650000D02*
X136600000Y-114850000D01*
X130850000Y-114850000D02*
X131125000Y-114850000D01*
X131125000Y-114850000D02*
X131925000Y-114050000D01*
X142900000Y-114262500D02*
X142900000Y-113750000D01*
X128200000Y-116009999D02*
X129690001Y-116009999D01*
X131925000Y-114050000D02*
X133675000Y-114050000D01*
X134475000Y-114850000D02*
X136600000Y-114850000D01*
%TO.N,/S3_sym*%
X146775000Y-113475000D02*
X145950000Y-113475000D01*
X145700000Y-113725000D02*
X145700000Y-114262500D01*
X139410624Y-115110624D02*
X138210554Y-115110624D01*
X145950000Y-113475000D02*
X145700000Y-113725000D01*
X138210554Y-115110624D02*
X138060589Y-115260589D01*
%TD*%
%TA.AperFunction,Conductor*%
%TO.N,GND*%
G36*
X120439390Y-114849730D02*
G01*
X120445652Y-114857192D01*
X120446776Y-114858316D01*
X120531684Y-114943224D01*
X120640513Y-114993972D01*
X120690099Y-115000500D01*
X121109900Y-115000499D01*
X121159487Y-114993972D01*
X121268316Y-114943224D01*
X121353224Y-114858316D01*
X121353224Y-114858315D01*
X121357802Y-114853738D01*
X121359256Y-114855192D01*
X121400079Y-114829181D01*
X121455374Y-114841436D01*
X121465260Y-114849730D01*
X121519596Y-114904066D01*
X121564337Y-114924929D01*
X121581501Y-114932933D01*
X121619764Y-114974691D01*
X121617294Y-115031274D01*
X121581501Y-115067067D01*
X121519596Y-115095934D01*
X121519595Y-115095934D01*
X121435935Y-115179594D01*
X121385931Y-115286827D01*
X121379500Y-115335684D01*
X121379500Y-115684313D01*
X121385931Y-115733170D01*
X121435935Y-115840403D01*
X121437063Y-115842014D01*
X121437404Y-115843553D01*
X121438671Y-115846270D01*
X121438068Y-115846550D01*
X121449322Y-115897309D01*
X121418891Y-115945076D01*
X121416457Y-115946710D01*
X121401953Y-115956031D01*
X121401950Y-115956034D01*
X121317119Y-116053935D01*
X121317118Y-116053936D01*
X121317118Y-116053937D01*
X121311407Y-116066443D01*
X121263302Y-116171776D01*
X121244867Y-116300000D01*
X121263302Y-116428223D01*
X121263302Y-116428224D01*
X121263303Y-116428226D01*
X121317118Y-116546063D01*
X121401951Y-116643967D01*
X121510931Y-116714004D01*
X121580725Y-116734497D01*
X121624825Y-116770035D01*
X121625717Y-116778331D01*
X121651219Y-116754963D01*
X121676529Y-116750500D01*
X121764772Y-116750500D01*
X121889069Y-116714004D01*
X121998049Y-116643967D01*
X122082882Y-116546063D01*
X122106425Y-116494510D01*
X122147875Y-116455919D01*
X122204476Y-116457940D01*
X122243070Y-116499392D01*
X122246983Y-116514722D01*
X122263302Y-116628223D01*
X122263302Y-116628224D01*
X122263303Y-116628226D01*
X122293731Y-116694853D01*
X122295752Y-116751453D01*
X122257159Y-116792906D01*
X122237089Y-116798820D01*
X122198605Y-116804427D01*
X122093517Y-116855801D01*
X122010801Y-116938517D01*
X121963936Y-117034383D01*
X121921483Y-117071873D01*
X121864955Y-117068364D01*
X121830388Y-117033157D01*
X121824064Y-117019596D01*
X121740403Y-116935935D01*
X121723871Y-116928226D01*
X121645254Y-116891566D01*
X121609642Y-116852702D01*
X121595342Y-116870448D01*
X121559877Y-116879500D01*
X121235683Y-116879500D01*
X121224317Y-116880996D01*
X121186827Y-116885931D01*
X121079594Y-116935935D01*
X120995934Y-117019595D01*
X120995934Y-117019596D01*
X120967067Y-117081501D01*
X120925309Y-117119764D01*
X120868726Y-117117294D01*
X120832933Y-117081501D01*
X120828443Y-117071873D01*
X120804066Y-117019596D01*
X120720405Y-116935935D01*
X120613174Y-116885932D01*
X120613172Y-116885931D01*
X120577179Y-116881193D01*
X120564317Y-116879500D01*
X120215685Y-116879500D01*
X120204319Y-116880996D01*
X120166829Y-116885931D01*
X120059596Y-116935935D01*
X119975936Y-117019595D01*
X119925932Y-117126828D01*
X119919501Y-117175685D01*
X119919501Y-117624314D01*
X119925932Y-117673171D01*
X119975936Y-117780404D01*
X120009578Y-117814046D01*
X120031252Y-117866372D01*
X120024566Y-117897110D01*
X120013303Y-117921774D01*
X120013302Y-117921777D01*
X119994867Y-118050000D01*
X120013302Y-118178223D01*
X120013302Y-118178224D01*
X120013303Y-118178226D01*
X120055917Y-118271536D01*
X120057938Y-118328136D01*
X120040930Y-118354602D01*
X119975936Y-118419595D01*
X119925932Y-118526828D01*
X119919501Y-118575685D01*
X119919501Y-119024314D01*
X119925932Y-119073171D01*
X119975936Y-119180404D01*
X120035735Y-119240203D01*
X120056656Y-119281997D01*
X120063302Y-119328224D01*
X120110358Y-119431261D01*
X120112379Y-119487862D01*
X120074323Y-119529067D01*
X120059596Y-119535935D01*
X119975936Y-119619595D01*
X119925932Y-119726828D01*
X119920718Y-119766440D01*
X119919501Y-119775684D01*
X119919501Y-120224316D01*
X119920579Y-120232507D01*
X119925932Y-120273171D01*
X119925933Y-120273173D01*
X119945024Y-120314115D01*
X119951204Y-120355918D01*
X119944867Y-120399999D01*
X119963302Y-120528223D01*
X119963302Y-120528224D01*
X119963303Y-120528226D01*
X120017118Y-120646063D01*
X120101951Y-120743967D01*
X120210931Y-120814004D01*
X120335228Y-120850500D01*
X120464772Y-120850500D01*
X120589069Y-120814004D01*
X120698049Y-120743967D01*
X120782882Y-120646063D01*
X120836697Y-120528226D01*
X120855122Y-120400074D01*
X120884021Y-120351368D01*
X120938899Y-120337361D01*
X120987608Y-120366261D01*
X120995434Y-120379332D01*
X120995933Y-120380403D01*
X120995934Y-120380404D01*
X121079595Y-120464065D01*
X121186826Y-120514068D01*
X121235683Y-120520500D01*
X121235685Y-120520500D01*
X121584313Y-120520500D01*
X121584315Y-120520500D01*
X121633172Y-120514068D01*
X121740403Y-120464065D01*
X121824064Y-120380404D01*
X121874067Y-120273173D01*
X121879930Y-120228632D01*
X121908248Y-120179585D01*
X121962955Y-120164925D01*
X122004628Y-120188984D01*
X122006466Y-120187147D01*
X122010802Y-120191483D01*
X122093517Y-120274198D01*
X122198607Y-120325573D01*
X122266740Y-120335500D01*
X122266746Y-120335500D01*
X123983254Y-120335500D01*
X123983260Y-120335500D01*
X124051393Y-120325573D01*
X124156483Y-120274198D01*
X124198174Y-120232507D01*
X124250500Y-120210833D01*
X124302826Y-120232507D01*
X124324500Y-120284833D01*
X124324500Y-120655167D01*
X124302826Y-120707493D01*
X124250500Y-120729167D01*
X124198174Y-120707493D01*
X124156482Y-120665801D01*
X124051394Y-120614427D01*
X123983264Y-120604500D01*
X123983260Y-120604500D01*
X122266740Y-120604500D01*
X122266735Y-120604500D01*
X122198606Y-120614427D01*
X122198605Y-120614427D01*
X122093517Y-120665801D01*
X122010802Y-120748516D01*
X121979278Y-120813001D01*
X121936825Y-120850490D01*
X121912797Y-120854500D01*
X121856692Y-120854500D01*
X121804366Y-120832826D01*
X121718316Y-120746776D01*
X121681469Y-120729594D01*
X121609487Y-120696028D01*
X121609485Y-120696027D01*
X121572955Y-120691218D01*
X121559901Y-120689500D01*
X121559899Y-120689500D01*
X121200100Y-120689500D01*
X121150514Y-120696027D01*
X121150512Y-120696028D01*
X121041683Y-120746776D01*
X120956776Y-120831683D01*
X120906027Y-120940514D01*
X120899500Y-120990100D01*
X120899500Y-121409899D01*
X120906027Y-121459485D01*
X120906028Y-121459487D01*
X120956776Y-121568316D01*
X121041684Y-121653224D01*
X121150513Y-121703972D01*
X121200099Y-121710500D01*
X121559900Y-121710499D01*
X121609487Y-121703972D01*
X121718316Y-121653224D01*
X121794366Y-121577174D01*
X121846692Y-121555500D01*
X122099516Y-121555500D01*
X122132016Y-121563019D01*
X122160971Y-121577174D01*
X122198607Y-121595573D01*
X122266740Y-121605500D01*
X122650500Y-121605500D01*
X122702826Y-121627174D01*
X122724500Y-121679500D01*
X122724500Y-122181367D01*
X122702826Y-122233693D01*
X122684096Y-122247301D01*
X122586657Y-122296949D01*
X122496951Y-122386655D01*
X122439353Y-122499697D01*
X122424500Y-122593479D01*
X122424500Y-123206518D01*
X122439353Y-123300303D01*
X122439354Y-123300305D01*
X122486027Y-123391904D01*
X122490471Y-123448367D01*
X122453689Y-123491434D01*
X122420093Y-123499500D01*
X119574500Y-123499500D01*
X119522174Y-123477826D01*
X119500500Y-123425500D01*
X119500500Y-115011318D01*
X119522174Y-114958992D01*
X119574500Y-114937318D01*
X119605770Y-114944250D01*
X119626827Y-114954069D01*
X119675684Y-114960501D01*
X119675686Y-114960501D01*
X120124314Y-114960501D01*
X120124316Y-114960501D01*
X120173173Y-114954069D01*
X120280404Y-114904066D01*
X120334739Y-114849731D01*
X120387064Y-114828056D01*
X120439390Y-114849730D01*
G37*
%TD.AperFunction*%
%TA.AperFunction,Conductor*%
G36*
X153832381Y-114955206D02*
G01*
X153915513Y-114993972D01*
X153965099Y-115000500D01*
X154384900Y-115000499D01*
X154415843Y-114996426D01*
X154470550Y-115011086D01*
X154498867Y-115060136D01*
X154499500Y-115069793D01*
X154499500Y-123425500D01*
X154477826Y-123477826D01*
X154425500Y-123499500D01*
X150474000Y-123499500D01*
X150421674Y-123477826D01*
X150400000Y-123425500D01*
X150400000Y-121300000D01*
X149330652Y-121300000D01*
X149278326Y-121278326D01*
X148156505Y-120156505D01*
X148134831Y-120104179D01*
X148156505Y-120051853D01*
X148160651Y-120048013D01*
X148400520Y-119842411D01*
X148454353Y-119824815D01*
X148498325Y-119843723D01*
X149500000Y-120750000D01*
X149500001Y-120750000D01*
X153450000Y-120750000D01*
X153450000Y-118850000D01*
X150400000Y-118850000D01*
X150400000Y-118926000D01*
X150378326Y-118978326D01*
X150326000Y-119000000D01*
X149743929Y-119000000D01*
X149691603Y-118978326D01*
X149678965Y-118961435D01*
X149397853Y-118446064D01*
X149145809Y-117983984D01*
X149139781Y-117927671D01*
X149143700Y-117917293D01*
X149193972Y-117809487D01*
X149200500Y-117759901D01*
X149200499Y-117340100D01*
X149193972Y-117290513D01*
X149182395Y-117265685D01*
X149157433Y-117212153D01*
X149150500Y-117180880D01*
X149150500Y-117062299D01*
X149172174Y-117009973D01*
X149247674Y-116934473D01*
X149300000Y-116912799D01*
X149352326Y-116934473D01*
X149427489Y-117009636D01*
X149531830Y-117060645D01*
X149599472Y-117070500D01*
X149748455Y-117070500D01*
X149800781Y-117092174D01*
X149854087Y-117145480D01*
X149923657Y-117185646D01*
X149945413Y-117198207D01*
X149945415Y-117198207D01*
X149945416Y-117198208D01*
X149995391Y-117211599D01*
X150047270Y-117225500D01*
X150047271Y-117225501D01*
X150047273Y-117225501D01*
X150157257Y-117225501D01*
X150157273Y-117225500D01*
X150357321Y-117225500D01*
X150409647Y-117247174D01*
X150418164Y-117258895D01*
X150418528Y-117258632D01*
X150421949Y-117263341D01*
X150421950Y-117263342D01*
X150511658Y-117353050D01*
X150624696Y-117410646D01*
X150718481Y-117425500D01*
X151331518Y-117425499D01*
X151331519Y-117425499D01*
X151425304Y-117410646D01*
X151425306Y-117410645D01*
X151427419Y-117409568D01*
X151538342Y-117353050D01*
X151628050Y-117263342D01*
X151639483Y-117240904D01*
X151682550Y-117204122D01*
X151705417Y-117200500D01*
X151844583Y-117200500D01*
X151896909Y-117222174D01*
X151910517Y-117240904D01*
X151917877Y-117255349D01*
X151921950Y-117263342D01*
X152011658Y-117353050D01*
X152124696Y-117410646D01*
X152218481Y-117425500D01*
X152681518Y-117425499D01*
X152681519Y-117425499D01*
X152775304Y-117410646D01*
X152775306Y-117410645D01*
X152777419Y-117409568D01*
X152888342Y-117353050D01*
X152978050Y-117263342D01*
X153035646Y-117150304D01*
X153050500Y-117056519D01*
X153050499Y-116746543D01*
X153072172Y-116694219D01*
X153470910Y-116295481D01*
X153470913Y-116295480D01*
X153545480Y-116220913D01*
X153598207Y-116129587D01*
X153603322Y-116110499D01*
X153625500Y-116027728D01*
X153625501Y-116027728D01*
X153625501Y-115934619D01*
X153647175Y-115882293D01*
X153664355Y-115865113D01*
X153689065Y-115840403D01*
X153739068Y-115733172D01*
X153745500Y-115684315D01*
X153745500Y-115335683D01*
X153739068Y-115286826D01*
X153689065Y-115179595D01*
X153606296Y-115096826D01*
X153584622Y-115044500D01*
X153606296Y-114992174D01*
X153658622Y-114970500D01*
X153714774Y-114970500D01*
X153714776Y-114970499D01*
X153780260Y-114951272D01*
X153832381Y-114955206D01*
G37*
%TD.AperFunction*%
%TA.AperFunction,Conductor*%
G36*
X144152621Y-120894397D02*
G01*
X144260931Y-120964004D01*
X144385228Y-121000500D01*
X144514772Y-121000500D01*
X144639069Y-120964004D01*
X144640042Y-120963378D01*
X144641804Y-120962247D01*
X144681810Y-120950500D01*
X144722726Y-120950500D01*
X144722727Y-120950500D01*
X144824588Y-120923207D01*
X144830589Y-120919741D01*
X144886740Y-120912345D01*
X144931676Y-120946820D01*
X144939073Y-121002972D01*
X144938472Y-121005089D01*
X144700000Y-121800000D01*
X144700000Y-122554964D01*
X144678326Y-122607290D01*
X144626000Y-122628964D01*
X144595260Y-122622277D01*
X144525715Y-122590517D01*
X144525704Y-122590513D01*
X144319776Y-122530047D01*
X144319764Y-122530045D01*
X144107322Y-122499500D01*
X144107318Y-122499500D01*
X144065892Y-122499500D01*
X142868767Y-122499500D01*
X142816441Y-122477826D01*
X142794767Y-122425500D01*
X142816440Y-122373175D01*
X142833558Y-122356058D01*
X142875500Y-122254800D01*
X142875500Y-122145200D01*
X142875500Y-121519767D01*
X142897174Y-121467441D01*
X143142442Y-121222174D01*
X143194768Y-121200500D01*
X143704798Y-121200500D01*
X143704800Y-121200500D01*
X143806058Y-121158557D01*
X143883557Y-121081058D01*
X143883556Y-121081058D01*
X143918517Y-121046097D01*
X143918516Y-121046097D01*
X144060290Y-120904324D01*
X144112615Y-120882651D01*
X144152621Y-120894397D01*
G37*
%TD.AperFunction*%
%TA.AperFunction,Conductor*%
G36*
X132452326Y-117663866D02*
G01*
X132531684Y-117743224D01*
X132640513Y-117793972D01*
X132690099Y-117800500D01*
X133109900Y-117800499D01*
X133122088Y-117798894D01*
X133176794Y-117813552D01*
X133184072Y-117819935D01*
X133464985Y-118100848D01*
X133486659Y-118153174D01*
X133482198Y-118178478D01*
X133477602Y-118191107D01*
X133477602Y-118309427D01*
X133517700Y-118419596D01*
X133518068Y-118420607D01*
X133537601Y-118446063D01*
X133545420Y-118456252D01*
X133560079Y-118510959D01*
X133531761Y-118560009D01*
X133507561Y-118572303D01*
X133460933Y-118585994D01*
X133351954Y-118656031D01*
X133351946Y-118656037D01*
X133330925Y-118680298D01*
X133280279Y-118705649D01*
X133226540Y-118687763D01*
X133219075Y-118680298D01*
X133198053Y-118656037D01*
X133198051Y-118656035D01*
X133198049Y-118656033D01*
X133131032Y-118612964D01*
X133089068Y-118585995D01*
X132964772Y-118549500D01*
X132835228Y-118549500D01*
X132710931Y-118585995D01*
X132601954Y-118656031D01*
X132601946Y-118656037D01*
X132580925Y-118680298D01*
X132530279Y-118705649D01*
X132476540Y-118687763D01*
X132469075Y-118680298D01*
X132448053Y-118656037D01*
X132448051Y-118656035D01*
X132448049Y-118656033D01*
X132381032Y-118612964D01*
X132339068Y-118585995D01*
X132214772Y-118549500D01*
X132085228Y-118549500D01*
X131960931Y-118585995D01*
X131851954Y-118656031D01*
X131851950Y-118656034D01*
X131767119Y-118753935D01*
X131713302Y-118871776D01*
X131694867Y-119000000D01*
X131713302Y-119128223D01*
X131713302Y-119128224D01*
X131713303Y-119128226D01*
X131767118Y-119246063D01*
X131851951Y-119343967D01*
X131960931Y-119414004D01*
X132085228Y-119450500D01*
X132214772Y-119450500D01*
X132339069Y-119414004D01*
X132448049Y-119343967D01*
X132469074Y-119319701D01*
X132519720Y-119294350D01*
X132573459Y-119312235D01*
X132580926Y-119319702D01*
X132601947Y-119343963D01*
X132601948Y-119343964D01*
X132601951Y-119343967D01*
X132710931Y-119414004D01*
X132835228Y-119450500D01*
X132964772Y-119450500D01*
X133089069Y-119414004D01*
X133198049Y-119343967D01*
X133219074Y-119319701D01*
X133269720Y-119294350D01*
X133323459Y-119312235D01*
X133330926Y-119319702D01*
X133351947Y-119343963D01*
X133351948Y-119343964D01*
X133351951Y-119343967D01*
X133460931Y-119414004D01*
X133585228Y-119450500D01*
X133714772Y-119450500D01*
X133839069Y-119414004D01*
X133948049Y-119343967D01*
X133969074Y-119319701D01*
X134019720Y-119294350D01*
X134073459Y-119312235D01*
X134080926Y-119319702D01*
X134101947Y-119343963D01*
X134101948Y-119343964D01*
X134101951Y-119343967D01*
X134210931Y-119414004D01*
X134335228Y-119450500D01*
X134464772Y-119450500D01*
X134589069Y-119414004D01*
X134698049Y-119343967D01*
X134719074Y-119319701D01*
X134769720Y-119294350D01*
X134823459Y-119312235D01*
X134830926Y-119319702D01*
X134851947Y-119343963D01*
X134851948Y-119343964D01*
X134851951Y-119343967D01*
X134960931Y-119414004D01*
X135085228Y-119450500D01*
X135214772Y-119450500D01*
X135339069Y-119414004D01*
X135448049Y-119343967D01*
X135469074Y-119319701D01*
X135519720Y-119294350D01*
X135573459Y-119312235D01*
X135580926Y-119319702D01*
X135601947Y-119343963D01*
X135601948Y-119343964D01*
X135601951Y-119343967D01*
X135710931Y-119414004D01*
X135835228Y-119450500D01*
X135964772Y-119450500D01*
X136089069Y-119414004D01*
X136198049Y-119343967D01*
X136282882Y-119246063D01*
X136336697Y-119128226D01*
X136355133Y-119000000D01*
X136336697Y-118871774D01*
X136282882Y-118753937D01*
X136198049Y-118656033D01*
X136131032Y-118612964D01*
X136089068Y-118585995D01*
X136036692Y-118570617D01*
X135992592Y-118535079D01*
X135987059Y-118483625D01*
X135985944Y-118483465D01*
X135986572Y-118479094D01*
X135986537Y-118478766D01*
X135986542Y-118478749D01*
X135986690Y-118478239D01*
X135986697Y-118478226D01*
X136005133Y-118350000D01*
X135986697Y-118221774D01*
X135932882Y-118103937D01*
X135932880Y-118103935D01*
X135932880Y-118103934D01*
X135932879Y-118103932D01*
X135927703Y-118097959D01*
X135909818Y-118044220D01*
X135935170Y-117993574D01*
X135983629Y-117975500D01*
X136630233Y-117975500D01*
X136682559Y-117997174D01*
X137893941Y-119208557D01*
X137893940Y-119208557D01*
X137923599Y-119220841D01*
X137923601Y-119220842D01*
X137981478Y-119244816D01*
X137995200Y-119250500D01*
X139654798Y-119250500D01*
X139654800Y-119250500D01*
X139756058Y-119208557D01*
X139833557Y-119131058D01*
X139833556Y-119131058D01*
X139848150Y-119116464D01*
X139900476Y-119094790D01*
X139952802Y-119116464D01*
X139967789Y-119138049D01*
X140017118Y-119246064D01*
X140058243Y-119293525D01*
X140101951Y-119343967D01*
X140210931Y-119414004D01*
X140335228Y-119450500D01*
X140405233Y-119450500D01*
X140457559Y-119472174D01*
X140583558Y-119598174D01*
X140605232Y-119650500D01*
X140583558Y-119702826D01*
X140531232Y-119724500D01*
X140145200Y-119724500D01*
X140043944Y-119766440D01*
X140043941Y-119766442D01*
X138582559Y-121227826D01*
X138530233Y-121249500D01*
X131223625Y-121249500D01*
X131171299Y-121227826D01*
X131149625Y-121175500D01*
X131156312Y-121144759D01*
X131163428Y-121129177D01*
X131186697Y-121078226D01*
X131205133Y-120950000D01*
X131186697Y-120821774D01*
X131132882Y-120703937D01*
X131048049Y-120606033D01*
X130960082Y-120549500D01*
X130939068Y-120535995D01*
X130814772Y-120499500D01*
X130685228Y-120499500D01*
X130560931Y-120535995D01*
X130451954Y-120606031D01*
X130451946Y-120606037D01*
X130382625Y-120686038D01*
X130331979Y-120711389D01*
X130278240Y-120693503D01*
X130274374Y-120689904D01*
X130230404Y-120645934D01*
X130208852Y-120635884D01*
X130168497Y-120617066D01*
X130130235Y-120575310D01*
X130132705Y-120518726D01*
X130168497Y-120482933D01*
X130230404Y-120454066D01*
X130314065Y-120370405D01*
X130364068Y-120263174D01*
X130370500Y-120214317D01*
X130370500Y-119865685D01*
X130364068Y-119816828D01*
X130314065Y-119709597D01*
X130230404Y-119625936D01*
X130123173Y-119575933D01*
X130123171Y-119575932D01*
X130087178Y-119571194D01*
X130074316Y-119569501D01*
X130074314Y-119569501D01*
X129738663Y-119569501D01*
X129710345Y-119563868D01*
X129699800Y-119559500D01*
X129699799Y-119559500D01*
X129274981Y-119559500D01*
X129222655Y-119537826D01*
X129208500Y-119518000D01*
X129189198Y-119478517D01*
X129106482Y-119395801D01*
X129001394Y-119344427D01*
X128933264Y-119334500D01*
X128933260Y-119334500D01*
X127216740Y-119334500D01*
X127216735Y-119334500D01*
X127148606Y-119344427D01*
X127148605Y-119344427D01*
X127043517Y-119395801D01*
X126960801Y-119478517D01*
X126909427Y-119583605D01*
X126909427Y-119583606D01*
X126899500Y-119651735D01*
X126899500Y-120018264D01*
X126909427Y-120086393D01*
X126909427Y-120086394D01*
X126960801Y-120191482D01*
X126960802Y-120191483D01*
X127043517Y-120274198D01*
X127148607Y-120325573D01*
X127216740Y-120335500D01*
X127216746Y-120335500D01*
X128933254Y-120335500D01*
X128933260Y-120335500D01*
X129001393Y-120325573D01*
X129106483Y-120274198D01*
X129189198Y-120191483D01*
X129189553Y-120190755D01*
X129189997Y-120190363D01*
X129192760Y-120186494D01*
X129193654Y-120187132D01*
X129232000Y-120153262D01*
X129288529Y-120156764D01*
X129326024Y-120199212D01*
X129329404Y-120213590D01*
X129335931Y-120263172D01*
X129359686Y-120314115D01*
X129385935Y-120370405D01*
X129469596Y-120454066D01*
X129529856Y-120482166D01*
X129531501Y-120482933D01*
X129569764Y-120524691D01*
X129567294Y-120581274D01*
X129531501Y-120617067D01*
X129469596Y-120645934D01*
X129469595Y-120645934D01*
X129385935Y-120729594D01*
X129385935Y-120729595D01*
X129350863Y-120804806D01*
X129309105Y-120843069D01*
X129252522Y-120840599D01*
X129217315Y-120806032D01*
X129189198Y-120748517D01*
X129106482Y-120665801D01*
X129001394Y-120614427D01*
X128933264Y-120604500D01*
X128933260Y-120604500D01*
X127216740Y-120604500D01*
X127216735Y-120604500D01*
X127148606Y-120614427D01*
X127148605Y-120614427D01*
X127043517Y-120665801D01*
X127043512Y-120665805D01*
X127026314Y-120683002D01*
X126973988Y-120704674D01*
X126921663Y-120682997D01*
X126918065Y-120679133D01*
X126898052Y-120656036D01*
X126898050Y-120656035D01*
X126898049Y-120656033D01*
X126831032Y-120612964D01*
X126789068Y-120585995D01*
X126664772Y-120549500D01*
X126535228Y-120549500D01*
X126410931Y-120585995D01*
X126301954Y-120656031D01*
X126301950Y-120656034D01*
X126217119Y-120753935D01*
X126217118Y-120753936D01*
X126217118Y-120753937D01*
X126173024Y-120850490D01*
X126161105Y-120876588D01*
X126159041Y-120875645D01*
X126128411Y-120913643D01*
X126072097Y-120919688D01*
X126040631Y-120901015D01*
X125797174Y-120657558D01*
X125775500Y-120605232D01*
X125775500Y-118476135D01*
X125797174Y-118423809D01*
X125849500Y-118402135D01*
X125901826Y-118423809D01*
X125914211Y-118441646D01*
X125914260Y-118441615D01*
X125915139Y-118442983D01*
X125916811Y-118445391D01*
X125917118Y-118446063D01*
X126001951Y-118543967D01*
X126110931Y-118614004D01*
X126235228Y-118650500D01*
X126364772Y-118650500D01*
X126489069Y-118614004D01*
X126598049Y-118543967D01*
X126682882Y-118446063D01*
X126736697Y-118328226D01*
X126749530Y-118238968D01*
X126778430Y-118190260D01*
X126822777Y-118175500D01*
X126858398Y-118175500D01*
X126910724Y-118197174D01*
X126932398Y-118249500D01*
X126924879Y-118281997D01*
X126909427Y-118313607D01*
X126899500Y-118381735D01*
X126899500Y-118748264D01*
X126909427Y-118816393D01*
X126909427Y-118816394D01*
X126960801Y-118921482D01*
X126960802Y-118921483D01*
X127043517Y-119004198D01*
X127148607Y-119055573D01*
X127216740Y-119065500D01*
X127216746Y-119065500D01*
X128933254Y-119065500D01*
X128933260Y-119065500D01*
X129001393Y-119055573D01*
X129106483Y-119004198D01*
X129163507Y-118947174D01*
X129215833Y-118925500D01*
X129557861Y-118925500D01*
X129567519Y-118926133D01*
X129585724Y-118928529D01*
X129600684Y-118930499D01*
X129600685Y-118930499D01*
X130049314Y-118930499D01*
X130049316Y-118930499D01*
X130098173Y-118924067D01*
X130205404Y-118874064D01*
X130205404Y-118874063D01*
X130211271Y-118871328D01*
X130212860Y-118874737D01*
X130255801Y-118865179D01*
X130303595Y-118895569D01*
X130315901Y-118950853D01*
X130310327Y-118968807D01*
X130263302Y-119071776D01*
X130244867Y-119200000D01*
X130263302Y-119328223D01*
X130263302Y-119328224D01*
X130263303Y-119328226D01*
X130317118Y-119446063D01*
X130401951Y-119543967D01*
X130510931Y-119614004D01*
X130635228Y-119650500D01*
X130764772Y-119650500D01*
X130889069Y-119614004D01*
X130998049Y-119543967D01*
X131082882Y-119446063D01*
X131136697Y-119328226D01*
X131155133Y-119200000D01*
X131136697Y-119071774D01*
X131133831Y-119065499D01*
X131105836Y-119004198D01*
X131095173Y-118980852D01*
X131093151Y-118924252D01*
X131131745Y-118882800D01*
X131152827Y-118876745D01*
X131173173Y-118874067D01*
X131280404Y-118824064D01*
X131364065Y-118740403D01*
X131414068Y-118633172D01*
X131420500Y-118584315D01*
X131420500Y-118235683D01*
X131414068Y-118186826D01*
X131364065Y-118079595D01*
X131280404Y-117995934D01*
X131218497Y-117967066D01*
X131180235Y-117925310D01*
X131182705Y-117868726D01*
X131218497Y-117832933D01*
X131280404Y-117804066D01*
X131364065Y-117720405D01*
X131365447Y-117717440D01*
X131367381Y-117715667D01*
X131367778Y-117715102D01*
X131367903Y-117715189D01*
X131407199Y-117679174D01*
X131463782Y-117681638D01*
X131484842Y-117696382D01*
X131531684Y-117743224D01*
X131640513Y-117793972D01*
X131690099Y-117800500D01*
X132109900Y-117800499D01*
X132159487Y-117793972D01*
X132268316Y-117743224D01*
X132347674Y-117663866D01*
X132400000Y-117642192D01*
X132452326Y-117663866D01*
G37*
%TD.AperFunction*%
%TA.AperFunction,Conductor*%
G36*
X145928319Y-114857521D02*
G01*
X145934881Y-114860239D01*
X145934883Y-114860240D01*
X146011599Y-114875500D01*
X146050499Y-114875499D01*
X146102825Y-114897172D01*
X146124500Y-114949497D01*
X146124500Y-114988400D01*
X146139759Y-115065117D01*
X146142480Y-115071687D01*
X146142480Y-115128316D01*
X146139760Y-115134883D01*
X146125460Y-115206776D01*
X146124500Y-115211600D01*
X146124500Y-115388400D01*
X146139759Y-115465117D01*
X146142480Y-115471687D01*
X146142480Y-115528316D01*
X146139760Y-115534883D01*
X146124500Y-115611600D01*
X146124500Y-115788400D01*
X146139759Y-115865117D01*
X146142480Y-115871687D01*
X146142480Y-115928316D01*
X146139760Y-115934883D01*
X146127052Y-115998772D01*
X146124500Y-116011600D01*
X146124500Y-116188400D01*
X146139759Y-116265117D01*
X146142480Y-116271687D01*
X146142480Y-116328316D01*
X146139760Y-116334883D01*
X146126024Y-116403940D01*
X146124500Y-116411600D01*
X146124500Y-116588400D01*
X146139759Y-116665117D01*
X146142480Y-116671687D01*
X146142480Y-116728316D01*
X146139760Y-116734883D01*
X146124500Y-116811600D01*
X146124500Y-116988400D01*
X146139759Y-117065117D01*
X146142480Y-117071687D01*
X146142480Y-117128316D01*
X146139760Y-117134883D01*
X146128453Y-117191729D01*
X146124500Y-117211600D01*
X146124500Y-117388400D01*
X146139759Y-117465117D01*
X146142480Y-117471687D01*
X146142480Y-117528316D01*
X146139760Y-117534883D01*
X146129159Y-117588180D01*
X146124500Y-117611600D01*
X146124500Y-117788400D01*
X146139759Y-117865117D01*
X146142480Y-117871687D01*
X146142480Y-117928316D01*
X146139760Y-117934883D01*
X146127370Y-117997174D01*
X146124500Y-118011600D01*
X146124500Y-118188400D01*
X146139759Y-118265117D01*
X146142480Y-118271687D01*
X146142480Y-118328316D01*
X146139760Y-118334883D01*
X146130440Y-118381740D01*
X146124500Y-118411600D01*
X146124500Y-118450500D01*
X146102826Y-118502826D01*
X146050502Y-118524500D01*
X146011599Y-118524500D01*
X145934882Y-118539759D01*
X145928310Y-118542481D01*
X145871681Y-118542479D01*
X145865118Y-118539761D01*
X145865117Y-118539760D01*
X145788401Y-118524500D01*
X145788399Y-118524500D01*
X145611599Y-118524500D01*
X145534882Y-118539759D01*
X145528310Y-118542481D01*
X145471681Y-118542479D01*
X145465118Y-118539761D01*
X145465117Y-118539760D01*
X145388401Y-118524500D01*
X145388399Y-118524500D01*
X145211599Y-118524500D01*
X145134882Y-118539759D01*
X145128310Y-118542481D01*
X145071681Y-118542479D01*
X145065118Y-118539761D01*
X145065117Y-118539760D01*
X144988401Y-118524500D01*
X144988399Y-118524500D01*
X144811599Y-118524500D01*
X144734882Y-118539759D01*
X144728310Y-118542481D01*
X144671681Y-118542479D01*
X144665118Y-118539761D01*
X144665117Y-118539760D01*
X144588401Y-118524500D01*
X144588399Y-118524500D01*
X144411599Y-118524500D01*
X144334882Y-118539759D01*
X144328310Y-118542481D01*
X144271681Y-118542479D01*
X144265118Y-118539761D01*
X144265117Y-118539760D01*
X144188401Y-118524500D01*
X144188399Y-118524500D01*
X144011599Y-118524500D01*
X143934882Y-118539759D01*
X143928310Y-118542481D01*
X143871681Y-118542479D01*
X143865118Y-118539761D01*
X143865117Y-118539760D01*
X143788401Y-118524500D01*
X143788399Y-118524500D01*
X143611599Y-118524500D01*
X143534882Y-118539759D01*
X143528310Y-118542481D01*
X143471681Y-118542479D01*
X143465118Y-118539761D01*
X143465117Y-118539760D01*
X143388401Y-118524500D01*
X143388399Y-118524500D01*
X143211599Y-118524500D01*
X143134882Y-118539759D01*
X143128310Y-118542481D01*
X143071681Y-118542479D01*
X143065118Y-118539761D01*
X143065117Y-118539760D01*
X142988401Y-118524500D01*
X142988399Y-118524500D01*
X142811599Y-118524500D01*
X142734882Y-118539759D01*
X142728310Y-118542481D01*
X142671681Y-118542479D01*
X142665118Y-118539761D01*
X142665117Y-118539760D01*
X142588401Y-118524500D01*
X142588399Y-118524500D01*
X142549499Y-118524500D01*
X142497173Y-118502826D01*
X142475499Y-118450500D01*
X142475499Y-118411601D01*
X142473616Y-118402135D01*
X142460240Y-118334883D01*
X142460237Y-118334879D01*
X142457521Y-118328320D01*
X142457519Y-118271683D01*
X142457521Y-118271678D01*
X142460235Y-118265123D01*
X142460240Y-118265117D01*
X142475500Y-118188401D01*
X142475499Y-118011600D01*
X142460240Y-117934883D01*
X142460237Y-117934879D01*
X142457521Y-117928320D01*
X142457519Y-117871683D01*
X142457521Y-117871678D01*
X142460235Y-117865123D01*
X142460240Y-117865117D01*
X142475500Y-117788401D01*
X142475499Y-117611600D01*
X142460240Y-117534883D01*
X142460237Y-117534879D01*
X142457521Y-117528320D01*
X142457519Y-117471683D01*
X142457521Y-117471678D01*
X142460235Y-117465123D01*
X142460240Y-117465117D01*
X142475500Y-117388401D01*
X142475499Y-117211600D01*
X142460240Y-117134883D01*
X142460237Y-117134879D01*
X142457521Y-117128320D01*
X142457519Y-117071683D01*
X142457521Y-117071678D01*
X142460235Y-117065123D01*
X142460240Y-117065117D01*
X142475500Y-116988401D01*
X142475499Y-116811600D01*
X142460240Y-116734883D01*
X142460237Y-116734879D01*
X142457521Y-116728320D01*
X142457519Y-116671683D01*
X142457521Y-116671678D01*
X142460235Y-116665123D01*
X142460240Y-116665117D01*
X142475500Y-116588401D01*
X142475499Y-116411600D01*
X142460240Y-116334883D01*
X142460237Y-116334879D01*
X142457521Y-116328320D01*
X142457519Y-116271683D01*
X142457521Y-116271678D01*
X142460235Y-116265123D01*
X142460240Y-116265117D01*
X142475500Y-116188401D01*
X142475499Y-116011600D01*
X142460240Y-115934883D01*
X142460237Y-115934879D01*
X142457521Y-115928320D01*
X142457519Y-115871683D01*
X142457521Y-115871678D01*
X142460235Y-115865123D01*
X142460240Y-115865117D01*
X142475500Y-115788401D01*
X142475499Y-115611600D01*
X142460240Y-115534883D01*
X142460237Y-115534879D01*
X142457521Y-115528320D01*
X142457519Y-115471683D01*
X142457521Y-115471678D01*
X142460235Y-115465123D01*
X142460240Y-115465117D01*
X142475500Y-115388401D01*
X142475499Y-115211600D01*
X142460240Y-115134883D01*
X142460237Y-115134879D01*
X142457521Y-115128320D01*
X142457519Y-115071683D01*
X142457521Y-115071678D01*
X142460235Y-115065123D01*
X142460240Y-115065117D01*
X142475500Y-114988401D01*
X142475500Y-114949499D01*
X142497174Y-114897173D01*
X142549500Y-114875499D01*
X142588399Y-114875499D01*
X142588400Y-114875499D01*
X142665117Y-114860240D01*
X142665126Y-114860233D01*
X142671677Y-114857521D01*
X142728314Y-114857518D01*
X142728319Y-114857521D01*
X142734881Y-114860239D01*
X142734883Y-114860240D01*
X142811599Y-114875500D01*
X142988400Y-114875499D01*
X143065117Y-114860240D01*
X143065126Y-114860233D01*
X143071677Y-114857521D01*
X143128314Y-114857518D01*
X143128319Y-114857521D01*
X143134881Y-114860239D01*
X143134883Y-114860240D01*
X143211599Y-114875500D01*
X143388400Y-114875499D01*
X143465117Y-114860240D01*
X143465126Y-114860233D01*
X143471677Y-114857521D01*
X143528314Y-114857518D01*
X143528319Y-114857521D01*
X143534881Y-114860239D01*
X143534883Y-114860240D01*
X143611599Y-114875500D01*
X143788400Y-114875499D01*
X143865117Y-114860240D01*
X143865126Y-114860233D01*
X143871677Y-114857521D01*
X143928314Y-114857518D01*
X143928319Y-114857521D01*
X143934881Y-114860239D01*
X143934883Y-114860240D01*
X144011599Y-114875500D01*
X144188400Y-114875499D01*
X144265117Y-114860240D01*
X144265126Y-114860233D01*
X144271677Y-114857521D01*
X144328314Y-114857518D01*
X144328319Y-114857521D01*
X144334881Y-114860239D01*
X144334883Y-114860240D01*
X144411599Y-114875500D01*
X144588400Y-114875499D01*
X144665117Y-114860240D01*
X144665126Y-114860233D01*
X144671677Y-114857521D01*
X144728314Y-114857518D01*
X144728319Y-114857521D01*
X144734881Y-114860239D01*
X144734883Y-114860240D01*
X144811599Y-114875500D01*
X144988400Y-114875499D01*
X145065117Y-114860240D01*
X145065126Y-114860233D01*
X145071677Y-114857521D01*
X145128314Y-114857518D01*
X145128319Y-114857521D01*
X145134881Y-114860239D01*
X145134883Y-114860240D01*
X145211599Y-114875500D01*
X145388400Y-114875499D01*
X145465117Y-114860240D01*
X145465126Y-114860233D01*
X145471677Y-114857521D01*
X145528314Y-114857518D01*
X145528319Y-114857521D01*
X145534881Y-114860239D01*
X145534883Y-114860240D01*
X145611599Y-114875500D01*
X145788400Y-114875499D01*
X145865117Y-114860240D01*
X145865126Y-114860233D01*
X145871677Y-114857521D01*
X145928314Y-114857518D01*
X145928319Y-114857521D01*
G37*
%TD.AperFunction*%
%TA.AperFunction,Conductor*%
G36*
X128768790Y-116340330D02*
G01*
X128831684Y-116403224D01*
X128940513Y-116453972D01*
X128990099Y-116460500D01*
X129235391Y-116460499D01*
X129287717Y-116482173D01*
X129309391Y-116534499D01*
X129302704Y-116565239D01*
X129288302Y-116596774D01*
X129269867Y-116725000D01*
X129288302Y-116853223D01*
X129288302Y-116853224D01*
X129288303Y-116853226D01*
X129318570Y-116919501D01*
X129342118Y-116971063D01*
X129342119Y-116971064D01*
X129370049Y-117003299D01*
X129387933Y-117057038D01*
X129366450Y-117104080D01*
X129360938Y-117109591D01*
X129360935Y-117109596D01*
X129310931Y-117216829D01*
X129306937Y-117247174D01*
X129304809Y-117263342D01*
X129304500Y-117265686D01*
X129304500Y-117550500D01*
X129282826Y-117602826D01*
X129230500Y-117624500D01*
X126545200Y-117624500D01*
X126482434Y-117650499D01*
X126482433Y-117650499D01*
X126443943Y-117666441D01*
X126382558Y-117727826D01*
X126330232Y-117749500D01*
X126235228Y-117749500D01*
X126110931Y-117785995D01*
X126001954Y-117856031D01*
X126001950Y-117856034D01*
X125917118Y-117953936D01*
X125917117Y-117953937D01*
X125916811Y-117954609D01*
X125916500Y-117954897D01*
X125914260Y-117958385D01*
X125913369Y-117957812D01*
X125875356Y-117993200D01*
X125818755Y-117991175D01*
X125780164Y-117949720D01*
X125775500Y-117923864D01*
X125775500Y-117794767D01*
X125797174Y-117742441D01*
X127037443Y-116502173D01*
X127089769Y-116480499D01*
X127424314Y-116480499D01*
X127424316Y-116480499D01*
X127473173Y-116474067D01*
X127580404Y-116424064D01*
X127647674Y-116356794D01*
X127700000Y-116335120D01*
X127752326Y-116356794D01*
X127819596Y-116424064D01*
X127926827Y-116474067D01*
X127975684Y-116480499D01*
X127975686Y-116480499D01*
X128424314Y-116480499D01*
X128424316Y-116480499D01*
X128473173Y-116474067D01*
X128580404Y-116424064D01*
X128664065Y-116340403D01*
X128664065Y-116340402D01*
X128664138Y-116340330D01*
X128716464Y-116318656D01*
X128768790Y-116340330D01*
G37*
%TD.AperFunction*%
%TA.AperFunction,Conductor*%
G36*
X137522043Y-115406182D02*
G01*
X137530059Y-115421995D01*
X137541954Y-115454677D01*
X137541958Y-115454685D01*
X137572401Y-115494357D01*
X137826819Y-115748774D01*
X137826827Y-115748781D01*
X137866495Y-115779220D01*
X137866502Y-115779225D01*
X137979334Y-115820291D01*
X137979335Y-115820292D01*
X137979337Y-115820292D01*
X138099417Y-115820292D01*
X138099417Y-115820291D01*
X138212253Y-115779223D01*
X138215958Y-115776380D01*
X138261005Y-115761089D01*
X138275361Y-115761089D01*
X138399658Y-115724593D01*
X138508638Y-115654556D01*
X138593471Y-115556652D01*
X138647286Y-115438815D01*
X138647286Y-115438813D01*
X138649484Y-115434001D01*
X138650885Y-115434640D01*
X138682689Y-115395176D01*
X138718153Y-115386124D01*
X138919374Y-115386124D01*
X138971700Y-115407798D01*
X139165835Y-115601933D01*
X139187776Y-115618769D01*
X139195244Y-115624500D01*
X139204930Y-115631932D01*
X139217849Y-115636634D01*
X139316109Y-115672398D01*
X139316111Y-115672398D01*
X139434428Y-115672398D01*
X139506235Y-115646262D01*
X139545607Y-115631932D01*
X139584702Y-115601933D01*
X139722620Y-115464014D01*
X139774945Y-115442341D01*
X139827271Y-115464015D01*
X139848945Y-115516341D01*
X139848192Y-115526871D01*
X139846377Y-115539499D01*
X139844867Y-115550000D01*
X139846414Y-115560759D01*
X139863302Y-115678223D01*
X139863302Y-115678224D01*
X139863303Y-115678226D01*
X139917118Y-115796063D01*
X140001951Y-115893967D01*
X140110931Y-115964004D01*
X140235228Y-116000500D01*
X140277223Y-116000500D01*
X140329549Y-116022174D01*
X140350469Y-116063968D01*
X140360779Y-116135668D01*
X140361397Y-116139969D01*
X140347390Y-116194847D01*
X140298681Y-116223747D01*
X140288150Y-116224500D01*
X140187832Y-116224500D01*
X140135506Y-116202826D01*
X140131906Y-116198959D01*
X140073052Y-116131036D01*
X140073050Y-116131035D01*
X140073049Y-116131033D01*
X139985225Y-116074592D01*
X139964068Y-116060995D01*
X139839772Y-116024500D01*
X139710228Y-116024500D01*
X139585931Y-116060995D01*
X139476954Y-116131031D01*
X139476950Y-116131034D01*
X139392118Y-116228936D01*
X139392117Y-116228938D01*
X139349235Y-116322834D01*
X139307782Y-116361427D01*
X139261076Y-116363095D01*
X139214772Y-116349500D01*
X139085228Y-116349500D01*
X138960931Y-116385995D01*
X138851954Y-116456031D01*
X138851950Y-116456034D01*
X138767119Y-116553935D01*
X138767118Y-116553936D01*
X138767118Y-116553937D01*
X138751380Y-116588399D01*
X138713302Y-116671776D01*
X138694867Y-116800000D01*
X138713302Y-116928222D01*
X138713304Y-116928228D01*
X138718033Y-116938585D01*
X138720052Y-116995186D01*
X138699524Y-117024946D01*
X138698080Y-117026212D01*
X138401226Y-117323067D01*
X138401224Y-117323069D01*
X138370777Y-117362747D01*
X138370774Y-117362750D01*
X138329708Y-117475582D01*
X138329708Y-117595663D01*
X138331119Y-117599540D01*
X138328649Y-117656123D01*
X138286892Y-117694387D01*
X138261582Y-117698850D01*
X138186819Y-117698850D01*
X138122634Y-117722211D01*
X138066051Y-117719741D01*
X138027788Y-117677983D01*
X138027788Y-117627365D01*
X138047934Y-117572014D01*
X138051150Y-117563179D01*
X138051150Y-117444861D01*
X138017733Y-117353049D01*
X138010684Y-117333682D01*
X137980685Y-117294587D01*
X137734165Y-117048067D01*
X137705699Y-117026224D01*
X137695072Y-117018069D01*
X137695068Y-117018067D01*
X137687410Y-117015280D01*
X137645653Y-116977017D01*
X137643183Y-116920433D01*
X137660392Y-116893419D01*
X137677400Y-116876412D01*
X137715000Y-116816573D01*
X137768434Y-116731534D01*
X137768434Y-116731532D01*
X137769560Y-116728316D01*
X137824946Y-116570029D01*
X137844104Y-116400000D01*
X137824946Y-116229971D01*
X137808970Y-116184315D01*
X137768434Y-116068467D01*
X137768434Y-116068465D01*
X137677403Y-115923592D01*
X137677401Y-115923590D01*
X137677400Y-115923588D01*
X137556411Y-115802599D01*
X137556408Y-115802597D01*
X137556406Y-115802595D01*
X137411533Y-115711565D01*
X137294399Y-115670578D01*
X137252168Y-115632838D01*
X137248993Y-115576290D01*
X137277728Y-115539202D01*
X137278228Y-115538867D01*
X137278231Y-115538867D01*
X137344552Y-115494552D01*
X137388867Y-115428231D01*
X137388867Y-115428228D01*
X137391655Y-115421500D01*
X137394700Y-115422761D01*
X137419399Y-115385784D01*
X137474946Y-115374724D01*
X137522043Y-115406182D01*
G37*
%TD.AperFunction*%
%TA.AperFunction,Conductor*%
G36*
X131812028Y-115538464D02*
G01*
X131824500Y-115579577D01*
X131824500Y-115604461D01*
X131802826Y-115656787D01*
X131774941Y-115674308D01*
X131668465Y-115711565D01*
X131523592Y-115802595D01*
X131402595Y-115923592D01*
X131311564Y-116068465D01*
X131311564Y-116068467D01*
X131255056Y-116229959D01*
X131255053Y-116229970D01*
X131235895Y-116400000D01*
X131255053Y-116570029D01*
X131255056Y-116570040D01*
X131311564Y-116731532D01*
X131311564Y-116731534D01*
X131402595Y-116876407D01*
X131402596Y-116876408D01*
X131402599Y-116876412D01*
X131429566Y-116903379D01*
X131451240Y-116955704D01*
X131444304Y-116986983D01*
X131440355Y-116995450D01*
X131398595Y-117033710D01*
X131342012Y-117031235D01*
X131320965Y-117016497D01*
X131280404Y-116975936D01*
X131255054Y-116964115D01*
X131173173Y-116925933D01*
X131173171Y-116925932D01*
X131131395Y-116920433D01*
X131124316Y-116919501D01*
X130675684Y-116919501D01*
X130668605Y-116920433D01*
X130626828Y-116925932D01*
X130519595Y-116975936D01*
X130435935Y-117059596D01*
X130435932Y-117059601D01*
X130417396Y-117099351D01*
X130375639Y-117137615D01*
X130319056Y-117135143D01*
X130293836Y-117113981D01*
X130293643Y-117114175D01*
X130291434Y-117111966D01*
X130289713Y-117110522D01*
X130289065Y-117109597D01*
X130205404Y-117025936D01*
X130170880Y-117009837D01*
X130132617Y-116968079D01*
X130134841Y-116912029D01*
X130161697Y-116853226D01*
X130180133Y-116725000D01*
X130161697Y-116596774D01*
X130107882Y-116478937D01*
X130023049Y-116381033D01*
X129914069Y-116310996D01*
X129914068Y-116310995D01*
X129909617Y-116308135D01*
X129911274Y-116305556D01*
X129879430Y-116271329D01*
X129881471Y-116214729D01*
X129896448Y-116193167D01*
X129958517Y-116131098D01*
X129958518Y-116131095D01*
X130517442Y-115572174D01*
X130569768Y-115550500D01*
X131619746Y-115550500D01*
X131619748Y-115550500D01*
X131678231Y-115538867D01*
X131709387Y-115518049D01*
X131764935Y-115506999D01*
X131812028Y-115538464D01*
G37*
%TD.AperFunction*%
%TA.AperFunction,Conductor*%
G36*
X127115360Y-112522174D02*
G01*
X127137034Y-112574500D01*
X127118959Y-112622960D01*
X127092121Y-112653932D01*
X127092119Y-112653934D01*
X127038302Y-112771776D01*
X127019867Y-112900000D01*
X127038302Y-113028223D01*
X127038302Y-113028224D01*
X127038303Y-113028226D01*
X127092118Y-113146063D01*
X127176951Y-113243967D01*
X127285931Y-113314004D01*
X127410228Y-113350500D01*
X127525499Y-113350500D01*
X127577825Y-113372174D01*
X127599499Y-113424500D01*
X127599499Y-113460140D01*
X127577825Y-113512466D01*
X127525499Y-113534140D01*
X127511063Y-113532718D01*
X127474775Y-113525500D01*
X127469748Y-113524500D01*
X126830252Y-113524500D01*
X126801010Y-113530316D01*
X126771767Y-113536133D01*
X126741112Y-113556617D01*
X126685564Y-113567666D01*
X126658888Y-113556617D01*
X126628231Y-113536133D01*
X126628233Y-113536133D01*
X126598989Y-113530316D01*
X126569748Y-113524500D01*
X125930252Y-113524500D01*
X125888937Y-113532718D01*
X125833389Y-113521669D01*
X125801923Y-113474576D01*
X125800501Y-113460140D01*
X125800501Y-113205253D01*
X125799319Y-113199311D01*
X125788868Y-113146769D01*
X125788396Y-113146063D01*
X125761649Y-113106034D01*
X125744553Y-113080448D01*
X125715440Y-113060995D01*
X125678233Y-113036133D01*
X125678234Y-113036133D01*
X125648990Y-113030316D01*
X125619749Y-113024500D01*
X124980253Y-113024500D01*
X124951011Y-113030316D01*
X124921768Y-113036133D01*
X124855450Y-113080447D01*
X124855448Y-113080449D01*
X124811134Y-113146767D01*
X124804956Y-113177826D01*
X124799501Y-113205252D01*
X124799501Y-114144748D01*
X124804736Y-114171064D01*
X124811134Y-114203232D01*
X124840609Y-114247343D01*
X124855449Y-114269552D01*
X124891613Y-114293716D01*
X124923078Y-114340808D01*
X124924500Y-114355244D01*
X124924500Y-114479874D01*
X124902826Y-114532200D01*
X124881774Y-114546941D01*
X124819597Y-114575935D01*
X124819596Y-114575935D01*
X124735935Y-114659596D01*
X124685931Y-114766829D01*
X124679500Y-114815686D01*
X124679500Y-115164315D01*
X124685931Y-115213172D01*
X124685932Y-115213174D01*
X124735935Y-115320405D01*
X124819596Y-115404066D01*
X124871418Y-115428231D01*
X124881501Y-115432933D01*
X124919764Y-115474691D01*
X124917294Y-115531274D01*
X124881501Y-115567067D01*
X124819596Y-115595934D01*
X124819595Y-115595934D01*
X124735935Y-115679594D01*
X124685931Y-115786827D01*
X124683855Y-115802599D01*
X124679500Y-115835683D01*
X124679500Y-116184315D01*
X124680887Y-116194847D01*
X124685931Y-116233170D01*
X124735935Y-116340403D01*
X124800632Y-116405100D01*
X124822306Y-116457426D01*
X124800632Y-116509752D01*
X124777326Y-116533058D01*
X124725000Y-116554732D01*
X124672674Y-116533058D01*
X124520647Y-116381031D01*
X124056058Y-115916443D01*
X124056056Y-115916442D01*
X124051015Y-115914353D01*
X124051015Y-115914354D01*
X123954800Y-115874500D01*
X123954799Y-115874500D01*
X123494768Y-115874500D01*
X123442442Y-115852826D01*
X122897174Y-115307558D01*
X122875500Y-115255232D01*
X122875500Y-114897300D01*
X122895577Y-114848827D01*
X122894583Y-114847966D01*
X122897172Y-114844977D01*
X122897174Y-114844974D01*
X122897182Y-114844966D01*
X122898045Y-114843968D01*
X122898049Y-114843967D01*
X122982882Y-114746063D01*
X123036697Y-114628226D01*
X123055133Y-114500000D01*
X123036697Y-114371774D01*
X122982882Y-114253937D01*
X122934810Y-114198458D01*
X122916926Y-114144721D01*
X122934810Y-114101541D01*
X122982882Y-114046063D01*
X123036697Y-113928226D01*
X123055133Y-113800000D01*
X123036697Y-113671774D01*
X122982882Y-113553937D01*
X122898049Y-113456033D01*
X122817725Y-113404412D01*
X122789068Y-113385995D01*
X122664772Y-113349500D01*
X122535228Y-113349500D01*
X122410931Y-113385995D01*
X122301954Y-113456031D01*
X122301947Y-113456036D01*
X122264756Y-113498959D01*
X122214110Y-113524311D01*
X122208830Y-113524500D01*
X121919768Y-113524500D01*
X121867442Y-113502826D01*
X121722174Y-113357558D01*
X121700500Y-113305232D01*
X121700500Y-112905253D01*
X121692513Y-112865100D01*
X121688867Y-112846769D01*
X121644552Y-112780448D01*
X121622343Y-112765608D01*
X121578232Y-112736133D01*
X121578233Y-112736133D01*
X121548989Y-112730316D01*
X121519748Y-112724500D01*
X120880252Y-112724500D01*
X120851010Y-112730316D01*
X120821767Y-112736133D01*
X120755449Y-112780447D01*
X120755447Y-112780449D01*
X120711133Y-112846767D01*
X120699500Y-112905253D01*
X120699500Y-113000500D01*
X120677826Y-113052826D01*
X120625500Y-113074500D01*
X120374500Y-113074500D01*
X120322174Y-113052826D01*
X120300500Y-113000500D01*
X120300500Y-112905253D01*
X120292513Y-112865100D01*
X120288867Y-112846769D01*
X120244552Y-112780448D01*
X120222343Y-112765608D01*
X120178232Y-112736133D01*
X120178233Y-112736133D01*
X120148989Y-112730316D01*
X120119748Y-112724500D01*
X120119746Y-112724500D01*
X119574500Y-112724500D01*
X119522174Y-112702826D01*
X119500500Y-112650500D01*
X119500500Y-112574500D01*
X119522174Y-112522174D01*
X119574500Y-112500500D01*
X127063034Y-112500500D01*
X127115360Y-112522174D01*
G37*
%TD.AperFunction*%
%TA.AperFunction,Conductor*%
G36*
X151711825Y-113015243D02*
G01*
X151715425Y-113019109D01*
X151717117Y-113021062D01*
X151717118Y-113021063D01*
X151801951Y-113118967D01*
X151910931Y-113189004D01*
X152035228Y-113225500D01*
X152164775Y-113225500D01*
X152164775Y-113225499D01*
X152204652Y-113213791D01*
X152260964Y-113219845D01*
X152296502Y-113263945D01*
X152299500Y-113284793D01*
X152299500Y-113305232D01*
X152277826Y-113357558D01*
X152068942Y-113566443D01*
X151991442Y-113643943D01*
X151949500Y-113745200D01*
X151949500Y-113954874D01*
X151927826Y-114007200D01*
X151906774Y-114021941D01*
X151844597Y-114050935D01*
X151844596Y-114050935D01*
X151760935Y-114134596D01*
X151710931Y-114241829D01*
X151704500Y-114290686D01*
X151704500Y-114639315D01*
X151710931Y-114688172D01*
X151710932Y-114688174D01*
X151760935Y-114795405D01*
X151844596Y-114879066D01*
X151951827Y-114929069D01*
X152000684Y-114935501D01*
X152000686Y-114935501D01*
X152449314Y-114935501D01*
X152449316Y-114935501D01*
X152498173Y-114929069D01*
X152605404Y-114879066D01*
X152660174Y-114824296D01*
X152712500Y-114802622D01*
X152764826Y-114824296D01*
X152844596Y-114904066D01*
X152889337Y-114924929D01*
X152906501Y-114932933D01*
X152944764Y-114974691D01*
X152942294Y-115031274D01*
X152906501Y-115067067D01*
X152844596Y-115095934D01*
X152844595Y-115095934D01*
X152760935Y-115179594D01*
X152710931Y-115286827D01*
X152704500Y-115335684D01*
X152704500Y-115684313D01*
X152710931Y-115733170D01*
X152710932Y-115733172D01*
X152749298Y-115815449D01*
X152751768Y-115872032D01*
X152734557Y-115899048D01*
X152580780Y-116052826D01*
X152528454Y-116074500D01*
X152218480Y-116074500D01*
X152124695Y-116089353D01*
X152124693Y-116089354D01*
X152011657Y-116146950D01*
X151921950Y-116236657D01*
X151885041Y-116309095D01*
X151841974Y-116345877D01*
X151819107Y-116349499D01*
X151797271Y-116349499D01*
X151695416Y-116376791D01*
X151690930Y-116378650D01*
X151690396Y-116377361D01*
X151639461Y-116384058D01*
X151606302Y-116364910D01*
X151538342Y-116296950D01*
X151425304Y-116239354D01*
X151425302Y-116239353D01*
X151425301Y-116239353D01*
X151331519Y-116224500D01*
X150718480Y-116224500D01*
X150624695Y-116239353D01*
X150624693Y-116239354D01*
X150511657Y-116296950D01*
X150421949Y-116386658D01*
X150418528Y-116391368D01*
X150416483Y-116389882D01*
X150380178Y-116420881D01*
X150357321Y-116424500D01*
X150349500Y-116424500D01*
X150297174Y-116402826D01*
X150275500Y-116350500D01*
X150275500Y-116344478D01*
X150275500Y-116344472D01*
X150265645Y-116276830D01*
X150263126Y-116271678D01*
X150255684Y-116256455D01*
X150252173Y-116199927D01*
X150254844Y-116193230D01*
X150261697Y-116178226D01*
X150280133Y-116050000D01*
X150267951Y-115965279D01*
X150274131Y-115923478D01*
X150303972Y-115859487D01*
X150310500Y-115809901D01*
X150310499Y-115450100D01*
X150303972Y-115400513D01*
X150253224Y-115291684D01*
X150168316Y-115206776D01*
X150059487Y-115156028D01*
X150059485Y-115156027D01*
X150022955Y-115151218D01*
X150009901Y-115149500D01*
X150009899Y-115149500D01*
X149739767Y-115149500D01*
X149687441Y-115127826D01*
X149451057Y-114891442D01*
X149448780Y-114890499D01*
X149448780Y-114890498D01*
X149349800Y-114849500D01*
X148619768Y-114849500D01*
X148567442Y-114827826D01*
X148429441Y-114689825D01*
X148407767Y-114637499D01*
X148429440Y-114585174D01*
X148496057Y-114518558D01*
X148496056Y-114518558D01*
X148842442Y-114172174D01*
X148894768Y-114150500D01*
X149408830Y-114150500D01*
X149461156Y-114172174D01*
X149464756Y-114176041D01*
X149501947Y-114218963D01*
X149501948Y-114218964D01*
X149501951Y-114218967D01*
X149610931Y-114289004D01*
X149735228Y-114325500D01*
X149864772Y-114325500D01*
X149989069Y-114289004D01*
X150098049Y-114218967D01*
X150182882Y-114121063D01*
X150236697Y-114003226D01*
X150255133Y-113875000D01*
X150236697Y-113746774D01*
X150182882Y-113628937D01*
X150167374Y-113611039D01*
X150148055Y-113588744D01*
X150130170Y-113535005D01*
X150151658Y-113487956D01*
X150168515Y-113471100D01*
X150168516Y-113471098D01*
X150233694Y-113405920D01*
X150247443Y-113392173D01*
X150299768Y-113370500D01*
X150578308Y-113370500D01*
X150630634Y-113392174D01*
X150706684Y-113468224D01*
X150815513Y-113518972D01*
X150865099Y-113525500D01*
X151284900Y-113525499D01*
X151334487Y-113518972D01*
X151443316Y-113468224D01*
X151528224Y-113383316D01*
X151578972Y-113274487D01*
X151585500Y-113224901D01*
X151585499Y-113067567D01*
X151607173Y-113015243D01*
X151659499Y-112993569D01*
X151711825Y-113015243D01*
G37*
%TD.AperFunction*%
%TA.AperFunction,Conductor*%
G36*
X137872072Y-112522174D02*
G01*
X137893746Y-112574500D01*
X137872072Y-112626826D01*
X137859753Y-112636753D01*
X137751954Y-112706031D01*
X137751950Y-112706034D01*
X137667119Y-112803935D01*
X137613302Y-112921776D01*
X137594867Y-113050000D01*
X137613302Y-113178223D01*
X137613302Y-113178224D01*
X137613303Y-113178226D01*
X137657727Y-113275500D01*
X137667118Y-113296063D01*
X137670553Y-113300027D01*
X137688440Y-113353765D01*
X137663088Y-113404412D01*
X137647946Y-113413766D01*
X137643940Y-113416443D01*
X136932559Y-114127826D01*
X136880233Y-114149500D01*
X135980252Y-114149500D01*
X135951010Y-114155316D01*
X135921767Y-114161133D01*
X135855449Y-114205447D01*
X135855447Y-114205449D01*
X135811133Y-114271767D01*
X135799500Y-114330253D01*
X135799500Y-114500500D01*
X135777826Y-114552826D01*
X135725500Y-114574500D01*
X134619767Y-114574500D01*
X134567441Y-114552826D01*
X133831059Y-113816444D01*
X133831058Y-113816443D01*
X133827294Y-113814884D01*
X133805989Y-113806059D01*
X133729800Y-113774500D01*
X131979800Y-113774500D01*
X131870200Y-113774500D01*
X131829927Y-113791182D01*
X131768943Y-113816442D01*
X131457559Y-114127826D01*
X131405233Y-114149500D01*
X130380252Y-114149500D01*
X130351010Y-114155316D01*
X130321767Y-114161133D01*
X130255449Y-114205447D01*
X130255447Y-114205449D01*
X130211133Y-114271767D01*
X130199500Y-114330253D01*
X130199500Y-115080231D01*
X130177826Y-115132557D01*
X129713287Y-115597095D01*
X129660961Y-115618769D01*
X129608635Y-115597095D01*
X129568316Y-115556776D01*
X129542563Y-115544767D01*
X129459487Y-115506028D01*
X129459485Y-115506027D01*
X129422955Y-115501218D01*
X129409901Y-115499500D01*
X129409899Y-115499500D01*
X128990100Y-115499500D01*
X128940514Y-115506027D01*
X128940512Y-115506028D01*
X128831683Y-115556776D01*
X128742198Y-115646262D01*
X128740747Y-115644811D01*
X128699899Y-115670822D01*
X128644607Y-115658551D01*
X128634739Y-115650269D01*
X128580404Y-115595934D01*
X128518497Y-115567066D01*
X128480235Y-115525310D01*
X128482705Y-115468726D01*
X128518497Y-115432933D01*
X128580404Y-115404066D01*
X128664065Y-115320405D01*
X128714068Y-115213174D01*
X128720500Y-115164317D01*
X128720500Y-114815685D01*
X128714068Y-114766828D01*
X128664065Y-114659597D01*
X128580404Y-114575936D01*
X128580403Y-114575935D01*
X128518226Y-114546941D01*
X128479963Y-114505183D01*
X128475500Y-114479874D01*
X128475500Y-114427452D01*
X128497174Y-114375126D01*
X128549500Y-114353452D01*
X128570347Y-114356449D01*
X128590910Y-114362487D01*
X128635226Y-114375500D01*
X128635228Y-114375500D01*
X128764772Y-114375500D01*
X128889069Y-114339004D01*
X128998049Y-114268967D01*
X129082882Y-114171063D01*
X129136697Y-114053226D01*
X129155133Y-113925000D01*
X129136697Y-113796774D01*
X129135769Y-113794743D01*
X129088633Y-113691530D01*
X129086610Y-113634929D01*
X129115939Y-113598535D01*
X129123049Y-113593967D01*
X129123049Y-113593965D01*
X129126542Y-113591722D01*
X129182280Y-113581669D01*
X129228801Y-113613973D01*
X129233856Y-113623231D01*
X129267118Y-113696063D01*
X129351951Y-113793967D01*
X129460931Y-113864004D01*
X129585228Y-113900500D01*
X129714772Y-113900500D01*
X129839069Y-113864004D01*
X129948049Y-113793967D01*
X130032882Y-113696063D01*
X130086697Y-113578226D01*
X130105133Y-113450000D01*
X130086697Y-113321774D01*
X130032882Y-113203937D01*
X129948049Y-113106033D01*
X129860860Y-113050000D01*
X129839068Y-113035995D01*
X129714772Y-112999500D01*
X129585228Y-112999500D01*
X129460931Y-113035995D01*
X129348460Y-113108276D01*
X129292723Y-113118332D01*
X129246200Y-113086030D01*
X129241145Y-113076773D01*
X129207882Y-113003937D01*
X129123049Y-112906033D01*
X129030829Y-112846767D01*
X129014068Y-112835995D01*
X128889772Y-112799500D01*
X128760228Y-112799500D01*
X128635931Y-112835995D01*
X128526954Y-112906031D01*
X128526947Y-112906036D01*
X128446431Y-112998959D01*
X128395784Y-113024311D01*
X128390505Y-113024500D01*
X127997633Y-113024500D01*
X127945307Y-113002826D01*
X127923633Y-112950500D01*
X127924386Y-112939969D01*
X127930133Y-112900000D01*
X127911697Y-112771774D01*
X127857882Y-112653937D01*
X127857880Y-112653935D01*
X127857880Y-112653934D01*
X127857878Y-112653932D01*
X127831041Y-112622960D01*
X127813155Y-112569221D01*
X127838506Y-112518575D01*
X127886966Y-112500500D01*
X137819746Y-112500500D01*
X137872072Y-112522174D01*
G37*
%TD.AperFunction*%
%TD*%
M02*
