%TF.GenerationSoftware,KiCad,Pcbnew,8.0.7*%
%TF.CreationDate,2025-03-09T23:38:14+01:00*%
%TF.ProjectId,HSSM-LVPCB,4853534d-2d4c-4565-9043-422e6b696361,rev?*%
%TF.SameCoordinates,Original*%
%TF.FileFunction,Legend,Bot*%
%TF.FilePolarity,Positive*%
%FSLAX46Y46*%
G04 Gerber Fmt 4.6, Leading zero omitted, Abs format (unit mm)*
G04 Created by KiCad (PCBNEW 8.0.7) date 2025-03-09 23:38:14*
%MOMM*%
%LPD*%
G01*
G04 APERTURE LIST*
%ADD10C,0.100000*%
%ADD11C,0.150000*%
%ADD12C,0.200000*%
%ADD13C,0.508000*%
G04 APERTURE END LIST*
D10*
X130850000Y-122575000D02*
X143025000Y-122575000D01*
X143025000Y-122850000D01*
X130850000Y-122850000D01*
X130850000Y-122575000D01*
G36*
X130850000Y-122575000D02*
G01*
X143025000Y-122575000D01*
X143025000Y-122850000D01*
X130850000Y-122850000D01*
X130850000Y-122575000D01*
G37*
D11*
X123280438Y-117441100D02*
X123187581Y-117479195D01*
X123187581Y-117479195D02*
X123032819Y-117479195D01*
X123032819Y-117479195D02*
X122970914Y-117441100D01*
X122970914Y-117441100D02*
X122939962Y-117403004D01*
X122939962Y-117403004D02*
X122909009Y-117326814D01*
X122909009Y-117326814D02*
X122909009Y-117250623D01*
X122909009Y-117250623D02*
X122939962Y-117174433D01*
X122939962Y-117174433D02*
X122970914Y-117136338D01*
X122970914Y-117136338D02*
X123032819Y-117098242D01*
X123032819Y-117098242D02*
X123156628Y-117060147D01*
X123156628Y-117060147D02*
X123218533Y-117022052D01*
X123218533Y-117022052D02*
X123249486Y-116983957D01*
X123249486Y-116983957D02*
X123280438Y-116907766D01*
X123280438Y-116907766D02*
X123280438Y-116831576D01*
X123280438Y-116831576D02*
X123249486Y-116755385D01*
X123249486Y-116755385D02*
X123218533Y-116717290D01*
X123218533Y-116717290D02*
X123156628Y-116679195D01*
X123156628Y-116679195D02*
X123001867Y-116679195D01*
X123001867Y-116679195D02*
X122909009Y-116717290D01*
X122289961Y-117479195D02*
X122661390Y-117479195D01*
X122475676Y-117479195D02*
X122475676Y-116679195D01*
X122475676Y-116679195D02*
X122537580Y-116793480D01*
X122537580Y-116793480D02*
X122599485Y-116869671D01*
X122599485Y-116869671D02*
X122661390Y-116907766D01*
X133558333Y-117937704D02*
X133558333Y-117366276D01*
X133558333Y-117366276D02*
X133527380Y-117251990D01*
X133527380Y-117251990D02*
X133465476Y-117175800D01*
X133465476Y-117175800D02*
X133372618Y-117137704D01*
X133372618Y-117137704D02*
X133310714Y-117137704D01*
X133836904Y-117861514D02*
X133867856Y-117899609D01*
X133867856Y-117899609D02*
X133929761Y-117937704D01*
X133929761Y-117937704D02*
X134084523Y-117937704D01*
X134084523Y-117937704D02*
X134146428Y-117899609D01*
X134146428Y-117899609D02*
X134177380Y-117861514D01*
X134177380Y-117861514D02*
X134208333Y-117785323D01*
X134208333Y-117785323D02*
X134208333Y-117709133D01*
X134208333Y-117709133D02*
X134177380Y-117594847D01*
X134177380Y-117594847D02*
X133805952Y-117137704D01*
X133805952Y-117137704D02*
X134208333Y-117137704D01*
X150880438Y-117541100D02*
X150787581Y-117579195D01*
X150787581Y-117579195D02*
X150632819Y-117579195D01*
X150632819Y-117579195D02*
X150570914Y-117541100D01*
X150570914Y-117541100D02*
X150539962Y-117503004D01*
X150539962Y-117503004D02*
X150509009Y-117426814D01*
X150509009Y-117426814D02*
X150509009Y-117350623D01*
X150509009Y-117350623D02*
X150539962Y-117274433D01*
X150539962Y-117274433D02*
X150570914Y-117236338D01*
X150570914Y-117236338D02*
X150632819Y-117198242D01*
X150632819Y-117198242D02*
X150756628Y-117160147D01*
X150756628Y-117160147D02*
X150818533Y-117122052D01*
X150818533Y-117122052D02*
X150849486Y-117083957D01*
X150849486Y-117083957D02*
X150880438Y-117007766D01*
X150880438Y-117007766D02*
X150880438Y-116931576D01*
X150880438Y-116931576D02*
X150849486Y-116855385D01*
X150849486Y-116855385D02*
X150818533Y-116817290D01*
X150818533Y-116817290D02*
X150756628Y-116779195D01*
X150756628Y-116779195D02*
X150601867Y-116779195D01*
X150601867Y-116779195D02*
X150509009Y-116817290D01*
X150261390Y-116855385D02*
X150230438Y-116817290D01*
X150230438Y-116817290D02*
X150168533Y-116779195D01*
X150168533Y-116779195D02*
X150013771Y-116779195D01*
X150013771Y-116779195D02*
X149951866Y-116817290D01*
X149951866Y-116817290D02*
X149920914Y-116855385D01*
X149920914Y-116855385D02*
X149889961Y-116931576D01*
X149889961Y-116931576D02*
X149889961Y-117007766D01*
X149889961Y-117007766D02*
X149920914Y-117122052D01*
X149920914Y-117122052D02*
X150292342Y-117579195D01*
X150292342Y-117579195D02*
X149889961Y-117579195D01*
X142380438Y-117916100D02*
X142287581Y-117954195D01*
X142287581Y-117954195D02*
X142132819Y-117954195D01*
X142132819Y-117954195D02*
X142070914Y-117916100D01*
X142070914Y-117916100D02*
X142039962Y-117878004D01*
X142039962Y-117878004D02*
X142009009Y-117801814D01*
X142009009Y-117801814D02*
X142009009Y-117725623D01*
X142009009Y-117725623D02*
X142039962Y-117649433D01*
X142039962Y-117649433D02*
X142070914Y-117611338D01*
X142070914Y-117611338D02*
X142132819Y-117573242D01*
X142132819Y-117573242D02*
X142256628Y-117535147D01*
X142256628Y-117535147D02*
X142318533Y-117497052D01*
X142318533Y-117497052D02*
X142349486Y-117458957D01*
X142349486Y-117458957D02*
X142380438Y-117382766D01*
X142380438Y-117382766D02*
X142380438Y-117306576D01*
X142380438Y-117306576D02*
X142349486Y-117230385D01*
X142349486Y-117230385D02*
X142318533Y-117192290D01*
X142318533Y-117192290D02*
X142256628Y-117154195D01*
X142256628Y-117154195D02*
X142101867Y-117154195D01*
X142101867Y-117154195D02*
X142009009Y-117192290D01*
X141792342Y-117154195D02*
X141389961Y-117154195D01*
X141389961Y-117154195D02*
X141606628Y-117458957D01*
X141606628Y-117458957D02*
X141513771Y-117458957D01*
X141513771Y-117458957D02*
X141451866Y-117497052D01*
X141451866Y-117497052D02*
X141420914Y-117535147D01*
X141420914Y-117535147D02*
X141389961Y-117611338D01*
X141389961Y-117611338D02*
X141389961Y-117801814D01*
X141389961Y-117801814D02*
X141420914Y-117878004D01*
X141420914Y-117878004D02*
X141451866Y-117916100D01*
X141451866Y-117916100D02*
X141513771Y-117954195D01*
X141513771Y-117954195D02*
X141699485Y-117954195D01*
X141699485Y-117954195D02*
X141761390Y-117916100D01*
X141761390Y-117916100D02*
X141792342Y-117878004D01*
X146214285Y-121436104D02*
X146245237Y-121474200D01*
X146245237Y-121474200D02*
X146338095Y-121512295D01*
X146338095Y-121512295D02*
X146399999Y-121512295D01*
X146399999Y-121512295D02*
X146492856Y-121474200D01*
X146492856Y-121474200D02*
X146554761Y-121398009D01*
X146554761Y-121398009D02*
X146585714Y-121321819D01*
X146585714Y-121321819D02*
X146616666Y-121169438D01*
X146616666Y-121169438D02*
X146616666Y-121055152D01*
X146616666Y-121055152D02*
X146585714Y-120902771D01*
X146585714Y-120902771D02*
X146554761Y-120826580D01*
X146554761Y-120826580D02*
X146492856Y-120750390D01*
X146492856Y-120750390D02*
X146399999Y-120712295D01*
X146399999Y-120712295D02*
X146338095Y-120712295D01*
X146338095Y-120712295D02*
X146245237Y-120750390D01*
X146245237Y-120750390D02*
X146214285Y-120788485D01*
X145811904Y-120712295D02*
X145688095Y-120712295D01*
X145688095Y-120712295D02*
X145626190Y-120750390D01*
X145626190Y-120750390D02*
X145564285Y-120826580D01*
X145564285Y-120826580D02*
X145533333Y-120978961D01*
X145533333Y-120978961D02*
X145533333Y-121245628D01*
X145533333Y-121245628D02*
X145564285Y-121398009D01*
X145564285Y-121398009D02*
X145626190Y-121474200D01*
X145626190Y-121474200D02*
X145688095Y-121512295D01*
X145688095Y-121512295D02*
X145811904Y-121512295D01*
X145811904Y-121512295D02*
X145873809Y-121474200D01*
X145873809Y-121474200D02*
X145935714Y-121398009D01*
X145935714Y-121398009D02*
X145966666Y-121245628D01*
X145966666Y-121245628D02*
X145966666Y-120978961D01*
X145966666Y-120978961D02*
X145935714Y-120826580D01*
X145935714Y-120826580D02*
X145873809Y-120750390D01*
X145873809Y-120750390D02*
X145811904Y-120712295D01*
X145254762Y-121512295D02*
X145254762Y-120712295D01*
X145254762Y-120712295D02*
X144883333Y-121512295D01*
X144883333Y-121512295D02*
X144883333Y-120712295D01*
X144233333Y-121512295D02*
X144604762Y-121512295D01*
X144419048Y-121512295D02*
X144419048Y-120712295D01*
X144419048Y-120712295D02*
X144480952Y-120826580D01*
X144480952Y-120826580D02*
X144542857Y-120902771D01*
X144542857Y-120902771D02*
X144604762Y-120940866D01*
D12*
%TO.C,S1*%
X120550000Y-112250000D02*
X120550000Y-112400000D01*
X120550000Y-115950000D02*
X120550000Y-115800000D01*
X125450000Y-112250000D02*
X120550000Y-112250000D01*
X125450000Y-112400000D02*
X125450000Y-112250000D01*
X125450000Y-115800000D02*
X125450000Y-115950000D01*
X125450000Y-115950000D02*
X120550000Y-115950000D01*
X124800000Y-115500000D02*
G75*
G02*
X124600000Y-115500000I-100000J0D01*
G01*
X124600000Y-115500000D02*
G75*
G02*
X124800000Y-115500000I100000J0D01*
G01*
D13*
%TO.C,J2*%
X129926494Y-117175000D02*
G75*
G02*
X129733504Y-117175000I-96495J0D01*
G01*
X129733504Y-117175000D02*
G75*
G02*
X129926494Y-117175000I96495J0D01*
G01*
D12*
%TO.C,S2*%
X148150000Y-112350000D02*
X148150000Y-112500000D01*
X148150000Y-116050000D02*
X148150000Y-115900000D01*
X153050000Y-112350000D02*
X148150000Y-112350000D01*
X153050000Y-112500000D02*
X153050000Y-112350000D01*
X153050000Y-115900000D02*
X153050000Y-116050000D01*
X153050000Y-116050000D02*
X148150000Y-116050000D01*
X152400000Y-115600000D02*
G75*
G02*
X152200000Y-115600000I-100000J0D01*
G01*
X152200000Y-115600000D02*
G75*
G02*
X152400000Y-115600000I100000J0D01*
G01*
%TO.C,S3*%
X139650000Y-112725000D02*
X139650000Y-112875000D01*
X139650000Y-116425000D02*
X139650000Y-116275000D01*
X144550000Y-112725000D02*
X139650000Y-112725000D01*
X144550000Y-112875000D02*
X144550000Y-112725000D01*
X144550000Y-116275000D02*
X144550000Y-116425000D01*
X144550000Y-116425000D02*
X139650000Y-116425000D01*
X143900000Y-115975000D02*
G75*
G02*
X143700000Y-115975000I-100000J0D01*
G01*
X143700000Y-115975000D02*
G75*
G02*
X143900000Y-115975000I100000J0D01*
G01*
%TD*%
M02*
